/* XPM */
static char *[] = {
/* columns rows colors chars-per-pixel */
"32 32 122 2",
"   c #002500190003",
".  c #0B0B05E60000",
"X  c #0BCC088900C1",
"o  c #131306870000",
"O  c #13A90BCC0000",
"+  c #1B1B0E4E0000",
"@  c #1D56144D00C8",
"#  c #189814940889",
"$  c #1D1D18180707",
"%  c #22F014E20000",
"&  c #23401A53008F",
"*  c #21211C720C0C",
"=  c #29541CF2002B",
"-  c #21211E1E1010",
";  c #2C2C21CC0000",
":  c #252520201010",
">  c #328825A50081",
",  c #34342A2A0505",
"<  c #3C3C2E2E0081",
"1  c #37372D2D1313",
"2  c #41412F2F0606",
"3  c #414132B3012C",
"4  c #4CCD39BA0000",
"5  c #4E4E3F3F0909",
"6  c #45453E3E1F1F",
"7  c #54543F3F0202",
"8  c #74743C3C0909",
"9  c #4C4C43431F1F",
"0  c #5AF446130033",
"q  c #5B5B48880000",
"w  c #535347471C1C",
"e  c #585849492525",
"r  c #5B5B52523131",
"t  c #65654F4F0182",
"y  c #666651A70000",
"u  c #6BC155550000",
"i  c #696957570E0E",
"p  c #6A6A58580000",
"a  c #646455551212",
"s  c #75CB5E5E0000",
"d  c #717152521515",
"f  c #75F660E10485",
"g  c #7B0D648901DD",
"h  c #7A7A67670A0A",
"j  c #7CFD69690283",
"k  c #7B7B69690808",
"l  c #7C7C62621E1E",
"z  c #7D7D75755757",
"x  c #919134340000",
"c  c #949439390000",
"v  c #A2A236360101",
"b  c #9D9D48480505",
"n  c #93935A5A2222",
"m  c #93935DDE33B4",
"M  c #83836B6B0000",
"N  c #8B8B6D6D0000",
"B  c #82826C6C1111",
"V  c #8B24750E0269",
"C  c #8C8C77770A0A",
"Z  c #8F8F78780A0A",
"A  c #93136CED0D0D",
"S  c #909061611C1C",
"D  c #909077770909",
"F  c #909079790000",
"G  c #94947E7E1B1B",
"H  c #85857E7E2323",
"J  c #838371713737",
"K  c #8E8E7F7F3F3F",
"L  c #909076762A2A",
"P  c #A6A67E7E4B4B",
"I  c #969685850202",
"U  c #979785850A0A",
"Y  c #9B5284840396",
"T  c #99EF84DA0AB5",
"R  c #9D9D88880404",
"E  c #A2A28D70033C",
"W  c #A1A18B0B0E0E",
"Q  c #A3238D0D1596",
"!  c #A0A089891C1C",
"~  c #A5A590900404",
"^  c #AAAA95950505",
"/  c #A9A992920C0C",
"(  c #AFAF9A9A0E0E",
")  c #A7A790901313",
"_  c #AAAA94941A9A",
"`  c #B1319C1C1192",
"'  c #BB659CF21B71",
"]  c #A62691112222",
"[  c #ABAB94942222",
"{  c #B3B39D9D2626",
"}  c #B6B6A1A11515",
"|  c #B8B8A2A21313",
" . c #BA64A4A41919",
".. c #BBBBACAC1919",
"X. c #BABAA2A22222",
"o. c #BBBBA8A82727",
"O. c #9E9E8C8C4747",
"+. c #B8B8A5A55C5C",
"@. c #BBBBAEAE7979",
"#. c #C3C3AEAE1F1F",
"$. c #CECEB7B71F1F",
"%. c #C1C1ACAC2626",
"&. c #C0C0A9A92929",
"*. c #C5C5B2B22323",
"=. c #CCCCB5B52222",
"-. c #CAF5B6602BAB",
";. c #CE9BB9B92C93",
":. c #D393BC7C2E2E",
">. c #D1D1BABA3131",
",. c #D6D6C1C12B2B",
"<. c #D7D7C1C13232",
"1. c #DC31C2173389",
"2. c #DEDEC9C93737",
"3. c #E1E1C7C73535",
"4. c #E3E3D1D13737",
"5. c #E6E6D1D1388E",
"6. c #E9E9D1D13A3A",
"7. c #FCFCEB6B45C6",
"8. c #B9B9B1B18D8D",
"9. c #DEDECECE9191",
"0. c #F4F4E3E39E9E",
"q. c #EEEEE1E1B0B0",
/* pixels */
"                                                                ",
"                                                                ",
"                                                                ",
"                                                                ",
"                                                                ",
"                                                                ",
"                                                                ",
"                                                                ",
"                                                                ",
"                                                                ",
"                                                                ",
"                                                                ",
"                        X ; = , , .                             ",
"                      & g Y  .:.:.G =                           ",
"                    > j ^ %.:.-.;.5.3.5                         ",
"                  O s E ` -.;.:.-.%.5.1.@                       ",
"                . t Y E ` >. .*.5.:.-.7.a                       ",
"                < V E ^ E ..b v ' 4.-.7.[ X                     ",
"              @ s V E E E I N c x ' -.6.1.@                     ",
"              % j j V R Y 8 l H B Y %.2.1.&                     ",
"o O = o       = M C Q Y E A n m P L U } ) @                     ",
"  . o @ O + % 0 g T T } #.k f A S m d q >                       ",
"            O > 3 f _ { { =   3 j q +                           ",
"      ; 2 > k } u u V i 2 % @ . 4 g X .                         ",
"      > M Y $.W j E _ o.] ; X + = 0 q t &                       ",
"      . 3 q q 4 g ( :.Q :.&.$   .   = W [ % % o   X 6 *         ",
"              @ F ,.] y Y =.<       & g k O X @ @ o e 8.r .     ",
"              & W >.0 u Y C ;         X .       # 1 J 0.q.z -   ",
"            O u  .! O O q D ,                 . $ 9 O.O.+.9.@.w ",
"            . y | _ 3   . 3 O                       . # # $ : $ ",
"              & u V f .                                         ",
"                  q <                                           "
};
