/* XPM */
static char *[] = {
/* columns rows colors chars-per-pixel */
"32 32 253 2",
"   c black",
".  c #000000000101",
"X  c #010100000000",
"o  c #010101010000",
"O  c #010101010101",
"+  c #010102020101",
"@  c #020201010000",
"#  c #020202020000",
"$  c #020202020101",
"%  c #030302020000",
"&  c #040401010000",
"*  c #040403030000",
"=  c #070701010000",
"-  c #060605050000",
";  c #090903030000",
":  c #080805050000",
">  c #090905050000",
",  c #080806060000",
"<  c #0A0A07070000",
"1  c #0D0D03030000",
"2  c #0B0B08080000",
"3  c #0A0A0A0A0404",
"4  c #0E0E08080000",
"5  c #0F0F0B0B0000",
"6  c #11110B0B0000",
"7  c #12120C0C0000",
"8  c #13130D0D0000",
"9  c #13130E0E0000",
"0  c #14140E0E0000",
"q  c #181806060000",
"w  c #1A1A0F0F0000",
"e  c #1E1E0E0E0000",
"r  c #1B1B12120000",
"t  c #1A1A14140000",
"y  c #1C1C14140000",
"u  c #1C1C15150000",
"i  c #1D1D14140000",
"p  c #1C1C16160000",
"a  c #1E1E16160000",
"s  c #1F1F16160000",
"d  c #1B1B19190B0B",
"f  c #212114140000",
"g  c #242419190000",
"h  c #262619190000",
"j  c #242418180505",
"k  c #24241C1C0000",
"l  c #24241D1D0101",
"z  c #26261D1D0000",
"x  c #24241F1F0C0C",
"c  c #29291B1B0000",
"v  c #28281D1D0000",
"b  c #2C2C1A1A0101",
"n  c #37371B1B0000",
"m  c #2C2C20200000",
"M  c #2D2D21210000",
"N  c #2D2D23230303",
"B  c #2C2C27271212",
"V  c #313124240000",
"C  c #323225250000",
"Z  c #333327270000",
"A  c #3A3A2A2A0000",
"S  c #3B3B2C2C0000",
"D  c #3E3E2F2F0000",
"F  c #31312B2B1414",
"G  c #3B3B32321919",
"H  c #3A3A35351F1F",
"J  c #3C3C36361F1F",
"K  c #414131310000",
"L  c #414132320000",
"P  c #424232320000",
"I  c #414133330505",
"U  c #454534340000",
"Y  c #464635350000",
"T  c #454536360505",
"R  c #4C4C3A3A0000",
"E  c #4D4D3C3C0000",
"W  c #4F4F3C3C0000",
"Q  c #4F4F3E3E0000",
"!  c #424238381818",
"~  c #51513F3F0000",
"^  c #55553D3D1D1D",
"/  c #45453D3D2121",
"(  c #757527270808",
")  c #747436360D0D",
"_  c #535340400000",
"`  c #545443430000",
"'  c #545444440303",
"]  c #595946460000",
"[  c #5A5A44440000",
"{  c #5A5A46460000",
"}  c #5B5B47470000",
"|  c #5A5A49490000",
" . c #5C5C4A4A0000",
".. c #5F5F4A4A0000",
"X. c #5F5F4D4D0000",
"o. c #494940402121",
"O. c #59594F4F2424",
"+. c #53534E4E3B3B",
"@. c #5D5D52522626",
"#. c #61614D4D0707",
"$. c #606050500000",
"%. c #666650500000",
"&. c #696951510202",
"*. c #686856560000",
"=. c #696954540606",
"-. c #6B6B56560909",
";. c #70705B5B0303",
":. c #71715B5B0A0A",
">. c #67675C5C2020",
",. c #767660600000",
"<. c #767662620000",
"1. c #767660600707",
"2. c #777760600606",
"3. c #787861610000",
"4. c #7B7B63630000",
"5. c #7A7A65650101",
"6. c #7F7F6A6A0000",
"7. c #7F7F69690A0A",
"8. c #7E7E6B6B0909",
"9. c #7F7F6A6A0B0B",
"0. c #767666661212",
"q. c #7A7A68681313",
"w. c #7B7B67672727",
"e. c #5A5A55554343",
"r. c #88883C3C0000",
"t. c #8B8B3E3E0808",
"y. c #91912B2B0000",
"u. c #9E9E39391D1D",
"i. c #A6A632320000",
"p. c #8C8C4C4C2A2A",
"a. c #95955B5B2F2F",
"s. c #82826A6A0000",
"d. c #82826B6B0000",
"f. c #82826C6C0000",
"g. c #83836C6C0000",
"h. c #82826D6D0303",
"j. c #87876F6F0101",
"k. c #838369690A0A",
"l. c #80806B6B1313",
"z. c #898965651A1A",
"x. c #838372720606",
"c. c #848473730303",
"v. c #878770700000",
"b. c #868670700303",
"n. c #878770700D0D",
"m. c #878770700F0F",
"M. c #878774740C0C",
"N. c #888871710000",
"B. c #898972720000",
"V. c #8A8A74740303",
"C. c #8A8A75750202",
"Z. c #8D8D75750101",
"A. c #888871710808",
"S. c #8F8F79790202",
"D. c #8F8F7A7A0E0E",
"F. c #8D8D79791A1A",
"G. c #909079790000",
"H. c #92927D7D0101",
"J. c #93937F7F0707",
"K. c #96967D7D0101",
"L. c #97977F7F0202",
"P. c #8C8C62622E2E",
"I. c #868677773D3D",
"U. c #8B8B7B7B3333",
"Y. c #A9A94B4B2929",
"T. c #A5A573734141",
"R. c #989882820101",
"E. c #9D9D87870303",
"W. c #9A9A84840A0A",
"Q. c #9D9D86860808",
"!. c #9E9E89890202",
"~. c #9F9F8A8A0303",
"^. c #959581811F1F",
"/. c #999981811111",
"(. c #9B9B85851111",
"). c #9C9C86861212",
"_. c #9E9E89891818",
"`. c #9F9F89891818",
"'. c #939385852C2C",
"]. c #A1A18C8C0202",
"[. c #A0A08E8E0202",
"{. c #A3A38E8E0303",
"}. c #A3A38E8E0404",
"|. c #A6A68E8E0707",
" X c #A2A28D8D1717",
".X c #A4A48F8F1111",
"XX c #A5A58F8F1D1D",
"oX c #ACAC87871010",
"OX c #A5A591910303",
"+X c #A4A490900505",
"@X c #A5A590900404",
"#X c #A6A691910404",
"$X c #A6A691910505",
"%X c #A6A692920505",
"&X c #A7A792920505",
"*X c #A5A590900E0E",
"=X c #A9A993930E0E",
"-X c #ADAD98980D0D",
";X c #ADAD99990F0F",
":X c #ADAD97971717",
">X c #AFAF9A9A1212",
",X c #B5B59E9E0A0A",
"<X c #B4B49F9F1414",
"1X c #B3B39D9D1D1D",
"2X c #A5A591912222",
"3X c #A8A893932525",
"4X c #B5B5A0A01717",
"5X c #BABAA3A31717",
"6X c #B9B9A2A21C1C",
"7X c #BBBBA6A61B1B",
"8X c #BCBCA7A71A1A",
"9X c #B5B5A0A02727",
"0X c #B6B6A1A12727",
"qX c #B7B7A2A22525",
"wX c #BABAA4A42121",
"eX c #BCBCA4A42828",
"rX c #8B8B80805454",
"tX c #95958A8A4242",
"yX c #A4A48E8E5B5B",
"uX c #A6A695954C4C",
"iX c #A6A695954D4D",
"pX c #C0C09D9D1D1D",
"aX c #C3C3B4B41E1E",
"sX c #C0C0ABAB2525",
"dX c #C2C2ACAC2222",
"fX c #C5C5B0B02323",
"gX c #C9C9B4B42A2A",
"hX c #CACAB5B52A2A",
"jX c #CCCCB6B62A2A",
"kX c #CCCCB6B62C2C",
"lX c #CCCCB8B82B2B",
"zX c #CFCFB8B82A2A",
"xX c #CFCFB9B92E2E",
"cX c #CECEBCBC2E2E",
"vX c #D0D0B9B92E2E",
"bX c #D0D0BABA2E2E",
"nX c #D1D1BABA2E2E",
"mX c #D2D2BCBC2F2F",
"MX c #D9D9C3C32F2F",
"NX c #D9D9C4C43333",
"BX c #E4E4CDCD2F2F",
"VX c #E0E0C6C63434",
"CX c #E0E0CCCC3838",
"ZX c #E7E7D4D43939",
"AX c #E9E9D2D23838",
"SX c #F3F3DCDC3E3E",
"DX c #F4F4DBDB4040",
"FX c #FBFBE5E54444",
"GX c #FCFCE5E54343",
"HX c #B7B7ACAC8080",
"JX c #CACAC0C09494",
"KX c #DDDDCFCF9696",
"LX c #FFFFF4F4B4B4",
/* pixels */
"                                                                ",
"                                                                ",
"                                                                ",
"                                                                ",
"                                                                ",
"                                                                ",
"                                                                ",
"                                                                ",
"                                                                ",
"                                                                ",
"                                                                ",
"                                                                ",
"                      s W } -.T                                 ",
"                  2 L d.*XdXjXbXF.N                             ",
"                  D K.OXfXxXgXlXAXVXT                           ",
"                z B.+X].7XcXbXkXsXSXeX9                         ",
"              Z ;.].+X}.&XoXaXAXbXNXDX#.                        ",
"              } R.&X{.&X}.y.i.1XCXmXGXl.              -   $     ",
"            s ,.K.].&XE.c.k.t.r.5XgXFX3X                        ",
"            R d.Z.-X&XZ.) P.tXU.^..XBX2X          d o.e.+.J J o.",
"            ~ h.W.qX;XB.z.p.u.a.yXw.j.1.z   > - 1 b G JXLXKXHXrX",
"            ..j.(.0XMX=Xx.'.T.Y.( :...;._.9 e s ; j ! iXiXI.F   ",
"          - *.,X(.wX0XgXV.=.>.^ n s c j.Q.t     3 O.@.B x -     ",
"    s R r } <.8.0.M.1X' z     5     5 z r                       ",
"q f w Y L W X.W $.J. Xk.z                                       ",
"= 5   > ` | } %.,.h.:XvXq.                                      ",
"              _ S.h.d.4Xm.>                                     ",
"            D Z.7X9.V.6X/.Z                                     ",
"          s 5.<XXXM 0 Z =.0                                     ",
"          Y L.>XD.k.z   0                                       ",
"          = L A. X:.M                                           ",
"                h A                                             "
};
