/* XPM */
static char *[] = {
/* columns rows colors chars-per-pixel */
"32 32 254 2",
"   c black",
".  c #000000000101",
"X  c #000001010000",
"o  c #010100000000",
"O  c #010101010000",
"+  c #010101010101",
"@  c #010102020000",
"#  c #020200000000",
"$  c #020201010000",
"%  c #030301010000",
"&  c #020202020000",
"*  c #020202020101",
"=  c #050500000000",
"-  c #040403030000",
";  c #050503030000",
":  c #060605050101",
">  c #070705050000",
",  c #060606060303",
"<  c #080802020000",
"1  c #090903030000",
"2  c #0B0B00000000",
"3  c #080805050000",
"4  c #080806060000",
"5  c #0B0B04040000",
"6  c #0B0B07070000",
"7  c #0C0C07070000",
"8  c #0C0C08080000",
"9  c #0D0D08080000",
"0  c #0E0E09090000",
"q  c #0F0F0A0A0000",
"w  c #161607070000",
"e  c #10100B0B0000",
"r  c #11110B0B0000",
"t  c #14140F0F0000",
"y  c #16160F0F0000",
"u  c #181807070000",
"i  c #181808080000",
"p  c #1F1F0D0D0000",
"a  c #111110100707",
"s  c #171710100000",
"d  c #171711110000",
"f  c #171711110202",
"g  c #141413130C0C",
"h  c #181811110000",
"j  c #191912120000",
"k  c #1B1B13130000",
"l  c #1B1B14140000",
"z  c #1C1C18180909",
"x  c #242414140000",
"c  c #252517170000",
"v  c #262617170000",
"b  c #232319190000",
"n  c #22221B1B0303",
"m  c #252518180000",
"M  c #24241C1C0000",
"N  c #23231E1E0D0D",
"B  c #292918180000",
"V  c #2B2B1C1C0000",
"C  c #2B2B1F1F0000",
"Z  c #2C2C1A1A0000",
"A  c #2D2D1B1B0000",
"S  c #2E2E1E1E0000",
"D  c #272722220E0E",
"F  c #2A2A21210000",
"G  c #2B2B21210202",
"H  c #2E2E21210000",
"J  c #252521211010",
"K  c #323224240000",
"L  c #303026260404",
"P  c #353527270000",
"I  c #343428280202",
"U  c #35352A2A0808",
"Y  c #3B3B26260C0C",
"T  c #38382A2A0000",
"R  c #3A3A2D2D0000",
"E  c #3B3B2D2D0000",
"W  c #38382C2C0404",
"Q  c #43432F2F0000",
"!  c #404030300000",
"~  c #414132320000",
"^  c #444433330000",
"/  c #444432320404",
"(  c #454534340202",
")  c #474736360000",
"_  c #4A4A37370000",
"`  c #4C4C37370000",
"'  c #494938380000",
"]  c #4D4D3C3C0000",
"[  c #4C4C3E3E0101",
"{  c #4C4C3F3F0606",
"}  c #434330301515",
"|  c #47473E3E1C1C",
" . c #50503D3D0000",
".. c #55553F3F0000",
"X. c #43433E3E2B2B",
"o. c #797930301313",
"O. c #535340400505",
"+. c #565643430000",
"@. c #525242420A0A",
"#. c #535343430A0A",
"$. c #575748480000",
"%. c #595946460000",
"&. c #5C5C47470000",
"*. c #5E5E47470000",
"=. c #5B5B48480000",
"-. c #5D5D4C4C0404",
";. c #5F5F4D4D0505",
":. c #5B5B4B4B0D0D",
">. c #505042421919",
",. c #5E5E51510909",
"<. c #54544B4B2727",
"1. c #64644F4F0000",
"2. c #606050500E0E",
"3. c #6A6A54540000",
"4. c #6E6E5A5A0000",
"5. c #797945450C0C",
"6. c #71715A5A0000",
"7. c #71715C5C0000",
"8. c #73735D5D0000",
"9. c #74745D5D0000",
"0. c #76765D5D0000",
"q. c #76765F5F0000",
"w. c #67675C5C2A2A",
"e. c #69695F5F3C3C",
"r. c #797963630101",
"t. c #7A7A63630000",
"y. c #7B7B66660000",
"u. c #7D7D67670000",
"i. c #7D7D67670D0D",
"p. c #7F7F68680000",
"a. c #7F7F68680303",
"s. c #7C7C6E6E3636",
"d. c #787869694343",
"f. c #7F7F72724040",
"g. c #85853B3B0000",
"h. c #969638380000",
"j. c #A1A133330000",
"k. c #8E8E40400909",
"l. c #84845C5C2E2E",
"z. c #999955552E2E",
"x. c #818169690000",
"c. c #80806B6B0000",
"v. c #81816B6B0101",
"b. c #82826A6A0000",
"n. c #80806A6A0707",
"m. c #82826D6D0000",
"M. c #85856D6D0000",
"N. c #84846D6D0202",
"B. c #85856F6F0000",
"V. c #808069690C0C",
"C. c #83836D6D0808",
"Z. c #89896E6E0909",
"A. c #81816B6B1414",
"S. c #878770700303",
"D. c #888870700101",
"F. c #898972720000",
"G. c #8A8A75750000",
"H. c #8A8A77770D0D",
"J. c #8E8E7A7A0000",
"K. c #8B8B78780B0B",
"L. c #838370701515",
"P. c #868673731616",
"I. c #91917A7A0000",
"U. c #929279790101",
"Y. c #93937E7E0303",
"T. c #93937D7D0505",
"R. c #91917B7B0808",
"E. c #93937C7C0A0A",
"W. c #92927D7D1C1C",
"Q. c #99997C7C1616",
"!. c #848471712B2B",
"~. c #929263632424",
"^. c #979763633A3A",
"/. c #9E9E70702525",
"(. c #959580800101",
"). c #949481810404",
"_. c #959581810707",
"`. c #969682820A0A",
"'. c #989882820101",
"]. c #989882820303",
"[. c #9A9A85850101",
"{. c #9B9B85850808",
"}. c #9C9C86860C0C",
"|. c #9E9E89890202",
" X c #9B9B82821212",
".X c #9B9B85851616",
"XX c #999984841E1E",
"oX c #929281813737",
"OX c #A3A38E8E0303",
"+X c #A1A18C8C0404",
"@X c #A0A08C8C0707",
"#X c #A4A48F8F0404",
"$X c #A5A58E8E0404",
"%X c #A2A28C8C0D0D",
"&X c #A4A48F8F1414",
"*X c #A3A391910303",
"=X c #A5A590900505",
"-X c #A5A590900F0F",
";X c #ABAB97970909",
":X c #AFAF99991111",
">X c #AEAE9A9A1010",
",X c #B0B09B9B0E0E",
"<X c #B0B09B9B0F0F",
"1X c #B1B190901818",
"2X c #B6B69F9F1616",
"3X c #B0B09B9B1C1C",
"4X c #A7A790902121",
"5X c #B5B5A0A01515",
"6X c #B6B6A0A01414",
"7X c #BBBBA4A41B1B",
"8X c #BCBCA6A62929",
"9X c #959586864242",
"0X c #989888884545",
"qX c #8E8E85856464",
"wX c #A8A88E8E5C5C",
"eX c #A3A391914949",
"rX c #A6A69A9A6E6E",
"tX c #C0C09E9E1D1D",
"yX c #C0C0A9A92222",
"uX c #C2C2ADAD2727",
"iX c #C2C2AFAF2626",
"pX c #C4C4ADAD2222",
"aX c #C3C3B6B62222",
"sX c #C5C5B0B02323",
"dX c #C7C7B3B32A2A",
"fX c #C7C7B0B02D2D",
"gX c #C9C9B1B12727",
"hX c #CECEB7B72626",
"jX c #C9C9B3B32B2B",
"kX c #C9C9B5B52A2A",
"lX c #CACAB5B52B2B",
"zX c #CBCBB6B62D2D",
"xX c #CCCCB3B32D2D",
"cX c #CCCCB5B52929",
"vX c #CFCFB9B92D2D",
"bX c #CFCFBBBB2C2C",
"nX c #CECEBCBC2D2D",
"mX c #CFCFB8B83030",
"MX c #D1D1BCBC2D2D",
"NX c #D2D2BCBC3030",
"BX c #D3D3BDBD3030",
"VX c #C8C8B9B97E7E",
"CX c #D8D8C1C12F2F",
"ZX c #DBDBC6C63434",
"AX c #DCDCC9C93535",
"SX c #E7E7D3D33A3A",
"DX c #E8E8D1D13333",
"FX c #ECECD6D63B3B",
"GX c #F2F2D7D73C3C",
"HX c #F6F6DFDF3F3F",
"JX c #FBFBE6E64444",
"KX c #FDFDE5E54343",
"LX c #DDDDCECE8F8F",
"PX c #F6F6E6E6A5A5",
/* pixels */
"                                                                ",
"                                                                ",
"                                                                ",
"                                                                ",
"                                                                ",
"                                                                ",
"                                                                ",
"                                                                ",
"                                                                ",
"                                                                ",
"                                                                ",
"                                                                ",
"                                                                ",
"                                                                ",
"                                                                ",
"                        s I W k                                 ",
"                    I 8.&XlXCXfXA.k                             ",
"                  P M.,XvXlXdXMXFXxXG                           ",
"                y 8.[.>XxXnXNXjXuXHX4Xr                         ",
"              7 3.(.*X#X6X1XsXSXvXZXGXL                         ",
"            ; ~ F.|.*X*X*Xh.h.yXAXBXKX2.                        ",
"            k 0.G.|.$X=X).Z.h.g.6XkXJXXX                        ",
"            l p.N.{.;X].5.l.9XoXW.-XDXXX  ;             :       ",
"            M N.u.3XpXY. X/.z.^.wX!.T.;.          a g           ",
"1 1 7 r r q +.I.N..X8X8X*.K.Q.~.o.Y n ..n ; 4 r k >.d.qXX.4 4   ",
"w w B C x A / { $.}.L.U i c R ,./ A Q 7XP.2 p C c x } LXPXVXrX<.",
"    E %.[ H.uX`.J._.C.G -   s _ 6.r.%.N.;.    , | w.0XeXs.f.e.J ",
"    k 1.I.%XT.0.N.|.gX@.    q : s k 7 y 4     4 J N z z         ",
"      r ~ 0.y.N.r.p.6XmX:.@.V. .                                ",
"        k N.>Xn.] _ 6.:XhXpXn.H                       :         ",
"        : _ E.i.    b *.].S.H                                   ",
"            _ ~ ;       ..K                                     "
};
