/* XPM */
static char *[] = {
/* columns rows colors chars-per-pixel */
"32 32 127 2",
"   c #0016000F0001",
".  c #0A9D04BC0000",
"X  c #0D8D0A0A0141",
"o  c #131306060000",
"O  c #13940C8D0067",
"+  c #181807070000",
"@  c #19C408B30000",
"#  c #171711110000",
"$  c #151512120808",
"%  c #1B1B12E00000",
"&  c #1D1D18180707",
"*  c #20BA15E30000",
"=  c #247A1A9A0000",
"-  c #21A21D1D0C0C",
";  c #2A0D1B710000",
":  c #23231F1F1010",
">  c #262621210F0F",
",  c #2BAC21610081",
"<  c #2B2B26261313",
"1  c #292926261A1A",
"2  c #2B2B29291E1E",
"3  c #32B326A70182",
"4  c #363629290101",
"5  c #3B3B2D2D00AB",
"6  c #32322A2A1212",
"7  c #3F3F31310000",
"8  c #42422A2A0101",
"9  c #459B34DF0056",
"0  c #444436360909",
"q  c #464638380404",
"w  c #484837370000",
"e  c #4AB138D20067",
"r  c #4C4C3A3A0C0C",
"t  c #45453D3D1A1A",
"y  c #52523EBF0000",
"u  c #55BC420F0033",
"i  c #595946460000",
"p  c #5DDE4B0B0081",
"a  c #5F5F4E4E0C0C",
"s  c #55554B4B2424",
"d  c #59594C4C2020",
"f  c #585852523A3A",
"g  c #61614D4D0000",
"h  c #63E452520101",
"j  c #6C6C55D60000",
"k  c #6D6D58580303",
"l  c #7C7C4D4D0606",
"z  c #737356560505",
"x  c #74745CDD0081",
"c  c #7B7B57570303",
"v  c #68685A5A2626",
"b  c #666657573333",
"n  c #71F261610384",
"m  c #7BD165650056",
"M  c #7E7E6A6A0384",
"N  c #7AD0661012BD",
"B  c #7D7D61611E1E",
"V  c #7E7E68681212",
"C  c #7E7E76761111",
"Z  c #6F6F64643A3A",
"A  c #9A9A24240000",
"S  c #979736360101",
"D  c #919157572A2A",
"F  c #838367670707",
"G  c #822C6AEA022D",
"H  c #8A8A62620F0F",
"J  c #838370700202",
"K  c #8A2A72D20222",
"L  c #88DE73C90AB5",
"P  c #8E8E78780081",
"I  c #919166660D0D",
"U  c #94946C6C0000",
"Y  c #92927BFC0182",
"T  c #92927F7F0808",
"R  c #9E9E7C7C0404",
"E  c #93137CFD1494",
"W  c #8A8A77772121",
"Q  c #979764642626",
"!  c #A3A34E4E0505",
"~  c #A6A666660F0F",
"^  c #A2A26A6A3F3F",
"/  c #9B9B6B6B4040",
"(  c #9C69861F0269",
")  c #9B9B852F0CB7",
"_  c #9E9E89890E0E",
"`  c #A3A38E3803D9",
"'  c #A4238F0F0B8C",
"]  c #A3A38E8E1414",
"[  c #A7A78E8E1D1D",
"{  c #A42392920404",
"}  c #ABAB97970A0A",
"|  c #ADAD98980E0E",
" . c #A8A895951010",
".. c #A8A893931919",
"X. c #AFAF99991B1B",
"o. c #B2B29C9C1C72",
"O. c #A6A68E8E2222",
"+. c #A9A994942525",
"@. c #B5B59E9E2121",
"#. c #BABAA5A51616",
"$. c #BD3DA6A62626",
"%. c #9C9C80804444",
"&. c #AAAA9F9F7676",
"*. c #B8B8A6A65C5C",
"=. c #C318AC561BC6",
"-. c #C443B2321D9E",
";. c #CDCDB8B81B1B",
":. c #C0C0A5A52121",
">. c #C45DAE7B2424",
",. c #C302AC2C2A6A",
"<. c #C4C4B0B02525",
"1. c #C6C6B20728D3",
"2. c #C9C9B3B32323",
"3. c #CB5DB5DA2B06",
"4. c #CE34BAED2C5F",
"5. c #D3D3BEBE2F2F",
"6. c #DC5CC4C43535",
"7. c #E0E0CBCB3737",
"8. c #E6E6D2D23939",
"9. c #E993D17B398F",
"0. c #F0F0DADA3D3D",
"q. c #F9F9E1E14242",
"w. c #FDFDE8E84444",
"e. c #B7B7ADAD8585",
"r. c #CACABEBE8D8D",
"t. c #DDDDCBCB8686",
"y. c #DDDDD0D09A9A",
/* pixels */
"                                                                ",
"                                                                ",
"                                                                ",
"                                                                ",
"                                                                ",
"                                                                ",
"                                                                ",
"                                                                ",
"                                                                ",
"                                                                ",
"                                                                ",
"                                                                ",
"                                                                ",
"                                                                ",
"                        O ; ; =                                 ",
"                      7 m ) o.$.g X                             ",
"                  . h ( #.4.4.6.9.,.3                           ",
"                  9 ( } 1.3.1.3.1.0.,.&                         ",
"                7 P { | 4.<.4.6.4.3.q.N                         ",
"              4 m ( { { $.~ ! >.9.3.w.+.                        ",
"              u K ( { ` { U A S :.3.9.6.*                       ",
"            X j K P ( ` l V C c R 3.6.9.;                       ",
"            = M M L >. .I D / %.W ' -.=.;                       ",
"            e G m X.,.2.T F H Q ^ B h i X                       ",
"@ @ ; ; o . y K P ..,.3.q , h M z 8                             ",
". . O % o ; w u e L $.V ; . % u T n 5 4           X             ",
"    % x p ] $.p n J ) V r + * + 9 k ) @.% . O O   t Z 2         ",
"    . y K _ F P ;.o.j ' >.3 % e   O m L % + ; ; @ ; b r.e.f O   ",
"        , p G >.[ 0 , G #.O.E F =   % O         6 d v *.t.y.&.s ",
"        # K o.E #     e ( =.L %                 $ > < > - - 2 > ",
"        . 9 K p       . e u ;                                   ",
"            y 5                                                 "
};
