/* XPM */
static char *[] = {
/* columns rows colors chars-per-pixel */
"32 32 250 2",
"   c black",
".  c #000000000101",
"X  c #010100000000",
"o  c #010101010000",
"O  c #010101010101",
"+  c #020200000000",
"@  c #020201010000",
"#  c #020202020000",
"$  c #020202020101",
"%  c #030302020000",
"&  c #050500000000",
"*  c #050504040000",
"=  c #060604040000",
"-  c #060605050101",
";  c #060605050303",
":  c #060606060303",
">  c #090900000000",
",  c #080802020000",
"<  c #090906060000",
"1  c #080807070202",
"2  c #0A0A04040000",
"3  c #0B0B06060000",
"4  c #0C0C07070000",
"5  c #0C0C09090000",
"6  c #0D0D09090000",
"7  c #0F0F0A0A0000",
"8  c #151506060000",
"9  c #161606060000",
"0  c #10100B0B0000",
"q  c #11110B0B0000",
"w  c #11110C0C0000",
"e  c #12120D0D0000",
"r  c #12120E0E0000",
"t  c #1B1B0B0B0000",
"y  c #1C1C0C0C0000",
"u  c #171711110000",
"i  c #171711110202",
"p  c #181811110000",
"a  c #191912120000",
"s  c #1B1B13130000",
"d  c #1C1C15150000",
"f  c #1C1C16160000",
"g  c #1E1E16160000",
"h  c #1D1D18180909",
"j  c #1E1E19190A0A",
"k  c #222214140000",
"l  c #222216160000",
"z  c #242415150202",
"x  c #242417170000",
"c  c #21211A1A0303",
"v  c #222218180000",
"b  c #27271A1A0000",
"n  c #27271B1B0000",
"m  c #23231E1E0D0D",
"M  c #292919190000",
"N  c #2A2A1F1F0000",
"B  c #2C2C1B1B0000",
"V  c #2D2D1C1C0000",
"C  c #2F2F1F1F0000",
"Z  c #262621210E0E",
"A  c #2A2A20200101",
"S  c #2D2D21210000",
"D  c #2C2C22220303",
"F  c #282823230F0F",
"G  c #313127270202",
"H  c #313127270404",
"J  c #343426260000",
"K  c #363629290000",
"L  c #353528280707",
"P  c #3B3B25250C0C",
"I  c #38382A2A0000",
"U  c #39392B2B0000",
"Y  c #38382D2D0505",
"T  c #3B3B35351A1A",
"R  c #40402E2E1616",
"E  c #414131310000",
"W  c #434330300000",
"Q  c #424233330202",
"!  c #424231310505",
"~  c #424234340505",
"^  c #424235350404",
"/  c #4A4A38380404",
"(  c #4C4C3F3F0808",
")  c #42423B3B1B1B",
"_  c #51513E3E0000",
"`  c #52523F3F0000",
"'  c #54543F3F0000",
"]  c #43433E3E2A2A",
"[  c #7A7A31311515",
"{  c #484840401D1D",
"}  c #515142420000",
"|  c #535340400505",
" . c #575742420000",
".. c #595943430000",
"X. c #5A5A47470000",
"o. c #5B5B47470000",
"O. c #5C5C45450000",
"+. c #585849490202",
"@. c #5A5A4D4D0707",
"#. c #5D5D48480000",
"$. c #5D5D4B4B0303",
"%. c #5D5D4B4B0404",
"&. c #575747471B1B",
"*. c #53534A4A2525",
"=. c #61614B4B0000",
"-. c #62624D4D0000",
";. c #63634D4D0000",
":. c #63634F4F0000",
">. c #666650500000",
",. c #616152520E0E",
"<. c #6A6A54540000",
"1. c #6D6D54540000",
"2. c #7A7A48480C0C",
"3. c #73735C5C0000",
"4. c #73735E5E0000",
"5. c #74745E5E0000",
"6. c #67675D5D3636",
"7. c #777761610000",
"8. c #777761610404",
"9. c #7E7E65650000",
"0. c #7E7E68680000",
"q. c #7E7E68680101",
"w. c #7F7F69690101",
"e. c #7F7F6A6A0000",
"r. c #7F7F6B6B0909",
"t. c #7C7C6B6B1313",
"y. c #6F6F62622E2E",
"u. c #7A7A6C6C3434",
"i. c #7D7D70703D3D",
"p. c #7B7B6C6C4646",
"a. c #85853B3B0000",
"s. c #969637370000",
"d. c #A3A32E2E0000",
"f. c #8E8E42420A0A",
"g. c #838358582B2B",
"h. c #92924F4F2828",
"j. c #82826A6A0000",
"k. c #82826B6B0101",
"l. c #83836C6C0000",
"z. c #84846D6D0000",
"x. c #85856F6F0000",
"c. c #82826A6A0808",
"v. c #89896F6F0A0A",
"b. c #81816A6A1111",
"n. c #83836D6D1414",
"m. c #86866F6F1313",
"M. c #888871710000",
"N. c #8A8A75750000",
"B. c #8D8D76760000",
"V. c #8A8A77770C0C",
"C. c #8E8E78780707",
"Z. c #868673731616",
"A. c #98986B6B1E1E",
"S. c #93937A7A0101",
"D. c #909079790404",
"F. c #93937F7F0505",
"G. c #96967F7F0101",
"H. c #90907C7C0D0D",
"J. c #93937F7F1616",
"K. c #98987B7B1616",
"L. c #838370702C2C",
"P. c #8E8E7E7E3333",
"I. c #939363632727",
"U. c #999962623939",
"Y. c #959580800303",
"T. c #979782820101",
"R. c #969680800F0F",
"E. c #989882820101",
"W. c #9B9B86860101",
"Q. c #9C9C86860909",
"!. c #9D9D86860C0C",
"~. c #9E9E89890202",
"^. c #9E9E88880909",
"/. c #9B9B82821111",
"(. c #989883831D1D",
"). c #9A9A84841E1E",
"_. c #9E9E88881717",
"`. c #979783832222",
"'. c #939381813F3F",
"]. c #A2A28E8E0303",
"[. c #A1A18D8D0404",
"{. c #A4A48E8E0404",
"}. c #A5A58F8F0404",
"|. c #A1A18C8C0909",
" X c #A1A18C8C0D0D",
".X c #A3A38E8E0F0F",
"XX c #A5A58F8F1616",
"oX c #A4A492920303",
"OX c #A4A490900404",
"+X c #A5A590900505",
"@X c #A5A591910E0E",
"#X c #AAAA93930D0D",
"$X c #ABAB97970A0A",
"%X c #AEAE99990E0E",
"&X c #A7A791911C1C",
"*X c #ADAD96961414",
"=X c #AEAE99991818",
"-X c #AFAF9A9A1C1C",
";X c #B0B08D8D1717",
":X c #B0B09B9B0F0F",
">X c #B5B59E9E1212",
",X c #B5B59F9F1313",
"<X c #B5B59E9E1616",
"1X c #BDBD9A9A1B1B",
"2X c #A9A993932222",
"3X c #B6B69F9F2222",
"4X c #BCBCA4A41A1A",
"5X c #BBBBA3A32121",
"6X c #BBBBA6A62525",
"7X c #BBBBA6A62929",
"8X c #9C9C8C8C4747",
"9X c #8D8D84846262",
"0X c #A2A28F8F4848",
"qX c #A4A48A8A5858",
"wX c #AAAA9F9F7373",
"eX c #C1C1ADAD2626",
"rX c #C5C5ACAC2323",
"tX c #C2C2ABAB2B2B",
"yX c #C3C3B3B32121",
"uX c #C5C5B1B12727",
"iX c #C6C6B0B02424",
"pX c #C7C7B3B32A2A",
"aX c #C9C9B5B52929",
"sX c #CACAB4B42B2B",
"dX c #CACAB5B52B2B",
"fX c #CCCCB6B62929",
"gX c #CDCDB6B62929",
"hX c #CCCCB7B72D2D",
"jX c #CFCFB7B72D2D",
"kX c #CFCFB6B62F2F",
"lX c #CDCDB9B92C2C",
"zX c #CFCFB9B92D2D",
"xX c #CFCFBABA2D2D",
"cX c #CECEBCBC2D2D",
"vX c #D1D1BBBB2F2F",
"bX c #D3D3BCBC2F2F",
"nX c #D2D2BDBD3030",
"mX c #D8D8C1C12F2F",
"MX c #DBDBC6C63434",
"NX c #DCDCC9C93535",
"BX c #E4E4CECE3030",
"VX c #E6E6D3D33939",
"CX c #EBEBD4D43A3A",
"ZX c #F2F2D7D73D3D",
"AX c #F6F6DFDF3F3F",
"SX c #FBFBE6E64444",
"DX c #FDFDE6E64343",
"FX c #CCCCBDBD8181",
"GX c #DDDDCECE8E8E",
"HX c #F7F7E6E6A4A4",
/* pixels */
"                                                                ",
"                                                                ",
"                                                                ",
"                                                                ",
"                                                                ",
"                                                                ",
"                                                                ",
"                                                                ",
"                                                                ",
"                                                                ",
"                                                                ",
"                                                                ",
"                              %                                 ",
"                                                                ",
"                      v S G Y A                                 ",
"                    U 9.*XgXmXjXn.s                             ",
"                  J k.%XlXdXaXjXCXkXS                           ",
"                w 4.W.:XhXcXnXaXeXAX2Xw                         ",
"              w <.T.{.{.<X;XyXVXjXMXZXH   %                     ",
"              _ M.{.oX{.oXs.d.1XNXnXDX,.                        ",
"            g 4.N.~.{.{.F.v.f.a.,XaXDX(.          %             ",
"            s j.w.Q.$XT.2.g.'.P.`..XBX(.                %       ",
"            U k.9.-XiXT./.A.h.U.qXL.D.%.        ; ) T           ",
"> > 4 6 6 5 ..N.w._.7X5XO.V.K.I.[ P n | c % 4 q i &.p.9X] 1 1   ",
"8 8 V G z B ! ( +.!.t.L t k K @.^ V W 4XZ.> y n z z R GXHXFXwX*.",
"    U >.} H.iX@X|.XXr.J.~   g _ 4.9.X.j.%.    1 { y.8X0Xu.i.6.Z ",
"    u -.S.#XC.=.x.%X6XjXb.      u s 6 s 1     1 F m j j %       ",
"      w s s S 1.7.T.lXtXZ.                                      ",
"            w -.^.=XR.rX~                         %             ",
"                -.8. X3X/ =                                     ",
"                q #.,X&Xc.g                                     ",
"                  X.>... .                                      "
};
