/* XPM */
static char *[] = {
/* columns rows colors chars-per-pixel */
"32 32 253 2",
"   c black",
".  c #000001010000",
"X  c #010100000000",
"o  c #010101010000",
"O  c #010101010101",
"+  c #020200000000",
"@  c #020201010000",
"#  c #020201010101",
"$  c #030300000000",
"%  c #020202020101",
"&  c #040403030101",
"*  c #070701010000",
"=  c #070702020000",
"-  c #070703030000",
";  c #060604040101",
":  c #080803030000",
">  c #090904040000",
",  c #0B0B05050000",
"<  c #0A0A07070000",
"1  c #0B0B07070000",
"2  c #0C0C03030000",
"3  c #0B0B08080000",
"4  c #0D0D09090000",
"5  c #0D0D0A0A0000",
"6  c #0E0E09090000",
"7  c #0E0E0A0A0000",
"8  c #101007070000",
"9  c #161605050000",
"0  c #10100B0B0000",
"q  c #11110C0C0000",
"w  c #12120C0C0000",
"e  c #151509090000",
"r  c #161608080000",
"t  c #16160B0B0000",
"y  c #1A1A0A0A0000",
"u  c #191911110000",
"i  c #1B1B11110000",
"p  c #1C1C12120000",
"a  c #1D1D12120000",
"s  c #1D1D14140000",
"d  c #1E1E15150000",
"f  c #1F1F17170000",
"g  c #1E1E1A1A0B0B",
"h  c #222213130000",
"j  c #212116160000",
"k  c #222218180000",
"l  c #24241A1A0000",
"z  c #25251C1C0000",
"x  c #232319190909",
"c  c #23231E1E0E0E",
"v  c #2C2C1A1A0000",
"b  c #2D2D1B1B0000",
"n  c #2D2D1F1F0000",
"m  c #37371F1F0000",
"M  c #2B2B26261111",
"N  c #2E2E29291515",
"B  c #363629290101",
"V  c #35352C2C0000",
"C  c #333328280D0D",
"Z  c #38382A2A0000",
"A  c #3A3A28280404",
"S  c #3A3A2D2D0000",
"D  c #3C3C2F2F0202",
"F  c #3B3B35351D1D",
"G  c #3E3E37371818",
"H  c #444428280202",
"J  c #414130300000",
"K  c #434333330000",
"L  c #444433330000",
"P  c #454536360000",
"I  c #444435350404",
"U  c #454539390101",
"Y  c #474738380101",
"T  c #484834340000",
"R  c #484837370000",
"E  c #494936360000",
"W  c #4C4C3A3A0000",
"Q  c #4D4D3A3A0000",
"!  c #4F4F3C3C0000",
"~  c #4F4F3E3E0000",
"^  c #4D4D3D3D0606",
"/  c #52523E3E0000",
"(  c #515141410000",
")  c #535343430000",
"_  c #525240400606",
"`  c #575741410000",
"'  c #555546460505",
"]  c #5B5B47470000",
"[  c #5A5A4A4A0707",
"{  c #5F5F4A4A0000",
"}  c #5C5C4C4C0303",
"|  c #57574F4F2D2D",
" . c #5A5A4F4F2424",
".. c #5C5C4D4D2020",
"X. c #60604E4E0000",
"o. c #63634E4E0000",
"O. c #63634F4F0000",
"+. c #6D6D47470B0B",
"@. c #626250500202",
"#. c #636352520909",
"$. c #6B6B56560000",
"%. c #6C6C55550000",
"&. c #6D6D58580000",
"*. c #6F6F59590303",
"=. c #71715B5B0000",
"-. c #72725E5E0101",
";. c #7A7A54540505",
":. c #606054542525",
">. c #636357572727",
",. c #67675C5C2D2D",
"<. c #757560600101",
"1. c #767664640101",
"2. c #797964640101",
"3. c #7A7A67670505",
"4. c #7D7D65650000",
"5. c #7C7C66660000",
"6. c #7C7C67670000",
"7. c #7D7D66660000",
"8. c #797962620D0D",
"9. c #7F7F69690505",
"0. c #7F7F69691212",
"q. c #7E7E72720D0D",
"w. c #6E6E63633535",
"e. c #6D6D66664A4A",
"r. c #7A7A70704E4E",
"t. c #A2A21C1C0000",
"y. c #808049490000",
"u. c #86864D4D1111",
"i. c #969652520000",
"p. c #9F9F54540707",
"a. c #90905C5C1D1D",
"s. c #888854542A2A",
"d. c #9B9B5F5F3333",
"f. c #84846D6D0000",
"g. c #85856E6E0000",
"h. c #87876F6F0000",
"j. c #818168680909",
"k. c #82826D6D0808",
"l. c #82826C6C0B0B",
"z. c #86866E6E0808",
"x. c #878773730B0B",
"c. c #888872720000",
"v. c #898973730000",
"b. c #8A8A73730000",
"n. c #8E8E78780101",
"m. c #8E8E78780303",
"M. c #8F8F7B7B0707",
"N. c #888878780B0B",
"B. c #848471711717",
"V. c #8B8B74741515",
"C. c #8D8D77771717",
"Z. c #96966F6F1010",
"A. c #909079790000",
"S. c #909079790101",
"D. c #92927D7D0202",
"F. c #93937F7F0202",
"G. c #95957F7F0101",
"H. c #93937D7D0A0A",
"J. c #94947E7E0808",
"K. c #94947E7E0909",
"L. c #91917F7F1515",
"P. c #92927C7C1616",
"I. c #91917F7F1A1A",
"U. c #9D9D6E6E3F3F",
"Y. c #A3A362620A0A",
"T. c #AAAA75750B0B",
"R. c #818172724848",
"E. c #9A9A78784343",
"W. c #999981810707",
"Q. c #9A9A84840303",
"!. c #9D9D87870101",
"~. c #9D9D84840404",
"^. c #9D9D86860404",
"/. c #9E9E87870909",
"(. c #9E9E88880101",
"). c #9F9F8A8A0303",
"_. c #969680801C1C",
"`. c #999983831010",
"'. c #989882821313",
"]. c #999983831616",
"[. c #9B9B85851D1D",
"{. c #9D9D86861D1D",
"}. c #9E9E88881616",
"|. c #949483833535",
" X c #A0A08B8B0303",
".X c #A1A18A8A0202",
"XX c #A2A28D8D0101",
"oX c #A3A38F8F0303",
"OX c #A4A48E8E0303",
"+X c #A4A48F8F0404",
"@X c #A0A08B8B0D0D",
"#X c #A0A08C8C1414",
"$X c #A1A18D8D1F1F",
"%X c #A6A691910505",
"&X c #AAAA95950A0A",
"*X c #ACAC97970E0E",
"=X c #A9A99C9C0707",
"-X c #AEAE9A9A0C0C",
";X c #AFAF9B9B0F0F",
":X c #A8A892921515",
">X c #ABAB96961010",
",X c #AAAA94941E1E",
"<X c #B0B08F8F1010",
"1X c #B2B29D9D1111",
"2X c #B0B09B9B1A1A",
"3X c #B5B5A0A01616",
"4X c #B8B8A3A31717",
"5X c #BABAA3A31717",
"6X c #BDBDA8A81919",
"7X c #BABAA4A42727",
"8X c #BFBFAAAA2020",
"9X c #BEBEA8A82424",
"0X c #939388886060",
"qX c #C5C5ACAC2424",
"wX c #C1C1A8A82929",
"eX c #C1C1ABAB2A2A",
"rX c #C5C5AEAE2929",
"tX c #C4C4B1B12525",
"yX c #C7C7B7B72727",
"uX c #C4C4B0B02828",
"iX c #C5C5B0B02929",
"pX c #C8C8B1B12929",
"aX c #CBCBB6B62B2B",
"sX c #CACAB4B42C2C",
"dX c #CBCBB6B62C2C",
"fX c #CDCDB7B72A2A",
"gX c #CDCDB7B72C2C",
"hX c #CECEB8B82727",
"jX c #CACAB8B82D2D",
"kX c #CECEB9B92D2D",
"lX c #D3D3BDBD2D2D",
"zX c #D5D5BFBF2929",
"xX c #D0D0BABA3030",
"cX c #D2D2BDBD3030",
"vX c #CECEBCBC7474",
"bX c #D5D5C0C02E2E",
"nX c #D8D8C8C82E2E",
"mX c #D5D5C0C03131",
"MX c #D5D5C5C53030",
"NX c #DADAC0C03434",
"BX c #DCDCC7C73030",
"VX c #DDDDC7C73333",
"CX c #DDDDC6C63535",
"ZX c #DFDFC7C73535",
"AX c #E3E3CDCD3838",
"SX c #E5E5CFCF3939",
"DX c #F2F2DBDB3F3F",
"FX c #F3F3DADA3E3E",
"GX c #FAFAE2E24040",
"HX c #FDFDECEC4747",
"JX c #BBBBAFAF8181",
"KX c #DCDCCFCF9D9D",
"LX c #F8F8E9E9A9A9",
/* pixels */
"                                                                ",
"                                                                ",
"                                                                ",
"                                                                ",
"                                                                ",
"                                                                ",
"                                                                ",
"                                                                ",
"                                                                ",
"                                                                ",
"                                                                ",
"                                                                ",
"                                                                ",
"                                                                ",
"                    6 K -.x.$X{.I                               ",
"                  0 %..X6XlXbXVXAX_.w                           ",
"                  ] (.*XdXdXpXrXkXGX{.3                         ",
"              6 P D.oX3XxXyXbXCXqXmXDX^   &                     ",
"              z h.).oX&XqXY.T.nXAXgXHXC.                        ",
"            6 { m.%X%X%X=Xi.t.p.kXaXDXwXd                       ",
"            Z 5.v.G.(.^.;.q.j.y.<XdXSXNXf                       ",
"            ! h.6.H.8X/.u.s.E.|.N.1XbXqXz                       ",
"            ~ h.2.9XeX4XM.Z.a.d.U.0.1.{ 6                       ",
"& < < 3 3 7 { v.K.,XcXrXV V 9.l.+.H                 &           ",
"2 8 k e 9 b R { O.}.7X8.d   : %.G.' &                           ",
"    R / Y L.I.{ ' 6.:X_ b w a m *.j.'.B.a         M | g         ",
"    z 5.^.4XH.n.(.m.k./.#.& : &   n W.}.h e j j y A R.JXe.F &   ",
"      j / L ` v.*X2X1.*X].        6 u w       ; x C ..vXLXKX0Xc ",
"            R n.hXP.=.z.W                     ; G  .,.>.>.w.r.N ",
"            ! ~.BXV./ D <                                       ",
"            H v.*X'.[                                     &     ",
"              W ` %.D                                           "
};
