/* XPM */
static char *[] = {
/* columns rows colors chars-per-pixel */
"32 32 174 2",
"   c black",
".  c #000000000101",
"X  c #010100000000",
"o  c #010100000101",
"O  c #010101010000",
"+  c #010101010101",
"@  c #010101010202",
"#  c #020201010101",
"$  c #030300000000",
"%  c #020202020202",
"&  c #020202020303",
"*  c #020203030303",
"=  c #030302020202",
"-  c #030303030303",
";  c #040402020101",
":  c #050503030101",
">  c #040403030303",
",  c #060600000000",
"<  c #060601010000",
"1  c #060602020404",
"2  c #090902020202",
"3  c #080805050404",
"4  c #080805050505",
"5  c #0C0C04040404",
"6  c #0C0C05050606",
"7  c #0E0E07070606",
"8  c #0C0C06060808",
"9  c #0F0F09090404",
"0  c #0C0C0C0C1212",
"q  c #12120A0A0505",
"w  c #13130B0B0606",
"e  c #101009090808",
"r  c #12120D0D0F0F",
"t  c #151509090D0D",
"y  c #16160A0A0D0D",
"u  c #1A1A0F0F0707",
"i  c #1B1B0D0D0A0A",
"p  c #10100F0F1515",
"a  c #131310100F0F",
"s  c #171711111414",
"d  c #161612121515",
"f  c #141415151212",
"g  c #1D1D11111313",
"h  c #1D1D13131111",
"j  c #1E1E11111717",
"k  c #191914141818",
"l  c #1C1C12121818",
"z  c #2B2B0B0B0B0B",
"x  c #202011110808",
"c  c #262616160B0B",
"v  c #2B2B18180C0C",
"b  c #252517171515",
"n  c #36360B0B0D0D",
"m  c #323210100A0A",
"M  c #31311A1A0D0D",
"N  c #30301C1C0E0E",
"B  c #32321C1C0E0E",
"V  c #323211111313",
"C  c #22221B1B2626",
"Z  c #25251B1B2222",
"A  c #2B2B1C1C2727",
"S  c #313122221C1C",
"D  c #3E3E25251515",
"F  c #282825252626",
"G  c #2E2E21212727",
"H  c #2E2E26262727",
"J  c #2B2B22222A2A",
"K  c #2E2E22222929",
"L  c #2E2E23232C2C",
"P  c #28282B2B2A2A",
"I  c #2C2C29292929",
"U  c #2D2D2A2A2B2B",
"Y  c #303026262C2C",
"T  c #373728282F2F",
"R  c #303027273030",
"E  c #39392C2C3434",
"W  c #3C3C2F2F3131",
"Q  c #333332323030",
"!  c #393930303232",
"~  c #3B3B31313636",
"^  c #3C3C33333636",
"/  c #3A3A31313939",
"(  c #3B3B32323A3A",
")  c #3E3E37373D3D",
"_  c #3D3D3C3C3C3C",
"`  c #3F3F33334141",
"'  c #414126261616",
"]  c #414133333535",
"[  c #414135353D3D",
"{  c #414139393A3A",
"}  c #40403A3A3B3B",
"|  c #444438383A3A",
" . c #404035354444",
".. c #454536364242",
"X. c #4C4C3D3D4949",
"o. c #464640404141",
"O. c #474741414F4F",
"+. c #4A4A43434444",
"@. c #4E4E45454545",
"#. c #4E4E48484949",
"$. c #4A4A43435050",
"%. c #4F4F42425151",
"&. c #50504A4A4949",
"*. c #50504B4B4A4A",
"=. c #525241415050",
"-. c #545445455050",
";. c #53534F4F5656",
":. c #565649495353",
">. c #515151515252",
",. c #565650505858",
"<. c #595954545B5B",
"1. c #585857575858",
"2. c #5E5E58585959",
"3. c #5F5F59595959",
"4. c #5C5C5B5B5C5C",
"5. c #4F4F4B4B6161",
"6. c #5E5E5B5B6262",
"7. c #61615B5B5B5B",
"8. c #65655D5D5F5F",
"9. c #636355556363",
"0. c #636358586666",
"q. c #62625B5B7272",
"w. c #65655F5F7373",
"e. c #646461616363",
"r. c #686867676D6D",
"t. c #6F6F61616F6F",
"y. c #6D6D6A6A6C6C",
"u. c #656565657A7A",
"i. c #686861617A7A",
"p. c #6A6A64647C7C",
"a. c #696969697070",
"s. c #7B7B6C6C6969",
"d. c #737369697373",
"f. c #71716B6B7676",
"g. c #74746C6C7070",
"h. c #77776E6E7D7D",
"j. c #777770707E7E",
"k. c #787875757B7B",
"l. c #787876767979",
"z. c #787875757D7D",
"x. c #7E7E75758282",
"c. c #7E7E77778383",
"v. c #86867A7A8E8E",
"b. c #84847D7D9A9A",
"n. c #87877F7F9B9B",
"m. c #8A8A82828989",
"M. c #8B8B83838B8B",
"N. c #8B8B80809393",
"B. c #8E8E8D8D9292",
"V. c #959586868484",
"C. c #959592929E9E",
"Z. c #9A9A98989F9F",
"A. c #95958A8AA7A7",
"S. c #97978B8BA7A7",
"D. c #9B9B8F8FA1A1",
"F. c #98988D8DA9A9",
"G. c #9C9C9393AFAF",
"H. c #9C9C9A9AA1A1",
"J. c #9E9E9090B0B0",
"K. c #A4A49898B4B4",
"L. c #ABAB9B9BB7B7",
"P. c #B0B0A6A6BCBC",
"I. c #B6B6AFAFBEBE",
"U. c #B3B3A3A3C0C0",
"Y. c #B8B8A9A9C5C5",
"T. c #B9B9ABABC4C4",
"R. c #BCBCACACCACA",
"E. c #BDBDB3B3CACA",
"W. c #BCBCB6B6C8C8",
"Q. c #BFBFB7B7CCCC",
"!. c #C1C1B6B6CFCF",
"~. c #C3C3B8B8D0D0",
"^. c #D3D3C6C6C9C9",
"/. c #FFFFFBFBFFFF",
/* pixels */
"                                                                ",
"                                                                ",
"                                                                ",
"                                                                ",
"                                                                ",
"                                                                ",
"                                                                ",
"                                                                ",
"                                                                ",
"                                                                ",
"                                                                ",
"                                                                ",
"                                                                ",
"                                                                ",
"                                                                ",
"          : :                                                   ",
"          u w                                                   ",
"          B u                                                   ",
"        w B v 9                                                 ",
"        M ' ' c                                                 ",
"          Z C                                                   ",
"          E K                                                   ",
"          ` R                                                   ",
"          ` K                                                   ",
"          -.L   >                                               ",
"          :./     > > > >                               :       ",
"      >   3.o.- >           2 4 Q U F _ f   4 } : : s p         ",
"      :   7.}     P 4.H.B.g V i C.~.T.k.1.a.U ^.V.y w.F.(       ",
"      >   3.*.>.H.E.E.R.G.g n n z u.f.6.,.t./ s./.^ L !.D.      ",
"          *.M.~.Y.L.U.A.;.: W K @.r.1.9.E [ A y.M.v.! h.I.      ",
"      : k.g.f.F.K.F.w.X.6.n.,.) x.X.j X...l ] | $.c.o.x.e.      ",
"      w l.0.@.0 d p k p.n.b.q.t : 6 7 6 7 b S G -.P.#.f         "
};
