/* XPM */
static char *[] = {
/* columns rows colors chars-per-pixel */
"32 32 197 2",
"   c black",
".  c #000001010101",
"X  c #010100000000",
"o  c #010100000101",
"O  c #010101010101",
"+  c #000000000303",
"@  c #010101010202",
"#  c #010102020202",
"$  c #020200000000",
"%  c #030301010000",
"&  c #020200000202",
"*  c #020201010202",
"=  c #030302020101",
"-  c #020202020202",
";  c #030303030303",
":  c #030303030404",
">  c #040400000000",
",  c #070704040202",
"<  c #070704040505",
"1  c #080800000000",
"2  c #080804040202",
"3  c #090906060303",
"4  c #0B0B06060404",
"5  c #0B0B06060505",
"6  c #0D0D04040404",
"7  c #0D0D05050505",
"8  c #0B0B0A0A0B0B",
"9  c #0D0D09090B0B",
"0  c #0E0E09090C0C",
"q  c #0D0D0D0D0B0B",
"w  c #171705050B0B",
"e  c #12120A0A0505",
"r  c #11110B0B0C0C",
"t  c #11110B0B0F0F",
"y  c #11110D0D0D0D",
"u  c #11110C0C0E0E",
"i  c #12120E0E0E0E",
"p  c #13130F0F0F0F",
"a  c #191908080404",
"s  c #181809090707",
"d  c #18180E0E0707",
"f  c #1A1A0C0C0A0A",
"g  c #18180C0C0F0F",
"h  c #12120E0E1010",
"j  c #13130F0F1414",
"k  c #14140F0F1515",
"l  c #1D1D0E0E1313",
"z  c #1D1D10100808",
"x  c #141411111414",
"c  c #161611111717",
"v  c #161612121616",
"b  c #151514141313",
"n  c #1B1B13131111",
"m  c #1A1A14141717",
"M  c #1F1F14141C1C",
"N  c #1C1C1A1A1A1A",
"B  c #262607070606",
"V  c #22220B0B0C0C",
"C  c #27270D0D0D0D",
"Z  c #242414140A0A",
"A  c #202013131A1A",
"S  c #212116161A1A",
"D  c #27271A1A1D1D",
"F  c #25251D1D1B1B",
"G  c #24241C1C1D1D",
"H  c #353515151313",
"J  c #353514141818",
"K  c #30301E1E1F1F",
"L  c #3B3B17171111",
"P  c #3F3F1B1B1212",
"I  c #2A2A1F1F2626",
"U  c #3A3A21211010",
"Y  c #3B3B23231616",
"T  c #3D3D24241313",
"R  c #383822221E1E",
"E  c #252521212121",
"W  c #262625252626",
"Q  c #2A2A26262626",
"!  c #282827272828",
"~  c #29292B2B2A2A",
"^  c #2C2C2C2C2E2E",
"/  c #2E2E32323434",
"(  c #303023232A2A",
")  c #313124242A2A",
"_  c #38382A2A2828",
"`  c #33332C2C3636",
"'  c #34342A2A3737",
"]  c #34342B2B3737",
"[  c #36362E2E3434",
"{  c #383829293333",
"}  c #38382E2E3535",
"|  c #3A3A2E2E3939",
" . c #303030303131",
".. c #393931313434",
"X. c #3A3A31313838",
"o. c #3C3C34343D3D",
"O. c #3B3B3B3B3939",
"+. c #3F3F3E3E3E3E",
"@. c #3B3B37374848",
"#. c #404016161919",
"$. c #40401B1B1717",
"%. c #43431E1E1717",
"&. c #4D4D26260C0C",
"*. c #404025251414",
"=. c #444426261313",
"-. c #474721211919",
";. c #494923231010",
":. c #535326261F1F",
">. c #5B5B30301F1F",
",. c #444429292727",
"<. c #434333333030",
"1. c #404034343232",
"2. c #474735353F3F",
"3. c #424238383D3D",
"4. c #565635352626",
"5. c #5A5A36362323",
"6. c #686830301C1C",
"7. c #444436364040",
"8. c #424239394545",
"9. c #48483A3A4747",
"0. c #4A4A3F3F4E4E",
"q. c #7F7F45452828",
"w. c #474740404E4E",
"e. c #494942424444",
"r. c #4D4D44444545",
"t. c #4B4B45454A4A",
"y. c #4C4C42424B4B",
"u. c #4B4B4B4B4D4D",
"i. c #4E4E4A4A5959",
"p. c #505043435050",
"a. c #545444445151",
"s. c #555553535353",
"d. c #5A5A50505E5E",
"f. c #585851516060",
"g. c #595954546868",
"h. c #5C5C5A5A6060",
"j. c #67674D4D4747",
"k. c #606050506060",
"l. c #60605D5D6262",
"z. c #60605F5F6464",
"x. c #65655F5F6363",
"c. c #646460606767",
"v. c #6F6F60606B6B",
"b. c #6E6E68686868",
"n. c #6D6D66667070",
"m. c #70706A6A6A6A",
"M. c #727269697676",
"N. c #75756A6A7A7A",
"B. c #77776A6A7C7C",
"V. c #727270707474",
"C. c #7C7C76767777",
"Z. c #7A7A70707D7D",
"A. c #7A7A70707F7F",
"S. c #7C7C77777D7D",
"D. c #7E7E78787979",
"F. c #7F7F7A7A7A7A",
"G. c #737370708B8B",
"H. c #7B7B71718181",
"J. c #797971718686",
"K. c #7F7F73738686",
"L. c #7E7E76768E8E",
"P. c #8D8D51512626",
"I. c #80807A7A7B7B",
"U. c #818177778282",
"Y. c #82827A7A8888",
"T. c #878779798D8D",
"R. c #878778789191",
"E. c #848483838888",
"W. c #888881818E8E",
"Q. c #88888A8A8F8F",
"!. c #92928C8C9999",
"~. c #989891919E9E",
"^. c #8B8B8686A2A2",
"/. c #8E8E8787A6A6",
"(. c #9B9B9999A3A3",
"). c #A3A38C8C8888",
"_. c #A2A29D9D9F9F",
"`. c #A0A09898A8A8",
"'. c #A4A49F9FAAAA",
"]. c #A5A59C9CACAC",
"[. c #A3A39898B4B4",
"{. c #A7A79C9CB9B9",
"}. c #ACAC9C9CB9B9",
"|. c #AEAE9F9FBBBB",
" X c #A9A9A1A1A8A8",
".X c #AAAAA6A6B2B2",
"XX c #B0B0A4A4A7A7",
"oX c #B0B0A1A1BDBD",
"OX c #BFBFB2B2B3B3",
"+X c #B7B7A9A9C3C3",
"@X c #BFBFB0B0CFCF",
"#X c #C3C3B1B1B1B1",
"$X c #C5C5B7B7D3D3",
"%X c #C5C5BDBDD2D2",
"&X c #D0D0C8C8DFDF",
"*X c #D3D3CBCBE2E2",
"=X c #EDEDE2E2E5E5",
/* pixels */
"                                                                ",
"                                                                ",
"                                                                ",
"                                                                ",
"                                                                ",
"                                                                ",
"                                                                ",
"                                                                ",
"                                                                ",
"                                                                ",
"                                                                ",
"                                                                ",
"                                                                ",
"                                                                ",
"                                                                ",
"            2                                                   ",
"          > Z                                                   ",
"            =.                                                  ",
"        , z T d ,                                               ",
"        e *.Y T ,                                               ",
"            |                                                   ",
"          t 2.:                                                 ",
"          k 9.                                                  ",
"          j y.  7 V     # #   #                                 ",
"          v k.  7 #.K ^                     #                   ",
"          h x.      Q `.!.(.c.d.u./ W N / ~       :             ",
"          p I.< :       [ J.f.9 y.Y.n.t.W.x.c.E F   p m         ",
"          h I.    q O.E.H.X.> f g A l { a.S M.M.#X1.] /.B.8     ",
"          p D.~ Q..X%X+X@Xi.B J L @.w.( I 7.p.r.=X X8 H.*X}     ",
"          7 C.].$XoX}.}.G.D P >.;.5.^.K.1 M 3.OX_.N.A.G *Xe.    ",
"    :   +.U.b.R.{.[.L.g.) -.H q.P.&.4.,.' _ ).XX` d.S... Xv     ",
"        s.x.m.t v v 3   a :.%.$.C w 6.<.8.R j.f o.T.~.n 3       "
};
