/* XPM */
static char *[] = {
/* columns rows colors chars-per-pixel */
"32 32 143 2",
"   c #001F00180015",
".  c #070708080808",
"X  c #0A8A03A40363",
"o  c #0C0C06060808",
"O  c #0D0D0B8C0A8B",
"+  c #145404C502C3",
"@  c #13130A0A0505",
"#  c #13460C3F0D0D",
"$  c #1F1F07070505",
"%  c #1F1F09090000",
"&  c #1A9A0C0C0B8B",
"*  c #1A700E6413BE",
"=  c #143F133E1414",
"-  c #1A88135C14F0",
";  c #1D1D14141898",
":  c #1B71191918C3",
">  c #24240B610C62",
",  c #2F2F04040A0A",
"<  c #2A2A0D0D0B0B",
"1  c #23A410100A0A",
"2  c #2C2C16160B0B",
"3  c #2424126813BE",
"4  c #202015151B9C",
"5  c #24241A9A1E9E",
"6  c #2B2B13131818",
"7  c #2B2B19191212",
"8  c #2A2A18181919",
"9  c #343414141414",
"0  c #24E51ADB21A2",
"q  c #2A6A1CDD24A5",
"w  c #2E2E1F1F2929",
"e  c #2B2B237925D0",
"r  c #2B8122CD2828",
"t  c #2F2F28282626",
"y  c #2D2D2CAD2E2E",
"u  c #333324BE2CC6",
"i  c #34742BAC2BEC",
"p  c #393925A621A2",
"a  c #32B325A63030",
"s  c #36362BD63434",
"d  c #39BA2E2E3333",
"f  c #3B3B2DAE3A3A",
"g  c #34B5323234B5",
"h  c #3AE533DE33DE",
"j  c #383832323F3F",
"k  c #3F3F35354040",
"l  c #3E3E39394545",
"z  c #4F4F1E1E1515",
"x  c #464625251111",
"c  c #454524241D1D",
"v  c #42C22A2A1A9A",
"b  c #49492A2A1717",
"n  c #51512B2B1414",
"m  c #5E5E30301B1B",
"M  c #474725252020",
"N  c #47472F2F2222",
"B  c #44442D2D2BAC",
"V  c #444432323232",
"C  c #404030303C3C",
"Z  c #424236B741C2",
"A  c #404038384040",
"S  c #43433A3A4A4A",
"D  c #489E3B3B459B",
"F  c #4D4D3EBF4A4A",
"G  c #505041413B3B",
"H  c #6E6E48482B2B",
"J  c #43C442C34343",
"K  c #4B4B43834ACB",
"L  c #4BF6499F4CA2",
"P  c #4C1944DE5353",
"I  c #505042424D4D",
"U  c #50504E4E4A4A",
"Y  c #545445455252",
"T  c #54874B7E5386",
"R  c #535348C95959",
"E  c #5656525255D6",
"W  c #565655555959",
"Q  c #5B5B57575555",
"!  c #5C5C51515E08",
"~  c #5E5E59595D5D",
"^  c #55554F4F6565",
"/  c #5C5C535363E4",
"(  c #5F5F61616868",
")  c #60605A5A5B5B",
"_  c #636356566969",
"`  c #62E35BDC6363",
"'  c #65E65D5D68E9",
"]  c #66665E5E7878",
"[  c #6F6F5F5F7272",
"{  c #6A6A63635F5F",
"}  c #64FE64316497",
"|  c #6E6E66666BEC",
" . c #6C6C6AC06B15",
".. c #6C6C64647575",
"X. c #6B6B64647A7A",
"o. c #737362626161",
"O. c #707067676B6B",
"+. c #72F26DEE7474",
"@. c #727268687E7E",
"#. c #7A7A6A6A7979",
"$. c #75F672F27474",
"%. c #7B7B76767676",
"&. c #7A7A73F47CFD",
"*. c #74746D6D8787",
"=. c #79796F6F8181",
"-. c #757572728080",
";. c #7D7D7A7A8080",
":. c #808079797C7C",
">. c #898975757171",
",. c #848479798B8B",
"<. c #8B8B7D7D8D8D",
"1. c #838379799090",
"2. c #8A8A7C7C9696",
"3. c #8F8F86868989",
"4. c #8D0D82029696",
"5. c #8C8C81819A9A",
"6. c #979786868585",
"7. c #909080809595",
"8. c #939383839A9A",
"9. c #99999D9D9C9C",
"0. c #8F8F8686A0A0",
"q. c #94948A8AA7A7",
"w. c #9B9B8CE2A4FA",
"e. c #9E9E9B9BA3A3",
"r. c #9F9F9494B1B1",
"t. c #A9A99C9C9D9D",
"y. c #A2229313ABAB",
"u. c #A4A49A9AB7B7",
"i. c #A9A99A9AB737",
"p. c #A0A0A2A2A4A4",
"a. c #A4A4A0A0B2B2",
"s. c #A9A9A0A0B2B2",
"d. c #AEAEA423BCBC",
"f. c #B0B0A2A2BFBF",
"g. c #B9B9BEBEBABA",
"h. c #B6B6A9A9C8C8",
"j. c #BFBFB5B5CDCD",
"k. c #C3C3BBBBCFCF",
"l. c #C8C8BDBDD7D7",
"z. c #C8C8C2C2D0D0",
"x. c #CACAC1C1DBDB",
"c. c #D3D3CACACECE",
"v. c #D3D3CECEE0E0",
/* pixels */
"                                                                ",
"                                                                ",
"                                                                ",
"                                                                ",
"                                                                ",
"                                                                ",
"                                                                ",
"                                                                ",
"                                                                ",
"                                  .                             ",
"                              r s.z.&..                         ",
"                              5.w._ l.}   .                     ",
"                          o j q.y.U T L                         ",
"                      . i ~ T *.R ! +.y                         ",
"                      g ( K h j P P A O                         ",
"                  . W T D i # 3.u p T y                         ",
"                  W &.e * 7 @ c.6.t.d e                         ",
"                # W ; ~ L , 6 O.>.o.- 5                         ",
"                g F E a.h < 7 / #.7.' -                         ",
"              : &.e.d.R N v v b <.h.C #                         ",
"            . L &.0.0 ;.r.a s m c P f                           ",
"              K ;   . ^ X.f H 2 3 & f =                         ",
"                o     # 6 Z c z & & I r                         ",
"                      # + S p n > o a }                         ",
"                      & + R B x &   * u.K O                     ",
"                    & G < ) B < & X.; P ` Q :                   ",
"                    p.v.*.| V + e 8.i.=.* ;  .=                 ",
"                  J k.i.w.:.i q Y K ) w.4.; u } -               ",
"                  } k.i.2.$.i * w f F F w.2.* a } :             ",
"              o % { x.d.] +.t   * ; 5 C D [ 0 & 8 } =           ",
"          > > 9 + h ,.^ l %.t X w a 0 * q ` J + # - $..         ",
"        X X       : 9.g. .| i     + 0 u 0 | U     X 4           "
};
