/* XPM */
static char *[] = {
/* columns rows colors chars-per-pixel */
"32 32 223 2",
"   c black",
".  c #000000000101",
"X  c #010100000000",
"o  c #010100000101",
"O  c #010101010000",
"+  c #010101010101",
"@  c #010102020202",
"#  c #020200000000",
"$  c #020201010101",
"%  c #030301010101",
"&  c #030302020101",
"*  c #020202020202",
"=  c #020202020303",
"-  c #030303030303",
";  c #030304040404",
":  c #040401010101",
">  c #050500000000",
",  c #060603030101",
"<  c #050503030404",
"1  c #090901010101",
"2  c #090903030505",
"3  c #090904040101",
"4  c #080804040404",
"5  c #090904040505",
"6  c #0A0A07070707",
"7  c #0C0C06060808",
"8  c #0D0D08080707",
"9  c #0F0F08080404",
"0  c #0B0B0B0B0A0A",
"q  c #090909090E0E",
"w  c #0F0F0C0C0B0B",
"e  c #0F0F0E0E1212",
"r  c #131305050101",
"t  c #13130A0A0707",
"y  c #13130B0B0606",
"u  c #13130D0D0B0B",
"i  c #11110E0E0C0C",
"p  c #161609090808",
"a  c #171708080808",
"s  c #141408080D0D",
"d  c #161608080E0E",
"f  c #16160C0C0F0F",
"g  c #1B1B05050707",
"h  c #1C1C0F0F0707",
"j  c #191908080B0B",
"k  c #19190C0C0F0F",
"l  c #1F1F0C0C0C0C",
"z  c #171710100E0E",
"x  c #1F1F10100808",
"c  c #121212121010",
"v  c #131312121111",
"b  c #151510101313",
"n  c #171718181616",
"m  c #191914141717",
"M  c #1A1A14141717",
"N  c #1B1B11111818",
"B  c #1C1C1C1C1A1A",
"V  c #1D1D1D1D1C1C",
"C  c #1F1F1A1A2424",
"Z  c #22220E0E0E0E",
"A  c #2F2F0D0D0606",
"S  c #222210100E0E",
"D  c #272716160C0C",
"F  c #292911110E0E",
"G  c #2F2F13130D0D",
"H  c #2D2D18180C0C",
"J  c #212117171F1F",
"K  c #232315151C1C",
"L  c #222216161D1D",
"P  c #222216161F1F",
"I  c #242417171E1E",
"U  c #21211A1A1D1D",
"Y  c #222219191D1D",
"T  c #2B2B1F1F1F1F",
"R  c #33330E0E0D0D",
"E  c #31311D1D0F0F",
"W  c #33331C1C0E0E",
"Q  c #33331D1D0E0E",
"!  c #353518181111",
"~  c #3F3F1C1C1B1B",
"^  c #23231B1B2020",
"/  c #27271B1B2121",
"(  c #27271D1D2424",
")  c #26261F1F2424",
"_  c #282818182121",
"`  c #292919192020",
"'  c #2A2A1F1F2525",
"]  c #2D2D1F1F2222",
"[  c #3E3E25251515",
"{  c #3F3F26261616",
"}  c #212121212222",
"|  c #222222222222",
" . c #252526262626",
".. c #272724242F2F",
"X. c #282825252626",
"o. c #2B2B24242F2F",
"O. c #2C2C23232828",
"+. c #2E2E24242A2A",
"@. c #2E2E24242D2D",
"#. c #272726263131",
"$. c #303024242B2B",
"%. c #313125252E2E",
"&. c #323227272D2D",
"*. c #323227272F2F",
"=. c #353526262C2C",
"-. c #313128282F2F",
";. c #34342A2A3131",
":. c #36362C2C3131",
">. c #37372C2C3232",
",. c #39392A2A3131",
"<. c #3A3A2D2D3535",
"1. c #363636363535",
"2. c #373732323D3D",
"3. c #3A3A35353535",
"4. c #3D3D30303939",
"5. c #3D3D31313939",
"6. c #3A3A3A3A3838",
"7. c #3F3F39393A3A",
"8. c #42421A1A1818",
"9. c #48481D1D1717",
"0. c #464620201313",
"q. c #4D4D24241D1D",
"w. c #525226261B1B",
"e. c #535335352C2C",
"r. c #6E6E2D2D1E1E",
"t. c #666632321515",
"y. c #7A7A32322727",
"u. c #404035354242",
"i. c #414137374141",
"p. c #424237374040",
"a. c #414138384747",
"s. c #45453D3D4040",
"d. c #4B4B3C3C4545",
"f. c #49493D3D4848",
"g. c #7E7E47472323",
"h. c #454543434646",
"j. c #454540404C4C",
"k. c #4F4F46464545",
"l. c #494943434848",
"z. c #494942424A4A",
"x. c #494949494949",
"c. c #464641415252",
"v. c #52524C4C4A4A",
"b. c #575749494E4E",
"n. c #535342425050",
"m. c #525245455555",
"M. c #555545455252",
"N. c #56564D4D5656",
"B. c #5A5A4D4D5757",
"V. c #565650504F4F",
"C. c #5B5B54545656",
"Z. c #5D5D51515555",
"A. c #5D5D56565656",
"S. c #5A5A51515F5F",
"D. c #58584F4F6161",
"F. c #585850506161",
"G. c #5D5D5C5C6060",
"H. c #5D5D5E5E6262",
"J. c #5D5D5B5B7272",
"K. c #61615B5B5C5C",
"L. c #64645E5E5F5F",
"P. c #66665F5F5E5E",
"I. c #616153536363",
"U. c #606055556767",
"Y. c #65655F5F6060",
"T. c #67675E5E6161",
"R. c #63635B5B6D6D",
"E. c #6B6B5C5C6C6C",
"W. c #676766666666",
"Q. c #6C6C69696A6A",
"!. c #6D6D6C6C6E6E",
"~. c #7E7E66666161",
"^. c #71716B6B7777",
"/. c #727268687979",
"(. c #727269697B7B",
"). c #74746C6C7878",
"_. c #74746E6E7878",
"`. c #777772727777",
"'. c #787872727C7C",
"]. c #6F6F70708E8E",
"[. c #70706A6A8484",
"{. c #7B7B75758080",
"}. c #7D7D75759292",
"|. c #808045452C2C",
" X c #979746462B2B",
".X c #9C9C52522626",
"XX c #888874747070",
"oX c #8B8B7C7C7B7B",
"OX c #818177779595",
"+X c #818178789595",
"@X c #82827C7C9A9A",
"#X c #828281818585",
"$X c #828280808B8B",
"%X c #878780808989",
"&X c #89898A8A8F8F",
"*X c #898983839090",
"=X c #8A8A80809595",
"-X c #8B8B8A8A9090",
";X c #8B8B89899696",
":X c #90908E8E9393",
">X c #999995959C9C",
",X c #92928B8BA7A7",
"<X c #98988A8AA0A0",
"1X c #9E9E9595A6A6",
"2X c #A1A198989C9C",
"3X c #A0A09797B3B3",
"4X c #A4A49898B2B2",
"5X c #A6A69999B7B7",
"6X c #AAAA9D9DB6B6",
"7X c #AAAAA6A6B3B3",
"8X c #B3B3A3A3BDBD",
"9X c #B0B0ACACB8B8",
"0X c #B2B2A6A6C5C5",
"qX c #B5B5A7A7C5C5",
"wX c #B1B1A8A8C9C9",
"eX c #B9B9ABABC5C5",
"rX c #BCBCB5B5C9C9",
"tX c #C3C3B4B4B6B6",
"yX c #C5C5B6B6D6D6",
"uX c #C6C6BABAD4D4",
"iX c #C6C6BEBED2D2",
"pX c #CDCDC3C3C7C7",
"aX c #CACAC1C1D6D6",
/* pixels */
"                                                                ",
"                                                                ",
"                                                                ",
"                                                                ",
"                                                                ",
"                                                                ",
"                                                                ",
"                                                                ",
"                                                                ",
"                                                                ",
"                                                                ",
"                                                                ",
"                                                                ",
"                                                                ",
"                                                                ",
"              ,                                                 ",
"              h 9                                               ",
"              W x                                               ",
"            y E H F 1       ,   <                   ; ;         ",
"            E [ { D P ^.O.n                     ;               ",
"              ( C   < j.=XrX'.h.H.| ) z V  .8 i   l.-X!.        ",
"              <.O.        #.(.R.+._.*Xl.^.{.H.`.P.(.6XuX#X      ",
"              i.Y               5 d / I n.<.5.$XQ.F.f.i.1X      ",
"              a./         =         i &.@.;.n.N.Y D.i.;.;.,     ",
"              m.O.                B 6X4Xg k I P.2X&.f.G.(       ",
"          ,   B.>.              0 ;XqX8X>Xd.1 pXC.P >.5         ",
"          ;   Y.7.  = = ; =   , p c.J.,XwXI.Z tXoXk.,   =       ",
"              L.7.=           r l ! 9.=.~.w.E.b.XXZ.6           ",
"          ;   W.1.  z 6.1.-X>X] g 8.y..Xt.e.3X[.N d             ",
"              K.V.-X9XaXiXeXyXF.A q.g. XR k o.o.( 6             ",
"          w x.v.%X0X5X+X}.+X@X4.r.g.9.~ ] P / k                 ",
"          k W.A.s.q b M M M e G S y ..].2.5                     "
};
