/* XPM */
static char *[] = {
/* columns rows colors chars-per-pixel */
"32 32 256 2",
"   c black",
".  c #000000000101",
"X  c #000001010101",
"o  c #010100000000",
"O  c #010100000101",
"+  c #010101010000",
"@  c #010101010101",
"#  c #010101010202",
"$  c #010102020202",
"%  c #020200000000",
"&  c #030300000000",
"*  c #020201010202",
"=  c #030302020101",
"-  c #020202020202",
";  c #020203030303",
":  c #030302020202",
">  c #030302020303",
",  c #030303030303",
"<  c #060600000000",
"1  c #060601010202",
"2  c #050503030202",
"3  c #040404040404",
"4  c #070708080707",
"5  c #0B0B00000000",
"6  c #090903030101",
"7  c #080804040303",
"8  c #080805050303",
"9  c #090904040303",
"0  c #090905050404",
"q  c #080805050606",
"w  c #0B0B05050404",
"e  c #0D0D07070606",
"r  c #080807070808",
"t  c #0D0D06060808",
"y  c #0E0E07070909",
"u  c #0D0D0B0B0A0A",
"i  c #0E0E0A0A0A0A",
"p  c #0E0E0C0C0C0C",
"a  c #101002020303",
"s  c #101006060303",
"d  c #161600000000",
"f  c #141405050202",
"g  c #151506060606",
"h  c #121207070B0B",
"j  c #101008080404",
"k  c #16160B0B0606",
"l  c #111108080909",
"z  c #10100C0C0D0D",
"x  c #141409090808",
"c  c #161608080B0B",
"v  c #14140B0B0C0C",
"b  c #15150B0B0D0D",
"n  c #15150C0C0B0B",
"m  c #14140C0C0D0D",
"M  c #1C1C08080707",
"N  c #1C1C0B0B0707",
"B  c #191908080808",
"V  c #19190A0A0D0D",
"C  c #1D1D0D0D0808",
"Z  c #1D1D0E0E0909",
"A  c #16160D0D1010",
"S  c #19190C0C1212",
"D  c #19190E0E1111",
"F  c #141413131313",
"G  c #171716161717",
"H  c #1B1B12121414",
"J  c #1C1C10101414",
"K  c #1C1C11111616",
"L  c #181816161A1A",
"P  c #1B1B17171F1F",
"I  c #1D1D13131818",
"U  c #1D1D16161919",
"Y  c #191919191818",
"T  c #1B1B1B1B1B1B",
"R  c #1E1E18181B1B",
"E  c #1F1F19191E1E",
"W  c #1E1E18182323",
"Q  c #1F1F22222121",
"!  c #23230F0F0B0B",
"~  c #25250E0E0F0F",
"^  c #202013130909",
"/  c #212113130909",
"(  c #272713130C0C",
")  c #272714140D0D",
"_  c #232316161313",
"`  c #202015151A1A",
"'  c #212114141A1A",
"]  c #222216161C1C",
"[  c #212118181B1B",
"{  c #212119191B1B",
"}  c #26261C1C1F1F",
"|  c #22221A1A1E1E",
" . c #32321D1D0F0F",
".. c #353510101313",
"X. c #3B3B17171616",
"o. c #3E3E1A1A1414",
"O. c #3D3D1F1F1B1B",
"+. c #21211D1D2222",
"@. c #24241A1A2121",
"#. c #26A71A1A2121",
"$. c #26261D1D2121",
"%. c #29291B1B2323",
"&. c #28A91C9C24A5",
"*. c #29291C1C2626",
"=. c #29291E1E2424",
"-. c #2A2A1F1F2525",
";. c #2D2D1F1F2727",
":. c #2EAF1E9E2929",
">. c #32321F1F2222",
",. c #262621212828",
"<. c #272724242D2D",
"1. c #292926262E2E",
"2. c #2C2C24242929",
"3. c #2D2D24242A2A",
"4. c #2F2F24242929",
"5. c #303020202929",
"6. c #303023232C2C",
"7. c #30B126262C2C",
"8. c #323226262C2C",
"9. c #353523232F2F",
"0. c #333328282F2F",
"q. c #353525253232",
"w. c #373726263232",
"e. c #353528283030",
"r. c #36362C2C3434",
"t. c #33332F2F3A3A",
"y. c #3B3B2B2B3232",
"u. c #39392A2A3434",
"i. c #39392D2D3737",
"p. c #353534343434",
"a. c #353531313C3C",
"s. c #3B3B30303333",
"d. c #3B3B35353B3B",
"f. c #3C3C31313939",
"g. c #3E3E31313A3A",
"h. c #3E3E32323A3A",
"j. c #3C3C3C3C3B3B",
"k. c #3C3C37374040",
"l. c #3F3F3A3A4848",
"z. c #404016161414",
"x. c #42421B1B1919",
"c. c #44441A1A1818",
"v. c #40C127271616",
"b. c #515126261C1C",
"n. c #595926261414",
"m. c #5D5D24241919",
"M. c #434339393838",
"N. c #454539393939",
"B. c #565629292020",
"V. c #5A5A37372A2A",
"C. c #676732322424",
"Z. c #737339392424",
"A. c #414135354343",
"S. c #464636364242",
"D. c #42423B3B4444",
"F. c #45453A3A4545",
"G. c #424238384848",
"H. c #44443E3E4E4E",
"J. c #4A4A3B3B4343",
"K. c #48483CBD46C7",
"L. c #7E7E47472626",
"P. c #444444444545",
"I. c #474747474747",
"U. c #4B4B45454A4A",
"Y. c #4C4C40404C4C",
"T. c #4E4E46465252",
"R. c #4D4D47475858",
"E. c #515142424E4E",
"W. c #535343435050",
"Q. c #535346465656",
"!. c #545444445252",
"~. c #55554F4F5050",
"^. c #505049495959",
"/. c #55554C4C5A5A",
"(. c #5E5E4E4E5D5D",
"). c #565652524F4F",
"_. c #575751515353",
"`. c #505050505B5B",
"'. c #575750505E5E",
"]. c #585853535252",
"[. c #595954545353",
"{. c #5A5A54545454",
"}. c #5C5C56565555",
"|. c #5D5D56565656",
" X c #5B5B53535C5C",
".X c #5E5E51515C5C",
"XX c #5E5E54545858",
"oX c #5ADB5A5A5EDF",
"OX c #555556566E6E",
"+X c #5A5A52526161",
"@X c #595951516464",
"#X c #616152525353",
"$X c #67675B5B5D5D",
"%X c #646459596C6C",
"&X c #6A6A5E5E7070",
"*X c #606060606060",
"=X c #686861616363",
"-X c #656563637B7B",
";X c #767662626868",
":X c #71716B6B6F6F",
">X c #707065657070",
",X c #717167677777",
"<X c #747466667676",
"1X c #717167677A7A",
"2X c #72726D6D7676",
"3X c #76766F6F7A7A",
"4X c #79796C6C7F7F",
"5X c #777773737474",
"6X c #7B7B78787777",
"7X c #7B7B7A7A7E7E",
"8X c #737370708B8B",
"9X c #7F7F70708383",
"0X c #7A7A74748F8F",
"qX c #7D7D74748989",
"wX c #7F7F7B7B8585",
"eX c #7F7F7E7E8080",
"rX c #7D7D77779292",
"tX c #7F7F78789797",
"yX c #83833B3B2929",
"uX c #878743432828",
"iX c #9A9A4E4E2323",
"pX c #80807D7D7C7C",
"aX c #818176768181",
"sX c #848478788D8D",
"dX c #848482828D8D",
"fX c #898985858585",
"gX c #8A8A82828B8B",
"hX c #8B8B86869393",
"jX c #8C8C87879696",
"kX c #8A8A80809A9A",
"lX c #9A9A8E8E8F8F",
"zX c #9A9A91919393",
"xX c #9B9B8F8FABAB",
"cX c #98988F8FACAC",
"vX c #9E9E9292ADAD",
"bX c #A0A08C8C8888",
"nX c #A2A29393ABAB",
"mX c #A0A09B9BADAD",
"MX c #A7A79999B4B4",
"NX c #A9A99A9AB7B7",
"BX c #ABAB9C9CB4B4",
"VX c #A9A99E9EBBBB",
"CX c #ADAD9B9BB8B8",
"ZX c #AEAE9D9DBABA",
"AX c #A9A9A2A2B3B3",
"SX c #ACACAAAAB5B5",
"DX c #B1B1A2A2BFBF",
"FX c #BDBDB0B0B1B1",
"GX c #B7B7ABABC4C4",
"HX c #B9B9AAAAC9C9",
"JX c #B8B8B0B0C4C4",
"KX c #BCBCB1B1D2D2",
"LX c #C2C2BABAD0D0",
"PX c #CACABFBFD9D9",
"IX c #CFCFC2C2C3C3",
"UX c #CFCFC8C8DBDB",
/* pixels */
"                                                                ",
"                                                                ",
"                                                                ",
"                                                                ",
"                                                                ",
"                                                                ",
"                                                                ",
"                                                                ",
"                                                                ",
"                                                                ",
"                                                                ",
"                                                                ",
"                                                                ",
"                          3 3                   3               ",
"                                                                ",
"                2         p.oXY G p G T 8 e   a.fX*X            ",
"                / j 4 I.SXjX7.3XhXU.2XwXoX>X}.,XGXUXeX          ",
"                Z a `.mX+XP 2 S 5.#.E.h.h.dX5X'.K.F.AX          ",
"              v ) ) c           8 -.i.0.E. XU @XF.4.r.3         ",
"               .v.v./   3     r sXnXd V *.XXlX7.F.%X4.          ",
"                -.P           ^.HXBX<XJ.2 FX=X#.h.p             ",
"                y.-.  3   0 s R.-XcXKX&XM IXzXN.6               ",
"                A.[       B ~ ! c.s.;Xb.(.#XbX$X2               ",
"            3   G.[ 3   Q _ ..x.uXiXn.V.VXxXD ] 3               ",
"                Q.3.  ~.UXqXZ C.L.yXz.c 1.,.6.$.                ",
"                .X$.P.LXCX8XO.Z.B.X.C     h 0.z                 ",
"            3   [.6XJXZXvXOXo.m.g 6     e u.7.                  ",
"                [.gXDXMX0X[ l >.J.k.    t.1Xe                   ",
"            v   ).aXNXrXH.` *.w.S.9XL   kXD.                    ",
"          e g N.pX>XtXl.K #.A :.:.!.T.t./.                      ",
"          2   j.fX_.1.F %.-.w.] I 9.9XW                         ",
"            w   |.].i c c v y H [ e U                           "
};
