/* XPM */
static char *[] = {
/* columns rows colors chars-per-pixel */
"32 32 157 2",
"   c #003300270027",
".  c #0A5304040396",
"X  c #0C0C06060909",
"o  c #0A0A09090707",
"O  c #0C0C0A8B0BB6",
"+  c #1268055B0404",
"@  c #12370A9D0B0B",
"#  c #1F1F06060707",
"$  c #1F1F0A0A0606",
"%  c #1BC60AB50AE0",
"&  c #14140D6311BC",
"*  c #1C1C0F0F1010",
"=  c #155E125B14A7",
"-  c #1B1B12921394",
";  c #1A81157C1980",
":  c #1BC61A701A1A",
">  c #1D1D1A1A2121",
",  c #222200000101",
"<  c #23230A4A0ACB",
"1  c #28280F0F1414",
"2  c #292916160E0E",
"3  c #2121129215D6",
"4  c #22CD156B1A1A",
"5  c #21611A5A1B5B",
"6  c #292913131111",
"7  c #2F2F1A1A1010",
"8  c #2F2F18181B1B",
"9  c #33330B0B0D0D",
"0  c #34340C0C1010",
"q  c #333314140F0F",
"w  c #32DD13691212",
"e  c #363610101818",
"r  c #3B3B13131616",
"t  c #3B3B18981111",
"y  c #3C3C1F1F1919",
"u  c #23231B712121",
"i  c #29AA1C1C2323",
"p  c #32321F1F2424",
"a  c #3A3A1F1F2525",
"s  c #2558248B2424",
"d  c #2A5522A32651",
"f  c #2D2D24242A2A",
"g  c #282828282727",
"h  c #2E2E2D2D2CAD",
"j  c #323224242020",
"k  c #32DD257B2C82",
"l  c #303028282C2C",
"z  c #383826262727",
"x  c #3D3D2C2C2A2A",
"c  c #37372F2F3737",
"v  c #39E42BD635E0",
"b  c #39392E2E3BBC",
"n  c #373735353636",
"m  c #35B630B13A3A",
"M  c #3ABB32B33535",
"N  c #3C0931B13B08",
"B  c #3C3C3D3D3E3E",
"V  c #393934344242",
"C  c #44441C1C0D0D",
"Z  c #52521E1E1515",
"A  c #4F4F25250F0F",
"S  c #4E4E27271C1C",
"D  c #4C4C2F2F1B1B",
"F  c #52D322A31898",
"G  c #545428281C1C",
"H  c #5B5B23231A1A",
"J  c #5A5A36361D1D",
"K  c #42422C2C2A2A",
"L  c #41412C2C3232",
"P  c #414133333BFC",
"I  c #41C23A3A3D3D",
"U  c #4C4C35353D3D",
"Y  c #5D5D2D2D2222",
"T  c #545434342323",
"R  c #6E6E3E3E1919",
"E  c #7B7B3C3C2626",
"W  c #45703B914419",
"Q  c #45453DE84AF5",
"!  c #49B03BA24578",
"~  c #49493F3F4949",
"^  c #50503E3E4C4C",
"/  c #414140403F3F",
"(  c #48C9424246C7",
")  c #4BA140EB4D4D",
"_  c #4ECF45C650D1",
"`  c #4C4C46465959",
"'  c #4E4E4E4E5252",
"]  c #535342424F4F",
"[  c #5D5D49494F4F",
"{  c #52D245C65212",
"}  c #55554A6754AA",
"|  c #53534C4C5ADA",
" . c #5A5A49495757",
".. c #525250504D4D",
"X. c #525251D252D2",
"o. c #5B8E52B95C29",
"O. c #5B5B59DA5C5C",
"+. c #55554E4E6060",
"@. c #5ADA52526464",
"#. c #5E5E5A5A6D6D",
"$. c #61614D4D4A4A",
"%. c #606051514F4F",
"&. c #6A6A5E5E5D5D",
"*. c #656556566565",
"=. c #66E759DA6767",
"-. c #65BB5C066BC1",
";. c #6C6C5A5A6060",
":. c #6B6B5CDD6BEC",
">. c #64E564E56565",
",. c #676769696F6F",
"<. c #6969620C64BA",
"1. c #6B6B60606F6F",
"2. c #6B6B6AEA6BEC",
"3. c #6D6D66667272",
"4. c #6D6D66667F7F",
"5. c #6F6F6EEF7171",
"6. c #737361616161",
"7. c #717162627777",
"8. c #721C6CC273C9",
"9. c #73C96BC17BD1",
"0. c #78786F6F7171",
"q. c #737371717171",
"w. c #777774747C7C",
"e. c #797978787979",
"r. c #7D7D72728383",
"t. c #7B7B78788181",
"y. c #7C7C79799696",
"u. c #989859592A2A",
"i. c #8A8A7E7E9A9A",
"p. c #840382028403",
"a. c #898984848F8F",
"s. c #898988888B8B",
"d. c #8E8E8A8A9292",
"f. c #929286868989",
"g. c #989898989B9B",
"h. c #95958CE2A6A6",
"j. c #9A448EE4A54F",
"k. c #9CDC9111ABAB",
"l. c #A2A29494AFAF",
"z. c #A7A79999B2B2",
"x. c #A8A89B9BB3B3",
"c. c #AC129E37BAED",
"v. c #A5A5A5A5A6A6",
"b. c #ABABA9A9B6B6",
"n. c #B8B8A7A7A9A9",
"m. c #B1B1A2A2BF14",
"M. c #B2B2AEAEBABA",
"N. c #B2B2A4A4C1C1",
"B. c #B6B6ACACCECE",
"V. c #BCBCB6B6C6C6",
"C. c #BEBEB6B6CACA",
"Z. c #CCCCBDBDBEBE",
"A. c #C1C1B6B6CDCD",
"S. c #C5C5B6B6D4D4",
"D. c #C5C5BABAD2D2",
"F. c #CBCBC0C0DDDD",
"G. c #D1D1C7C7DFDF",
/* pixels */
"                                                                ",
"                                                                ",
"                                                                ",
"                                ; ..(                           ",
"                              = k.A.G.5.                        ",
"                              ` N.O.{ C.O                       ",
"                          5 l r.k.9...~ O                       ",
"                        = 8.<.) @.b 9.o.o                       ",
"                      g ,.' N M { ~ 5 .                         ",
"                    ' w.]  .i 0.f.x %.                          ",
"                    t. .v P & <.Z.n.&.    o                     ",
"                  g ) d 4 < . N &.$.) o                         ",
"                : 8.P c 1.U 9.w r.c.z.  = 5.O..                 ",
"              s O.P O { S.x.B. .A h.Q B b.j.D.M.g               ",
"              h o.i   m k.y.+.J t p X I 1 P c.m.V.g             ",
"              . -.k.  = +.L C R w # 3 , W N.m.c.m.~             ",
"                > k._   % w t u.F + # V #.c.j.P  .Q             ",
"                  = h.I < e G Y S < - u ` Q % - } W             ",
"                    j z $ 7 y E F @ * + ; r 9 c *.4             ",
"                    + 9 w T 5 H Z b *.u 3 % k } i               ",
"                  . . g D K b z % k 1. .4  . .u                 ",
"                . 6 $ B 6.l.N f _ N i *.~ ) 5                   ",
"            % < w 6   2.F.c.Q I W b @.:.g                       ",
"          . + . .     l d.-.V v ! 4 4 =.r.>.O                   ",
"                    o o } g.5 @ @ = = =.~ q.v.2.O               ",
"                      } ] 5         @ 8.v   = e.p.              ",
"                    X.a.(           N o.<.o     .               ",
"                    C.i.          & *.b O                       ",
"                  W j.=           : 7.u                         ",
"                  3.;             O {                           ",
"                : p.h             g s.n                         ",
"                : O 5             s                             "
};
