/* XPM */
static char *[] = {
/* columns rows colors chars-per-pixel */
"32 32 175 2",
"   c #00540037003F",
".  c #065C05B0085E",
"X  c #070708080707",
"o  c #0A96040403BE",
"O  c #080805050808",
"+  c #0AD8086F0C0C",
"@  c #0F0F0E0E1111",
"#  c #0F0F13131212",
"$  c #121204850505",
"%  c #161607070808",
"&  c #1414098A0687",
"*  c #146A0B610C62",
"=  c #1A1A03840384",
"-  c #1B820AA409A3",
";  c #11110E641414",
":  c #1A1A0C0C1414",
">  c #171710100F0F",
",  c #13E111DF1515",
"<  c #15D615D61A9A",
"1  c #1A1A11111717",
"2  c #1A1A1494199A",
"3  c #1CF81BAE1D66",
"4  c #1F1F1D1D2222",
"5  c #23A402020404",
"6  c #22CD0B0B0AB5",
"7  c #272709091010",
"8  c #242415150B0B",
"9  c #2E2E1B1B0E0E",
"0  c #272711111010",
"q  c #232314141818",
"w  c #20201E1E1C1C",
"e  c #31310C0C0D0D",
"r  c #34B514141313",
"t  c #323219191212",
"y  c #34341D1D1A1A",
"u  c #3CBD1A1A1414",
"i  c #248B1D5022BC",
"p  c #2929199A2323",
"a  c #2E2E1E1E2A2A",
"s  c #262620201E1E",
"d  c #2F2F22221919",
"f  c #246422222525",
"g  c #262623232AAB",
"h  c #272729292727",
"j  c #2CED24A52BAC",
"k  c #2B2B297F2BD6",
"l  c #2929262632B3",
"z  c #2B2B29293131",
"x  c #2E2E2F2F3B3B",
"c  c #32B328A92CAD",
"v  c #383827272A2A",
"b  c #373727273232",
"n  c #34742A6A3131",
"m  c #3A3A2E2E3030",
"M  c #3B3B2EAF38B9",
"N  c #32DD33DE3535",
"B  c #373737373939",
"V  c #3B1032DD3CE7",
"C  c #3BBC3D3D3DBE",
"Z  c #3CE736364197",
"A  c #3ABB3A3A40C1",
"S  c #494916160B0B",
"D  c #44441A1A1212",
"F  c #43431F1F1C1C",
"G  c #484819191313",
"H  c #434328281616",
"J  c #4D4D26261A9A",
"K  c #535327271A1A",
"L  c #535328281D1D",
"P  c #41C22CAD3434",
"I  c #4A4A31312F2F",
"U  c #424239393535",
"Y  c #5A5A2B2B2121",
"T  c #65653C3C2B2B",
"R  c #7D7D3C3C2525",
"E  c #4444353542C2",
"W  c #41C23C3C42C3",
"Q  c #43B53E0548BA",
"!  c #4BCC3F3F4A4A",
"~  c #757541412323",
"^  c #41C2444444C5",
"/  c #454541414B4B",
"(  c #494941414545",
")  c #4B20436E4C21",
"_  c #494940405050",
"`  c #4CCD4DCE5454",
"'  c #535341414CCD",
"]  c #5D5D43434242",
"[  c #54D5464651D2",
"{  c #51D249CA51D2",
"}  c #53A94AA05AB0",
"|  c #58584A4A5555",
" . c #5A044CA25A04",
".. c #53FE53535600",
"X. c #535352525D5D",
"o. c #5F5F55555555",
"O. c #585857575D5D",
"+. c #5ADA5B5B5F5F",
"@. c #54544E4E6161",
"#. c #5D5D55556363",
"$. c #5A5A55556868",
"%. c #5D075D07620C",
"&. c #666655555454",
"*. c #6E6E5B5B5C5C",
"=. c #616156566262",
"-. c #64645F5F6464",
";. c #686858586363",
":. c #62625E5E76F7",
">. c #616162626A6A",
",. c #666668686E6E",
"<. c #686862626969",
"1. c #6B6B69696D6D",
"2. c #6F6F63637070",
"3. c #686860607A7A",
"4. c #6F6F6E6E7676",
"5. c #6EEF737374F5",
"6. c #6F6F76767979",
"7. c #717167676767",
"8. c #707063637373",
"9. c #74F569697373",
"0. c #71716A6A7BFC",
"q. c #79796E6E7070",
"w. c #717170707A7A",
"e. c #7BD17B257DD3",
"r. c #717169EA8484",
"t. c #73F46D6D8909",
"y. c #777770708A8A",
"u. c #7F7F70708282",
"i. c #7E7E77778E8E",
"p. c #7B7B7D7D8181",
"a. c #7C7C75759191",
"s. c #959544442929",
"d. c #9D9D5B5B2727",
"f. c #A0A060602B2B",
"g. c #838376768484",
"h. c #848477778A8A",
"j. c #828279798E8E",
"k. c #8C8C79798484",
"l. c #8D8D7BFC8C8C",
"z. c #8AE07CD29292",
"x. c #90907C7C8888",
"c. c #888888888D8D",
"v. c #858581819090",
"b. c #878781819F9F",
"n. c #8B8B83839090",
"m. c #8D8D80809999",
"M. c #8F8F88889F9F",
"N. c #9A9A92929999",
"B. c #90908484A0A0",
"V. c #9F9F8F8FABAB",
"C. c #99999393A323",
"Z. c #9C9C9191ACAC",
"A. c #9C9C9A9AA5A5",
"S. c #9E9E9B9BAAAA",
"D. c #A0A09696A6A6",
"F. c #A1A19494ADAD",
"G. c #A1A19B9BBABA",
"H. c #A9A99A9AB7B7",
"J. c #AEAE9E9EBABA",
"K. c #ADADA14BBD67",
"L. c #A8A8A8A8B4B4",
"P. c #B3B3A1A1A0A0",
"I. c #B7B7ABABADAD",
"U. c #B6B6B0B0BCBC",
"Y. c #B6B6AFAFC0C0",
"T. c #B8B8A9A9C5C5",
"R. c #B4B4B5B5C6C6",
"E. c #BABABC3CC9C9",
"W. c #BFBFB0B0D0D0",
"Q. c #C8C8BDBDDADA",
"!. c #C9C9C1C1D6D6",
"~. c #CF24C5C5DC31",
"^. c #CCCCD4D4D7D7",
"/. c #D0D0C7C7DDDD",
"(. c #D2D2CACAE1E1",
/* pixels */
"                                  X                             ",
"                                                                ",
"                                c ( w                           ",
"                               ././.R.k                         ",
"                              a.h.p n w o                       ",
"                            : M n h.e.n.m       C 3             ",
"                        X o.7.o V 0.| 2.O       U.`             ",
"                        o ^ ` i c @.j.)         C.Q             ",
"                        ` 0.) P W q.) Z f .     D./             ",
"                    X %.=.j |  .g I.P.U V %.o $ z.Q   .         ",
"                    B 2.[ ! 2 i o I &.9... .<.o z.!             ",
"                X #.) n M + $ = v e M !.O.: ) + l.Q             ",
"                i V E ;   < q P H.u.5 g.,.  q + k.Q             ",
"              h S.<       g @.F.T.G.] T k   o o l.Q             ",
"              %.M.          V z.$.J ~ u o       n.Q             ",
"              A.l           i v G s.d.6 -       l.!             ",
"            j j.X           o u F K d.r %       l.W             ",
"            g z           & = = 5 L Y L - o     ;.X             ",
"            6           o o 3 e.#.y R G $ -     *.o             ",
"          - t &         o , ^.!.W. .S ' x     O m               ",
"          9 H 8         o 6.~.Z.K.Z * :.:.    .                 ",
"            z   o o - 6 d E.K.K.y.< p E t.i                     ",
"          o M   & 6 0 o 6./.H.y.<   1 b t.l                     ",
"          3 v.X       # e.0.t.@       p Q A                     ",
"          z R.+   .   ) N.5.X         X %.1.                    ",
"          z E.+     C ' ' %.  .       , 9.a                     ",
"          @ X.    ..L.4...          Z } -.`                     ",
"                N ~.b.4 .         X j.:.1 ^                     ",
"            .   A.Z.@             i r.3                         ",
"              k z.;               _ V     o                     ",
"            < p.N               4 c.B                           ",
"            < * 3               3 o o                           "
};
