/* XPM */
static char *[] = {
/* columns rows colors chars-per-pixel */
"32 32 173 2",
"   c #00330026002A",
".  c #060605050909",
"X  c #08E9042403C4",
"o  c #080806060808",
"O  c #0D780B760D4D",
"+  c #0F0F0F0F1515",
"@  c #146A03AE0359",
"#  c #14140B8C0101",
"$  c #14140CB70D8E",
"%  c #1A1A01010000",
"&  c #1C9C0A0A0A0A",
"*  c #14940D8E1212",
"=  c #1B1B0F0F1212",
"-  c #1D1D11110808",
";  c #12AC1245157C",
":  c #15C0151518C3",
">  c #19AC13381583",
",  c #1C1C14941A5A",
"<  c #1C471B711C1C",
"1  c #1D1D1BF12379",
"2  c #202007070808",
"3  c #24240A0A0C0C",
"4  c #282803030202",
"5  c #2A2A07070C0C",
"6  c #2C820D0D0B0B",
"7  c #2F2F0C0C1111",
"8  c #242413130B0B",
"9  c #27271A1A0F0F",
"0  c #212114141717",
"q  c #21A215151C1C",
"w  c #257B1A1A1F1F",
"e  c #2BD611671369",
"r  c #31310D0D0B0B",
"t  c #393918180F0F",
"y  c #343416161111",
"u  c #323216161A1A",
"i  c #33B4199A1313",
"p  c #3D3D15151515",
"a  c #3D3D1C1C1313",
"s  c #3F3F1A1A1818",
"d  c #247A19C42177",
"f  c #29A91C9D23A4",
"g  c #34341F1F2525",
"h  c #383822220404",
"j  c #3A3A23231717",
"k  c #2424262625A6",
"l  c #29AA20A123A4",
"z  c #2BF921542AC4",
"x  c #2BBE2B992CBF",
"c  c #2B2B27273030",
"v  c #2DD82C2C31DC",
"b  c #318725252E2E",
"n  c #333328282929",
"m  c #383823232B2B",
"M  c #34B526263131",
"N  c #348A2B6B335E",
"B  c #383826263232",
"V  c #3A072C2C34CE",
"C  c #3F3F2F2F3B3B",
"Z  c #373730303232",
"A  c #363635353838",
"S  c #3CFD32B33ABB",
"D  c #3D3D3ABB3B3B",
"F  c #3B3B368C4141",
"G  c #3EBF3A3A4242",
"H  c #404017171111",
"J  c #424219191313",
"K  c #45451F1F1818",
"L  c #45452B2B0586",
"P  c #434320201A1A",
"I  c #535324241D1D",
"U  c #59DA2DAE1D9E",
"Y  c #44C52CAD33B4",
"T  c #404036363D3D",
"R  c #424239393F3F",
"E  c #5A5A2D2D2020",
"W  c #52523A3A2020",
"Q  c #636326261A1A",
"!  c #676734341515",
"~  c #6D6D33B42222",
"^  c #7C7C38382727",
"/  c #41C2363640C1",
"(  c #429839E44298",
")  c #49CA3ABB45C6",
"_  c #49CA3E7E4ACB",
"`  c #747448480B0B",
"'  c #646441413F3F",
"]  c #7E7E41412525",
"[  c #424245454646",
"{  c #474741414C4C",
"}  c #484843434141",
"|  c #4B7642984D78",
" . c #4ACB4B8B4E8E",
".. c #4CCD45C654D5",
"X. c #4F4F4D4D5050",
"o. c #4F4F49CA5959",
"O. c #555545DF52B9",
"+. c #51EB4AE454EE",
"@. c #59594A4A5656",
"#. c #5BDC4DCE5ADA",
"$. c #57575B5B5B5B",
"%. c #5ADB51D25BDC",
"&. c #5B5B53536565",
"*. c #5E085BB16363",
"=. c #5B5B58587070",
"-. c #606051515F5F",
";. c #676757576666",
":. c #62B85B056363",
">. c #65655C5C6B6B",
",. c #69695E5E6B6B",
"<. c #65655E5E7777",
"1. c #69695EDF7373",
"2. c #630D6363650F",
"3. c #666669696A6A",
"4. c #6C6C61616E6E",
"5. c #69EA6C6C6E6E",
"6. c #656560607B7B",
"7. c #6BAB64247272",
"8. c #6F6F66667979",
"9. c #7A7A6DEE6BEC",
"0. c #757567677676",
"q. c #747467677A7A",
"w. c #76766D6D7979",
"e. c #78786D6D7979",
"r. c #727272727575",
"t. c #777777777D7D",
"y. c #6F6F68688282",
"u. c #6F6F6D6D8888",
"i. c #74746E6E8787",
"p. c #777770708A8A",
"a. c #7C7C71718484",
"s. c #7D7D7D7D8282",
"d. c #7F7F7B7B8A8A",
"f. c #838335352929",
"g. c #868638382929",
"h. c #86064C4C2626",
"j. c #B0B063632E2E",
"k. c #818171716F6F",
"l. c #808077778181",
"z. c #848474F58B8B",
"x. c #8A8A7E7E8A8A",
"c. c #8B8B7D7D9191",
"v. c #840383038909",
"b. c #888882829595",
"n. c #8F8F84849A9A",
"m. c #8F8F8B8B9212",
"M. c #919184848484",
"N. c #939385DB9E48",
"B. c #8F8F8A8AA6A6",
"V. c #96968A8AA1A1",
"C. c #99198A8AA2A2",
"Z. c #9C9C9090A3A3",
"A. c #9E1E9191AC2C",
"S. c #9A9A9999A4E4",
"D. c #A4239696B433",
"F. c #AA549C46B70C",
"G. c #ADAD9F9FBBBB",
"H. c #ABABA4A4B7B7",
"J. c #ACECA222BCFC",
"K. c #B3B3AAAAAEAE",
"L. c #B1B1A1A1BDBD",
"P. c #BCBCAFAFB2B2",
"I. c #B636A7A7C443",
"U. c #B6B6AEAEC3C3",
"Y. c #B8B8AEAEC6C6",
"T. c #BC7CAD6DCB0A",
"R. c #B8B8B0B0C0C0",
"E. c #CBCBBFBFBDBD",
"W. c #C0C0B8B8CDCD",
"Q. c #C5C5B5B5D4D4",
"!. c #C1C1C0C0CECE",
"~. c #CBCBC9C9D5D5",
"^. c #DCDCD4D4E8E8",
/* pixels */
"                                                                ",
"                                                                ",
"                        o                                       ",
"                    :.R.Z n  .                                  ",
"                  S ^.%.f w.n.O                                 ",
"                  | D.d Z.,.0.|                                 ",
"                  d <.= &.<...N.R x                             ",
"                    c  .< G :.* x K.O                           ",
"                    1 +.) S E.9.$ P.O                           ",
"                o 2.*.N O.* 8 9.k.M.t.;   .                     ",
"                v 4.O.b , $ g @ n w.J. .                        ",
"              < *.z V > 4 Y J.Y e 7.C.v.v +.| | +.F             ",
"            c o.S :   ; _ G.N.1.O.U n.H.7.Q.I.T.T.A.            ",
"             .S o       v z.z.I.x.H y 0.N F.Y.1.V a.            ",
"          k S.k     1 +   , B.) ! ^ 6 2 v C.V.; N |             ",
"          2.z.    x 1 . . . f Q g.j.^ r v 8.o.6 e R             ",
"          S.1   ` W   # 9   y K p h.h.6 x o.F @ V _             ",
"        - N O X L #   h L   & 6 K U E 7 , b V > f /             ",
"        X 5 J 9           X > > 6 ~ ~ J   & S O.N M             ",
"          i j o           } !.D.D p f.I F w ) @.O.f             ",
"          -   q *       O S.R.G.u.i K f >.>.F @.C f             ",
"                V :     D T.F.A.=.$ f M B #.>.V B ,             ",
"                @ _ m % S.I.J.u.:   $ d g N &._ d *             ",
"                X $ @.2.Y.G.p.;       * 1 g f 7.A o             ",
"                    < m.x.y.*         X m $  .e.>               ",
"                  O +.m.v.(             $ q X.O.O               ",
"                k 3.s.%.< (                 < r.x               ",
"              O ~.b.[ x                     w N X               ",
"              $.Y.,                         z )                 ",
"              5.1   .                       , >                 ",
"            : s.x                         O 2.5.                ",
"            < $ <                         O , X                 "
};
