/* XPM */
static char *[] = {
/* columns rows colors chars-per-pixel */
"32 32 171 2",
"   c #004A00360038",
".  c #070708080909",
"X  c #09B4030303AE",
"o  c #098A06870808",
"O  c #0F0F09090505",
"+  c #0D9C0AD20C9B",
"@  c #11440538056C",
"#  c #16160A8B0687",
"$  c #14390AE60B9E",
"%  c #191901010000",
"&  c #18980E8F0505",
"*  c #1BB50BA50B3E",
"=  c #13530D4D10D1",
"-  c #1D1D0D0D1313",
";  c #15CD11C914CC",
":  c #151516161818",
">  c #1A4D12AC13AD",
",  c #1B71161619C4",
"<  c #1E5E199A1B5B",
"1  c #24A501820101",
"2  c #22220B0B09B4",
"3  c #2D2D06060707",
"4  c #2A2A09090C8D",
"5  c #22220A0A1010",
"6  c #2C2C0C0C1212",
"7  c #232312120D0D",
"8  c #202012121414",
"9  c #222219191717",
"0  c #224D1BC61CF2",
"q  c #292916161919",
"w  c #2F2F1C1C1010",
"e  c #3F3F1A1A1717",
"r  c #24641AFB2242",
"t  c #2B811D732525",
"y  c #2DAE1F1F2828",
"u  c #232321211E1E",
"i  c #247A2121247A",
"p  c #242426262828",
"a  c #272729292A2A",
"s  c #292920A12121",
"d  c #2AAB23E42B6B",
"f  c #2D2D2B812E2E",
"g  c #2E2E29293333",
"h  c #2E2E30303131",
"j  c #31C0245D2D9F",
"k  c #31312B2B2DAE",
"l  c #353526263434",
"z  c #33A12C2C32EA",
"x  c #3B3B2C2C36E1",
"c  c #343435B63636",
"v  c #363632323F3F",
"b  c #343439393636",
"n  c #3A3A33333636",
"m  c #3C6F32323BA2",
"M  c #3A3A3C3C3B3B",
"N  c #3D3D3ABB4B4B",
"B  c #41971E1E18C3",
"V  c #4B4B1F1F1494",
"C  c #4C4C1E1E1A1A",
"Z  c #53531E1E1919",
"A  c #404029290A0A",
"S  c #4A4A23A41B9C",
"D  c #560024241A1A",
"F  c #525229291D1D",
"G  c #535333330505",
"H  c #535332320F0F",
"J  c #40402D2D3232",
"K  c #424235353F3F",
"L  c #5A5A2B2B2121",
"P  c #63632F2F1C1C",
"I  c #73732C2C1F1F",
"U  c #73732C2C2323",
"Y  c #7A7A3B3B2626",
"T  c #44C5363641C2",
"R  c #44443AFB4444",
"E  c #44843D7D4A8A",
"W  c #494939BA45C6",
"Q  c #4C4C3C3C4949",
"!  c #474741413F3F",
"~  c #5C5C44443E3E",
"^  c #444442424343",
"/  c #45F042ED4B4B",
"(  c #494941C242C2",
")  c #4AF540EB499F",
"_  c #4BA14BA14DF8",
"`  c #4F4F45C65454",
"'  c #494946465858",
"]  c #4E4E49495858",
"[  c #511142024E4E",
"{  c #5F5F4C4C4E4E",
"}  c #53FE46465252",
"|  c #53204A7D5555",
" . c #5ADB4A4A56D7",
".. c #5F5F4F4F5F5F",
"X. c #535353535656",
"o. c #535352D25BDC",
"O. c #5CB251FC5D07",
"+. c #595959595F5F",
"@. c #545454546363",
"#. c #5E5E5A046565",
"$. c #5E5E60606464",
"%. c #656551515050",
"&. c #67675D5D5A5A",
"*. c #606056566B6B",
"=. c #61615ADA62E2",
"-. c #6A6A5D5D6767",
";. c #6C6C5EB46C16",
":. c #66665F5F7373",
">. c #6363640E650F",
",. c #636362626A6A",
"<. c #6A6A62626A6A",
"1. c #69696A6A6DEE",
"2. c #666660607575",
"3. c #6B6B60E17272",
"4. c #6C6C66667C7C",
"5. c #6E6E6A6A7272",
"6. c #70706A6A6C6C",
"7. c #72F364E575F6",
"8. c #78786C6C7E7E",
"9. c #797974747D7D",
"0. c #7E7E7A7A7F7F",
"q. c #75F66C6C8181",
"w. c #78786E6E8080",
"e. c #7C26711B8630",
"r. c #787871718C8C",
"t. c #8C8C4D4D2121",
"y. c #9F9F52522E2E",
"u. c #A0A054542C2C",
"i. c #A0A061612B2B",
"p. c #808079797F7F",
"a. c #8E8E7F7F7B7B",
"s. c #828276768A8A",
"d. c #840378F98D8D",
"f. c #8D8D7C7C8E8E",
"g. c #86867B7B9191",
"h. c #82827B7B9898",
"j. c #90907F7F9494",
"k. c #810183038504",
"l. c #8A3484DA8C36",
"z. c #8B8B83839090",
"x. c #919188889494",
"c. c #929288889F9F",
"v. c #939391919D9D",
"b. c #98989C9C9F9F",
"n. c #96968989A1A1",
"m. c #99998D8DA5A5",
"M. c #9C9C8E8EA8A8",
"N. c #97979797A0A0",
"B. c #9D47913BAB55",
"V. c #9E9E9292B0B0",
"C. c #A3A399999999",
"Z. c #A0A08E8EA6A6",
"A. c #A4239515ADAD",
"S. c #A8A89393A3A3",
"D. c #A7279D9DBABA",
"F. c #AAEA9B9BB6F6",
"G. c #A8A8A4A4AAAA",
"H. c #ABABABABB5B5",
"J. c #B1B1A3A3BFBF",
"K. c #B4B4ACACB9B9",
"L. c #B636A727C3C3",
"P. c #B7B7A929C544",
"I. c #BABAADADC8C8",
"U. c #B9B9B5B5C443",
"Y. c #BDBDB4B4D2D2",
"T. c #C1C1B1B1CFCF",
"R. c #C0C0BABACFCF",
"E. c #C8C8C1C1D5D5",
"W. c #CFCFC4C4DDDD",
"Q. c #D1D1CACAE0E0",
"!. c #D6D6D0D0E4E4",
/* pixels */
"                              .                                 ",
"                                                                ",
"                            k W u                               ",
"                          | W.Q.U.h                             ",
"                        X r.d.t k s X                           ",
"                        X m k s.s.l.n                           ",
"                      . c O k 8.} 7.o                           ",
"                      $.| l ! ' 8.-.^                           ",
"                    _ z Q l 6.C.} x.>.                          ",
"                  #.<.z K d @ %.&.a.p.o.                        ",
"                p / ) Q $   0 4 # | M.G.. .                     ",
"              : #.T - = @ % d.d.1 Q j.K.,.n.M.m.A.F.z           ",
"            : =.d $     g w.P.f.#.P { Y.5.M.L.P.8.B.N           ",
"            c #..       . 3.S.A.D.~ 1  .o.B.I.n.o ;.0           ",
"            H.]             :.r.B t.C 4 * / 8.l * W <           ",
"          h v.    0         ; S U y.u.Z > 2.4.k 3 m r           ",
"        X / @.  < ,         @ S B D i.D - g n r $  .,           ",
"        # * 2 7 &           O 2 4 D L S - %.} } - n =           ",
"          O B w       u     X < * V Y D 2 > 2 * | W +           ",
"          & H > o   r >     b.I.e.8 U I x d @ m } x +           ",
"          X G & r 9 A     M E.F.D.v V q E 7.E } T j +           ",
"                . n r   X b.L.F.h.g * l j W <.E j y             ",
"                  o ] y ! Y.F.B.E     = t j Q ..- r             ",
"                    = &.e.P.V.N         = r r W ,.o             ",
"                      c l.s.N           $ r 0 9.W               ",
"                    p l.k.O.0             o a <.t               ",
"                + b l.<.c   +               X _ >.              ",
"                5.!./ _                     X x :               ",
"                U.#.                        X [ ,               ",
"              f #.    .                       d                 ",
"              X.1.=                         h e.a               ",
"            . < > +                         u X X               "
};
