/* XPM */
static char *[] = {
/* columns rows colors chars-per-pixel */
"32 32 167 2",
"   c #003B002A002D",
".  c #0A2C040403E2",
"X  c #0B2B09CA0A0A",
"o  c #1414039602DE",
"O  c #131306870A8B",
"+  c #123D0A350C0C",
"@  c #1A1A02020202",
"#  c #1B1B0C8D0404",
"$  c #14940E0E1111",
"%  c #1B1B12120E0E",
"&  c #141411921394",
"*  c #1B8212E01447",
"=  c #1C72156B196F",
"-  c #1E1E19191B1B",
";  c #232308080000",
":  c #24240E0E0C0C",
">  c #28280A0A0B0B",
",  c #23230F0F1212",
"<  c #252510900F0F",
"1  c #2A2A14140F0F",
"2  c #21A214141919",
"3  c #22A31A1A1C1C",
"4  c #2C2C1B1B1C1C",
"5  c #35350D0D0505",
"6  c #31310F0F0E0E",
"7  c #323215150F0F",
"8  c #3E3E13130909",
"9  c #323214141414",
"0  c #373719191212",
"q  c #313118181A9A",
"w  c #393916961494",
"e  c #3D3D1D1D1D1D",
"r  c #22221C1C2222",
"t  c #2B2B1D1D21A2",
"y  c #30301D1D2222",
"u  c #282821211F1F",
"i  c #267C222223CE",
"p  c #262629292A2A",
"a  c #2C0124A52B56",
"s  c #2CC629F72C93",
"d  c #2C2C25253131",
"f  c #323227272626",
"g  c #316423F12AC4",
"h  c #30DB2A2A2C2C",
"j  c #3B3B26262121",
"k  c #3A3A28282F2F",
"l  c #343427273030",
"z  c #35ED2ABD31E9",
"x  c #38B92BAC3333",
"c  c #3D3D2DAE3838",
"v  c #35B630B133B4",
"b  c #3B3B31313535",
"n  c #3C7C32523C3C",
"m  c #393938383232",
"M  c #3E3E3AE53C3C",
"N  c #3A3A35354141",
"B  c #3D3D3C3C4141",
"V  c #43431E1E1818",
"C  c #4E4E17171111",
"Z  c #494922221717",
"A  c #494920201A1A",
"S  c #4F4F29291616",
"D  c #4F4F2A2A1818",
"F  c #555522221F1F",
"G  c #5E5E31311D1D",
"H  c #428B34343D62",
"J  c #494936363E3E",
"K  c #5F5F30302020",
"L  c #737337371717",
"P  c #60602E2E2121",
"I  c #65E632B32222",
"U  c #696938382222",
"Y  c #787829292121",
"T  c #7A7A37372525",
"R  c #46C737374242",
"E  c #44E53AFB43C3",
"W  c #44C53B3B49CA",
"Q  c #4B4B36364444",
"!  c #48883BBC4505",
"~  c #4C4C3E3E4B4B",
"^  c #474741414848",
"/  c #4949424244EF",
"(  c #4C1942754BFF",
")  c #4D4D4C4C4F4F",
"_  c #4DCE44C551D2",
"`  c #515142424ECF",
"'  c #53FE46465252",
"]  c #539C4B4B550C",
"[  c #55554CCD5959",
"{  c #58584A4A5656",
"}  c #5B3E4DA35A77",
"|  c #55D652D254D5",
" . c #5C5C50505252",
".. c #5C5C55225C8F",
"X. c #5C5C59595E5E",
"o. c #5D5D51D262E3",
"O. c #62624E4E4545",
"+. c #606055555F5F",
"@. c #676759595656",
"#. c #620C5D5D5E08",
"$. c #69695B5B5858",
"%. c #626255556464",
"&. c #6B6B5DDE6CED",
"*. c #65655F5F7070",
"=. c #636361616161",
"-. c #676760606A6A",
";. c #696960E165E6",
":. c #6A6A64646AEA",
">. c #6E6E6A6A6969",
",. c #6E6E60607171",
"<. c #6B6B67677A7A",
"1. c #707060606E6E",
"2. c #73736B15731D",
"3. c #76766AC07AD0",
"4. c #7B7B6A6A7E7E",
"5. c #73F473F475F6",
"6. c #757578787878",
"7. c #79FA73737575",
"8. c #7B7B74747AFA",
"9. c #75F66D6D8484",
"0. c #75756D6D8888",
"q. c #767672728E8E",
"w. c #7DE472D983B6",
"e. c #7B7B72728888",
"r. c #7D7D75759191",
"t. c #808038382A2A",
"y. c #999951512C2C",
"u. c #A0A05C5C2A2A",
"i. c #ABAB60603030",
"p. c #818175757A7A",
"a. c #8F8F7E7E7F7F",
"s. c #822C75758933",
"d. c #818178788181",
"f. c #86067BFC8D0D",
"g. c #888878788A8A",
"h. c #8A8A7B7B9090",
"j. c #868688888A8A",
"k. c #888880808080",
"l. c #888882828B0B",
"z. c #8D8D82829999",
"x. c #909087879F9F",
"c. c #989890909595",
"v. c #9E9E9A9A9D9D",
"b. c #9C9C8E8EA2A2",
"n. c #98988E8EABAB",
"m. c #A4A48E8E8B8B",
"M. c #A9A99B9B9D9D",
"N. c #A1A19191ACAC",
"B. c #A4A49D9DAFAF",
"V. c #A5249C9CB2B2",
"C. c #A5A59B9BB9B9",
"Z. c #AE039E48BB10",
"A. c #AE2EA0A0BCBC",
"S. c #AFAFADADB3B3",
"D. c #B2B2A4A4A5A5",
"F. c #B0B0A3A3BEBE",
"G. c #B5B5AEAEBEBE",
"H. c #B8B8B3B3BFBF",
"J. c #B4B4A727C4C4",
"K. c #B9B9ACACC9C9",
"L. c #BDBDB8B8C3C3",
"P. c #BCBCBBBBCCCC",
"I. c #C0C0B5B5CECE",
"U. c #C3C3BCBCCECE",
"Y. c #C605BB3BD393",
"T. c #CDCDC2C2DFDF",
"R. c #E2E2DEDEF0F0",
/* pixels */
"                            ` 7.m                               ",
"                          ' Y.Y.G.h                             ",
"                        . r.z.a v i .                           ",
"                          d z w.8.l.b                           ",
"                      * M.@.a 0.[ 3.X                           ",
"                      f { a.$.g e.(                             ",
"                      ..k 2 p.D.x ( ) s                         ",
"                    ..7.` H O c.m.k.3 ;.X                       ",
"                  i [ ( { } 2 4 &.8.( s X                       ",
"                  | { n ' k + %.o ! P.i       .                 ",
"                  v ` J O . a K.g.5 :.v i                       ",
"                  ..E a N l Z.V.*.G O.a 3   M >.s               ",
"                p ] t   d q.e.e L Z o 3 W 2.Y.Y.Y.5.            ",
"                E 8.+     N A Y u.t.6 = x.! k f.Z.I.:.          ",
"                * n s   . 0 P F u.y.C X.t @ J A.A.J.f.X         ",
"                . B.3.  . , 9 9 U U > x q n <.&.! s.{ 3         ",
"                . L.E     < > w K P 9 o g f t @ H ~ } =         ",
"                . H.&   M V.' 7 I t.; . @ . @ q } } !           ",
"                % l.& # 7.T.A.! V 8 ! n + , g R } R X           ",
"                % o w D / b.Z.s.O [ K.} n ~ } } J .             ",
"                  o D j W H %.( 3 0.J.s.R } ' c .               ",
"              o : < 1 . / &.n ~ ~ _ &.g.= g 3 .                 ",
"                        6.R.N.* x ~ 9.8.2.f                     ",
"                        s j...X + . E 2.&.S.v.#.                ",
"                        l w.)       E (     E #.                ",
"                      & c ! .       M X..                       ",
"                      v f.^   .   X _ /       .                 ",
"                  .   ^ :.+       . n.n                         ",
"                  .   [ A..         9.[                         ",
"                      M [           * a                         ",
"                    X | =.X       X %.5.                        ",
"                      - - X       X -   o                       "
};
