/* XPM */
static char *[] = {
/* columns rows colors chars-per-pixel */
"32 32 169 2",
"   c #003A002A002A",
".  c #09FA03940394",
"X  c #080806060808",
"o  c #0BE70A2F0A9D",
"O  c #1454048503C4",
"+  c #15150B0B0606",
"@  c #11E70A600C0C",
"#  c #1B5B01820141",
"$  c #1D1D0B0B0101",
"%  c #18180D0D0C0C",
"&  c #1A1A0F0F1414",
"*  c #111110100F0F",
"=  c #191910100B0B",
"-  c #156B10661313",
";  c #1CC713131212",
":  c #1B9C15551919",
">  c #252508080101",
",  c #24240C4C0B8B",
"<  c #2D2D0B0B0A0A",
"1  c #22220E0E1111",
"2  c #2A2A14140F0F",
"3  c #226213131313",
"4  c #23A419FA1C5C",
"5  c #2B2B1A1A1F1F",
"6  c #313115150F0F",
"7  c #3E3E13130909",
"8  c #336614141414",
"9  c #303017171B1B",
"0  c #313118181B1B",
"q  c #3A3A16161515",
"w  c #23231C9C2323",
"e  c #2AEB1E5E22E3",
"r  c #30301D1D2323",
"t  c #3C3C1F1F2525",
"y  c #2A8021CC22CD",
"u  c #2CD7257B29D4",
"i  c #2B2B28282727",
"p  c #2B8129D42AD5",
"a  c #323224F22C2C",
"s  c #313129292A2A",
"d  c #3C3C26262020",
"f  c #3D3D24242929",
"g  c #3A3A28282F2F",
"h  c #33C92A953272",
"j  c #3ABB2CED3535",
"k  c #3D3D2E2E38B9",
"l  c #32B3303031B2",
"z  c #3AFB327233F4",
"x  c #3C3C339A3CBD",
"c  c #3A3A39393434",
"v  c #3AE53A3A3C3C",
"b  c #3B3B36364646",
"n  c #3F3F39394040",
"m  c #42421D1D1717",
"M  c #4DCE17171212",
"N  c #4F4F2A2A1818",
"B  c #515126261515",
"V  c #525224241818",
"C  c #50502A2A1717",
"Z  c #5BDC2E2E1C1C",
"A  c #47472C2C3333",
"S  c #404030303737",
"D  c #42A934673CD6",
"F  c #424238383D3D",
"G  c #4F4F33333535",
"H  c #5F5F24242121",
"J  c #60602F2F1F1F",
"K  c #65E632B32222",
"L  c #6A6A38382323",
"P  c #7B7B38382525",
"I  c #43C436B74040",
"U  c #45C63B5B4464",
"Y  c #44EF3B91489E",
"T  c #484837374343",
"R  c #49093C3C4545",
"E  c #49493D3D4949",
"W  c #595942423737",
"Q  c #45F04040459B",
"!  c #48C942424242",
"~  c #4D6A42254D86",
"^  c #4D4D4A4A4D4D",
"/  c #4DF8449A5353",
"(  c #4E4E4E4E5151",
")  c #515141414E4E",
"_  c #545446F152A8",
"`  c #53D44A0A5616",
"'  c #55554D4D5A5A",
"]  c #58584AF556AC",
"[  c #5B9B4D6D5A7A",
"{  c #585854545555",
"}  c #5CDD53D45D5D",
"|  c #5D5D58D95DDE",
" . c #525251516969",
".. c #5EDF52D361E2",
"X. c #63635D5D5E5E",
"o. c #616156566060",
"O. c #616154546868",
"+. c #64BA5EB463B9",
"@. c #6BEC5E5E6CED",
"#. c #6565626262E2",
"$. c #6BEC616163E4",
"%. c #6A6A64646E6E",
"&. c #6E6E6A6A6969",
"*. c #6F6F60607373",
"=. c #6D6D66E77C7C",
"-. c #6F6F6A6A7373",
";. c #747466666666",
":. c #7F7F6F6F6B6B",
">. c #717161617070",
",. c #76206B157474",
"<. c #72726B6B7878",
"1. c #7C7C6B6B7F7F",
"2. c #787873736F6F",
"3. c #72F274747474",
"4. c #78F9747479FA",
"5. c #7C7C78787D7D",
"6. c #73F46BEC8505",
"7. c #7AFA6E6E8181",
"8. c #7C7C74748585",
"9. c #797972728D8D",
"0. c #808038382A2A",
"q. c #9A9A53532D2D",
"w. c #A0A055552424",
"e. c #A1A15C5C2B2B",
"r. c #828272727070",
"t. c #8C8C7A7A7979",
"y. c #810175758403",
"u. c #838376768989",
"i. c #84847BBB8BCB",
"p. c #88887F7F8B8B",
"a. c #85857B7B9292",
"s. c #8B8B7C7C9292",
"d. c #868688888A8A",
"f. c #898986868989",
"g. c #8D8D82829999",
"h. c #919188888B8B",
"j. c #9E9E8E8E8F8F",
"k. c #9E9E9A9A9C9C",
"l. c #90908787A0A0",
"z. c #92928A8AA7A7",
"x. c #9C9C8F8FA3A3",
"c. c #99998E8EABAB",
"v. c #98989191AEAE",
"b. c #AC2C9C1C9B9B",
"n. c #A1A19191ACAC",
"m. c #A2229D1DAEAE",
"M. c #A4A49797B0B0",
"N. c #A1A19999B2B2",
"B. c #A7A79B9BB8B8",
"V. c #ACAC9C9CB7B7",
"C. c #AE2E9E1EBBBB",
"Z. c #A8A8A0A0B1B1",
"A. c #ACACA0A0BBBB",
"S. c #B3B3A9A9AAAA",
"D. c #B8B8A9A9AAAA",
"F. c #B0B0A3A3BEBE",
"G. c #B0B0ADADB3B3",
"H. c #B5B5AEAEBEBE",
"J. c #B8B8B3B3BFBF",
"K. c #B534A7A7C5C5",
"L. c #BD3DAE2ECBCB",
"P. c #BABAB6B6C343",
"I. c #C1C1B5B5CFCF",
"U. c #C3C3BCBCCECE",
"Y. c #C5C5B7B7D1D1",
"T. c #C343B9B9D1D1",
"R. c #C8C8C0C0D6D6",
"E. c #CDCDC3C3E0E0",
"W. c #E4E4E0E0F1F1",
/* pixels */
"                          ~ 4.c                                 ",
"                        _ T.R.H.l                               ",
"                      X 9.g.u h y .                             ",
"                        k h 7.5.f.x                             ",
"                    = ;.3 h 9.` <.X                             ",
"                    3 j.D.g b a.]                               ",
"                    z e F b.h.k a ! h                           ",
"                X | i.E y 5 S.r.$.e 3.*                         ",
"                X ' ] ] ) 3 G b.t.z F o                         ",
"                ^ ~ R ' k % f > ~ P.y         .                 ",
"                x } A e . a v.G t m.p p                         ",
"                +.h j 4 j m.I.v.N :.h 4 X v &.p                 ",
"              p #.h . 4 =.z. .W Z 6 w Y -.T.Y.U.5.              ",
"              v <.o     / k M w.P < : l.U g i.C.L.%.            ",
"              - x h   . 4 V H q.q.M } e # D A.F.K.s.o           ",
"              . m.7.  X , 8 8 K L 2 a 5 x =.>.U u.] 4           ",
"              . P.U     1 , q J J 8 # u a r # S ~ [ :           ",
"              X J.:   v V.` 8 K 0.> . # . # 9 ] [ R             ",
"              = f.- $ 2.R.F.T m 7 U x o 1 g F [ T @             ",
"              + + 8 C E x.V.i.@ ` L...D E [ [ F X               ",
"            . . O N d Y x .._ 4 6.K.u.F [ _ k X                 ",
"            . , , 2 X ! @.D E E / @.u.; a 4 X                   ",
"                      3.W.n.; h Y 1.8.,.a                       ",
"                      i d.o.o % X U ,.+.G.k.+.                  ",
"                      h 8.^       U ~     U +.                  ",
"                    - j R X       x X.X                         ",
"                    h d.~       X ~ !                           ",
"                    U *.%         c.x   X                       ",
"                    ' B..         6.'                           ",
"                    x O.          - u                           ",
"                  X { &.o       X #.4..                         ",
"                  X : : o       o 4   . .                       "
};
