/* XPM */
static char *[] = {
/* columns rows colors chars-per-pixel */
"32 32 170 2",
"   c #003A00270028",
".  c #09DF0404032E",
"X  c #0D0D06060808",
"o  c #090908080707",
"O  c #0C0C0A0A098A",
"+  c #115A04040404",
"@  c #12790A0A0AA4",
"#  c #1D1D01820182",
"$  c #191907070909",
"%  c #1C1C08080606",
"&  c #1C720C370AE0",
"*  c #12520E8F10D1",
"=  c #1C1C0DB81313",
"-  c #101010100E0E",
";  c #14D510D112D3",
":  c #1A9A10101394",
">  c #1D9E14141ADB",
",  c #1B1B18181717",
"<  c #1B1B199A199A",
"1  c #1F1F18182020",
"2  c #222203030404",
"3  c #23CE0DB80D0D",
"4  c #2D2D0B0B0E0E",
"5  c #292915150C0C",
"6  c #217712BD1414",
"7  c #20201C721E1E",
"8  c #2D2D15151111",
"9  c #282819191D1D",
"0  c #33B411111394",
"q  c #33B41C9C1A9A",
"w  c #3A3A1C1C1616",
"e  c #25251CC72222",
"r  c #29AA1D5D2262",
"t  c #343423231515",
"y  c #39BA22A31B1B",
"u  c #23E421E22262",
"i  c #272727272828",
"p  c #2AD522CD257B",
"a  c #2C6C23E429EA",
"s  c #2A2A28282727",
"d  c #2C2C2A2A2AD5",
"f  c #2A2A27273030",
"g  c #313121212222",
"h  c #32C124072A80",
"j  c #393927272D2D",
"k  c #345F2B8131DC",
"l  c #33B42DAE3939",
"z  c #39392C2C3737",
"x  c #3ABB2EAF39FA",
"c  c #363633333434",
"v  c #3D3D32DD38E3",
"b  c #3D3D39393F3F",
"n  c #3D3D36364343",
"m  c #44441C9C1394",
"M  c #4E4E1F1F1717",
"N  c #4B4B1A1A1B1B",
"B  c #474722221818",
"V  c #4B4B20201717",
"C  c #4B4B24241A9A",
"Z  c #4A4A29291515",
"A  c #545422221919",
"S  c #5E5E23231A1A",
"D  c #58582C2C1D1D",
"F  c #42422F2F3636",
"G  c #41412F2F3838",
"H  c #4267340F3CCF",
"J  c #43433C3C3B3B",
"K  c #4A4A3E3E3F3F",
"L  c #5E5E3B3B2323",
"P  c #70702E2E1414",
"I  c #686833332222",
"U  c #70702B2B2121",
"Y  c #75F63BBC2626",
"T  c #7C7C39392B2B",
"R  c #45C637374141",
"E  c #43EE3A3A4318",
"W  c #46463B3B4848",
"Q  c #494937374545",
"!  c #4A4A3C3C4444",
"~  c #4D4D3E94499F",
"^  c #71714A4A3737",
"/  c #474742424747",
"(  c #4D4D41C24BCC",
")  c #4D4D4A4A4E4E",
"_  c #4C7F444453ED",
"`  c #4A4A4A4A5151",
"'  c #4DCE4A4A5BDC",
"]  c #4F4F50505A5A",
"[  c #515146464444",
"{  c #519143834ECF",
"}  c #53FE46465252",
"|  c #54BB4AE45555",
" . c #50504A4A5B5B",
".. c #59594A4A5656",
"X. c #5AF44D1A5A27",
"o. c #53A954FF5959",
"O. c #5C5C525254D5",
"+. c #5BF554875C8F",
"@. c #5C5C50FB6161",
"#. c #62624C4C5050",
"$. c #61615B5B5E5E",
"%. c #606052D36060",
"&. c #65655B5B6565",
"*. c #67675A5A6969",
"=. c #62625C5C7070",
"-. c #686861615E5E",
";. c #6A6A63636767",
":. c #6AEA66666F6F",
">. c #6D6D69696A6A",
",. c #6BC1626270C6",
"<. c #6B6B64647B7B",
"1. c #757568686868",
"2. c #79796A6A6A6A",
"3. c #707067677D7D",
"4. c #72B26BEC7373",
"5. c #767668687E7E",
"6. c #727270706E6E",
"7. c #727274747575",
"8. c #7575727279FA",
"9. c #797975757A7A",
"0. c #7DFE78F97F7F",
"q. c #717168688080",
"w. c #7B7B6D6D8080",
"e. c #7D3D73B38444",
"r. c #7F2979238630",
"t. c #A3A358582A2A",
"y. c #B4B46C6C2E2E",
"u. c #82D875CB8630",
"i. c #828275758989",
"p. c #80807D7D8080",
"a. c #81817D7D8989",
"s. c #87877D7D9292",
"d. c #8C8C7D7D9413",
"f. c #868684848484",
"g. c #8A3483838B8B",
"h. c #8C36832D9C9C",
"j. c #8B8B89899090",
"k. c #9F9F89898888",
"l. c #909082829A9A",
"z. c #969693939494",
"x. c #971793939919",
"c. c #91918989A7A7",
"v. c #96968C8CAAAA",
"b. c #9B9B8D8DA4A4",
"n. c #9F1F9413A929",
"m. c #9E9E9494B5B5",
"M. c #A0A08D8D8A8A",
"N. c #A2A29595AEAE",
"B. c #A3A39A9AAEAE",
"V. c #A4A49797B0B0",
"C. c #A7A79919B4B4",
"Z. c #ADAD9F1FBABA",
"A. c #A9A9A5A5AAAA",
"S. c #AE2EA121BC3C",
"D. c #ADADA9A9B4B4",
"F. c #B5B5A4A4A3A3",
"G. c #B131A2A2BF3F",
"H. c #BDBDB1B1B2B2",
"J. c #BB7BACACC9C9",
"K. c #B6B6B4B4C3C3",
"L. c #BABAB5B5C3C3",
"P. c #BDBDB8B8C8C8",
"I. c #BF3FB433D3D3",
"U. c #C0C0B535B636",
"Y. c #C1C1B6B6B8B8",
"T. c #C3C3B6B6D3D3",
"R. c #C6C6BDBDD4D4",
"E. c #C8C8BEBED5D5",
"W. c #CBCBC5C5DADA",
"Q. c #ECECDCDCDEDE",
/* pixels */
"                            e *.6.                              ",
"                          ; b.W.E.9.o                           ",
"                          n m.X.a v .                           ",
"                          > l } g.0.4..                         ",
"                        p ! + =.+.=.E                           ",
"                      . M.Q.2.e <.u.@                           ",
"                      . ! 1.Y.U.! _ 7 u                         ",
"                      d +.6 h U.H.O.$.X.d   o                   ",
"                    u r.%.~ h 9 k.F.[ n k                       ",
"                  o / ( ~ $.G r 0 & B.8.X                       ",
"                  @ a.h } Q @ r.0.2 i.:.X   o                   ",
"                  ; +.{ h * =.J.I.#.^ o.E O   O .               ",
"                  d E a > ' c.h.&.L m = e O :.P.D.o.            ",
"                  o.H =   k ' h P t.N + *.e.r.d.G.E.7.          ",
"                  r.R     * w A Y y.U w ] F + } J.C.T.l         ",
"                  a E *   + 8 0 B Y m j { # z Z.u.N.d.H         ",
"                  ` J.;   $ 3 4 C I V = & = _ v 6 ~ ..W         ",
"              o   >.n.o X j.d.g V T S   % + 3 # G ..X.k         ",
"                  6.r.  - K.J.i.q V q | > r & 6 ~ ..~ X         ",
"                  ;.) X t K.G.Z.k e h.C.k h H } ..R o           ",
"                X 5 + D y r.n.G.h @.v.C.~ ( X...H .             ",
"              . 3 $ 5 Z l x W @.p h 3.T.| R W h .               ",
"                    & X . z.+.( ~ _ @.g.. = O .                 ",
"                        . 7.0.p & l *.u.g.J O                   ",
"                        ; X.a.O     . H | x.A.x.,               ",
"                        p Q p       O 4.,   : ;.p               ",
"                      O ,.5.-       d | i                       ",
"                      o w.v .       ' l.                        ",
"                      . S._   .     l h.o                       ",
"                        q.>           l o                       ",
"                      u p.d         d f.c                       ",
"                      < & 7         7 . . .                     "
};
