/* XPM */
static char *[] = {
/* columns rows colors chars-per-pixel */
"32 32 164 2",
"   c #003D002C002F",
".  c #09EC040403B8",
"X  c #0C0C0A0A0AA4",
"o  c #1414050503D1",
"O  c #12450A710BD9",
"+  c #1B1B01820182",
"@  c #1B1B0C8D0404",
"#  c #16160F0F1313",
"$  c #1F1F0F0F1515",
"%  c #1B1B12120E0E",
"&  c #149411921394",
"*  c #1B8212AC1414",
"=  c #1B5B14D518D9",
"-  c #232308080000",
";  c #23E40C4C0B4B",
":  c #2C2C0B0B0B0B",
">  c #23230F0F1212",
",  c #2A2A14140F0F",
"<  c #232313BE1212",
"1  c #22FE1A1A1B89",
"2  c #2B2B1B1B1F1F",
"3  c #323215150F0F",
"4  c #3E3E13130909",
"5  c #31F213D41414",
"6  c #313118181A9A",
"7  c #393916961494",
"8  c #23A41D9E2424",
"9  c #2AC41DEB2222",
"0  c #30301D1D2222",
"q  c #282821211F1F",
"w  c #272720202323",
"e  c #2B2B24242626",
"r  c #2C822525297F",
"t  c #2B812A802A80",
"y  c #31B124642BAC",
"u  c #30DB2A2A2C2C",
"i  c #3B3B26262121",
"p  c #3E3E22A32929",
"a  c #39392B2B2EAF",
"s  c #33E52AA1326D",
"d  c #3AE52CD7358B",
"f  c #3D3D2DAE3838",
"g  c #363630303535",
"h  c #3A3A32883434",
"j  c #3C6132A03D18",
"k  c #393938383232",
"l  c #3D7D39FA3BBC",
"z  c #3B3B33334040",
"x  c #3D3D3D3D4242",
"c  c #3E3E38384A4A",
"v  c #43431E1E1818",
"b  c #4F4F17171111",
"n  c #4E4E18181414",
"m  c #4F4F29291616",
"M  c #4F4F2A2A1818",
"N  c #515126261414",
"B  c #535324241818",
"V  c #59592D2D1919",
"C  c #46462B2B3131",
"Z  c #404030303737",
"A  c #424234673DD7",
"S  c #434338383D3D",
"D  c #494936363E3E",
"F  c #5E5E25252121",
"G  c #5F5F30302020",
"H  c #525236363838",
"J  c #60602F2F2020",
"K  c #65E632B32222",
"L  c #696938382222",
"P  c #797937372525",
"I  c #46C737374242",
"U  c #44613B1E43D2",
"Y  c #454539394A4A",
"T  c #48C93BE6451A",
"R  c #4A4A3E3E4B4B",
"E  c #5A5A42423737",
"W  c #464641414444",
"Q  c #474741414848",
"!  c #4949424244EF",
"~  c #4BAB41E24C2C",
"^  c #4DCE4BCC4ECF",
"/  c #4D4D44C55454",
"(  c #515142424ECF",
")  c #535345DF521F",
"_  c #53D449495494",
"`  c #55D64D4D5A5A",
"'  c #58584A4A5757",
"]  c #5B784DA35A5A",
"[  c #5A5A57575757",
"{  c #5C5C52A85D07",
"}  c #5C5C59595E5E",
"|  c #515150506767",
" . c #5F5F535364E5",
".. c #606055555F5F",
"X. c #61E25C5C5DDE",
"o. c #62625C5C62E2",
"O. c #6B6B5DDE6CED",
"+. c #6F6F61615F5F",
"@. c #65BB61B763B9",
"#. c #686860606767",
"$. c #686862626C6C",
"%. c #6E6E6A6A6969",
"&. c #6F6F60607171",
"*. c #6B6B67677A7A",
"=. c #757567676666",
"-. c #707060606E6E",
";. c #7D7D6E6E6A6A",
":. c #747467677878",
">. c #73F36AAA73F4",
",. c #76766A6A7C7C",
"<. c #7B7B6A6A7E7E",
"1. c #73F473F475F6",
"2. c #727270707979",
"3. c #757578787878",
"4. c #79FA73737575",
"5. c #7C7C78787D7D",
"6. c #72726A6A8282",
"7. c #75756D6D8888",
"8. c #7D3D733384C4",
"9. c #7B7B73738F8F",
"0. c #808038382A2A",
"q. c #999951512C2C",
"w. c #A1A156562424",
"e. c #A1A15D5D2B2B",
"r. c #808070706E6E",
"t. c #8A8A79797878",
"y. c #822C75758933",
"u. c #818178788181",
"i. c #84DA7C7C8B8B",
"p. c #85857C7C9292",
"a. c #8A8A7B7B9090",
"s. c #868688888A8A",
"d. c #8AE083838A34",
"f. c #8D8D82829999",
"g. c #9E9E9A9A9D9D",
"h. c #90908787A0A0",
"j. c #93938B8BA8A8",
"k. c #9C9C8E8EA2A2",
"l. c #98988E8EABAB",
"z. c #97979191ADAD",
"x. c #9E9E9B9BACAC",
"c. c #A0A091919191",
"v. c #ADAD9D9D9D1D",
"b. c #A1A19191ACAC",
"n. c #A4A49D9DAFAF",
"m. c #A4FA9B45B25C",
"M. c #A5A59A9AB8B8",
"N. c #AE039E48BB10",
"B. c #ADADA0A0BCBC",
"V. c #AFAFADADB3B3",
"C. c #B6B6A7A7A8A8",
"Z. c #B5B5AAAAACAC",
"A. c #B0B0A3A3BEBE",
"S. c #B5B5AEAEBEBE",
"D. c #B9B9B3B3BFBF",
"F. c #B4B4A727C4C4",
"G. c #BC3CAD2DCACA",
"H. c #B5B5B2B2C0C0",
"J. c #BDBDB8B8C3C3",
"K. c #C0C0B5B5CECE",
"L. c #C3C3BCBCCECE",
"P. c #C5C5BB3BD393",
"I. c #CDCDC2C2DFDF",
"U. c #E2E2DEDEF0F0",
/* pixels */
"                            ( 4.k                               ",
"                          ) P.P.S.t                             ",
"                        . 9.f.r d w .                           ",
"                          j s 8.5.d.h                           ",
"                      * =.< s 8._ :.X                           ",
"                      < c.C.s c p.)                             ",
"                      h 9 S v.d.z u ! g                         ",
"                  . } i.R 9 9 Z.;.#.9 2.X                       ",
"                  . ] ) ' ) > H v.t.h x X                       ",
"                  ^ ~ T ] a . p + / D.w       .                 ",
"                  l { h 8 . r M.C p x.r r                       ",
"                . o.s d = d M.G.l.N ;.s 1   l %.t               ",
"                t #.s   8 ,.j.| E V 5 8 U >.P.P.L.1.            ",
"                x :.X     / C n w.P : = h.I d i.N.K.$.          ",
"                = l s   . 1 B F q.q.b } 9 + D N.A.F.a.X         ",
"                  m.,.  . % 5 5 L L , a 6 z *.O.T y._ 1         ",
"                . J.U     < : 7 G G 5 + y r 6 + A ~ ] =         ",
"                . D.&   l m._ 3 K 0.- . + . + 6 ] ] T           ",
"                % s.& - 4.I.N.T v 4 U j O > r I ] I X           ",
"                O o 7 m ! k.N.y.o ` G.{ A R ] ] I .             ",
"                . o M i R j o.R 1 7.F.8.I ] ) f .               ",
"              o ; ; , . ! O.A R T / O.y.1 y 1 .                 ",
"                        3.U.b.% s R <.u.>.r                     ",
"                        t s.{ X # . U >.O.V.g.X.                ",
"                        s 8.^       ! ~     U X.                ",
"                      & f I X       l } .                       ",
"                      g i.~       X ~ !       .                 ",
"                      R &.O         z.j                         ",
"                      { M.          7.`                         ",
"                      l o.          $ r                         ",
"                    . [ @.X       X @.1.                        ",
"                    X 1 = X       X =   o                       "
};
