/* XPM */
static char *[] = {
/* columns rows colors chars-per-pixel */
"32 32 138 2",
"   c #002D00210023",
".  c #020205050C0C",
"X  c #0B0B00C10081",
"o  c #095F09890A35",
"O  c #0E0E0D0D1111",
"+  c #131305050437",
"@  c #101007070B0B",
"#  c #101008080707",
"$  c #14140B8C0B8C",
"%  c #1B1B08080505",
"&  c #1B1B09090909",
"*  c #12800E57115A",
"=  c #1A1A0D0D1313",
"-  c #11BC126813BE",
";  c #101011111D1D",
":  c #19DA125213D4",
">  c #191917171C1C",
",  c #1D841AE81B4E",
"<  c #1F1F1F1F2020",
"1  c #212109090606",
"2  c #25250CB70CB7",
"3  c #2BAC0F0F098A",
"4  c #222211920D8E",
"5  c #2B2B13130B0B",
"6  c #2C2C1D1D0A0A",
"7  c #262615961696",
"8  c #22BC1B821DB7",
"9  c #2C2C14141313",
"0  c #2C2C1A1A1BC6",
"q  c #36360E0E1414",
"w  c #363615150F0F",
"e  c #323215151111",
"r  c #3DBE13941616",
"t  c #24CF1EC92379",
"y  c #28A91E9E2424",
"u  c #22A322E32626",
"i  c #237922CD2A80",
"p  c #282825252626",
"a  c #2DAE25252BAC",
"s  c #2F2F2E2E2F2F",
"d  c #292925253086",
"f  c #2B2B28E93474",
"g  c #2EAF2D2D3838",
"h  c #333324242828",
"j  c #3131297F2CD7",
"k  c #3C3C24242323",
"l  c #343427273131",
"z  c #32072A553232",
"x  c #383829293434",
"c  c #353532323434",
"v  c #393935353BBC",
"b  c #3B3B3D3D3E3E",
"n  c #3BBC34344141",
"m  c #3D933BE64298",
"M  c #404015150C0C",
"N  c #42422A2A0B0B",
"B  c #43432C2C1111",
"V  c #4D4D22221C1C",
"C  c #5A5A38380F0F",
"Z  c #45C633B436B7",
"A  c #45453E3E3F3F",
"S  c #51513D3D3030",
"D  c #636336362B2B",
"F  c #414132324141",
"G  c #43433A074343",
"H  c #45C63D3D4949",
"J  c #49493D3D4848",
"K  c #707045451616",
"L  c #464640404646",
"P  c #494942424545",
"I  c #4D8D42C24C4C",
"U  c #4B4B4E4E4E4E",
"Y  c #4DCE4BCC5151",
"T  c #4C4C48485B5B",
"R  c #4E4E50505353",
"E  c #51514A4A5353",
"W  c #58584BCC56D7",
"Q  c #5B054E4E59AF",
"!  c #52D352525454",
"~  c #55D655555959",
"^  c #565658585959",
"/  c #5F5F51515E5E",
"(  c #58585A5A5E5E",
")  c #55554C4C6161",
"_  c #59594E4E6262",
"`  c #565651516666",
"'  c #5DDE54546565",
"]  c #5A5A56566B6B",
"[  c #5E085C5C6363",
"{  c #5DDE5B5B6DEE",
"}  c #626254D56363",
"|  c #60605CDD64E5",
" . c #64E55A5A6969",
".. c #64645E5E7777",
"X. c #666666666C6C",
"o. c #6C6C632373F3",
"O. c #686864647F7F",
"+. c #6B6B6E6E7171",
"@. c #6F6F717173F4",
"#. c #72726B6B7A7A",
"$. c #751F741E7B25",
"%. c #72727A7A7E7E",
"&. c #7A7A72727B7B",
"*. c #7AFB78787DFE",
"=. c #74746E6E8787",
"-. c #72726F6F8D8D",
";. c #777770708989",
":. c #7C3C73338585",
">. c #7F7F74748C8C",
",. c #7B7B7C7C81D7",
"<. c #828278787777",
"1. c #86867CD28D8D",
"2. c #82827A7A9696",
"3. c #87877F7F9A9A",
"4. c #828285858989",
"5. c #868681819E9E",
"6. c #8D8D81819292",
"7. c #898981819B9B",
"8. c #9C9C9A9A9F9F",
"9. c #8F8F8585A3A3",
"0. c #9A9A8F8FA2A2",
"q. c #99998D8DA8A8",
"w. c #9E9E943EAE03",
"e. c #9E9E9D9DA6A6",
"r. c #A1A19494ADAD",
"t. c #A44E9741B409",
"y. c #A7A79C9CB5B5",
"u. c #AD2D9E1EB9B9",
"i. c #AFAFA7A7B7B7",
"p. c #B534A626C343",
"a. c #B4B4A8A8C3C3",
"s. c #C141B4B4CE4E",
"d. c #C4C4B7B7D1D1",
"f. c #C7C7BABAD4D4",
"g. c #C8C8BFBFD8D8",
"h. c #C6C6C1C1D2D2",
"j. c #D5D5CCCCD1D1",
"k. c #D2D2CFCFE0E0",
/* pixels */
"                                                                ",
"                              8 6.i.*.o                         ",
"                            X 1.g.1.1.j                         ",
"                            o ` G j A P 8                       ",
"                          , j.<.v r.&.0.u                       ",
"                          E G 8.~ n ' I                         ",
"                        ' o.8 y [ i ;.W                         ",
"                      u o.G } G I ,.c $                         ",
"                      :.o.| Q a a Y o                           ",
"                      w. ., [ Q Q J                             ",
"                    O 7.1.X H Q I J                             ",
"                    f 2.p.1.v T y z                             ",
"                    g -.;.t.3.< : x s o                         ",
"                    > ] =.T H 0 %.W z $                         ",
"                    + 3 @ 2 M e $.,.Y <                         ",
"                  X # 2 q M q D Z - r.(   .           - o       ",
"                  h 0 w @ = $ X % + a q.j         - ^ @.u       ",
"                   .Z 3 { i.y.L y a   t w.a   . H X.b           ",
"                4 k & @ =.u.g.,.x >     ; 0 K S u               ",
"          X X 2 1 9 7 * ] t.a.$.X       N 5 V C                 ",
"        + 7 A 0 8 g < = n t.a.@.        B 6                     ",
"        X   R e.j.h.#.* i 9.h.@.  .                             ",
"            , v H o.p.3.d g a.$.    X                           ",
"                    O ..{ ! *.^                                 ",
"                  .   - ,.} &.Y                                 ",
"                    f R U * > p                                 ",
"                  o ) l ,                                       ",
"                  g _ @                                         ",
"                  f n                                           ",
"                  a x                                           ",
"                  ( 4.o                                         ",
"                . ,   X                                         "
};
