/* XPM */
static char *[] = {
/* columns rows colors chars-per-pixel */
"32 32 154 2",
"   c #0038002A002B",
".  c #0BEC030302A3",
"X  c #090909090687",
"o  c #0B79092E09E5",
"O  c #0B0B0D0D1111",
"+  c #0A0A10101313",
"@  c #129203840384",
"#  c #131305050909",
"$  c #10660A0A09B4",
"%  c #199A01010101",
"&  c #1D1D0A0A0909",
"*  c #14140DB81212",
"=  c #1B1B11110F0F",
"-  c #161616161616",
";  c #189813941414",
":  c #1A1A147B18B2",
">  c #1D1D18181717",
",  c #1E671A3F1A88",
"<  c #22220C0C0B0B",
"1  c #2B2B0C0C0E0E",
"2  c #24240F0F1313",
"3  c #2B2B0C0C1111",
"4  c #242411110E0E",
"5  c #232311921414",
"6  c #252515C01AC5",
"7  c #24CF1CC71DC8",
"8  c #28281B1B1414",
"9  c #292918181E1E",
"0  c #303003030707",
"q  c #333316160B0B",
"w  c #383816160E0E",
"e  c #31B212121090",
"r  c #33331A1A1414",
"t  c #3A3A17171414",
"y  c #39391B1B1E1E",
"u  c #24571C8323BD",
"i  c #2A2A1E1E2626",
"p  c #3E3E1D1D2222",
"a  c #313121211C1C",
"s  c #3C3C25251414",
"d  c #3E3E20201919",
"f  c #242420202525",
"g  c #232321A22B2B",
"h  c #282820202626",
"j  c #2BAC24A52B2B",
"k  c #2A2A28282727",
"l  c #2C2C286829EA",
"z  c #292927273232",
"x  c #2D2D2A8031DC",
"c  c #343426262C2C",
"v  c #32322D2D2EAF",
"b  c #3F3F2B2B2424",
"n  c #34B52B6B3373",
"m  c #3A3A2AAB32F3",
"M  c #3B3B2D2D3838",
"N  c #383832322F2F",
"B  c #363636363737",
"V  c #32DD31313CE7",
"C  c #3C3C32323AA8",
"Z  c #3A3A39393E3E",
"A  c #3C7C337341C2",
"S  c #3E3E3ABB4A4A",
"D  c #484813131616",
"F  c #424227271616",
"G  c #47472B2B1919",
"H  c #40402A2A2C2C",
"J  c #4D4D30302525",
"K  c #404039393939",
"L  c #656530301414",
"P  c #61613A3A2727",
"I  c #42823A7A4343",
"U  c #4B4B39394444",
"Y  c #4AE43DA449E3",
"T  c #47473E3E5151",
"R  c #54543D3D4646",
"E  c #454542424444",
"W  c #464644444F4F",
"Q  c #464648484C4C",
"!  c #484841414444",
"~  c #4C4C42754CE6",
"^  c #4C4C48F34A4A",
"/  c #454544445454",
"(  c #474748485B5B",
")  c #4E4E47475252",
"_  c #4CF74BA150FB",
"`  c #4D4D4A4A5C5C",
"'  c #4E4E51515555",
"]  c #51514ACB54D5",
"[  c #57574D4D5959",
"{  c #58584A4A5757",
"}  c #5C5C4E4E5ADB",
"|  c #565652525555",
" . c #565651515B5B",
".. c #5B9B52D35D1D",
"X. c #575750D165E6",
"o. c #5DB35454640E",
"O. c #6A6A44444242",
"+. c #626252525F5F",
"@. c #666657576262",
"#. c #64645CDD6666",
"$. c #69EA5C5C69EA",
"%. c #68685E5E7171",
"&. c #606062626868",
"*. c #686862626767",
"=. c #6AEA62E36D6D",
"-. c #6C6C69696D6D",
";. c #666660607474",
":. c #65656B6B7070",
">. c #6CED616171F2",
",. c #74746D6D7575",
"<. c #737370707070",
"1. c #7ABA73B373F4",
"2. c #7BD179CF7ED4",
"3. c #6E6E68688686",
"4. c #77776D6D8686",
"5. c #78786D6D8484",
"6. c #75F672728B8B",
"7. c #7E7E74748585",
"8. c #7A7A70708888",
"9. c #787878788383",
"0. c #7A7A73739090",
"q. c #82027AFA7CFD",
"w. c #87877E7E8787",
"e. c #84847A7A8E8E",
"r. c #8C0C7D7D8E0E",
"t. c #86867BFC9191",
"y. c #8B8B7E7E9393",
"u. c #8B8B82828F8F",
"i. c #8B8B83839B9B",
"p. c #919183839898",
"a. c #9E9E94949696",
"s. c #9A9A94949F9F",
"d. c #91918686A2A2",
"f. c #96969797A0A0",
"g. c #99199393A2A2",
"h. c #9D9D9292AFAF",
"j. c #AD2D9D1D9D1D",
"k. c #A2A29191ABAB",
"l. c #A7A79C9CBABA",
"z. c #A8A89E9EB7B7",
"x. c #ADAD9D9DBBBB",
"c. c #AEAEA1A1BD3D",
"v. c #AE03AC56BB10",
"b. c #B1B1A323BBBB",
"n. c #B6B6AFAFBFBF",
"m. c #B3B3A7A7C5C5",
"M. c #B534A8A8C4C4",
"N. c #C4C4BFBFC0C0",
"B. c #C2C2B6B6D0D0",
"V. c #C6C6BFBFD2D2",
"C. c #D0D0C8C8CACA",
"Z. c #D1D1C6C6DEDE",
"A. c #D151CBCBDF5F",
"S. c #E2E2DCDCE1E1",
/* pixels */
"                                    X                           ",
"                                                                ",
"                                  v ! ,                         ",
"                              X } A.A.M.k                       ",
"                                0.e.7 n 7 .                     ",
"                            k j.I i r.2.u.v                     ",
"                            Z j.N.o.%.[ =.X                     ",
"                        X Q :.I ,.C.W 5.~                       ",
"                        X &.~ Y * 1.S.=.C                       ",
"                        _ ) f I M u j.B                         ",
"                        u [ } M * 6 W X X                       ",
"                        n x n m x O.P o                         ",
"                      o _ ~ i j m.r.q   ^ <.v                   ",
"                      ' ,.j : 6.X.e O f.g.b.C.9.                ",
"                      S ~ i V m L H / R # t.x.B.2.              ",
"                        #.l $ w r O 3 % y.M.c.c.p.o             ",
"                      X A.%.% 3 d H 9 ( e.m.$.K } 6             ",
"                      X v.I y p J   . C ` c @ M } ,             ",
"                    . > v.~ 7.z.c.9.^ o 9 D 6 o.Y               ",
"                    : A ^ = F d.k.b.s.; . % m m .               ",
"                .   c 8 0 t s n U K I Y @.,.2.1.1.1.q.j         ",
"            < < e 5 6.n 5 4 G u # T ] #.m m > 7 , > , o         ",
"            o #   z 3.Y -   a g S g ^ +.;                       ",
"                  V  .o . + A h.l.4.o.=.,                       ",
"                , u.*.  X -.i.) A X   B k                       ",
"              u ,.$.      | x                                   ",
"            g 4.C E                                             ",
"            ;.o.                                                ",
"          X X.O                                                 ",
"          I A                                                   ",
"        > f...                                                  ",
"        - .                                                     "
};
