/* XPM */
static char *[] = {
/* columns rows colors chars-per-pixel */
"32 32 149 2",
"   c #0039002C002F",
".  c #070707070808",
"X  c #0A5302DE02BA",
"o  c #080807070808",
"O  c #0A0A09770977",
"+  c #129203030283",
"@  c #12120A0A0D0D",
"#  c #1D1D00000000",
"$  c #1B1B0A8B0C0C",
"%  c #145D0DE91280",
"&  c #1F1F11110808",
"*  c #141412921494",
"=  c #16161A1A1818",
"-  c #1AC5146A1616",
";  c #1BD314F01AF6",
":  c #1AFB1A5A1ABB",
">  c #1F1F1C1C2323",
",  c #222207070505",
"<  c #25250A0A0A0A",
"1  c #2D2D0E0E1111",
"2  c #232312BD0C0C",
"3  c #2AAB10100D0D",
"4  c #216116161C9C",
"5  c #22471AD21D8B",
"6  c #2C2C12121717",
"7  c #282813131B1B",
"8  c #2E2E18181818",
"9  c #38380F0F0F0F",
"0  c #39390E0E1515",
"q  c #333319190505",
"w  c #37371D1D0B0B",
"e  c #34341C1C1E1E",
"r  c #393914141717",
"t  c #3B3B15151818",
"y  c #383818181616",
"u  c #3B911CC71BC6",
"i  c #24A51C1C22A3",
"p  c #29AA1C9C25A6",
"a  c #313124241C1C",
"s  c #3E3E22221111",
"d  c #2424235624F2",
"f  c #252522222B2B",
"g  c #2929242424A5",
"h  c #2C2C23562A5D",
"j  c #28A929AA2C2C",
"k  c #2F2F37373939",
"l  c #333322222020",
"z  c #34DF22782BD6",
"x  c #303029292F2F",
"c  c #39392B2B2A2A",
"v  c #32B3252530B1",
"b  c #33B42CED3434",
"n  c #34342EAF3BBC",
"m  c #383827273333",
"M  c #39392DAE36B7",
"N  c #3C3C2F2F3939",
"B  c #33B430B13CBD",
"V  c #3A3A32B336B7",
"C  c #3DBE33B43C3C",
"Z  c #42421A1A1717",
"A  c #4F4F1E1E1616",
"S  c #515115150909",
"D  c #414124241515",
"F  c #42422D2D3232",
"G  c #414135353F3F",
"H  c #41413E3E3C3C",
"J  c #626222221818",
"K  c #6E6E39392626",
"L  c #79793D3D2525",
"P  c #444436B74242",
"I  c #45B73A3A4427",
"U  c #46463F3F4E4E",
"Y  c #48C93ABB4444",
"T  c #4BA13E3E49F4",
"R  c #47474A4A4B4B",
"E  c #4BCC44C54CCD",
"W  c #4BA144EF51FC",
"Q  c #49494D4D5151",
"!  c #52524A4A4F4F",
"~  c #555544C552D2",
"^  c #52D34A4A55D6",
"/  c #55554C4C5ADA",
"(  c #5D1D4D8D5B9B",
")  c #51FC53A955AB",
"_  c #545454545A5A",
"`  c #5C5C57575D5D",
"'  c #5A5A5A5A5A5A",
"]  c #5C5C54D56262",
"[  c #595954546868",
"{  c #5ADA5C5C63E4",
"}  c #5D5D62626363",
"|  c #5E5E60607A7A",
" . c #626251515656",
".. c #606050505E5E",
"X. c #64E556566464",
"o. c #65655A5A6464",
"O. c #62625A5A6E6E",
"+. c #61615A5A7070",
"@. c #63B963B96711",
"#. c #656566666AEA",
"$. c #691362B8640E",
"%. c #6E6E65656868",
"&. c #6A6A6A6A6CED",
"*. c #646465657070",
"=. c #6DC364BA72C8",
"-. c #6F6F69697070",
";. c #71F264647777",
":. c #73F46BEC7474",
">. c #757568687C7C",
",. c #73C9721C73C9",
"<. c #747470707A7A",
"1. c #7B7B71F27373",
"2. c #7D7D76767878",
"3. c #7E7E78787979",
"4. c #6F6F67678080",
"5. c #78786F6F8484",
"6. c #7BFC743485C5",
"7. c #7DFE7BFC8303",
"8. c #8B8B6F6F7373",
"9. c #808079797B7B",
"0. c #830376768B0B",
"q. c #84847E7E8484",
"w. c #858581818585",
"e. c #898982828D8D",
"r. c #890989898E8E",
"t. c #898984849090",
"y. c #99998A8A8989",
"u. c #999995959D9D",
"i. c #9C9C9898A1A1",
"p. c #9C9C9393B2B2",
"a. c #A3A39595ACAC",
"s. c #A54F9943B50A",
"d. c #AB2B9D1DB939",
"f. c #ABABA0A0A0A0",
"g. c #A9A9A0A0B5B5",
"h. c #ABABA0A0B9B9",
"j. c #B1B1ADADB8B8",
"k. c #B4B4B0B0BEBE",
"l. c #B1B1A3A3C1C1",
"z. c #B8B8A929C6C6",
"x. c #BBBBABABCACA",
"c. c #BCBCB5B5C6C6",
"v. c #BCBCB3B3CBCB",
"b. c #C5C5B5B5D4D4",
"n. c #C5C5BB3BD5D5",
"m. c #D0D0C7C7DEDE",
"M. c #DCDCD4D4D6D6",
"N. c #CDCDC0C0E1E1",
"B. c #D7D7D0D0E6E6",
/* pixels */
"                                                                ",
"                                - C H                           ",
"                              ; a.B.m.:..                       ",
"                              C p.! d C X                       ",
"                          : f.1.; ( e.q.;.                      ",
"                        . ) 7.3.w.O.] =.G                       ",
"                        j #.W x q.w.W 0.@                       ",
"                      . Q U N P % M.i./ O                       ",
"                      o -.I V C ; %.y.                          ",
"                      . h P ( p . I g   .                       ",
"                      d ^ N > % P K a                           ",
"                      _ C m . =.N.8.+ = &.' .                   ",
"                    O r.~ % E s.X.- k $.o.n.j.g                 ",
"                      x p > | F S 4 e < ;.s.z.c.g               ",
"                      ) g.f u J L 3 7 ] b.z.0.s.E               ",
"                  .   @.v.@ 9 u D + B [ 6./ $ T T               ",
"                      :.5.X t Z 2     n z , z ..P               ",
"                  .   &.*.X 2 A 8 V X   t 1 b X.5               ",
"                      $ 6 w b u y 5.h +   @ G 5                 ",
"        X         2 2 < 0 s g G M P T ( $.9.9.,.2.3.$.          ",
"                , 3 + = % q c ; z I ^ Y Y p 5 5 : 5 -           ",
"            i U V   = k.d. .h ; v m >.i %                       ",
"            { n.l.+.= d.x.4.i p 4 4 E O                         ",
"              } h.<.,.6.0.% @ -   _ &.                          ",
"                @.-...r.j       = u.v .                         ",
"                = : O d O       % @.`                           ",
"                              O p Y R                           ",
"                              % ~ ^                             ",
"                              ; >.O                             ",
"                              h ^                               ",
"                            o @.r..                             ",
"                            o -   o                             "
};
