/* XPM */
static char *[] = {
/* columns rows colors chars-per-pixel */
"32 32 163 2",
"   c #003A002E002F",
".  c #0C0C0421043D",
"X  c #0AEB0A8A0BEC",
"o  c #13BE02580258",
"O  c #137A09700B3E",
"+  c #1B7101AC0157",
"@  c #1A1A0A8B0B8C",
"#  c #15150E0E1192",
"$  c #121210100D0D",
"%  c #159614141414",
"&  c #1A1A111114F0",
"*  c #1E1E13131919",
"=  c #1D1D1C1C1D1D",
"-  c #222209090707",
";  c #2DD80AB50A60",
":  c #2B810DB81313",
">  c #252511110606",
",  c #202014140B0B",
"<  c #22221414196F",
"1  c #222218981C5C",
"2  c #28281B1B1F1F",
"3  c #39391C1C0808",
"4  c #353510101313",
"5  c #3B3B10101313",
"6  c #393915151A1A",
"7  c #383818181B1B",
"8  c #20EE1C8322BC",
"9  c #2AC41C1C22F0",
"0  c #2B2B1C1C2929",
"q  c #30301E9E2929",
"w  c #3B3B26260A0A",
"e  c #3B3B27271414",
"r  c #235622552525",
"t  c #272728282626",
"y  c #2B8122222626",
"u  c #2E8425D02C82",
"i  c #2BAB2BD62BAC",
"p  c #282826263131",
"a  c #2F2F2B2B3737",
"s  c #32B323792BAB",
"d  c #303029292A2A",
"f  c #3A3A22222323",
"g  c #333327273030",
"h  c #32B32CED3434",
"j  c #35B62E2E39BA",
"k  c #3B7B2D2D3535",
"l  c #3ABB2EAF3B3B",
"z  c #36D032CC39D3",
"x  c #3C2233E73D3D",
"c  c #3B3B3A3A3939",
"v  c #3F3F3E3E4040",
"b  c #404016160F0F",
"n  c #424218181010",
"m  c #44441B1B1919",
"M  c #48481A1A1717",
"N  c #50501F1F1818",
"B  c #414121211C1C",
"V  c #525223231E1E",
"C  c #53532F2F1B1B",
"Z  c #44442F2F2D2D",
"A  c #40402F2F3535",
"S  c #4A4A2F2F3838",
"D  c #494935352E2E",
"F  c #419733DE3E3E",
"G  c #45C639BA3E3E",
"H  c #656537371D1D",
"J  c #7E7E2F2F1F1F",
"K  c #444434B54242",
"L  c #43433AE5459B",
"P  c #459B3B9149F4",
"I  c #48483A3A4444",
"U  c #4BF63E694A4A",
"Y  c #5E5E41413737",
"T  c #46F1414143EE",
"R  c #44C543C44848",
"E  c #4B0B42024D0D",
"W  c #4B4B4D4D4D4D",
"Q  c #4C4C44845393",
"!  c #4A4A47475A5A",
"~  c #4C4C54545B5B",
"^  c #505047474E4E",
"/  c #505049494848",
"(  c #52A8464651A7",
")  c #54FF489E54AA",
"_  c #57574C4C5858",
"`  c #58D948C95656",
"'  c #5BDC4E0E5BDC",
"]  c #505054545858",
"[  c #5D5D57575757",
"{  c #5A5A52A85C06",
"}  c #5C5C59595A5A",
"|  c #53534D4D630D",
" . c #565651516666",
".. c #5B5B52526262",
"X. c #5E5E5C5C6969",
"o. c #606052525A5A",
"O. c #62625B5B5C5C",
"+. c #70705C5C5C5C",
"@. c #63635B5B66E7",
"#. c #650F5B0569BF",
"$. c #6A6A5D5D6B6B",
"%. c #63E45D5D71F2",
"&. c #63B9630D69BF",
"*. c #6AEA646468E9",
"=. c #696960607171",
"-. c #6B6B6D6D7171",
";. c #707069696F6F",
":. c #757567677171",
">. c #707066667979",
",. c #731D6B157E7E",
"<. c #7A7A6F6F7878",
"1. c #747470707D7D",
"2. c #757579797E7E",
"3. c #7A7A75757B7B",
"4. c #74746F6F8989",
"5. c #7E7E6F6F8181",
"6. c #7F7F73738686",
"7. c #7D7D72F38B0B",
"8. c #7DD37AD083D9",
"9. c #7C7C7A7A9696",
"0. c #828242422020",
"q. c #82824D4D3E3E",
"w. c #85057CFD8484",
"e. c #86067AFA8C8C",
"r. c #888879798E8E",
"t. c #84847F7F9494",
"y. c #8A8A7F7F9797",
"u. c #848485858A8A",
"i. c #888887878D8D",
"p. c #8C8C84849494",
"a. c #8A8A81819898",
"s. c #8C8C88889494",
"d. c #9B9B97979A9A",
"f. c #96968E0EABAB",
"g. c #98988C8CA3A3",
"h. c #9A9A9393A1A1",
"j. c #9D9D9191AB2B",
"k. c #9E9E9D9DA7A7",
"l. c #A4A497979595",
"z. c #A3A39595AFAF",
"x. c #A4239C1CACAC",
"c. c #A0A09595B1B1",
"v. c #A6FC9A44B409",
"b. c #A9A99A9AB5B5",
"n. c #ABAB9F49BBBB",
"m. c #A4A4A2A2ACAC",
"M. c #ADADA9FFB35D",
"N. c #B0B0AAAAADAD",
"B. c #B131A3A3BE3E",
"V. c #B2B2AE2EBC3C",
"C. c #BDBDAFAFB1B1",
"Z. c #BCBCB3B3B4B4",
"A. c #B5B5A7A7C7C7",
"S. c #BEBEAFAFCECE",
"D. c #BCBCB0B0CFCF",
"F. c #B9B9B9B9C5C5",
"G. c #C3C3B7B7B8B8",
"H. c #C0C0B7B7C5C5",
"J. c #C2C2BEBECECE",
"K. c #C443B534D353",
"L. c #C646C141D353",
"P. c #D5D5CECED1D1",
"I. c #DFDFDADAE0E0",
/* pixels */
"                                                                ",
"                                          .                     ",
"                                                                ",
"                                  . #.x.M.i                     ",
"                                  x D.k.4.*.                    ",
"                              X / L _ d T I G                   ",
"                              v N.G.y 7.e.p.$.                  ",
"                            X &.X.8.I.E E @.%                   ",
"                          t 8.U z u l.P.X.e.X                   ",
"                          { p ` ` K 8 C.Z.O                     ",
"                      . R ` x x ( O < ) } z                     ",
"                      ~ 8.k U # . Q S e R z .                   ",
"                    X.^ g 8 X . k n.B.q.D ~     $               ",
"                    z U & =.v.j.B.n.f.' k z W m.H.i.t           ",
"                  . k.R . j.n.f.9.k e   u 8 s.F y.K.V.i         ",
"                    L.>.  !  .j : 0.w   & 2 + I b.b.S.h.        ",
"                    V.v   . @ ; M H . v d ; j v.K.g.w.$.#       ",
"                    F.X   - ; 6 : 4 D 4.7 1 | %.,.9 9 ' <       ",
"                . & { O > I j b N b ^ @.O y & x ; @ _ ) X       ",
"                  . + m C #.y.f J N l @.O + . o 4 s ` y         ",
"                      3 Z x E x B < 9 F ' 8 @ 0 z _ <           ",
"                    c +.z.5.P k ! U P u q U 8 ' ' *             ",
"                  % J.A.c.4.8   . g U r.w.*.d q .               ",
"              i . z a.%.p       . U F * ( <.M.d.}               ",
"    r i i u.M.J.h ;.3..         . 0 g & c { . E O.              ",
"    & w.3.t.7.| &.:.x .                 0 X.i                   ",
"    O r         = %                   . 0 P X   .               ",
"          .                             # K a                   ",
"                                          * Q                   ",
"                                            l 8                 ",
"                                          $ -.2.                ",
"                                          O 1 o .               "
};
