/* XPM */
static char *[] = {
/* columns rows colors chars-per-pixel */
"32 32 162 2",
"   c #003B0029002E",
".  c #070706060808",
"X  c #070709090F0F",
"o  c #0B9403E20336",
"O  c #0934070708B3",
"+  c #0C620A0A0B8B",
"@  c #131302830081",
"#  c #131306870889",
"$  c #11D20C0C0C4C",
"%  c #1D1D03030404",
"&  c #1D1D09090505",
"*  c #1C1C0A0A0C62",
"=  c #12790D0D1111",
"-  c #1B1B0E8F1394",
";  c #1D1D13130101",
":  c #1C1C10100808",
">  c #171710101515",
",  c #1A1A12921494",
"<  c #1B5B14941999",
"1  c #1D731D1D1C72",
"2  c #1E1E1C1C2323",
"3  c #202000000000",
"4  c #2A800D0D0D63",
"5  c #202012120909",
"6  c #2D2D1A1A0F0F",
"7  c #23CE12121616",
"8  c #216116961BDC",
"9  c #22A319DA1E5E",
"0  c #2F2F12121515",
"q  c #2A2A14141919",
"w  c #2AAB1A9A1A1A",
"e  c #32320F0F0505",
"r  c #34340F0F0E0E",
"t  c #393918180A0A",
"y  c #32B313941192",
"u  c #33B416961B1B",
"i  c #383814141616",
"p  c #23231B4021FD",
"a  c #29AA1E1E24A5",
"s  c #2D2D1E1E2929",
"d  c #35B61F1F25A6",
"f  c #3E3E26261F1F",
"g  c #3C3C2A2A1D1D",
"h  c #22A321A225A6",
"j  c #242424242929",
"k  c #26A728A92929",
"l  c #296924642525",
"z  c #2D6022BC2A2A",
"x  c #2CED2B2B3474",
"c  c #2F2F30303232",
"v  c #323225252EAF",
"b  c #348A297F2ED9",
"n  c #393925252B2B",
"m  c #33B4252530B1",
"M  c #33B42AEB3232",
"N  c #3D3D2D2D3636",
"B  c #3C3C2F2F3F3F",
"V  c #333335353838",
"C  c #3B3B32DD3BBB",
"Z  c #3ABB3AFB3D3D",
"A  c #3C3C39BA41C2",
"S  c #383838384848",
"D  c #44440F0F1212",
"F  c #40401D1D2323",
"G  c #414123231313",
"H  c #4E4E28281414",
"J  c #515130301B1B",
"K  c #4E4E2E2E2929",
"L  c #431E32C53CCF",
"P  c #61613F3F1919",
"I  c #62623C3C3838",
"U  c #7C7C37372020",
"Y  c #454538E34399",
"T  c #4ACB3B3B4545",
"R  c #4B8B3D7D4949",
"E  c #474740404444",
"W  c #474742424949",
"Q  c #48C940C14747",
"!  c #4AEB42E34B8B",
"~  c #48C9484848C9",
"^  c #4C4C454551D2",
"/  c #4DF84AA052FD",
"(  c #4CF74AA05D5D",
")  c #4F4F52525353",
"_  c #5C5C45454444",
"`  c #52D245455454",
"'  c #555549CA54D5",
"]  c #547F4BA15A85",
"[  c #585848485656",
"{  c #5BA44DE05BC9",
"}  c #515150505757",
"|  c #53D453D45A5A",
" . c #5F5F55555656",
".. c #595958585F5F",
"X. c #4F4F4B4B6060",
"o. c #555553536767",
"O. c #5E0854AA6363",
"+. c #5DDE5CDD61E2",
"@. c #606059DA6868",
"#. c #6A6A5CDD6D6D",
"$. c #6AEA5F5F71F2",
"%. c #650F64BA6C16",
"&. c #6C1664646A14",
"*. c #6BC169BF6C6C",
"=. c #676762627070",
"-. c #6EEF646474F5",
";. c #696962627B7B",
":. c #79796D6D6969",
">. c #737364647373",
",. c #777767677878",
"<. c #74746E6E74F5",
"1. c #75F669697A7A",
"2. c #72F272F27575",
"3. c #767672F27B7B",
"4. c #797972727575",
"5. c #7B7B71F27B7B",
"6. c #7B7B78787D7D",
"7. c #74746AC0822C",
"8. c #79796D6D8181",
"9. c #7BD1741E8DE3",
"0. c #7E7E76769191",
"q. c #90904C4C1E1E",
"w. c #818172728282",
"e. c #868679798B8B",
"r. c #87877CFD9292",
"t. c #85857EFF9919",
"y. c #8A8A7D7D9292",
"u. c #848484848888",
"i. c #898981818D8D",
"p. c #8B8B89898A8A",
"a. c #8E8E82029696",
"s. c #8D2682829B9B",
"d. c #909093939A9A",
"f. c #999994949393",
"g. c #8E8E8989A7A7",
"h. c #94948B8BA7A7",
"j. c #92929090A0A0",
"k. c #9B9B9090AC2C",
"l. c #9D9D9898A7A7",
"z. c #9B9B9595B0B0",
"x. c #A32394949393",
"c. c #A4A49393AAAA",
"v. c #A4A49797B2B2",
"b. c #AB009BF1B50A",
"n. c #ADAD9C9CBBBB",
"m. c #A8A8A0A0B3B3",
"M. c #ADADA0A0BBBB",
"N. c #ACACABABB0B0",
"B. c #B0B0A2A2BE3E",
"V. c #B6B6B0B0BFBF",
"C. c #B333A625C343",
"Z. c #B7B7AAAAC2C2",
"A. c #B6B6ABABC8C8",
"S. c #BE3EAEAECCCC",
"D. c #C3C3BCBCBDBD",
"F. c #C1C1B6B6CFCF",
"G. c #C2C2BFBFCDCD",
"H. c #C343B3B3D252",
"J. c #C4C4BEBED0D0",
"K. c #D1D1C6C6DEDE",
"L. c #DCDCD8D8DDDD",
"P. c #D2D2CACAE1E1",
/* pixels */
"                                                                ",
"                                  b T 1                         ",
"                              . { K.K.V.k                       ",
"                                9.e.l M p o                     ",
"                          . V :.~ a e.6.i.b                     ",
"                      h Z %.%.R f.+.$.{ -..                     ",
"                  . c O.' z ' T ! G.! 7.!                       ",
"                ..C ' v Y p R { = x.L.%.C                       ",
"                M p < p = = 2 8 * W x. .j   .                   ",
"              *.s.2   = Y @ o   d u A W }                       ",
"              G.s.    . -.4 % N z.I H / |   ! &.l               ",
"            ) b.=     2 C.5.R b.C.b.K l z d.l.Z.J.2.            ",
"            d.j   .   ( S.C.S.g._ f X p j T # y.n.F.2.          ",
"          * q . 5 o   M k.t.o.d q.;   < 0 % y.C.M.B.a.O         ",
"          o 4 y J >     x q 6 U J   1.n * ( a.A.#.L { 8         ",
"              G f ] ! M * 4 r i G R &.u A C ( b @ C { <         ",
"              6   o a Y ] R L d e w.-.V ,.z 7 D 7 { T           ",
"                      o % m { 5.4.&.u   8 L o 7 R T +           ",
"            + ~     # o z 9.c.,.>.<.N.p.*.7 Y ] Y .             ",
"          o %.C.^   + O.S h.B.H.@.z L &.4.T [ L o               ",
"            $ C 0.^ * t.X.] B.n.k.N { L v L 8                   ",
"            @ o m 7.. X.^ - t.H.a.9 L v 8 o                     ",
"            o   + z / } z < p 7.3.Z > +                         ",
"                O 3.R 4.+.    c 5.p                             ",
"                . k + < k   O ~ { =                             ",
"                            @.] *.Z                             ",
"                          . v.;.O .                             ",
"                          O s.x                                 ",
"                          = 9.                                  ",
"                            5..                                 ",
"                          2 u.Z                                 ",
"                          1 o o                                 "
};
