/* XPM */
static char *[] = {
/* columns rows colors chars-per-pixel */
"32 32 172 2",
"   c #003700280029",
".  c #0A1E03170303",
"X  c #098A07070909",
"o  c #0A210A0A0A21",
"O  c #0F0F0D0D1414",
"+  c #11D204040303",
"@  c #15150C0C0606",
"#  c #13130A0A0909",
"$  c #1B1B00000000",
"%  c #1C1C0B8C0D8E",
"&  c #14940F0F1111",
"*  c #151510101111",
"=  c #151512BD1B1B",
"-  c #1A7010BB13BE",
";  c #1D5014E21A81",
":  c #1DC81BC61E1E",
">  c #242400000505",
",  c #222206060808",
"<  c #222209090B0B",
"1  c #2C2C07070808",
"2  c #28A90D0D0B8C",
"3  c #27270E0E1010",
"4  c #222212120000",
"5  c #282813130F0F",
"6  c #262614141717",
"7  c #212114141C9C",
"8  c #23A31AF01DF3",
"9  c #2E2E1E1E1616",
"0  c #32B30A8B0B8C",
"q  c #37370E0E1010",
"w  c #3E3E14140B0B",
"e  c #343413131717",
"r  c #343417171A1A",
"t  c #393916161212",
"y  c #23791D1D2379",
"u  c #2B5E1C1C2424",
"i  c #37371E1E2424",
"p  c #363620200C0C",
"a  c #3E3E23231A1A",
"s  c #212121212121",
"d  c #262627272929",
"f  c #272728282929",
"g  c #292923A423A4",
"h  c #2C5124B72BBE",
"j  c #2DAE2A6A2E2E",
"k  c #2B2B26263030",
"l  c #2E2E2B2B3232",
"z  c #323224572CC6",
"x  c #33332E2E2D2D",
"c  c #363627273232",
"v  c #31DC29D431DC",
"b  c #36362E2E3A90",
"n  c #38B92D2D34B5",
"m  c #303032323434",
"M  c #373732DD3BE6",
"N  c #3C3C32323636",
"B  c #3D0A31313AD4",
"V  c #3ABB3B3B3C3C",
"C  c #363634344343",
"Z  c #3F3F3B3B4949",
"A  c #414114140606",
"S  c #4C4C24241313",
"D  c #4D4D24241B1B",
"F  c #545423230F0F",
"G  c #555524241D1D",
"H  c #54542D2D1818",
"J  c #434334743D3D",
"K  c #4E4E36363C3C",
"L  c #48483D3D3A3A",
"P  c #636320201515",
"I  c #666629291919",
"U  c #6F6F3B3B1B1B",
"Y  c #626230302222",
"T  c #43DD363641A8",
"R  c #42C23CBD4318",
"E  c #449A3D3D4B4B",
"W  c #4B4B3D3D4747",
"Q  c #49CA3E3E4909",
"!  c #4C4C40403B3B",
"~  c #45C641C24242",
"^  c #46C745454848",
"/  c #4D7842174B4B",
"(  c #4E4E4B4B4C4C",
")  c #444443435A5A",
"_  c #4BA144EF52FD",
"`  c #4CA24A4A53A9",
"'  c #4E4E4ACB5DDE",
"]  c #5151436E4ECF",
"[  c #515148484B4B",
"{  c #595942424C4C",
"}  c #525245455151",
"|  c #55954B8B5494",
" . c #5F5F46465353",
".. c #585849495555",
"X. c #59DA4DCE5ADA",
"o. c #565655555757",
"O. c #55D656565959",
"+. c #585850505252",
"@. c #5F5F51515D5D",
"#. c #5C5C58585656",
"$. c #595959595B5B",
"%. c #52524C4C6161",
"&. c #585852526565",
"*. c #595954546969",
"=. c #5CDD5EDF62E2",
"-. c #5C5C61616767",
";. c #60E156565ADB",
":. c #626259595B5B",
">. c #63B954FF63B9",
",. c #646458586767",
"<. c #66105C066A6A",
"1. c #67675C5C7272",
"2. c #606061616464",
"3. c #626264646B6B",
"4. c #646468686F6F",
"5. c #6D6D62626DEE",
"6. c #6666606070F1",
"7. c #656560607979",
"8. c #6A6A61617575",
"9. c #6F6F69697474",
"0. c #6F6F73737676",
"q. c #72726BEC6D6D",
"w. c #75756CED73F4",
"e. c #75756F6F7A7A",
"r. c #737372727676",
"t. c #78F974747BFC",
"y. c #7B7B7B7B7F7F",
"u. c #74F56D6D8403",
"i. c #7F7F6F6F8080",
"p. c #7C7C727283EA",
"a. c #7C7C79798686",
"s. c #7E7E78788E8E",
"d. c #8A8A53532424",
"f. c #818174748383",
"g. c #82D876208AE0",
"h. c #87877C7C8B8B",
"j. c #828279799191",
"k. c #8B0B7D7D9494",
"l. c #850483838686",
"z. c #8B3585DB8D8D",
"x. c #8D8D8A8A8F8F",
"c. c #8E8E83839B9B",
"v. c #95958AE09D47",
"b. c #959590909494",
"n. c #929294139D1D",
"m. c #999993939B9B",
"M. c #8C8C8585A1A1",
"N. c #9A9A8D8DA7A7",
"B. c #9D9D8D8DA9A9",
"V. c #99999191A3A3",
"C. c #9DF39191A9A9",
"Z. c #A6A689899191",
"A. c #ACAC9D1DBB3B",
"S. c #AEAEA0A0BBBB",
"D. c #ADADA9A9B5B5",
"F. c #B3B3ABABBBBB",
"G. c #ABABA2A2C0C0",
"H. c #B2B2A4A4C141",
"J. c #B6B6A8A8C6C6",
"K. c #BCFCAE2ECC8C",
"L. c #BD3DB636CACA",
"P. c #BBBBB8B8C6C6",
"I. c #BDBDB3B3D4D4",
"U. c #C0C0BCBCC3C3",
"Y. c #C4C4B5B5D353",
"T. c #C61BBCBCD47E",
"R. c #C9C9BDBDD7D7",
"E. c #CDCDC8C8CECE",
"W. c #CFCFC3C3DDDD",
"Q. c #D0D0C5C5C7C7",
"!. c #E6E6D8D8D8D8",
"~. c #EAEADEDEDEDE",
/* pixels */
"                                                                ",
"                                                                ",
"                                                                ",
"                                    u v.F.y.o                   ",
"                                    k.T.p.a.g                   ",
"                                j L ' J n ~ / 8                 ",
"                              o x.Q.q.M C.e.v.;                 ",
"                              m -.` E.m.M ,.Q                   ",
"                          o =.3.B y [ !.x.u.[                   ",
"                          M E B X...: :.~.o.o                   ",
"                        d | } l X.v + T | O.o                   ",
"                      o n.T } y . - ,.0 ! ` o                   ",
"                    f 9.v h X o W i.Y.Z.F 6.o   o X             ",
"                    s / n h C.C.Y.J.i.<.h | : y.P.D.$.          ",
"                    O.v.  _ I.H.M.) U 4 = 7 3.5.] J.T.w.X       ",
"                X   $.W.X O 1.E z I d.  . j 2 , g.S.A.T.V       ",
"                    -.V.  . # 2 t Y p & ` < u <.R.H.f.f.T       ",
"                    r.a.  - 2 r q > A w. .+ C *.u._ % W W       ",
"                  X N J   5 G w B y.#.E   + + b i $ n >.h       ",
"                  @ . q D S P K A.Y.L.n.V . } & 1 r Q ] X       ",
"                      + H T b Z 1.c.S.Y.L.o.h 6 k / T .         ",
"                      9 D u T } Q Q >.k.B.T./ B >.J             ",
"                . & u.@.u c - . y B _ ,.f.t.( ; u X             ",
"              : ; k %.: 8 X       u J ] ..z.b.w.8               ",
"      R h M <.g.n R l.^           - n ; O ^ @.q.U.x             ",
"      #.h.T v u 8 z.] :                 ' s.~   . X             ",
"    . 8 o         h                     Z N.  .                 ",
"                                          j.l                   ",
"                                          &.6.                  ",
"                                          = 1.                  ",
"                                          f l.j                 ",
"                                          s   . .               "
};
