/* XPM */
static char *[] = {
/* columns rows colors chars-per-pixel */
"32 32 168 2",
"   c #00300029002C",
".  c #070709090C0C",
"X  c #0AF103D10303",
"o  c #080806870889",
"O  c #0C8D08890707",
"+  c #0C6C0BCC0C8D",
"@  c #111104040404",
"#  c #141406060808",
"$  c #17170D0D0606",
"%  c #13940C0C0E0E",
"&  c #1AC501570157",
"*  c #19C40AB50C62",
"=  c #15960E4E1292",
"-  c #1C1C0D0D1292",
";  c #111110100E0E",
":  c #157512F31495",
">  c #161613AD1AB4",
",  c #189813131394",
"<  c #1BE915481B4E",
"1  c #1C1C18181F1F",
"2  c #1F1F1F1F2121",
"3  c #1F1F20A121A2",
"4  c #212100000101",
"5  c #24A50B8C0B0B",
"6  c #27270E0E1212",
"7  c #202012920A8B",
"8  c #24CF126812BD",
"9  c #2356157C1980",
"0  c #22E31A5A1C9C",
"q  c #2B2B18181010",
"w  c #2BAC19191B1B",
"e  c #31B20C8D098A",
"r  c #32320F0F1313",
"t  c #323210100909",
"y  c #36361B1B0B0B",
"u  c #383814140E0E",
"i  c #3A3A11111414",
"p  c #39391F1F1010",
"a  c #26261B9C2323",
"s  c #29291E512558",
"d  c #2BAC1F1F28A9",
"f  c #323223231C1C",
"g  c #222222782323",
"h  c #2CAD212126A7",
"j  c #2BD622782B81",
"k  c #2C2C2AD52B81",
"l  c #2E2E2A2A3535",
"z  c #2E2E2D2D3838",
"x  c #319F23B62B99",
"c  c #33B42C2C2BAC",
"v  c #393921212626",
"b  c #393928282E2E",
"n  c #333327273333",
"m  c #32B32A2A34F5",
"M  c #34B52D2D39BA",
"N  c #3B3B2B2B3030",
"B  c #34B5327234B5",
"V  c #3A6533DE3B66",
"C  c #3AE53636449A",
"Z  c #3F3F3B3B4D4D",
"A  c #474719190E0E",
"S  c #4E4E2A2A1616",
"D  c #515132321F1F",
"F  c #4F4F37372C2C",
"G  c #424232DD3B3B",
"H  c #43433A3A3C3C",
"J  c #676723231C1C",
"K  c #636330301B1B",
"L  c #6C6C31311C1C",
"P  c #454537374242",
"I  c #45283B3B4225",
"U  c #40C139394B4B",
"Y  c #4ACB3ABB43C4",
"T  c #4BCC3E3E4ACB",
"R  c #43433B3B5050",
"E  c #6E6E42421616",
"W  c #414142424646",
"Q  c #46C7434349CA",
"!  c #4C2143184CCD",
"~  c #494948484A4A",
"^  c #44C542425151",
"/  c #4B4B45455757",
"(  c #4C4C46465A5A",
")  c #4ECF4BCC5353",
"_  c #54FF469C5353",
"`  c #53BA4AB154BB",
"'  c #54544B8B5A1A",
"]  c #58584ACB5959",
"[  c #54AA53FE5656",
"{  c #5BDC59DA5A5A",
"}  c #4D4D4B4B6060",
"|  c #51514D4D6060",
" . c #5E5E53D461E2",
".. c #5F5F58587272",
"X. c #6B6B4F4F5959",
"o. c #626259595858",
"O. c #64E556166525",
"+. c #616157576868",
"@. c #62625BB16464",
"#. c #60605D5D6F6F",
"$. c #6E6E5F5F6B6B",
"%. c #64645CDD7474",
"&. c #656561616767",
"*. c #636366666868",
"=. c #6B3863FD6D6D",
"-. c #6C6C6AEA6D6D",
";. c #69EA65657EFF",
":. c #6B6B6A6A7272",
">. c #6D6D70707474",
",. c #707062626060",
"<. c #707066666E6E",
"1. c #727265657575",
"2. c #7373696974F5",
"3. c #7A7A6D6D7B7B",
"4. c #777776767F7F",
"5. c #7A7A70707676",
"6. c #7B7B75757A7A",
"7. c #7C7C78787777",
"8. c #78786D6D8282",
"9. c #777777778383",
"0. c #777770708989",
"q. c #797970708383",
"w. c #7AFA76768A0A",
"e. c #7E7E7A7A8989",
"r. c #969655552C2C",
"t. c #89896D6D7272",
"y. c #80807C7C7F7F",
"u. c #828272728383",
"i. c #838376768B8B",
"p. c #84847CBC8484",
"a. c #85057BFC9393",
"s. c #848481818D8D",
"d. c #888883838989",
"f. c #878782829E9E",
"g. c #8C8C84849494",
"h. c #949484848383",
"j. c #95958D8D8E8E",
"k. c #939388889191",
"l. c #93938F8F9B9B",
"z. c #959594949D9D",
"x. c #989894949B9B",
"c. c #89898585A2A2",
"v. c #96968BCBA5A5",
"b. c #98988C8CA4A4",
"n. c #9A9A8D8DADAD",
"m. c #9E9E9393A7A7",
"M. c #9E9E9292AAAA",
"N. c #A2229A1AAAAA",
"B. c #ACEC9F1FBB3B",
"V. c #A7A7A2A2B0B0",
"C. c #AAAAA7A7B3B3",
"Z. c #AFAFA0A0BBBB",
"A. c #AD02A9FFB4B4",
"S. c #AEAEACACB9B9",
"D. c #B2B2A2F8BF69",
"F. c #B3B3AF2FBE3E",
"G. c #B7B7B5B5BCBC",
"H. c #A9A9A2A2C2C2",
"J. c #B333A5A5C1C1",
"K. c #B3B3A9A9C8C8",
"L. c #BB10AD02CB20",
"P. c #BDBDB7B7CCCC",
"I. c #C0C0AEAECBCB",
"U. c #C3C3B7B7D0D0",
"Y. c #C7C7BDBDD5D5",
"T. c #CBCBBFBFDADA",
"R. c #D7D7CBCBE7E7",
"E. c #F0F0E5E5E8E8",
/* pixels */
"                                  o                             ",
"                                                                ",
"                                  O.N.A.c o                     ",
"                                V L.V.8.=.                      ",
"                                m %.h I I H                     ",
"                          o a { ,.  a.p.g.=.                    ",
"                      o B ) 9.Q 6.p.M +.O.,                     ",
"                    2 W $.k I _ n j.x.U i.O                     ",
"                g @.V _ s G s O.n b E.y.V +                     ",
"                > k = s = = = s # s 5.h.[ +   o                 ",
"              3 N.| o   C , X   0 r H k =..                     ",
"              { R.l     ) T 4 @ w.u.D f 4.o , -.[ X             ",
"            o C.)       b.D./ 3.L.H.t.8 j ) C.m.Y.A.g           ",
"            Q e.  O     N.D.L.K.3.D : > 1 I 6 P B.D.G.g         ",
"          $ q - 7 y     0.a.} N L E   : 9 4 Y J.J.B.D.I         ",
"            X r S G M = > x A J r.  m 1.& C #.Z.b.V ] I         ",
"            o * p 1 I ] T b w 5 t q a.v h h ( T = 9 _ P         ",
"              X       X < x / +.X.F ! 9 * s 0 i e V O.<         ",
"                      o _  . .Y $.l.6.o.9 V 9 * x _ s           ",
"                      *.T.I.c.t u ^ 2.d.G.H w _ ] 0             ",
"                  o % S.B.v...o m %.#.R x V ] T 0               ",
"              X 7 & -.U.v.;.2   = a x <.=.d x *                 ",
"              X X O S.n.;.>     X - , 3.x +                     ",
"                  + :.^ > :   I %.| C &.!                       ",
"                  6.p.k   B 2.C z >   + ~                       ",
"              + [ k.<     , @.                                  ",
"              z.M.) :                                           ",
"        o   B P.R                                               ",
"            >.w.                                                ",
"            s.>                                                 ",
"        X ~ p.+                                                 ",
"        o 1   X                                                 "
};
