/* XPM */
static char *[] = {
/* columns rows colors chars-per-pixel */
"32 32 150 2",
"   c #002F00220024",
".  c #070707070808",
"X  c #070708080606",
"o  c #070709090909",
"O  c #0B0B04510485",
"+  c #0D8E07070889",
"@  c #0ABC0A0A09E2",
"#  c #138100930049",
"$  c #123D0C8C0D0D",
"%  c #1E1E00000101",
"&  c #199A08080808",
"*  c #16160D0D1111",
"=  c #1A1A11110F0F",
"-  c #161615151313",
";  c #1A1A12BD13BE",
":  c #1C5C15551ADB",
">  c #1E9E199A1C9C",
",  c #20A102830384",
"<  c #262605050808",
"1  c #242409090707",
"2  c #22E30B4B0B0B",
"3  c #29290F0F0D0D",
"4  c #23230F0F1010",
"5  c #21A212921353",
"6  c #23A416961C1C",
"7  c #25251A1A1111",
"8  c #25251E1E1D1D",
"9  c #2F2F16161616",
"0  c #2C2C1A1A1C72",
"q  c #313114141494",
"w  c #3B3B16161414",
"e  c #3B3B16161818",
"r  c #3C3C19191717",
"t  c #24A51D1D2323",
"y  c #2A911D5023BD",
"u  c #2B92235624BE",
"i  c #2C07236C2B06",
"p  c #2B2B29292A2A",
"a  c #2C2C27273131",
"s  c #2EAF2C2C3333",
"d  c #363622222020",
"f  c #343426A72E2E",
"g  c #31312F2F2F2F",
"h  c #33892B0032B3",
"j  c #34342D2D3C3C",
"k  c #3A902CD734B4",
"l  c #353530302E2E",
"z  c #34DF31DC3288",
"x  c #3A3A32B33737",
"c  c #3CBD33F43AFB",
"v  c #3CBD38383B3B",
"b  c #3E3E3A3A4040",
"n  c #464614140202",
"m  c #43431E1E1616",
"M  c #46C725A61313",
"N  c #464628281616",
"B  c #46C72D2D1B9C",
"V  c #545421211717",
"C  c #535327271B1B",
"Z  c #41412E2E3434",
"A  c #4B4B32322828",
"S  c #4318335E3BE6",
"D  c #42423CBD3D3D",
"F  c #5B5B26262121",
"G  c #79FA35351E9E",
"H  c #444436364040",
"J  c #43AA3A6D43DD",
"K  c #45453E3E4CF7",
"L  c #4A4A3CE7469C",
"P  c #49CA3EBF4ACA",
"I  c #44443F3F5050",
"U  c #7D7D5A5A3838",
"Y  c #444443434848",
"T  c #4C4C44C545C6",
"R  c #4C0C41814D4D",
"E  c #4E4E4F4F4F4F",
"W  c #464642985151",
"Q  c #4A4A444454D5",
"!  c #4A4A4C4C5252",
"~  c #4CA24AF55A04",
"^  c #50D143034DCE",
"/  c #542145DF5285",
"(  c #56234B7E5522",
")  c #55554C4C5CB2",
"_  c #59DA4ACB5757",
"`  c #5B5B4C8C59DA",
"'  c #525250D15454",
"]  c #5D5D53535757",
"[  c #59DA52D258D9",
"{  c #5B5B5A5A5B5B",
"}  c #52524F4F6060",
"|  c #5DDE531361E2",
" . c #5DDE55D66D6D",
".. c #69695C5C5B5B",
"X. c #666659596161",
"o. c #63635ADB6B6B",
"O. c #686857576464",
"+. c #626261616363",
"@. c #646462626868",
"#. c #696963636C6C",
"$. c #6C6C68686E6E",
"%. c #666663637B7B",
"&. c #696961617272",
"*. c #737363636666",
"=. c #737364BA751F",
"-. c #727267677878",
";. c #73736D6D7676",
":. c #7AFA6E6E7C7C",
">. c #721C72C87474",
",. c #747474747AFA",
"<. c #787871717B7B",
"1. c #74746C6C8282",
"2. c #79796E6E8585",
"3. c #7DBD74F58A8A",
"4. c #7C7C7E7E8181",
"5. c #83834F4F2222",
"6. c #828277778A8A",
"7. c #81817E7E8282",
"8. c #852F7E288BE1",
"9. c #8D8D7E7E9515",
"0. c #840381018D0D",
"q. c #8A8A85858787",
"w. c #888881818F8F",
"e. c #8C8C80809191",
"r. c #898981819E9E",
"t. c #959584848989",
"y. c #919191919494",
"u. c #95958A8AA2A2",
"i. c #9A9A9090A3A3",
"p. c #9E9E9393AA2A",
"a. c #A1A19494ADAD",
"s. c #A3F99D9DA34D",
"d. c #A1A19C9CAFAF",
"f. c #A6269919B535",
"g. c #AAAA9D9DB8B8",
"h. c #ACACA2A2A3A3",
"j. c #ADADA5A5B5B5",
"k. c #AE2EA121BE3E",
"l. c #AEAEABABB6B6",
"z. c #B7B7AAAAC7C7",
"x. c #BBBBB6B6C5C5",
"c. c #BBBBB7B7C8C8",
"v. c #BDBDBABACACA",
"b. c #BEBEB1B1D0D0",
"n. c #C6C6BABAB8B8",
"m. c #C1C1B2B2CFCF",
"M. c #C5C5B7B7D4D4",
"N. c #C2C2BCBCD2D2",
"B. c #C8C8BEBED6D6",
"V. c #CACABFBFDADA",
/* pixels */
"                                                                ",
"                          : 9.j.7.@                             ",
"                        X 1.V.8.8.g                             ",
"                        X  .P f D T u                           ",
"                        X 5 h a.:.i.u                           ",
"                      $ s.s.D ) | ^                             ",
"                      l >.( g O.3._                             ",
"                    @ ! | S f y ..[ s                           ",
"                    . v i y k t n.*.i                           ",
"                    @ ;._ / ; O 0 #.;                           ",
"                    @ 0.P _ i o.< ] -         X                 ",
"                      Y :.y R b.<.n D @   @ X                   ",
"                      @ k $ &.b.g.t.= + #.x.l.{                 ",
"                      s c 6 %.| d A Q 6.6.9.g.V.,.              ",
"                    o 8./ * y % G 5.~ S # ^ z.f.M.v             ",
"                      x k t 1 F G U L # k g.6.a.9.H             ",
"                        0.Q , e r M 0 R I S 4 P _ L             ",
"                      o v.K q q w N -.O.+ # Z _ ` h             ",
"                        W } d.3.V m ; # # 4 L _ R +             ",
"                        : i =.u.q S o.> c / ` H X               ",
"                    X 7 3 < B k # j r.P / _ H O                 ",
"              O + 2 4 >., C A K i y ) 1.k h X                   ",
"            O 2 2 & T N.&.N 0 S R / J W t                       ",
"                    E p.| O * y 0 ; i W ~ =.v $                 ",
"                    ' ,.v           8 H h K 8.s.y.D $           ",
"                  z _ _ >         O b ( @     ; [ s.q.          ",
"                @ ~ #.$           >  .u .           X           ",
"                a f.x @           y 3.X         .               ",
"                h c.-             i J                           ",
"                g >.            o +.>.                          ",
"                ' <.@           @ u 4 X                         ",
"              . u # & X             O O                         "
};
