/* XPM */
static char *[] = {
/* columns rows colors chars-per-pixel */
"32 32 156 2",
"   c #003900270025",
".  c #0B0B03EF03AE",
"X  c #0B8C08080606",
"o  c #0BD90A240ABE",
"O  c #161603030202",
"+  c #13460AD80C73",
"@  c #1E1E04040404",
"#  c #1A700A600A8B",
"$  c #10100D0D1010",
"%  c #181812120F0F",
"&  c #13AD125F12AC",
"*  c #19BA129313F4",
"=  c #181817171B1B",
"-  c #1C1C1A9B1C5C",
";  c #1E1E20202020",
":  c #21CC0BE10C37",
">  c #29290E0E0A0A",
",  c #22220F0F1010",
"<  c #282811110404",
"1  c #2B2B10100C0C",
"2  c #24A512921292",
"3  c #232315151A9A",
"4  c #24241B1B1717",
"5  c #23F1194C1EEC",
"6  c #2AAB12121192",
"7  c #282819191010",
"8  c #2C2C18181B1B",
"9  c #34340F0F1414",
"0  c #383813130D0D",
"q  c #303019191010",
"w  c #3B3B14D513D4",
"e  c #24241B9C2222",
"r  c #2CD71D1D22CD",
"t  c #32321C1C2121",
"y  c #282821211F1F",
"u  c #262622CD24CF",
"i  c #2A2A21A22525",
"p  c #2D2D25A62B2B",
"a  c #2CD72A802B81",
"s  c #2B2B26263333",
"d  c #34CE25F32C93",
"f  c #32B32C2C2CED",
"g  c #359C2B92339A",
"h  c #39BA2AAB3030",
"j  c #3B3B2E2E3939",
"k  c #333332323434",
"l  c #3B3B31313535",
"z  c #39BA31B23ABB",
"x  c #393938383232",
"c  c #353532324242",
"v  c #3DBE35B643C4",
"b  c #3E3E3F3F4141",
"n  c #3F3F39394848",
"m  c #3F3F42424343",
"M  c #4F4F1F1F1919",
"N  c #434320200B0B",
"B  c #4A4A27270101",
"V  c #4E4E21211515",
"C  c #4B4B24241818",
"Z  c #4A4A2A2A1616",
"A  c #48482F2F3636",
"S  c #4F4F32322727",
"D  c #43EE348A3BE6",
"F  c #41973A903C3C",
"G  c #494936363F3F",
"H  c #545434342525",
"J  c #42C334B54040",
"K  c #45453B104318",
"L  c #49F43B9146F1",
"P  c #4A4A3DE84949",
"I  c #696940401111",
"U  c #737351513636",
"Y  c #444442C248C9",
"T  c #484840404545",
"R  c #4F4F40404C4C",
"E  c #4D4D4A4A4CCD",
"W  c #4F4F45C651D2",
"Q  c #4D4D4E4E50D1",
"!  c #4A4A48485858",
"~  c #521F44774EB5",
"^  c #505049494343",
"/  c #555548484C4C",
"(  c #5429464652D2",
")  c #55D64A0A54D5",
"_  c #515149495959",
"`  c #585848485555",
"'  c #5C314E235BDB",
"]  c #555551D25858",
"[  c #5DDE52D25D5D",
"{  c #5B5B5B5B5C5C",
"}  c #4D4D4D4D6464",
"|  c #5BDC53D465E6",
" . c #5EDF58D96AEA",
".. c #68684D4D4747",
"X. c #64645C5C5D5D",
"o. c #65655F5F6262",
"O. c #64BA5CB26D17",
"+. c #6C6C5D5D6D6D",
"@. c #650F640E6711",
"#. c #696963636464",
"$. c #6AEA62626CED",
"%. c #6F6F64647575",
"&. c #6E6E70707373",
"*. c #70706C6C6E6E",
"=. c #737367677777",
"-. c #71716B6B7777",
";. c #787869697979",
":. c #777772727D7D",
">. c #787870707777",
",. c #7A3A77377CFD",
"<. c #73736D6D8787",
"1. c #76766F6F8989",
"2. c #78786F6F8484",
"3. c #7CFD72F28403",
"4. c #797972728E8E",
"5. c #7E7E79798282",
"6. c #7A7A79799898",
"7. c #8C8C3D3D2323",
"8. c #848458584C4C",
"9. c #848478787777",
"0. c #820274F58707",
"q. c #818179798383",
"w. c #868679798D8D",
"e. c #888876768888",
"r. c #858584848B0B",
"t. c #8A0A81018B0B",
"y. c #8D8D8C8C8E8E",
"u. c #8A8A85859292",
"i. c #8D8D82829999",
"p. c #8E8E8B8B9696",
"a. c #93938E8E9191",
"s. c #959596969F9F",
"d. c #91918787A0A0",
"f. c #9B9B8D8DA3A3",
"g. c #9BF19191ABAB",
"h. c #9E9E9898A0A0",
"j. c #A1A19C9CA2A2",
"k. c #A3A39B9BADAD",
"l. c #A7A79C9CB7B7",
"z. c #ABAB9E9EB7B7",
"x. c #AD029E48BBBB",
"c. c #A3A3A1A1AEAE",
"v. c #AFAFA1A1BDBD",
"b. c #B232A2A2BEBE",
"n. c #B6B6AFAFB5B5",
"m. c #B2B2AEAEBB3B",
"M. c #BFBFB4B4B3B3",
"N. c #B308A57AC1EC",
"B. c #B433AD2DC141",
"V. c #B8B8A9A9C6C6",
"C. c #B6B6B2B2C2C2",
"Z. c #C3C3BC66CECE",
"A. c #C670BC66D47E",
"S. c #CBCBC443CACA",
"D. c #D4D4C5C5C4C4",
"F. c #D1D1CECED2D2",
/* pixels */
"                            / >.x                               ",
"                          ( A.A.m.f                             ",
"                        X 4.i.p g u .                           ",
"                          j s 2.,.t.l                           ",
"                      X #.+ j 2.) =.o                           ",
"                      k S.F.*.v 3.)   .                         ",
"                      f z / n.M.) z                             ",
"                    u 5.K 8 d S.D.4                             ",
"                  X $.' ` ~ 3 O 9.X.a                           ",
"                  E Y L ' P e r O  .*                           ",
"                  E +.h g , + g.A 0 .     X                     ",
"                . K z D # O %.N.z.8.f o                         ",
"                X K j * K O.V.N.x.@.i   $ @.{ X                 ",
"                m 5.+   | 1.<.6...B c P k.A.Z.m.a               ",
"                u ( =   s ` h w 7.I } 2.d ~ l.N.m.-             ",
"                $  .[   o + 0 M V U ] O : w.N.N.x.L             ",
"                . Z.+.  , 9 w 9 M H d 8 ! w.D %.+.K             ",
"                X m.-   > > * * + < 6 p d # 8 L ( K             ",
"                X m.3 . 2 e.l.g.B.^ O * @ @ G ' ' -             ",
"                7 F : N K N.V.x.V.h.- # r g ( ` i .             ",
"                  . C S n J q.f.N.C.z P ) ' ) 5                 ",
"              O : q Z O J L P W ' 3.K L ~ ~ 5                   ",
"          . + : # X   m ,.G r h K _ ;.) d .                     ",
"                  .   Q ' e + $ P | [ q.s.a.F +                 ",
"                      m r.&.= o p ,.E   * [ j.a.                ",
"                  ] @.,.) ;     & w.D X       o                 ",
"                o C.W ,.X         a #.                          ",
"              o c.| $ ;           s u.=                         ",
"            = p. .                & g.-.                        ",
"            - ,.X                   o d.] =                     ",
"            . = &                     = r.u .                   ",
"            . #                       o + .                     "
};
