/* XPM */
static char *[] = {
/* columns rows colors chars-per-pixel */
"32 32 151 2",
"   c #00330029002A",
".  c #0C5B03DC0279",
"X  c #0BB604AF0909",
"o  c #090908080606",
"O  c #0BB60AB50AEE",
"+  c #0F0F10101010",
"@  c #1292042F0404",
"#  c #11DF0C0C0DDB",
"$  c #1D1D00000000",
"%  c #1F1F07070808",
"&  c #199A0B8C0C0C",
"*  c #15150E0E1212",
"=  c #1E1E0E0E1111",
"-  c #1D1D11110707",
";  c #1414105012D3",
":  c #159611111A1A",
">  c #171718181818",
",  c #1A70156B1369",
"<  c #1BC615C01C1C",
"1  c #1E9E1B9C1D9E",
"2  c #1E1E21212020",
"3  c #232308080707",
"4  c #23A40C0C0B8C",
"5  c #2E2E0B0B0707",
"6  c #2A2A0F0F0E0E",
"7  c #21210F0F1010",
"8  c #242410900A8B",
"9  c #232316161616",
"0  c #22621ADB1D1D",
"q  c #282816161C1C",
"w  c #393905050B0B",
"e  c #32B317171596",
"r  c #3D3D18181414",
"t  c #25251D1D2424",
"y  c #28281D9E20A1",
"u  c #3F3F27271A1A",
"i  c #252523CE247A",
"p  c #262622222A2A",
"a  c #295C228925F3",
"s  c #2CD7237929D4",
"d  c #2F2F2D2D2E2E",
"f  c #2F2F31313434",
"g  c #363621212222",
"h  c #333327272D2D",
"j  c #313128282C2C",
"k  c #3BBC2AAB2AAB",
"l  c #35F62BAC3474",
"z  c #33332F2F3B3B",
"x  c #39392E2E35E0",
"c  c #3ABB2F2F3BBC",
"v  c #353530302E2E",
"b  c #393932322F2F",
"n  c #3535333334B5",
"m  c #333332323C3C",
"M  c #373738383939",
"N  c #3A07340134CE",
"B  c #3B3B32B33CBD",
"V  c #3D3D38383737",
"C  c #3EBF333341C2",
"Z  c #404027271616",
"A  c #404028281616",
"S  c #4B4B27271919",
"D  c #4C4C2A2A1717",
"F  c #595929290101",
"G  c #404031313737",
"H  c #414135353D3D",
"J  c #44C53EBF3E3E",
"K  c #68682F2F1C1C",
"L  c #4399366141EC",
"P  c #44243C3C4545",
"I  c #444439394949",
"U  c #48C93BBC45C6",
"Y  c #4C8C3E3E4949",
"T  c #6E6E41411616",
"R  c #6E6E46462020",
"E  c #474740404040",
"W  c #464640404C4C",
"Q  c #4A4A42424545",
"!  c #499F42984D4D",
"~  c #4D4D4D4D4F4F",
"^  c #4B4B43435656",
"/  c #4E4E454559DA",
"(  c #4A4A48485050",
")  c #505044444F4F",
"_  c #535346465757",
"`  c #54144ACB5414",
"'  c #54D54DCE5E5E",
"]  c #58584A4A5656",
"[  c #5D5D4F4F5A5A",
"{  c #5252505054D5",
"}  c #575759595B5B",
"|  c #595957575757",
" . c #5B0555555AB0",
".. c #5BDC5C5C5DDE",
"X. c #57574D4D6262",
"o. c #5D5D55556161",
"O. c #5B5B56566C6C",
"+. c #5C5C59DA6464",
"@. c #5B5B59597575",
"#. c #636354546161",
"$. c #64E55CDD6BEC",
"%. c #66106363650F",
"&. c #666669696B6B",
"*. c #6929632363E4",
"=. c #6A6A6A6A6C6C",
"-. c #656564647E7E",
";. c #676768687070",
":. c #696962627777",
">. c #6DEE6AEB7333",
",. c #6CED73737272",
"<. c #707069696969",
"1. c #747466667272",
"2. c #75756A6A7373",
"3. c #7A7A6B6B7777",
"4. c #73F470F173F4",
"5. c #757572727C26",
"6. c #77777A7A7D7D",
"7. c #7B7B77777E7E",
"8. c #75CB6B6B81D7",
"9. c #79FA6EEF8686",
"0. c #7B7B73738282",
"q. c #7CFD7A7A8202",
"w. c #8A8A3F3F2727",
"e. c #81817E7E8282",
"r. c #85857B7B8C8C",
"t. c #89897B7B8E8E",
"y. c #848485858686",
"u. c #888881818F8F",
"i. c #8C8C80809191",
"p. c #8C8C93939797",
"a. c #97978B8B8B8B",
"s. c #909081819898",
"d. c #97178D8DA121",
"f. c #98988989A0A0",
"g. c #9A9A9090A3A3",
"h. c #9B9B9292A929",
"j. c #9B9B9A9AA7A7",
"k. c #9C9C9494B3B3",
"l. c #A0A09292ABAB",
"z. c #A0A09C9CA9A9",
"x. c #A4A49797B2B2",
"c. c #A5249C1CB2B2",
"v. c #ABABAAAAAFAF",
"b. c #ADADA5A5B5B5",
"n. c #B939AA2AC5C5",
"m. c #B8B8B6B6C7C7",
"M. c #BCBCB9B9C6C6",
"N. c #C4C4B6B6D3D3",
"B. c #C5C5BABAD3D3",
"V. c #CACABFBFDADA",
"C. c #D1D1C9C9CECE",
/* pixels */
"                                                                ",
"                          < t.b.y.o                             ",
"                        . 9.V.u.r.k                             ",
"                          O.! h E Q a                           ",
"                        O @ l d.5.g.s                           ",
"                      a C.2.` ' o.(                             ",
"                      N a.v.| s 8. .                            ",
"                        f N L m ; #                             ",
"                        +.U U t 0 J                             ",
"                      i { >.5.U 0 9                             ",
"                      &.#.0.Y #.a $ .                           ",
"                      =.p.l #.L I 0.O o                         ",
"                      O c.! x < ' >.>.M...                      ",
"                        s.$.X : S F / n.B.q.o                   ",
"                      o C ;.' X w.T C n.x.N.P                   ",
"                        O ( ] X K R k.t.l.s.U                   ",
"                        @ # Y z 5 D x 4 L _ Y .                 ",
"                        @ , m.^ e D 3 4 @ N H                   ",
"                      @ a 4.z.8.l.k @ & y L #                   ",
"                      , P ,.p.+.x G m ! Y #           .         ",
"                    O @ { 5.% g - 8.$.j .                       ",
"              . 3 6 e 4 } E w r u ^ L 0 < t j N N N N N V ;     ",
"              . . .   ; 7.k q 8 u p H C I _ [ *.*.*.*.*.<.0     ",
"                      o j.8.p o u @.9.,                         ",
"                      * =.y.M   * C >.d   o       o   o         ",
"                  + ,.&.2.B O     ..3.;                         ",
"                  q.d.%.U         M 2.p                         ",
"                } c.< 2 O           ` N                         ",
"              { j.:                 c :.                        ",
"            o ..!                   X X.P >                     ",
"            . . 1                     + q.i .                   ",
"              & @                     O ; .                     "
};
