/* XPM */
static char *[] = {
/* columns rows colors chars-per-pixel */
"32 32 150 2",
"   c #003100240027",
".  c #06B108B308B3",
"X  c #0A60039D037B",
"o  c #0C0C06060808",
"O  c #0AC209C10A2F",
"+  c #171700000000",
"@  c #101007070909",
"#  c #13130B4B0BAC",
"$  c #1BC603AE0359",
"%  c #1E1E07070A0A",
"&  c #199A08080808",
"*  c #16E40E4111AB",
"=  c #18180C0C1111",
"-  c #149412921394",
";  c #1C1C15151414",
":  c #1A81157C1B1B",
">  c #1E1E186E1AC5",
",  c #1F1F20202121",
"<  c #24240E0E0606",
"1  c #23230BB60AB5",
"2  c #28A90C0C0DCE",
"3  c #242416160A8B",
"4  c #262611111111",
"5  c #232316161D9E",
"6  c #232319991E1E",
"7  c #2B2B18181B1B",
"8  c #313116160B0B",
"9  c #38381C1C0707",
"0  c #373712121111",
"q  c #333318181010",
"w  c #393915151717",
"e  c #3A3A1A1A1D1D",
"r  c #25A61BDC21A2",
"t  c #2B2B1C1C2323",
"y  c #30301C1C2424",
"u  c #3A3A1B1B2121",
"i  c #282820201D1D",
"p  c #303020201919",
"a  c #252525252626",
"s  c #2AAB22A32525",
"d  c #2AEB22E32929",
"f  c #2C822A2A29D4",
"g  c #2DAE2AAB3131",
"h  c #31B1242429EA",
"j  c #32DD29D42C82",
"k  c #3A3A2B2B2DAE",
"l  c #363627273232",
"z  c #32CC2AF832CC",
"x  c #3A3A2B5E3434",
"c  c #3D3D2DAE38B9",
"v  c #393933332F2F",
"b  c #333331313288",
"n  c #3E3E32323333",
"m  c #3CA334CE3BA2",
"M  c #3E94398F43EE",
"N  c #3E3E3B3B4B4B",
"B  c #434317171717",
"V  c #4F4F1D1D1B1B",
"C  c #464626261616",
"Z  c #45C62525199A",
"A  c #4C4C25251616",
"S  c #545426261B1B",
"D  c #47472E2E2323",
"F  c #42ED348A3C92",
"G  c #43033C7C3DFE",
"H  c #4F4F37373232",
"J  c #494935353E3E",
"K  c #51513E3E3C3C",
"L  c #6C6C3B3B1212",
"P  c #438C3AF243D6",
"I  c #43833EFF4B4B",
"U  c #48483B3B4545",
"Y  c #4AE43EA54AE4",
"T  c #46463F3F5050",
"R  c #424241414646",
"E  c #494940404747",
"W  c #4A4A42424C4C",
"Q  c #4F4F49494E4E",
"!  c #4B20449A5580",
"~  c #4E4E4BCC55D6",
"^  c #4F4F48485858",
"/  c #515141414CCD",
"(  c #555546C75313",
")  c #54FF4AF553A9",
"_  c #53534C4C5CDD",
"`  c #58AE48F35600",
"'  c #5BB14D4D5A5A",
"]  c #5A5A50504E4E",
"[  c #5353525255D6",
"{  c #5858505052D2",
"}  c #5C5C51A75B5B",
"|  c #5CB25B5B5D07",
" . c #5F5F59596767",
".. c #616159595E5E",
"X. c #63B954AA6464",
"o. c #62A259996464",
"O. c #64645BB16C16",
"+. c #6D6D5E5E6E6E",
"@. c #60605B5B7373",
"#. c #656564646565",
"$. c #696961616464",
"%. c #6B6B68686B6B",
"&. c #666660607777",
"*. c #6E6E62627373",
"=. c #72F2656574F5",
"-. c #74746D177620",
";. c #74F56BEC7AFA",
":. c #737375757777",
">. c #747476767E7E",
",. c #7AD06F198484",
"<. c #7C7C73738787",
"1. c #7C7C72F28B8B",
"2. c #7E7E80808383",
"3. c #98984D4D1919",
"4. c #8D8D50502626",
"5. c #858577778A8A",
"6. c #84447DBD8BCB",
"7. c #828280808A8A",
"8. c #8C8C87878989",
"9. c #8A8A81819191",
"0. c #8C8C8B8B9292",
"q. c #939392929494",
"w. c #8F8F8787A3A3",
"e. c #94948C8CA2A2",
"r. c #A5A587878E8E",
"t. c #A16194D4ACEC",
"y. c #A2A29C1CA3A3",
"u. c #A2A29C9CAAAA",
"i. c #A5A59D9DB8B8",
"p. c #A9A99B9BB7B7",
"a. c #ABAB9D1DB9B9",
"s. c #B1B19F9FB8B8",
"d. c #ABABA4A4A6A6",
"f. c #AFAFA0A0BDBD",
"g. c #ADADA8A8B3B3",
"h. c #AEAEACACBBBB",
"j. c #B1B1A3A3BFBF",
"k. c #B1B1ABABBBBB",
"l. c #B3B3B0B0BCBC",
"z. c #BDBDB3B3B3B3",
"x. c #B1B1A423C0C0",
"c. c #B6F6AAAAC545",
"v. c #B3B3A9A9C9C9",
"b. c #BBBBACACC9C9",
"n. c #B7B7B5B5C2C2",
"m. c #BCBCB9B9C8C8",
"M. c #C4C4B5B5B3B3",
"N. c #C2C2B7B7CFCF",
"B. c #C646BCBCD555",
"V. c #D0D0C9C9CDCD",
/* pixels */
"                                                                ",
"                          } t.g.b                               ",
"                        g v.k.<.-.                              ",
"                        g &.h G G G X                           ",
"                        ; & ,.8.8.;.                            ",
"                      ] V.o.N _ X.5                             ",
"                    , %.) m ] X.5.#                             ",
"                  . ~  .F h j z.m .                             ",
"                  . m d d x 5 d.M.f                             ",
"                  O -.` ( t : X k a                             ",
"                  O <./ ` 6 @ O.0 p       .                     ",
"                    R :.l o =.v.r.Z                             ",
"                    o x = _ c.j.e.v   - #.| o                   ",
"                    g m : @.w.1.L H P u.B.N.l.f                 ",
"                  . 6.` # ^ N V 3.| ,.j / p.j.k.r               ",
"                    b c r & 1 B 4.3 % % 5.x.x.f.Y               ",
"                      6.T 1 w 2 A 8 y ! 5.P *.+.U               ",
"                    . m.T $ e u Z K z r & 7 U ( U               ",
"                    X ^ ! k i.t.l.7 X   $ J ' ..5               ",
"                      : : d s.p.c.0.: 7 j ( ( d                 ",
"                  X 3 2 2 9 X.b.a.V.[ P } ` r                   ",
"            X o 1 q < 2 S D ! X.,.t.u.W Y r                     ",
"          X 1 % 1 o z x Z h F P I T o.z                         ",
"                    m c & 5 F x r t I ! =.F #                   ",
"                    [ >.M o - * o s G z I 6.y.q.G #             ",
"                  b ) ' >       O ;.) #     - } y.8.            ",
"                - O.o.=         M t.f .           O             ",
"                W o.> O         I n.X                           ",
"                U O..           I |                             ",
"                m )           . | :.X                           ",
"              . [ >.#         O j 4 .                           ",
"                s + &             @                             "
};
