/* XPM */
static char *_8799_0f25863b0501c8cba66c16b9214e60a67e8b8d1f0631f5a1c1385ebdef1c0ff0[] = {
/* columns rows colors chars-per-pixel */
"64 64 45 1 ",
"  c #020000",
". c #170000",
"X c #180000",
"o c #1B0000",
"O c #1F0000",
"+ c #210000",
"@ c #240000",
"# c #2A0000",
"$ c #2B0000",
"% c #2E0000",
"& c #2F0000",
"* c #2B0F06",
"= c #370000",
"- c #380000",
"; c #3A0000",
": c #3E0000",
"> c #391509",
", c #38170A",
"< c #410000",
"1 c #490000",
"2 c #4F0000",
"3 c #680000",
"4 c #710000",
"5 c #4A210F",
"6 c #592B07",
"7 c #784B1F",
"8 c #890000",
"9 c #920000",
"0 c #950000",
"q c #A80000",
"w c #AE0909",
"e c #C10000",
"r c #C40000",
"t c #D60808",
"y c red",
"u c #FA1F00",
"i c #FF1010",
"p c #FF2D2D",
"a c #8D5F34",
"s c #8B6524",
"d c #FF6020",
"f c #FFA900",
"g c #B79457",
"h c #E7C07C",
"j c None",
/* pixels */
"jjjjjjjjjjjjjjjjjjjjjjjjjjjjjjjjjjjjjjjjjjjjjjjjjjjjjjjjjjjjjjjj",
"jjjjjjjjjjjjjjjjjjjjjjjjjjjjjjjjjjjjjjjjjjjjjjjjjjjjjjjjjjjjjjjj",
"jjjjjjjjjjjjjjjjjjjjjjjjjjjjjj,,,,,,jjjjjjjjjjjjjjjjjjjjjjjjjjjj",
"jjjjjjjjjjjjjjjjjjjjjjjjjjjjjj,,,,,,jjjjjjjjjjjjjjjjjjjjjjjjjjjj",
"jjjjjjjjjjjjjjjjjjjjjjjjjjjj**ssgghh,,jjjjjjjjjjjjjjjjjjjjjjjjjj",
"jjjjjjjjjjjjjjjjjjjjjjjjjjjj**ssgghh,,jjjjjjjjjjjjjjjjjjjjjjjjjj",
"jjjjjjjjjjjjjjjjjjjjjjjjjjjj**>>5555**jjjjjjjjjjjjjjjjjjjjjjjjjj",
"jjjjjjjjjjjjjjjjjjjjjjjjjjjj**>>5555**jjjjjjjjjjjjjjjjjjjjjjjjjj",
"jjjjjjjjjjjjjjjjjjjjjjjjjj  ..6677aa..  jjjjjjjjjjjjjjjjjjjjjjjj",
"jjjjjjjjjjjjjjjjjjjjjjjjjj  ..6677aa..  jjjjjjjjjjjjjjjjjjjjjjjj",
"jjjjjjjjjjjjjjjjjjjjjjjj  ;;22gggggg44ww  jjjjjjjjjjjjjjjjjjjjjj",
"jjjjjjjjjjjjjjjjjjjjjjjj  ;;22gggggg44ww  jjjjjjjjjjjjjjjjjjjjjj",
"jjjjjjjjjjjjjjjjjjjjjjjjjj  ;;22440033  jjjjjjjjjjjjjjjjjjjjjjjj",
"jjjjjjjjjjjjjjjjjjjjjjjjjj  ;;22440033  jjjjjjjjjjjjjjjjjjjjjjjj",
"jjjjjjjjjjjjjjjjjjjjjjjjjjjj  ......  jjjjjjjjjjjjjjjjjjjjjjjjjj",
"jjjjjjjjjjjjjjjjjjjjjjjjjjjj  ......  jjjjjjjjjjjjjjjjjjjjjjjjjj",
"jjjjjjjjjjjjjjjjjjjjjjjjjjjj  XX%%22  jjjjjjjjjjjjjjjjjjjjjjjjjj",
"jjjjjjjjjjjjjjjjjjjjjjjjjjjj  XX%%22  jjjjjjjjjjjjjjjjjjjjjjjjjj",
"jjjjjjjjjjjjjjjjjjjjjjjjjjjj  %%::qq  jjjjjjjjjjjjjjjjjjjjjjjjjj",
"jjjjjjjjjjjjjjjjjjjjjjjjjjjj  %%::qq  jjjjjjjjjjjjjjjjjjjjjjjjjj",
"jjjjjjjjjjjjjjjjjjjjjjjjjjjj  %%::yy  jjjjjjjjjjjjjjjjjjjjjjjjjj",
"jjjjjjjjjjjjjjjjjjjjjjjjjjjj  %%::yy  jjjjjjjjjjjjjjjjjjjjjjjjjj",
"jjjjjjjjjjjjjjjjjjjjjjjjjjjj  %%22ii  jjjjjjjjjjjjjjjjjjjjjjjjjj",
"jjjjjjjjjjjjjjjjjjjjjjjjjjjj  %%22ii  jjjjjjjjjjjjjjjjjjjjjjjjjj",
"jjjjjjjjjjjjjjjjjjjjjjjjjjjj  %%44tt  jjjjjjjjjjjjjjjjjjjjjjjjjj",
"jjjjjjjjjjjjjjjjjjjjjjjjjjjj  %%44tt  jjjjjjjjjjjjjjjjjjjjjjjjjj",
"jjjjjjjjjjjjjjjjjjjjjjjjjj  %%2244wwpp@@oojjjjjjjjjjjjjjjjjjjjjj",
"jjjjjjjjjjjjjjjjjjjjjjjjjj  %%2244wwpp@@oojjjjjjjjjjjjjjjjjjjjjj",
"jjjjjjjjjjjjjjjjjjjjjjjj  %%224400ii==eeddoojjjjjjjjjjjjjjjjjjjj",
"jjjjjjjjjjjjjjjjjjjjjjjj  %%224400ii==eeddoojjjjjjjjjjjjjjjjjjjj",
"jjjjjjjjjjjjjjjjjjjj@@  XX;;2200ii==99uuddff@@jjjjjjjjjjjjjjjjjj",
"jjjjjjjjjjjjjjjjjjjj@@  XX;;2200ii==99uuddff@@jjjjjjjjjjjjjjjjjj",
"jjjjjjjjjjjjjjjjjjooff11XX224400ii$$eeuuff11ww  jjjjjjjjjjjjjjjj",
"jjjjjjjjjjjjjjjjjjooff11XX224400ii$$eeuuff11ww  jjjjjjjjjjjjjjjj",
"jjjjjjjjjjjjjjjjooeedd11XX444400==99eeff11--rrpp  jjjjjjjjjjjjjj",
"jjjjjjjjjjjjjjjjooeedd11XX444400==99eeff11--rrpp  jjjjjjjjjjjjjj",
"jjjjjjjjjjjjjjjjooeedd11XX444422$$eeuuff11##00tt  jjjjjjjjjjjjjj",
"jjjjjjjjjjjjjjjjooeedd11XX444422$$eeuuff11##00tt  jjjjjjjjjjjjjj",
"jjjjjjjjjjjjjjjjoo88uu==XX224422$$eeuudd==XX44ww  jjjjjjjjjjjjjj",
"jjjjjjjjjjjjjjjjoo88uu==XX224422$$eeuudd==XX44ww  jjjjjjjjjjjjjj",
"jjjjjjjjjjjjjjjj@@33uu==XX++4422$$33eeuudd11++44  jjjjjjjjjjjjjj",
"jjjjjjjjjjjjjjjj@@33uu==XX++4422$$33eeuudd11++44  jjjjjjjjjjjjjj",
"jjjjjjjjjjjjjjjj@@33uudd11XX2222$$<<33eeuudd11&&  jjjjjjjjjjjjjj",
"jjjjjjjjjjjjjjjj@@33uudd11XX2222$$<<33eeuudd11&&  jjjjjjjjjjjjjj",
"jjjjjjjjjjjjjjjjjj@@88uudd11XX44++$$<<33eeuu==++  jjjjjjjjjjjjjj",
"jjjjjjjjjjjjjjjjjj@@88uudd11XX44++$$<<33eeuu==++  jjjjjjjjjjjjjj",
"jjjjjjjjjjjjjjjjjj@@33eeuu==XX22::++$$<<88eeuu@@jjjjjjjjjjjjjjjj",
"jjjjjjjjjjjjjjjjjj@@33eeuu==XX22::++$$<<88eeuu@@jjjjjjjjjjjjjjjj",
"jjjjjjjjjjjjjjjjjjjj@@33eedd11XX22::++$$3388ee@@jjjjjjjjjjjjjjjj",
"jjjjjjjjjjjjjjjjjjjj@@33eedd11XX22::++$$3388ee@@jjjjjjjjjjjjjjjj",
"jjjjjjjjjjjjjjjjjjjj  ==88uudd11XX22::XX$$33@@jjjjjjjjjjjjjjjjjj",
"jjjjjjjjjjjjjjjjjjjj  ==88uudd11XX22::XX$$33@@jjjjjjjjjjjjjjjjjj",
"jjjjjjjjjjjjjjjjjjjj  $$33eeuudd11XX##XX$$<<@@jjjjjjjjjjjjjjjjjj",
"jjjjjjjjjjjjjjjjjjjj  $$33eeuudd11XX##XX$$<<@@jjjjjjjjjjjjjjjjjj",
"jjjjjjjjjjjjjjjjjjjj  OO$$33eeuudd11XX%%XX@@jjjjjjjjjjjjjjjjjjjj",
"jjjjjjjjjjjjjjjjjjjj  OO$$33eeuudd11XX%%XX@@jjjjjjjjjjjjjjjjjjjj",
"jjjjjjjjjjjjjjjjjjjj  %%OO$$3388eedd11XX%%  jjjjjjjjjjjjjjjjjjjj",
"jjjjjjjjjjjjjjjjjjjj  %%OO$$3388eedd11XX%%  jjjjjjjjjjjjjjjjjjjj",
"jjjjjjjjjjjjjjjjjjjjjj  %%oo<<333388@@XX%%  jjjjjjjjjjjjjjjjjjjj",
"jjjjjjjjjjjjjjjjjjjjjj  %%oo<<333388@@XX%%  jjjjjjjjjjjjjjjjjjjj",
"jjjjjjjjjjjjjjjjjjjjjjjj  jj@@@@@@@@jj    jjjjjjjjjjjjjjjjjjjjjj",
"jjjjjjjjjjjjjjjjjjjjjjjj  jj@@@@@@@@jj    jjjjjjjjjjjjjjjjjjjjjj",
"jjjjjjjjjjjjjjjjjjjjjjjjjjjjjjjjjjjjjjjjjjjjjjjjjjjjjjjjjjjjjjjj",
"jjjjjjjjjjjjjjjjjjjjjjjjjjjjjjjjjjjjjjjjjjjjjjjjjjjjjjjjjjjjjjjj"
};
