/* XPM */
static char *door_open1663947739[] = {
/* columns rows colors chars-per-pixel */
"63 82 35 1 ",
"  c None",
". c #313131",
"X c #323232",
"o c gray20",
"O c #353434",
"+ c #363535",
"@ c #3A3837",
"# c #3B3838",
"$ c #3D3B39",
"% c #3F3B3A",
"& c #413D3C",
"* c #433E3D",
"= c #45403E",
"- c #464342",
"; c #484340",
": c #4B4442",
"> c #4C4543",
", c #4F4745",
"< c #504845",
"1 c #514846",
"2 c #504B49",
"3 c #534A48",
"4 c #5E534E",
"5 c #555150",
"6 c #5A5351",
"7 c #625551",
"8 c #655853",
"9 c #695B55",
"0 c #6D5E58",
"q c #6D6360",
"w c #726764",
"e c #706A68",
"r c #776B68",
"t c #817470",
"y c #A09592",
/* pixels */
"  .Oooooooooooooooooooooooooooooooooooooooooooooooooooooooooo  ",
" .eyyyyyyyyyyyyyyyyyyyyyyyyyyyyyyyyyyyyyyyyyyyyyyyyyyyyyyyyye. ",
".5yyyyyyyyyyyyyyyyyyyyyyyyyyyyyyyyyyyyyyyyyyyyyyyyyyyyyyyyyyy5.",
"Ooooooooooooooooooooooooooooooooooooooooooooooooooooooooooooooo",
"ottttttttttttttttttttttttttttttttttttttttttttttttttttttttttttto",
"ottttttttttttttttttttttttttttttttttttttttttttttttttttttttttttto",
"ottttttttttttttttttttttttttttttttttttttttttttttttttttttttttttto",
"ottttttttttttttttttttttttttttttttttttttttttttttttttttttttttttto",
"ottttttttttttttttttttttttttttttttttttttttttttttttttttttttttttto",
"ottttttttttttttttttttttttttttttttttttttttttttttttttttttttttttto",
"ooooooOoooooooooooooooooooooooooooooooooooooooooooooooooooooooo",
".:331O4000ooooooooooooooooooooooooooooooooooooooooooo000:$333,o",
" #333*&000ooooooooooooooooooooooooooooooooooooooooooo008.,333$.",
" .:331O400ooooooooooooooooooooooooooooooooooooooooooo00>&333,o ",
"  #333&&00ooooooooooooooooooooooooooooooooooooooooooo09O:333&o ",
"  .:331O40ooooooooooooooooooooooooooooooooooooooooooo01#3331.  ",
"   ooooo#0ooooooooooooooooooooooooooooooooooooooooooo0Oooooo.  ",
"   otttto0ooooooooooooooooooooooooooooooooooooooooooo0ottttto  ",
"   otttto0ooooooooooooooooooooooooooooooooooooooooooo0ottttto  ",
"   otttto0ooooooooooooooooooooooooooooooooooooooooooo0ottttto  ",
"   otttto0ooooooooooooooooooooooooooooooooooooooooooo0ottttto  ",
"   otttto0ooooooooooooooooooooooooooooooooooooooooooo0ottttto  ",
"   otttto0ooooooooooooooooooooooooooooooooooooooooooo0ottttto  ",
"   otttto0ooooooooooooooooooooooooooooooooooooooooooo0ottttto  ",
"   otttto0ooooooooooooooooooooooooooooooooooooooooooo0ottttto  ",
"   otttto0ooooooooooooooooooooooooooooooooooooooooooo0ottttto  ",
"   otttto0ooooooooooooooooooooooooooooooooooooooooooo0ottttto  ",
"   otttto0ooooooooooooooooooooooooooooooooooooooooooo0ottttto  ",
"   otttto0ooooooooooooooooooooooooooooooooooooooooooo0ottttto  ",
"   otttto0ooooooooooooooooooooooooooooooooooooooooooo0ottttto  ",
"   otttto0ooooooooooooooooooooooooooooooooooooooooooo0ottttto  ",
"   otttto0ooooooooooooooooooooooooooooooooooooooooooo0ottttto  ",
"   otttto0ooooooooooooooooooooooooooooooooooooooooooo0ottttto  ",
"   otttto0ooooooooooooooooooooooooooooooooooooooooooo0ottttto  ",
"   otttto0ooooooooooooooooooooooooooooooooooooooooooo0ottttto  ",
"   otttto0ooooooooooooooooooooooooooooooooooooooooooo0ottttto  ",
"   otttto0ooooooooooooooooooooooooooooooooooooooooooo0ottttto  ",
"   otttto0ooooooooooooooooooooooooooooooooooooooooooo0ottttto  ",
"   otttto0ooooooooooooooooooooooooooooooooooooooooooo0ottttto  ",
"   otttto0ooooooooooooooooooooooooooooooooooooooooooo0ottttto  ",
"   otttto0ooooooooooooooooooooooooooooooooooooooooooo0ottttto  ",
"   otttto0ooooooooooooooooooooooooooooooooooooooooooo0ottttto  ",
"   -tttto0ooooooooooooooooooooooooooooooooooooooooooo0ottttto  ",
"   2tttto0ooooooooooooooooooooooooooooooooooooooooooo0ottttr.  ",
"   otttto0ooooooooooooooooooooooooooooooooooooooooooo0otttt6   ",
"   otttto0ooooooooooooooooooooooooooooooooooooooooooo0otttt6   ",
"   otttto0ooooooooooooooooooooooooooooooooooooooooooo0otttt6   ",
"   otttto0ooooooooooooooooooooooooooooooooooooooooooo0otttt6   ",
"   otttto0ooooooooooooooooooooooooooooooooooooooooooo0otttt6   ",
"   otttto0ooooooooooooooooooooooooooooooooooooooooooo0otttt6   ",
"   otttto0ooooooooooooooooooooooooooooooooooooooooooo0otttt6   ",
"   otttto0ooooooooooooooooooooooooooooooooooooooooooo0otttt6   ",
"   otttto0ooooooooooooooooooooooooooooooooooooooooooo0otttt6   ",
"   otttto0ooooooooooooooooooooooooooooooooooooooooooo0otttt6   ",
"   otttto0ooooooooooooooooooooooooooooooooooooooooooo0otttt6   ",
"   otttto0ooooooooooooooooooooooooooooooooooooooooooo0otttt6   ",
"   otttto0ooooooooooooooooooooooooooooooooooooooooooo0otttt6   ",
"   otttto0ooooooooooooooooooooooooooooooooooooooooooo0otttt6   ",
"   otttto0ooooooooooooooooooooooooooooooooooooooooooo0otttt6   ",
"   otttto0ooooooooooooooooooooooooooooooooooooooooooo0otttt6   ",
"   otttto0ooooooooooooooooooooooooooooooooooooooooooo0otttt6   ",
"   otttto0ooooooooooooooooooooooooooooooooooooooooooo0otttt6   ",
"   otttto0ooooooooooooooooooooooooooooooooooooooooooo0otttt6   ",
"   otttto0ooooooooooooooooooooooooooooooooooooooooooo0otttt-   ",
"   otttto0ooooooooooooooooooooooooooooooooooooooooooo0otttt-   ",
"   otttto0ooooooooooooooooooooooooooooooooooooooooooo0otttt-   ",
"   otttto0ooooooooooooooooooooooooooooooooooooooooooo0otttt-   ",
"   otttto0ooooooooooooooooooooooooooooooooooooooooooo0otttt-   ",
"   otttto0ooooooooooooooooooooooooooooooooooooooooooo0otttt-   ",
"   otttto0ooooooooooooooooooooooooooooooooooooooooooo0otttt-   ",
"   otttto0ooooooooooooooooooooooooooooooooooooooooooo0otttt-   ",
"   otttto0ooooooooooooooooooooooooooooooooooooooooooo0otttt-   ",
"   otttto0ooooooooooooooooooooooooooooooooooooooooooo0otttt-   ",
"   otttto0ooooooooooooooooooooooooooooooooooooooooooo0otttt-   ",
"   otttto0ooooooooooooooooooooooooooooooooooooooooooo0otttt-   ",
"   otttto0ooooooooooooooooooooooooooooooooooooooooooo0otttt-   ",
"   otttq&0ooooooooooooooooooooooooooooooooooooooooooo0otttt-   ",
"   ottt6:0ooooooooooooooooooooooooooooooooooooooooooo0otttt-   ",
"   otttwo7oooooooooooooooooooooooooooooooooooooooooo@9Otttt-   ",
"   otttto$                                          .=otttt-   ",
"   ottttO.                                           .otttt-   ",
"   oooooo                                             oooooo   "
};
