/* XPM */
static char *_391_aa2d961c4592fd22af4371ff144cd500dc0e84b4e76c7b3e4c67fcbe1749ea46[] = {
/* columns rows colors chars-per-pixel */
"64 64 21 1 ",
"  c black",
". c #090301",
"X c #120907",
"o c #150907",
"O c #20100F",
"+ c #2C1213",
"@ c #251918",
"# c #3F2A26",
"$ c #34242F",
"% c #48191D",
"& c #5D2C24",
"* c #753025",
"= c #564854",
"- c #91552D",
"; c #6C6781",
": c #B0968E",
"> c #AD9FBA",
", c #C0C7D2",
"< c #E3DDE4",
"1 c #E1E8EB",
"2 c None",
/* pixels */
"2222222222222222222222222222222222222222222222222222222222222222",
"2222222222222222222222222222222222222222222222222222222222222222",
"2222222222222222222222222222222222222222222222222222222222222222",
"2222222222222222222222222222222222222222222222222222222222222222",
"2222222222222222222222222222222222222222222222222222222222222222",
"2222222222222222222222222222222222222222222222222222222222222222",
"2222222222222222222222222222222222222222222222222222222222222222",
"2222222222222222222222222222222222222222222222222222222222222222",
"2222222222222222222222222222222222222222222222222222222222222222",
"2222222222222222222222222222222222222222222222222222222222222222",
"2222222222222222222222222222222222222222222222222222222222222222",
"2222222222222222222222222222222222222222222222222222222222222222",
"2222222222222222222222222222222222222222222222222222222222222222",
"2222222222222222222222222222222222222222222222222222222222222222",
"2222222222222222222222222222222222222222222222222222222222222222",
"2222222222222222222222222222222222222222222222222222222222222222",
"2222222222222222222222222222222222222222222222222222222222222222",
"2222222222222222222222222222222222222222222222222222222222222222",
"2222222222222222222222222222222222222222222222222222222222222222",
"2222222222222222222222222222222222222222222222222222222222222222",
"2222222222222222222222222222222222222222222222222222222222222222",
"2222222222222222222222222222222222222222222222222222222222222222",
"2222222222222222222222222222222222222222222222222222222222222222",
"2222222222222222222222222222222222222222222222222222222222222222",
"2222222222222222222222222222222222222222222222222222222222222222",
"2222222222222222222222222222222222222222222222222222222222222222",
"2222222222222222222222222222222222222222222222222222222222222222",
"2222222222222222222222222222222222222222222222222222222222222222",
"2222222222222222222222222222222222222222222222222222222222222222",
"2222222222222222222222222222222222222222222222222222222222222222",
"2222222222222222222222222222222222222222222222222222222222222222",
"22222222222 2222222222222222222222222222222222222222222222222222",
"2222222222 - 222222222222222222222222222222222222222222222222222",
"22222222222.2222222222222222222222222222222222222222222222222222",
"2222222222.-.222222222222222222222222222222222222222222222222222",
"2222222222.-.222222222222222222222222222222222222222222222222222",
"2222222222.-.222222222222222222222222222222222222222222222222222",
"22222222       2222222222222222222222222222222222222222222222222",
"2222222 ------- 222222222222222222222222222222222222222222222222",
"22222222       2222222222222222222222222222222222222222222222222",
"2222222222O=$222222222222222222222222222222222222222222222222222",
"2222222222O=$222222222222222222222222222222222222222222222222222",
"2222222222O=$222222222222222222222222222222222222222222222222222",
"2222222222$=$222222222222222222222222222222222222222222222222222",
"2222222222$=$222222222222222222222222222222222222222222222222222",
"2222222222$;$222222222222222222222222222222222222222222222222222",
"2222222222$;$222222222222222222222222222222222222222222222222222",
"2222222222$;O222222222222222222222222222222222222222222222222222",
"2222222222$;O222222222222222222222222222222222222222222222222222",
"2222222222$>O222222222222222222222222222222222222222222222222222",
"2222222222$>O222222222222222222222222222222222222222222222222222",
"2222222222O>O222222222222222222222222222222222222222222222222222",
"2222222222O1O222222222222222222222222222222222222222222222222222",
"2222222222O1O222222222222222................22@@o22...oo22222222",
"2222222222O1O22222222.......++o.111>1>111.....<<:o.$$;;;o2222222",
"2222222222O1O22222...11111.o%+o.=>>>>>>...,,.2<<:<oo;;;>>o222222",
"2222222222O1O22...111>>>>>.o%%o&.;;>>>..,,==,.o:<<#.o;>>>>o22222",
"2222222222O1O..111>>>>>>>;.o%%o&*.;;..,,.=====.:<<<.oX>>1>o22222",
"2222222222O1O11>>>>>>>>>;;.o%%o.*..,,,===.===$.<<<>.>o.1>>o22222",
"2222222222O1O>>>>>>>>>>;;;....o...,=.=====.==$.<<.=>>o.>>1o22222",
"22222222..O1O>>>>>>>>>;;;...,,.,,,===.====.=$$.o.>>.1o.>>1o22222",
"222222..1>O1O>>>>>>;;;;..>>>.$.=====$.===$.$$.:o...>1o.>1o222222",
"22222...1>O1O;;;;;;;...>>>>>>.$.$$$$$.$$$$$..:o>>>>.>o.1o2222222",
"22222...1.O1O........;;;;;;;;;.$...........##ooooo>>1o.o22222222"
};
