/* XPM */
static char *_424_19785b7af6c7bb64d217260613860146177fb4463975e13ee3957562036d52ed[] = {
/* columns rows colors chars-per-pixel */
"64 64 22 1 ",
"  c black",
". c #090301",
"X c #150907",
"o c #20100F",
"O c #2C1213",
"+ c #391515",
"@ c #3F2A26",
"# c #34242F",
"$ c #48191D",
"% c #5D2C24",
"& c #753025",
"* c #564854",
"= c #91552D",
"- c #8D716C",
"; c #D98E34",
": c #6C6781",
"> c #AD9FBA",
", c #D1C1B8",
"< c #C0C7D2",
"1 c #E3DDE4",
"2 c #E1E8EB",
"3 c None",
/* pixels */
"3333333333333333333333333333333333333333333333333333333333333333",
"3333333333333333333333333333333333333333333333333333333333333333",
"3333333333333333333333333333333333333333333333333333333333333333",
"3333333333333333333333333333333333333333333333333333333333333333",
"3333333333333333333333333333333333333333333333333333333333333333",
"3333333333333333333333333333333333333333333333333333333333333333",
"3333333333333333333333333333333333333333333333333333333333333333",
"3333333333333333333333333333333333333333333333333333333333333333",
"3333333333333333333333333333333333333333333333333333333333333333",
"3333333333333333333333333333333333333333333333333333333333333333",
"3333333333333333333333333333333333333333333333333333333333333333",
"3333333333333333333333333333333333333333333333333333333333333333",
"3333333333333333333333333333333333333333333333333333333333333333",
"3333333333333333333333333333333333333333333333333333333333333333",
"3333333333333333333333333333333333333333333333333333333333333333",
"3333333333333333333333333333333333333333333333333333333333333333",
"3333333333333333333333333333333333333333333333333333333333333333",
"3333333333333333333333333333333333333333333333333333333333333333",
"3333333333333333333333333333333333333333333333333333333333333333",
"3333333333333333333333333333333333333333333333333333333333333333",
"3333333333333333333333333333333333333333333333333333333333333333",
"3333333333333333333333333333333333333333333333333333333333333333",
"3333333333333333333333333333333333333333333333333333333333333333",
"3333333333333333333333333333333333333333333333333333333333333333",
"3333333333333333333333333333333333333333333333333333333333333333",
"3333333333333333333333333333333333333333333333333333333333333333",
"3333333333333333333333333333333333333333333333333333333333333333",
"3333333333333333333333333333333333333333333333333333333333333333",
"3333333333333333333333333333333333333333333333333333333333333333",
"3333333333333333333333333333333333333333333333333333333333333333",
"333333333333333333333333333...33333333333333333.....333333333333",
"33333333333333333 3333333..<<<...........XXX33.>2222.33333333333",
"3333333333333333 = 3333..22.#.<<<<<.<<<<<..1X..>>>>>2.3333333333",
"33333333333333333.333..22>>:.##****.****.<<.11.>>>>>>2.333333333",
"3333333333333333.=...22>>::..####**.****.**<.1.:XX.>>2.333333333",
"333333333333333...O.::::...33...##.#****.**<.1.:>>X.>>.333333333",
"333333333333333.OOO.....33333333..###**.***<..:**X*X.>.333333333",
"3333333333333.       333333333333...##.#****.X::X:X*X.3333333333",
"3333333333333 ======= 3333333333.>>>..###*#.1X*X:X:::*.333333333",
"33333333333333       3333333333.>>>>$$..##.11,.*X****..333333333",
"3333333333333333o*#33333333333 :>>>>...$...-1X*****..33333333333",
"3333333333333333o*#3333333333 *:>>>>>>>...,11..**..3333333333333",
"3333333333333333o*#333333333..*::>>>>>>>.X-11.....33333333333333",
"3333333333333333#*#33333333XX.*::::>>>>.$.-11-X-..33333333333333",
"3333333333333333#*o3333333XOOX....:::>.$X>X,,111X.33333333333333",
"3333333333333333#:o3333333XOOXX%&&...>=$X>XX--@...33333333333333",
"3333333333333333#:o333333  X$$X%%&&;&=$=>>>>XX.*.333333333333333",
"3333333333333333#:o33333. .%X$$X&&;&&.= >>>>:.#*.333333333333333",
"3333333333333333#:o333O.22>.X$$==;&&&.$X::::.##.3333333333333333",
"3333333333333333#>o333.2>>>:.X=$$=&&&.$.....##*.3333333333333333",
"3333333333333333#>o33.2>>>>:.%=$$=X&&...33....*.3333333333333333",
"3333333333333333o>o3.2>>>>::.%&==$$X....33.##*.33333333333333333",
"3333333333333333o2o.2>>>>>::.&&XX$OXX.333.###*.33333333333333333",
"3333333333333333o2o2>>>>>:::.&&&XXXX33333..#*.333333333333333333",
"3333333333333333o2o2>>>>>::.XX&..X 333333.>.*.333333333333333333",
"3333333333333333o2o>>>>>::.....***> 3333.::>.3333333333333333333",
"3333333333333333o2o>>>>:::.#####***> 333.:>.33333333333333333333",
"333333333333....o2o>>>:::.#.#####**> 33.:>>.33333333333333333333",
"33333333333.+++.o2o>>:::.###.#####**> 3.:>.333333333333333333333",
"3333333333.XXX.2o2o>:::.####..#####*> .:>.3333333333333333333333",
"33333333333....2o2o:::.#....##.#####*> :.33333333333333333333333",
"3333333333333..2o2o.....#######..###*> .333333333333333333333333",
"333333333333....o2o2.###########..##*> .333333333333333333333333",
"333333333333....o2o.............*..... 3333333333333333333333333"
};
