/* XPM */
static char *_1002_e81dc518c3003581ff6f554b72934fc94382bb099afb06a5f2eedf7f350fae7d[] = {
/* columns rows colors chars-per-pixel */
"64 64 23 1 ",
"  c black",
". c #090301",
"X c #120907",
"o c #150907",
"O c #20100F",
"+ c #2C1213",
"@ c #251918",
"# c #3F2A26",
"$ c #34242F",
"% c #48191D",
"& c #5D2C24",
"* c #753025",
"= c #564854",
"- c #91552D",
"; c #8D716C",
": c #D98E34",
"> c #6C6781",
", c #B0968E",
"< c #AD9FBA",
"1 c #C0C7D2",
"2 c #E3DDE4",
"3 c #E1E8EB",
"4 c None",
/* pixels */
"4444444444444444444444444444444444444444444444444444444444444444",
"4444444444444444444444444444444444444444444444444444444444444444",
"4444444444444444444444444444444444444444444444444444444444444444",
"4444444444444444444444444444444444444444444444444444444444444444",
"4444444444444444444444444444444444444444444444444444444444444444",
"4444444444444444444444444444444444444444444444444444444444444444",
"4444444444444444444444444444444444444444444444444444444444444444",
"4444444444444444444444444444444444444444444444444444444444444444",
"4444444444444444444444444444444444444444444444444444444444444444",
"4444444444444444444444444444444444444444444444444444444444444444",
"4444444444444444444444444444444444444444444444444444444444444444",
"4444444444444444444444444444444444444444444444444444444444444444",
"4444444444444444444444444444444444444444444444444444444444444444",
"4444444444444444444444444444444444444444444444444444444444444444",
"4444444444444444444444444444444444444444444444444444444444444444",
"4444444444444444444444444444444444444444444444444444444444444444",
"4444444444444444444444444444444444444444444444444444444444444444",
"4444444444444444444444444444444444444444444444444444444444444444",
"4444444444444444444444444444444444444444444444444444444444444444",
"4444444444444444444444444444444444444444444444444444444444444444",
"4444444444444444444444444444444444444444444444444444444444444444",
"4444444444444444444444444444444444444444444444444444444444444444",
"4444444444444444444444444444444444444444444444444444444444444444",
"4444444444444444444444444444444444444444444444444444444444444444",
"4444444444444444444444444444444444444444444444444444444444444444",
"4444444444444444444444444444444444444444444444444444444444444444",
"4444444444444444444444444444444444444444444444444444444444444444",
"4444444444444444444444444444444444444444444444444444444444444444",
"4444444444444444444444444444444444444444444444444444444444444444",
"4444444444444444444444444444444444444444444444444444444444444444",
"4444444444444444444444444444444444444444444444444444444444444444",
"444444444444 444444444444444444444444444444444444444444444444444",
"44444444444 - 44444444444444444444444444444444444444444444444444",
"444444444444.444444444444444444444444444444444444444444444444444",
"44444444444.-.44444444444444444444444444444444444444444444444444",
"44444444444.-.44444444444444444444444444444444444444444444444444",
"44444444444.-.44444444444444444444444444444444444444444444444444",
"444444444       444444444444444444444444444444444444444444444444",
"44444444 ------- 44444444444444444444444444444444444444444444444",
"444444444       444444444444444444444444444444444444444444444444",
"44444444444O=$44444444444444444444444444444444444444444444444444",
"44444444444O=$44444444444444444444444444444444444444444444444444",
"44444444444O=$44444444444444444444444444444444444444444444444444",
"44444444444$=$44444444444444444444444444444444444444444444444444",
"44444444444$=O44444444444444444444444444444444444444444444444444",
"44444444444$>O44444444444444444444444444444444444444444444444444",
"44444444444$>O44.4.444444444444444444444444444444444444444444444",
"44444444444$>O44..%.44444444444444444444444444444444444444444444",
"44444444444$>O44.%%%.4444444444444444444444444444444444444444444",
"44444444444$<O444.%%%...4444444444444444444444444444444444444444",
"44444444444$<O4444...3<3.........4444444444444444444444444444444",
"44444444444O<O444444..<<3<333.111...........44444444444444444444",
"44444444444O3O44444444..<<<<<>.$.11111.11111..444444444444444444",
"44444444444O3O4444444444..>>>...$$====.====.11.@@o44...oo4444444",
"44444444444O3O44444444.......+..$$$$==.====.==1.2,o.$$>>>o444444",
"44444444444O3O44444...33<<<.o..o...$$.$====.==1.2,2oo>>><<o44444",
"44444444444O3O44...333<<<<<.o%%o&.>..$$$==.===1.,22#.o><<<<o4444",
"44444444444O3O..333<<<<<<<>.o%%o&*.>>..$$.$====.,222.oX<<3<o4444",
"44444444444O3O33<<<<<<<<<>>.o%%o.*.>><<..$$$=$.2222<.<o.3<<o4444",
"44444444444O3O<<<<<<<<<<>>.&.--o*.*.><<<...$$.2,22.=<<o.<<3o4444",
"444444444..O3O<<<<<<<<<>>>.&.%%-:.::.><.%....2,2o.<<.3o.<<3o4444",
"4444444..3<O3O<<<<<<>>>>..&&.%%-:*.*.-.%.>o;;;22o...<3o.<3o44444",
"444444...3<O3O>>>>>>>...o&&&o--o**..-%-.>>o#;;;o<<<<.<o.3o444444",
"444444...3.O3O...........o&&o%%o&..%%-.==o###;ooooo<<3o.o4444444"
};
