/* XPM */
static char *_4591_5082a552561a2cb45bb022f21a9b77df9f00fcea4703e489f9fc8dbeb4d36fc3[] = {
/* columns rows colors chars-per-pixel */
"64 64 20 1 ",
"  c black",
". c #090301",
"X c #150907",
"o c #20100F",
"O c #2C1213",
"+ c #3F2A26",
"@ c #34242F",
"# c #48191D",
"$ c #5D2C24",
"% c #753025",
"& c #564854",
"* c #91552D",
"= c #8D716C",
"- c #D98E34",
"; c #6C6781",
": c #AD9FBA",
"> c #C0C7D2",
", c #E3DDE4",
"< c #E1E8EB",
"1 c None",
/* pixels */
"1111111111111111111111111111111111111111111111111111111111111111",
"1111111111111111111111111111111111111111111111111111111111111111",
"1111111111111111111111111111111111111111111111111111111111111111",
"1111111111111111111111111111111111111111111111111111111111111111",
"1111111111111111111111111111111111111111111111111111111111111111",
"1111111111111111111111111111111111111111111111111111111111111111",
"1111111111111111111111111111111111111111111111111111111111111111",
"1111111111111111111111111111111111111111111111111111111111111111",
"1111111111111111111111111111111111111111111111111111111111111111",
"1111111111111111111111111111111111111111111111111111111111111111",
"1111111111111111111111111111111111111111111111111111111111111111",
"1111111111111111111111111111111111111111111111111111111111111111",
"1111111111111111111111111111111111111111111111111111111111111111",
"1111111111111111111111111111111111111111111111111111111111111111",
"1111111111111111111111111111111111111111111111111111111111111111",
"1111111111111111111111111111111111111111111111111111111111111111",
"1111111111111111111111111111111111111111111111111111111111111111",
"1111111111111111111111111111111111111111111111111111111111111111",
"1111111111111111111111111111111111111111111111111111111111111111",
"1111111111111111111111111111111111111111111111111111111111111111",
"1111111111111111111111111111111111111111111111111111111111111111",
"1111111111111111111111111111111111111111111111111111111111111111",
"1111111111111111111111111111111111111111111111111111111111111111",
"1111111111111111111111111111111111111111111111111111111111111111",
"1111111111111111111111111111111111111111111111111111111111111111",
"1111111111111111111111111111111111111111111111111111111111111111",
"1111111111111111111111111111111111111111111111111111111111111111",
"1111111111111111111111111111111111111111111111111111111111111111",
"1111111111111111111111111111111111111111111111111111111111111111",
"1111111111111111111111111111111111111111111111111111111111111111",
"1111111111111111111111111111111111111111111111111111111111111111",
"111111111111111 111111111111111111111111111111111111111111111111",
"11111111111111 * 11111111111111111111111111111111111111111111111",
"111111111111111.111111111111111111111111111111111111111111111111",
"11111111111111.*.11111111111111111111111111111111111111111111111",
"11111111111111.*...111111111111111111111111111111111111111111111",
"11111111111111.*..#.11111111111111111111111111111111111111111111",
"111111111111       #.1111111111111111111111111111111111111111111",
"11111111111 ******* #...1111111111111111111111111111111111111111",
"111111111111       ..;:<....111111111111111111111111111111111111",
"11111111111111o&@111..;:::<<......11111111111111111.....11111111",
"11111111111111o&@11111..;::::<.>>>...........XXX11.:<<<<.1111111",
"11111111111111o&@1111111..;;:::.@.>>>>>.>>>>>..,X..:::::<.111111",
"11111111111111@&@111111111...;;;.@@&&&&.&&&&.>>.,,.::::::<.11111",
"11111111111111@&o111111111111....@@@@&&.&&&&.&&>.,.;XX.::<.11111",
"11111111111111@;o1111111111111111...@@.@&&&&.&&>.,.;::X.::.11111",
"11111111111111@;o1111111111111111111..@@@&&.&&&>..;&&X&X.:.11111",
"11111111111111@;o11111111111111111111...@@.@&&&&.X;;X;X&X.111111",
"11111111111111@;o1111111111111111111.<::..@@@&@.,X&X;X;;;&.11111",
"11111111111111@:o111111111111111111.<:::.#..@@.,,,.&X&&&&..11111",
"11111111111111@:o11111111111111111 <:::::..#...=,X&&&&&..1111111",
"11111111111111o:o1111111111111111 <;:::::::...,,,..&&..111111111",
"11111111111111o<o111111111111111..&;;:::::::.X=,,.....1111111111",
"11111111111111o<o11111111111111.O.&;;;;::::.#.=,==X=..1111111111",
"11111111111111o<o1111111111111..O.....;;;:.#X:X,=,,,X.1111111111",
"11111111111111o<o111111111111...O.$$$%...:*#X:XX==+.@.1111111111",
"11111111111111o<o111111111....$.O#.$%%%%-*#*:::;XX.@.11111111111",
"11111111111111o<o1111.....<<<<...#.%%%%-%.* ::;;;.@@.11111111111",
"11111111111111o<o1...<<<<<:::::..##.%%-%%.#X;;;;.@@.111111111111",
"11111111111111o<o.<<<::::::::::.$.#*.-%%%.#.....@@.1111111111111",
"111111111111..o<o<::::::::::::;.$%*#*%%%%..@@@@@..11111111111111",
"1111111111..<.o<o:::::;;;;;;;;;.%%*#*.%..@@.@@@.1111111111111111",
"111111111...<.o<o;;;;;;;;;;;;;.$$$$*...;;.@@...11111111111111111",
"111111111...<.o<o..............$.....;;;;....1111111111111111111"
};
