/* XPM */
static char *_9885_db71e30ef484b8f57a2a5e0605dedf40398f1523beec34c48c8b5eed1a20ea9e[] = {
/* columns rows colors chars-per-pixel */
"64 64 22 1 ",
"  c black",
". c #090301",
"X c #150907",
"o c #20100F",
"O c #2C1213",
"+ c #251918",
"@ c #391515",
"# c #3F2A26",
"$ c #34242F",
"% c #48191D",
"& c #5D2C24",
"* c #753025",
"= c #564854",
"- c #91552D",
"; c #8D716C",
": c #D98E34",
"> c #6C6781",
", c #AD9FBA",
"< c #C0C7D2",
"1 c #E3DDE4",
"2 c #E1E8EB",
"3 c None",
/* pixels */
"3333333333333333333333333333333333333333333333333333333333333333",
"3333333333333333333333333333333333333333333333333333333333333333",
"3333333333333333333333333333333333333333333333333333333333333333",
"3333333333333333333333333333333333333333333333333333333333333333",
"3333333333333333333333333333333333333333333333333333333333333333",
"3333333333333333333333333333333333333333333333333333333333333333",
"333333333333333333333333333333333.....33333333333333333333333333",
"33333333333333333333333333333333.,2222.3333333333333333333333333",
"3333333333333333333333333333333.,,,,,,2.333333333333333333333333",
"333333333333333333333333333333.>,,,,,,,2.33333333333333333333333",
"333333333333333333333333333333.>,,XX.,,2.33333333333333333333333",
"33333333333333333333333333333.>>,,,2X.,,.33333333333333333333333",
"33333333333333333333333333...=>>,,,X2X.,.33333333333333333333333",
"3333333333333333333333333X#1.==>>,X>X2X.333333333333333333333333",
"333333333333333333333333X...1.=>>X>X>>>2.33333333333333333333333",
"33333333333333333333333X.<<<.1.=>>X>>==..33333333333333333333333",
"3333333333333333333333.....==.XX=====..3333333333333333333333333",
"333333333333333333333..<<<=.==.1X==..#33333333333333333333333333",
"33333333333333333333.<<.=====$.11X.;;X33333333333333333333333333",
"33333333333333333333.<==.===$$.;1;#X1# 3333333333333333333333333",
"3333333333333333333.<====.=$$$.111;11# 3333333333333333333333333",
"3333333333333333333.<=====$$..+1;1;1;. 3333333333333333333333333",
"333333333333333333..===$$$..%..XX;X;XX.3333333333333333333333333",
"333333333333333333.<......%%...,,X;X,,.3333333333333333333333333",
"33333333333333333.<===$.,.%.,.%.,,,,,,.333....333333333333333333",
"3333333333333333.<.==$.,,,.,,,.%.,,,,,.3..2222..3333333333333333",
"333333333333333..===$..,,,,,,,,.-.,,,.3.22,,,,22.333333333333333",
"33333333333333.<<.=$.3.,,,,,,,>-%- ,>. 2,, ,,,,,2.33333333333333",
"33333333333333.===..33.>,,,>>>..-%X>.. ,  % ,,,,,2.3333333333333",
"33333333333333.==.,.33 >>>>>>.:*.%%..$  %% ,,,,,,,2.333333333333",
"33333333333333.=.,,.33 =>>>..*:...%.$ %%% ,,,,,,,,,.333333333333",
"333333333333333.>,,,.3 .==.**..**.%. %%  ,,,,,,,,,==.33333333333",
"3333333333333333.>,,.3 ...&&.*::**.. % > ,,,,,, ,===.33333333333",
"33333333333333333.>,,. XXXXXXX--XXXX% $>> ,,,, % ===.33333333333",
"333333333333333333.>,,.OOO%%%-%%-%OX%  $>> ,  % ====.33333333333",
"3333333333333333333.>,,.O%%%%-%%-%%X.=$ $>> %  =====.33333333333",
"33333333333333333333 >...XXXXX--XXXX.... $ %%% ====.333333333333",
"3333333333333333333 -.%%%.X-.*****...@@.$ %%%% ====.333333333333",
"33333333333333333333 .%%OO-X>.&***.=,...=  %% ====.3333333333333",
"33333333333333333333O.%%OX-oo.&&*X.==,.= %   ===$.33333333333333",
"33333333333333333333O3.. -X==.X&X.====, % =====$.333333333333333",
"3333333333333333333O3..2X-oo===XX$$$==,. =====$ 3333333333333333",
"3333333333333333333..@. -X,,oX===XX$$==,.====$.33333333333333333",
"3333333333333333...-oo.2X,,,>.XX>>>XX$=,.==$$.333333333333333333",
"333333333333....@@@ooo.2,,,,>.==XX>>>XX=,.$$.3333333333333333333",
"33333333333.@@@@@@XXX3.2,,,,>.====XX>,,XX...33333333333333333333",
"3333333333.XXXXXXX3333.2,,,>>.====$.XX,,,XX333333333333333333333",
"33333333333...333333333.2...>.$$$$$$.$XX,,2XX3333333333333333333",
"33333333333333333333333..222.$$$$$$$.$.2XX222XX33333333333333333",
"3333333333333333333333.====2........3.2===XX222XX333333333333333",
"3333333333333333333333.$===.333333333.$===.3XX222X33333333333333",
"333333333333333333333.2$$==.333333333.2$=$.333XX22X3333333333333",
"333333333333333333333..2$$.333333333.$.2$.333333XX33333333333333",
"33333333333333333333.2,.2.3333333333.,$.22.333333333333333333333",
"3333333333333333333.2,,>.33333333333.,$$..3333333333333333333333",
"3333333333333333333.2,,>.3333333333.,$$>.33333333333333333333333",
"3333333333333333333.,,>.33333333333.,$>.333333333333333333333333",
"333333333333333333.2,>.333333333333.,$>.333333333333333333333333",
"333333333333333333.,>.3333333333333.,$.3333333333333333333333333",
"33333333333333333.2>.33333333333333.,$.3333333333333333333333333",
"33333333333333333.$$.33333333333333.$$.3333333333333333333333333",
"33333333333333333.22.33333333333333.222.333333333333333333333333",
"3333333333333333.2..2.333333333333.2....333333333333333333333333",
"33333333333333333....33333333333333.......3333333333333333333333"
};
