/* XPM */
static char *_057_79c6492b3c3503f208a85af718970de1fcc0303d5b4ba7b002de7747bca63542[] = {
/* columns rows colors chars-per-pixel */
"64 64 23 1 ",
"  c black",
". c #090301",
"X c #120907",
"o c #150907",
"O c #2C1213",
"+ c #391515",
"@ c #3F2A26",
"# c #34242F",
"$ c #48191D",
"% c #5D2C24",
"& c #753025",
"* c #564854",
"= c #91552D",
"- c #985131",
"; c #8D716C",
": c #D98E34",
"> c #6C6781",
", c #B0968E",
"< c #AD9FBA",
"1 c #C0C7D2",
"2 c #E3DDE4",
"3 c #E1E8EB",
"4 c None",
/* pixels */
"4444444444444444444444444444444444444444444444444444444444444444",
"4444444444444444444444444444444444444444444444444444444444444444",
"4444444444444444444444444444444444444444444444444444444444444444",
"4444444444444444444444444444444444444444444444444444444444444444",
"44444444444444444444444444444444ooooo444444444444444444444444444",
"4444444444444444444444444444444o<<<33o44444444444444444444444444",
"444444444444444444444444444444o<<3<<<3o4444444444444444444444444",
"44444444444444444444444444444o><<<3<<<3o444444444444444444444444",
"44444444444444444444444444444o>><<......444444444444444444444444",
"44444444444444444444444444444.>>>Xoooooooo4444444444444444444444",
"44444444444444444444444444444.#>oo<<33<3<o444444    444444444444",
"444444444444444444444444444o@.#oo><<.<.<o444444 #33 444444444444",
"44444444444444444444444444o22;.#o><.<.<<o444444 #3< 444444444444",
"4444444444444444444444444o,    o#o>.<.<o4444444 #3< 444444444444",
"4444444444444444444444444  11** oo>><.<.4444444 #<< 444444444444",
"444444444444444444444444      ** 2o>><<. 444444 #3< 444444444444",
"44444444444444444444444  111*** * 2o.><   44444 #3< 444444444444",
"44444444444444444444444 1 ******o 2;@oo  1 444  #<< 444444444444",
"4444444444444444444444 1** ****** 22;22@ *1 4 $ #<< 444444444444",
"444444444444444444444 1**** ****# ;2;2;. **1  $ #<< 444444444444",
"44444444444444444444 1****** ###  o;o;oo3 **1 $ #<< 444444444444",
"4444444444444444444  ******##    $$o;o<<3 #**1  #<< 444444444444",
"444444444444444444 1* ***##   OO .$$.<<<3 ##**  #<< 444444444444",
"4444444444444444  1*** ##    $ $ <.$$.<<<  ## * #,< 444444444444",
"444444444444444 ** ***#     $$$ <<<.$$.<3 4 # * #,< 444444444444",
"444444444444444   * ## 444 > $ <<<<<.$O<3 44 $  #<< 444444444444",
"444444444444444 3< #  4444 >> <<<<<<<.=.< 444 $ #,< 444444444444",
"44444444444444 3<>  4444444o>><<<<<<*=$=  4444  #<< 444444444444",
"44444444444444 3<> 444444444o>><<>  -.=$o.44444 #<< 444444444444",
"44444444444444 <> 4444444444 *>>> &&:&.$o444444 #,< 444444444444",
"4444444444444 3<> 4444444444 **  &&&:&.$o444444 #<< 444444444444",
"4444444444444 3> 44444444444 * %%&&&:&.$$.44444 #,< 444444444444",
"4444444444444 <> 44444444444  %%%%%&::&.$.44444 #,< 444444444444",
"444444444444 << 444444444444 ooooooo==oooo44444 #<< 444444444444",
"444444444444 <> 44444444444OoOOO$$$=$$=$Oo44444 #, 4444444444444",
"44444444444    444444444444OoOO$$$$=$$=$$o...44 #< 4444444444444",
"44444444444 OO 44444444444O4oo    oo==oooo++.44 #, 4444444444444",
"4444444444 OOO 44444444444O4  33<< %&&&& .o..44 #, 4444444444444",
"4444444444 OOO 4444444444O4 333<<<< %&& > .4444 #, 4444444444444",
"4444444444     4444444444O4 33<<<<< %% >> 44444 # 44444444444444",
"444444444 ===== 44444444O4 33<<<<<> % >>>> 4444 # 44444444444444",
"4444444444     444444444.. 3<<<<<<>  ##>>> 4444  444444444444444",
"44444444444o*o4444444...= 33<<<<<>> ###>>>#4444  444444444444444",
"44444444444o*o444....+++o 3<<<<<>>  ####>>> 44444444444444444444",
"44444444444o>o44.++++++  33<<<<>> 44 ###>>> 44444444444444444444",
"44444444444o>o4.ooooooo4 3<<<<>> 444 ###>>> 44444444444444444444",
"44444444444o>o44...4444 33<<<>> 44444 ###>> 44444444444444444444",
"44444444444>3>444444444    >>> 444444 ###>  44444444444444444444",
"44444444444>3>44444444 3333 > 44444444 #  33 4444444444444444444",
"44444444444>3>4444444 ****3  4444444444  3* 44444444444444444444",
"44444444444>3>4444444 ****3 44444444444 3*** 4444444444444444444",
"44444444444>3>444444 3##**3 4444444444  #*** 4444444444444444444",
"44444444444>3>44444 3 3### 4444444444 ##3### 4444444444444444444",
"444444444444>44444 33> 33 4444444444 <># 3# 44444444444444444444",
"44444444444444444 3<<<>  44444444444 <>># 33 4444444444444444444",
"4444444444444444 3<<<> 444444444444 <>>>#   44444444444444444444",
"4444444444444444 3<<> 4444444444444 <>># 44444444444444444444444",
"444444444444444 3<<> 44444444444444 >># 444444444444444444444444",
"444444444444444 <<> 44444444444444 <># 4444444444444444444444444",
"44444444444444 3<> 444444444444444 >> 44444444444444444444444444",
"4444444444444  ## 444444444444444 ### 44444444444444444444444444",
"4444444444444 33 4444444444444444 333 44444444444444444444444444",
"444444444444 3  3 44444444444444 3    .4444444444444444444444444",
"4444444444444 oo 4444444444444444 oooo  .44444444444444444444444"
};
