/* XPM */
static char *_9447_9d0bd9d96b838127681796187038390ee37897d6ba48aad2d6eaf480b568ca40[] = {
/* columns rows colors chars-per-pixel */
"64 64 27 1 ",
"  c black",
". c #090301",
"X c #120907",
"o c #150907",
"O c #2C1213",
"+ c #391515",
"@ c #2F1B28",
"# c #3F2A26",
"$ c #34242F",
"% c #48191D",
"& c #5D2C24",
"* c #403034",
"= c #753025",
"- c #564854",
"; c #91552D",
": c #8D716C",
"> c #FA9B13",
", c #D98E34",
"< c #E09C55",
"1 c #6C6781",
"2 c #B0968E",
"3 c #AD9FBA",
"4 c #C1B9FA",
"5 c #C0C7D2",
"6 c #E3DDE4",
"7 c #E1E8EB",
"8 c None",
/* pixels */
"8888888888888888888888888888888888888888888888888888888888888888",
"8888888888888888888888888888888888888888888888888888888888888888",
"8888888888888888888888888888888888888888888888888888888888888888",
"8888888888888888888888888888888888888888888888888888888888888888",
"8888888888888888888888888888888888888888888888888888888888888888",
"888888888888888888888ooooo8oo88888888888888888888888888888888888",
"88888888888888888888o7737.oo3 8888888888888888888888888888888888",
"8888888888888888888o3333.oo73 8888888888888888888888888888888888",
"888888888888888888o3773.oo3.33 888888888888888888888888888888888",
"888888888888888888o333.oo73X33o888888888888888888888888888888888",
"888888888888888888o333Xo33X3X33 88888888888888888888888888888888",
"888888888888888888o1111o333X3o3o88888888888888888888888888888888",
"888888888888888888o111oo1111o133  X88888888888888888888888888888",
"8888888888888888888.11ooo1111133o66 8888888888888888888888888888",
"88888888888888888888         o    66 888888888888888888888888888",
"88888888888888888888.555-- 66: oo :6 888888888888888888888888888",
"8888888888888888888     --- 662   :6  88888888888888888888888888",
"8888888888888888888  ---- - 2262 #66  88888888888888888888888888",
"888888888888888888 55 ----$   26#662 7 8888888888888888888888888",
"88888888888888888 5--- --$$ %%  :#2 37 8888888888888888888888888",
"8888888888888888 5----- $$   %%    3337 888888888888888888888888",
"888888888888888  -----$$  % 3 %% 3333@7 888888888888888888888888",
"888888888888888 5  --$$ %%%.33 %% 3@@37             888888888888",
"88888888888888 5--- $   %%.3333 %% 33337 33333333333 88888888888",
"8888888888888 - --$  8 1 .33333@ %; 3337 33333333333 88888888888",
"888888888888 5-- $ 8888 13333@@33;%; 333 33333333333 88888888888",
"88888888888 5--$$ 888888.133@33333;%% 33  333333o 33 88888888888",
"88888888888      88888888.1@33333   %% 3+ 33333 oo3- 88888888888",
"88888888888 731 8888888888.1333  ,== %%  333333 o3-- 88888888888",
"8888888888 731 888888488888.11 ===,== %%  3333  o -- 88888888888",
"8888888888 73 8888888888888 1 &===,=== %       %% -- 88888888888",
"8888888888 71 88888488888*8  &&====,===  33333 %% -- 88888888888",
"888888888 73 88888<88888888 &&&&===,,=== 11111 %% -- 88888888888",
"888888888 71 888>>888888*88 ooooooo;;ooo        o--- 88888888888",
"88888888  11 8888>88888>>88 OOO%%%;%%;%% $$$$$$ o--- 88888888888",
"8888888 ;    8 888888888888 OOOO%%;%%;%% ------ + -$ 88888888888",
"88888888  %%% ; 88888888888 ooooooo;;ooo  ...---  -$ 88888888888",
"888888888 %% ; 88888888888O     &&======  ++.------$ 88888888888",
"888888888 % ; 888888888888O 7333  &=====  o..-----$$ 88888888888",
"8888888888 ; $o8888888888O 773333  &=== -3 -------$$ 88888888888",
"888888888 ; 8o$o888888888O 7333331 &&= ---3 -----$$$ 88888888888",
"8888888888 888o$o8888888O 73333311 && $$---3 ----$$$ 88888888888",
"888888888888888o1o888888. 73333311 & $$$$---3 --$$$$ 88888888888",
"8888888888888888o1o88... 733333111  $$$$$$---3 $$$$.888888888888",
"88888888888888888o1$.+++ 73333311 8  $$$$$$---3 $$$.888888888888",
"8888888888888888.+$1$++ 73333311 8888  $$$$$---3 $$ 888888888888",
"888888888888888.ooo$1$o 7333311 88888 $  $$$$$-  $$ 888888888888",
"8888888888888888...8$7$7333311 8888888 $$ $$$$ 77  8888888888888",
"888888888888888888888$7$33311 888888888 $$ $$ 7-  88888888888888",
"888888888888888888888 $7$311 8888888888 $$$  7--- 88888888888888",
"88888888888888888888 77$7$1 888888888888 $$$ $--- 88888888888888",
"8888888888888888888 ---7$7$88888888888888 $$ 7$$$ 88888888888888",
"888888888888888888 7---7 $7$88888888888888 $. 7$ 888888888888888",
"8888888888888888   7$$$$ 8$$888888888888888 .$ 77 88888888888888",
"888888888888888 777 777 88888888888888888888.$$  888888888888888",
"888888888888888 7331   888888888888888888888.$-$ 888888888888888",
"88888888888888 7331  88888888888888888888888.$-- 888888888888888",
"88888888888888 733 8888888888888888888888888 $-- 888888888888888",
"88888888888888 71 88888888888888888888888888 $- 8888888888888888",
"8888888888888 71 888888888888888888888888888 $- 8888888888888888",
"8888888888888 $$ 888888888888888888888888888 oo 8888888888888888",
"8888888888888 77 888888888888888888888888888 777 888888888888888",
"888888888888 7  7 8888888888888888888888888 7    .88888888888888",
"8888888888888 oo 888888888888888888888888888 oooo  .888888888888"
};
