/* XPM */
static char *_3699_87f39e8d8a9cee9276654f5e2e33350fc027658f1b7b8d41c24737361e885512[] = {
/* columns rows colors chars-per-pixel */
"64 64 25 1 ",
"  c black",
". c #090301",
"X c #120907",
"o c #150907",
"O c #2C1213",
"+ c #391515",
"@ c #2F1B28",
"# c #3F2A26",
"$ c #34242F",
"% c #48191D",
"& c #5D2C24",
"* c #403034",
"= c #753025",
"- c #564854",
"; c #91552D",
": c #8D716C",
"> c #FA9B13",
", c #D98E34",
"< c #6C6781",
"1 c #B0968E",
"2 c #AD9FBA",
"3 c #C0C7D2",
"4 c #E3DDE4",
"5 c #E1E8EB",
"6 c None",
/* pixels */
"6666666666666666666666666666666666666666666666666666666666666666",
"6666666666666666666666666666666666666666666666666666666666666666",
"6666666666666666666666666666666666666666666666666666666666666666",
"6666666666666666666666666666666666666666666666666666666666666666",
"6666666666666666666666666666ooooo6666666666666666666666666666666",
"666666666666666666666666666o22255o666666666666666666666666666666",
"66666666666666666666666666o2252225o66666666666666666666666666666",
"6666666666666666666666666o<22252225o6666666666666666666666666666",
"6666666666666666666666666o<<22......6666666666666666666666666666",
"6666666666666666666666666.<<<Xoooooooo66666666666666666666666666",
"6666666666666666666666666.$<oo2255252o66666666666666666666666666",
"6666666666666666666666666.$oo<22.2.2o666666666666666666666666666",
"666666666666666666666666.4..o<2.2.22o666666666666666666666666666",
"6666666666666666666666...   .o<.2.2o 666666666666666666666666666",
"666666666666666666666.333-- 1 <<2.2o4 66666666666666666666666666",
"666666666666666666666    --- 4.<<22o4 66666666666666666666666666",
"66666666666666666666 3---- - 44..<2o4  6666666666666666666666666",
"6666666666666666666 3. ----$ 1141 .44  6666666666666666666666666",
"666666666666666666 3--- --$$   14#441 5 666666666666666666666666",
"66666666666666666 3----- $$  %%  :#1 25 666666666666666666666666",
"6666666666666666  -----$$  o  %%    2225 66666666666666666666666",
"6666666666666666 3  --$$ ooo.2 %% 2222:5             66666666666",
"666666666666666 3--- $$ o..%.22 %% 2@:25 222222222222 6666666666",
"66666666666666 - --$   . %%.2222 %% 22225 22222222222 6666666666",
"6666666666666 3-- $ 666 < .22222@ %; 2225 22222222222 6666666666",
"666666666666 3--$$ 66666 <2222:@22;%; 222 2222222o 22 6666666666",
"666666666666      6666666.<22:22222;%% 22 222222 oo2- 6666666666",
"666666666666 52< 666666666.<:22222   %% 2 222222 o2-- 6666666666",
"66666666666 52< 66666666666.<222  ,== %%   2222  o -- 6666666666",
"66666666666 52 6666666666666.<< ===,== %%       %% -- 6666666666",
"66666666666 5< 6666666666666 < &===,=== % 22222 %% -- 6666666666",
"6666666666 52 66661666666666  &&====,===  <<<<< %% -- 6666666666",
"6666666666 5< 66666666666666 &&&&===,,===        o--- 6666666666",
"666666666  << 66616666666666 ooooooo;;ooo ------ o--- 6666666666",
"66666666 ;    6 666666666666 OOO%%%;%%;%% ------ + -$ 6666666666",
"666666666  %%% ; 66666666666 OOOO%%;%%;%% -------  -$ 6666666666",
"6666666666 %% ; 666666666666 ooooooo;;ooo --....----$ 6666666666",
"6666666666 % ; 6666666166666     &&====== ..+++.---$$ 6666666666",
"66666666666 ; $o666666666666 5222  &=====  ooo..---$$ 6666666666",
"6666666666 ; 6o$o6666166666 552222  &=== -2 ..----$$$ 6666666666",
"66666666666 >>6o$o66*666666 522222< &&= ---2 -----$$$ 6666666666",
"6666666666666666o<o6>66666 522222<< && $$---2 ---$$$$ 6666666666",
"66666666666666666o<o666666 522222<< & $$$$---2 -$$$$.66666666666",
"666666666666666666o<$666. 522222<<<  $$$$$$---2 $$$$.66666666666",
"6666666666666666666$<$..+ 522222<< 6  $$$$$$---2 $$$ 66666666666",
"6666666666666666666.$<$+ 522222<< 6666  $$$$$---- $$ 66666666666",
"666666666666666666.oo$5$ 52222<< 666666   $$$$$-  $ 666666666666",
"6666666666666666666...$5$2222<< 66666666 $ $$$$ 55 6666666666666",
"66666666666666666666666$5$22<< 666666666 $$    5-  6666666666666",
"6666666666666666666666  $5$<< 66666666666 $$$ 5--- 6666666666666",
"666666666666666666666 555$5$ 6666666666666 $$ $--- 6666666666666",
"66666666666666666666 ---5 $5$66666666666666 $ 5$$$ 6666666666666",
"6666666666666666666 5---5  $$666666666666666 . 5$ 66666666666666",
"66666666666666666   5$$$$ 6666666666666666666.$ 55 6666666666666",
"6666666666666666 555 555 66666666666666666666.$$  66666666666666",
"6666666666666666 522<   666666666666666666666.$-$ 66666666666666",
"666666666666666 522<  66666666666666666666666.$-- 66666666666666",
"666666666666666 522 6666666666666666666666666 $-- 66666666666666",
"666666666666666 5< 66666666666666666666666666 $- 666666666666666",
"66666666666666 5< 666666666666666666666666666 $- 666666666666666",
"66666666666666 $$ 666666666666666666666666666 oo 666666666666666",
"66666666666666 55 666666666666666666666666666 555 66666666666666",
"6666666666666 5  5 6666666666666666666666666 5    .6666666666666",
"66666666666666 oo 666666666666666666666666666 oooo  .66666666666"
};
