/* XPM */
static char *_6299_680a54c725543369fda1a2b649eedca8d1787aeff9d1f6ad43b4d18579b6ee1e[] = {
/* columns rows colors chars-per-pixel */
"64 64 24 1 ",
"  c black",
". c #090301",
"X c #120907",
"o c #150907",
"O c #20100F",
"+ c #201211",
"@ c #2C1213",
"# c #391515",
"$ c #34242F",
"% c #48191D",
"& c #5D2C24",
"* c #753025",
"= c #564854",
"- c #91552D",
"; c #985131",
": c #8D716C",
"> c #D98E34",
", c #6C6781",
"< c #B0968E",
"1 c #AD9FBA",
"2 c #C0C7D2",
"3 c #E3DDE4",
"4 c #E1E8EB",
"5 c None",
/* pixels */
"5555555555555555555555555555ooooo5555555555555555555555555555555",
"555555555555555555555555555o11144o555555555555555555555555555555",
"55555555555555555555555555o1141114o55555555555555555555555555555",
"5555555555555555555555555o,11141114o5555555555555555555555555555",
"5555555555555555555555555o,,11......5555555555555555555555555555",
"5555555555555555555555555.,,,Xoooooooo55555555555555555555555555",
"5555555555555555555555555.$,oo1144141o55555555555555555555555555",
"555555555555555555555555...oo,11.1.1o555555555555555555555555555",
"55555555555555555555555o:3:.o,1.1.11o555555555555555555555555555",
"5555555555555555555555o<333:.o,.1.1o5555555555555555555555555555",
"5555555555555555555555oooO:3:  ,1.1o.555555555555555555555555555",
"5555555555555555555555o2=OoO3:: ,11o..55555555555555555555555555",
"5555555555555555555555ooo===o33:..1o.2.5555555555555555555555555",
"555555555555555555555o22=oo$=o33:..3.=2.555555555555555555555555",
"55555555555555555555o2=====o$$o3::o3. =2.55555555555555555555555",
"5555555555555555555o2=======O$o33:33. ==.55555555555555555555555",
"555555555555555555o ========O$oo3o3o.  =.55555555555555555555555",
"555555555555555555o2 =======$o.%..o114 =.55555555555555555555555",
"555555555555555555o2= =====$  1.%%.114 =.55555555555555555555555",
"555555555555555555o2==O==$$ @ 11.%%.14 $.55555555555555555555555",
"555555555555555555o ===OO  @@ 111.%%.1 O.55555555555555555555555",
"555555555555555555o2 ==$$ @@ 11111.-.4 $2.5555555555555555555555",
"55555555555555555o2== =$o @ 111111-%-4 $=.555....555555555555555",
"55555555555555555o==== o1, 11111 . -%  $$.5..4444..5555555555555",
"55555555555555555  +$$o5o,,,11. &;* %  ....41111144.555555555555",
"5555555555555555 22=+ 555.,,,.***>* %%.,11.111111114.55555555555",
"5555555555555555 2==$ 555 =, ****>**.%5.,11.1.1111114.5555555555",
"5555555555555555 ===$ 555 = &****>***.5.,1...%.1111111.555555555",
"5555555555555555 === .555 .&&&***>****.4..@%%.11111111.555555555",
"5555555555555555 =  1.555 &&&&&&*>>***.1.@%..11111111==.55555555",
"55555555555555555 111.555 ooooooo--oooo1.%.,.111 111===.55555555",
"55555555555555555o411.555o@@@%%%-%%-%@o %.O,,.1.% =====.55555555",
"55555555555555555o411 555o@@%%%%-%%-%%o% 1$O,O.%.======.55555555",
"55555555555555555o41.5555.ooooooo--oooo....OO% .=======.55555555",
"55555555555555555o41.5555.4==.&&&****..###..% %%======.555555555",
"55555555555555555o41.555.4111=.&&&***..oo...% %.======.555555555",
"55555555555555555o41 55o.41111=.&&&*o..... %...======.5555555555",
"5555555555555555.o4   o-.41111==.&&o.11.= % =======$.55555555555",
"5555555555555555.-  %%-o.411111=.@o.111.== =======$.555555555555",
"55555555555555555. %@o-OOO11111=.o,1111.=========$.5555555555555",
"555555555555555555. @-o=,,OOO11=.=,,111.========$.55555555555555",
"555555555555555....@o-OO==,,,OOO.=,,1111.=====$$.555555555555555",
"55555555555555.#####-oOOOOO==,,,OOO,,111.==$$$$.5555555555555555",
"5555555555555.ooooooo555.41OOO===,,OOO11.$$$$..55555555555555555",
"55555555555555...5555555.41111OOO,,,11OOO$$..5555555555555555555",
"555555555555555555555555.44111..$OOO11144OOO55555555555555555555",
"555555555555555555555555.44411..$$$ OOO11444OOO55555555555555555",
"555555555555555555555555....OO5.... , 3OOO14444O5555555555555555",
"555555555555555555555555.=222.555555 3== 5OOO144O555555555555555",
"55555555555555555555555.====2.555555 === 5555OOO5555555555555555",
"55555555555555555555555.$===.5555555 $== 55555555555555555555555",
"55555555555555555555555.$$==.555555. 3$ 555555555555555555555555",
"5555555555555555555555.2$$$$.555555 $ 33 55555555555555555555555",
"5555555555555555555555.$222.5555555 ,$ o555555555555555555555555",
"5555555555555555555555.1$$$.5555555.,1$.555555555555555555555555",
"5555555555555555555555.1==O.5555555 ,11.555555555555555555555555",
"5555555555555555555555.11,.55555555 ,11.555555555555555555555555",
"5555555555555555555555.11,.55555555 ,,1.555555555555555555555555",
"5555555555555555555555.11,.555555555.$,.555555555555555555555555",
"5555555555555555555555.1,$5555555555.$,.555555555555555555555555",
"5555555555555555555555..O.5555555555.OO.555555555555555555555555",
"5555555555555555555555o44o5555555555.444o55555555555555555555555",
"55555555555555555555554..4555555555.4.....5555555555555555555555",
"5555555555555555555555.oo.5555555555.oooo...55555555555555555555"
};
