/* XPM */
static char *_5151_f5270fb1b2247e4225a68c2bb41d2a68b81ccf6d9bfe992a1d0dca74a0dc1b66[] = {
/* columns rows colors chars-per-pixel */
"64 64 19 1 ",
"  c black",
". c #090301",
"X c #120907",
"o c #150907",
"O c #20100F",
"+ c #391515",
"@ c #34242F",
"# c #48191D",
"$ c #753025",
"% c #564854",
"& c #91552D",
"* c #D98E34",
"= c #6C6781",
"- c #B0968E",
"; c #AD9FBA",
": c #C0C7D2",
"> c #E3DDE4",
", c #E1E8EB",
"< c None",
/* pixels */
"<<<<<<<<<<<<<<<<<<<<<<<<<<<<<<<<<<<<<<<<<<<<<<<<<<<<<<<<<<<<<<<<",
"<<<<<<<<<<<<<<<<<<<<<<<<<<<<<<<<<<<<<<<<<<<<<<<<<<<<<<<<<<<<<<<<",
"<<<<<<<<<<<<<<<<<<<<<<<<<<<<<<<<<<<<<<<<<<<<<<<<<<<<<<<<<<<<<<<<",
"<<<<<<<<<<<<<<<<<<<<<<<<<<<<<<<<<<<ooooo<<<<<<<<<<<<<<<<<<<<<<<<",
"<<<<<<<<<<<<<<<<<<<<<<<<<<<<<<<<<<o;;;,,o<<<<<<<<<<<<<<<<<<<<<<<",
"<<<<<<<<<<<<<<<<<<<<<<<<<<<<<<<<<o;;,;;;,o<<<<<<<<<<<<<<<<<<<<<<",
"<<<<<<<<<<<<<<<<<<<<<<<<<<<<<<<<o=;;;,;;;,o<<<<<<<<<<<<<<<<<<<<<",
"<<<<<<<<<<<<<<<<<<<<<<<<<<<<<<<<o==;;......<<<<<<<<<<<<<<<<<<<<<",
"<<<<<<<<<<<<<<<<<<<<<<<<<<<<<<<<.===Xoooooooo<<<<<<<<<<<<<<<<<<<",
"<<<<<<<<<<<<<<<<<<<<<<<<<<<<<<  .@=oo;;,,;,;o<<<<<<<<<<<<<<<<<<<",
"<<<<<<<<<<<<<<<<<<<<<<<<<<<<<  -- oo=;;.;.;o<<<<<<<<<<<<<<<<<<<<",
"<<<<<<<<<<<<<<<<<<<<<<<<<<   :: >- o=;.;.;;o<<<<<<<<<<<<<<<<<<<<",
"<<<<<<<<<<<<<<<<<<<<<<<<  :%: %% >> o=.;.;o<<<<<<<<<<<<<<<<<<<<<",
"<<<<<<<<<<<<<<<<<<<<<<< :% %%: %% >>.==;.;o<<<<<<<<<<<<<<<<<<<<<",
"<<<<<<<<<<<<<<<<<<<<<  :%%% %%%%%% >> ==;;o<<<<<<<<<<<<<<<<<<<<<",
"<<<<<<<<<<<<<<<<<<   :% %%%@ %%%%% ->> .=;o<<<<<<<<<<<<<<<<<<<<<",
"<<<<<<<<<<<<<<<<< :% %%@ %%@ %%%%@ ->>> ..<<<<<<<<<<<<<<<<<<<<<<",
"<<<<<<<<<<<<<<<< :%% %%%@ %@ %%%@@  ->>>o: <<<<<<<<<<<<<<<<<<<<<",
"<<<<<<<<<<<<<<<< @@@ @@@@ @@ @@@@  ; ->- : <<<<<<<<<<<<<<<<<<<<<",
"<<<<<<<<<<<<<<<     @            ++ ; - %% <<<<<<<<<<<<<<<<<<<<<",
"<<<<<<<<<<<<<<< ,;== <<< ;  oooo  ## ;  %: <<<<<<<<<<<<<<<<<<<<<",
"<<<<<<<<<<<<<< ,;;= <<<< ; o   o ; ## , %: <<<<<<<<<<<<<<<<<<<<<",
"<<<<<<<<<<<<<< ,;;= <<<< ; ++++  ;; #&  %: <<<....<<<<<<<<<<<<<<",
"<<<<<<<<<<<<<< ,;; <<<<< ;; +++ ;;;;&#& %: <..,,,,..<<<<<<<<<<<<",
"<<<<<<<<<<<<< ,;; <<<<< ;;;;   ;;;;;;&# @% .,,;;;;,,.<<<<<<<<<<<",
"<<<<<<<<<<<<< ,; <<<<<< ;;;;;;;;;;;;;= @@@ ,;; ;;;;;,.<<<<<<<<<<",
"<<<<<<<<<<<< ,; <<<<<<< ;;;;;;;;;;     @@  ;  # ;;;;;,.<<<<<<<<<",
"<<<<<<<<<<<  ;; <<o<<<< ;;;;;;;;; $* < @ =  ## ;;;;;;;,.<<<<<<<<",
"<<<<<<<<<< &    <o&.<<< =;;====  $* << @  ### ;;;;;;;;;.<<<<<<<<",
"<<<<<<<<<<<  ##  &o<<<< =====  $$$* <<.  ##  ;;;;;;;;;%%.<<<<<<<",
"<<<<<<<<<<<< ###o&OOO<<  ==  $$$$* <<.;; # = ;;;;;; ;%%%.<<<<<<<",
"<<<<<<<<<<<<< # &o%==OOO   $$$$$$* <.;; # @== ;;;; # %%%.<<<<<<<",
"<<<<<<<<<<<<<< o&OO%%===OOOoooooooo<.; ##  @== ;  # %%%%.<<<<<<<",
"<<<<<<<<<<<<<< &o<<OOO%%===OOO####&.;; # ;@ @== #  %%%%%.<<<<<<<",
"<<<<<<<<<<<<<<<o<<<<<<OOO%%%==OOO#&.;;;  ..@ @ ### %%%%.<<<<<<<<",
"<<<<<<<<<<<<<<<<<<<<<<< oOOO===;;OOO...+++.%@ #### %%%%.<<<<<<<<",
"<<<<<<<<<<<<<<<<<<<<<<<     OOO;;;,,OOOoo..%%  ## %%%%.<<<<<<<<<",
"<<<<<<<<<<<<<<<<<<<<<<< ;;;;;; OOO;;,,,OOO%% #   %%%@.<<<<<<<<<<",
"<<<<<<<<<<<<<<<<<<<<<< ,;;;;;= $$ OOO;,,,,O # %%%%%@.<<<<<<<<<<<",
"<<<<<<<<<<<<<<<<<<<<<< ,;;;;;= $$ ===OOO;,,O %%%%%@.<<<<<<<<<<<<",
"<<<<<<<<<<<<<<<<<<<<< ,;;;;;==   =======OOO%%%%%%@.<<<<<<<<<<<<<",
"<<<<<<<<<<<<<<<<<<<.. ,;;;;===  @@@=====   %%%%@@.<<<<<<<<<<<<<<",
"<<<<<<<<<<<<<<<....+ ,;;;;===   @@@@@@@ >> %@@@@.<<<<<<<<<<<<<<<",
"<<<<<<<<<<<<<<.+++++ ,;;;=== <<<. @@@@@>% @@@@..<<<<<<<<<<<<<<<<",
"<<<<<<<<<<<<<.ooooo ,;;;=== <<<<.     >%%% @..<<<<<<<<<<<<<<<<<<",
"<<<<<<<<<<<<<<...<< ,;;=== <<<<  @@@  %%%% .<<<<<<<<<<<<<<<<<<<<",
"<<<<<<<<<<<<<<<<<<< ,==== <<<< @@@@@@ >@@@ <<<<<<<<<<<<<<<<<<<<<",
"<<<<<<<<<<<<<<<<<< =     << < @======= ,@ <<<<<<<<<<<<<<<<<<<<<<",
"<<<<<<<<<<<<<<<<<<  >>> << > @=====     >> <<<<<<<<<<<<<<<<<<<<<",
"<<<<<<<<<<<<<<<<< >>%% <<<X >@=    <<<<<  <<<<<<<<<<<<<<<<<<<<<<",
"<<<<<<<<<<<<<<<<  >%% <<<<X >@ <<<<<<<<<<<<<<<<<<<<<<<<<<<<<<<<<",
"<<<<<<<<<<<<<<< , >@% <<<<X > <<<<<<<<<<<<<<<<<<<<<<<<<<<<<<<<<<",
"<<<<<<<<<<<<<< ,; >@ <<<<<X  <<<<<<<<<<<<<<<<<<<<<<<<<<<<<<<<<<<",
"<<<<<<<<<<<<< ,;;= > <<<<<  <<<<<<<<<<<<<<<<<<<<<<<<<<<<<<<<<<<<",
"<<<<<<<<<<<<< ,;==  <<<<<< <<<<<<<<<<<<<<<<<<<<<<<<<<<<<<<<<<<<<",
"<<<<<<<<<<<< ,;== <<<<<<<<.<<<<<<<<<<<<<<<<<<<<<<<<<<<<<<<<<<<<<",
"<<<<<<<<<<<< ,;= <<<<<<<<<<<<<<<<<<<<<<<<<<<<<<<<<<<<<<<<<<<<<<<",
"<<<<<<<<<<<< ,= <<<<<<<<<<<<<<<<<<<<<<<<<<<<<<<<<<<<<<<<<<<<<<<<",
"<<<<<<<<<<< ,== <<<<<<<<<<<<<<<<<<<<<<<<<<<<<<<<<<<<<<<<<<<<<<<<",
"<<<<<<<<<<< ,= <<<<<<<<<<<<<<<<<<<<<<<<<<<<<<<<<<<<<<<<<<<<<<<<<",
"<<<<<<<<<< @@@ <<<<<<<<<<<<<<<<<<<<<<<<<<<<<<<<<<<<<<<<<<<<<<<<<",
"<<<<<<<<<< >>> <<<<<<<<<<<<<<<<<<<<<<<<<<<<<<<<<<<<<<<<<<<<<<<<<",
"<<<<<<<<< >    .<<<<<<<<<<<<<<<<<<<<<<<<<<<<<<<<<<<<<<<<<<<<<<<<",
"<<<<<<<<<< XXXX  .<<<<<<<<<<<<<<<<<<<<<<<<<<<<<<<<<<<<<<<<<<<<<<"
};
