/* XPM */
static char *_ebead00ef0941b3ce42bb16743dff78XpTjNyLMhEWsG4hf[] = {
/* columns rows colors chars-per-pixel */
"64 64 21 1 ",
"  c None",
". c black",
"X c #090301",
"o c #120907",
"O c #150907",
"+ c #20100F",
"@ c #2C1213",
"# c #391515",
"$ c #34242F",
"% c #48191D",
"& c #5D2C24",
"* c #753025",
"= c #564854",
"- c #91552D",
"; c #D98E34",
": c #6C6781",
"> c #B0968E",
", c #AD9FBA",
"< c #C0C7D2",
"1 c #E3DDE4",
"2 c #E1E8EB",
/* pixels */
"                                                                ",
"                                                                ",
"                                                                ",
"                                                                ",
"                                                                ",
"                                      OOOOO                     ",
"                                     O,,,22O                    ",
"                                    O,,2,,,2O                   ",
"                                   O:,,,2,,,2O                  ",
"                                   O::,,XXXXXX                  ",
"                                 ..X:::oOOOOOOOO                ",
"                                .1>>.:OO,,22,2,O                ",
"                               .1111>.O:,,X,X,O                 ",
"                              .....111.:,X,X,,O                 ",
"                              .<<<<.111O:X,X,O                  ",
"                             .....==.111.:,X,O                  ",
"                            .<<===.=.1>11.:,,O                  ",
"                           .<======.=.>111.:,O                  ",
"                          .<..=======..>111XX                   ",
"                          .===.=====$.,.>1>.O                   ",
"                         .====.====$...,.>.<.                   ",
"                        .<=====.==$..%%.,..<.                   ",
"                       .<<.====.$...,.%%.2.=.                   ",
"                      ..<==.==$..##.,,.%-.$<.                   ",
"                     .<=.==$....##.,,,,-%-.<.                   ",
"                    .<===.$$....,,,,,,,,-%.<.   XXXX            ",
"                    .====$..,,,,,,,,,,,,:.=<. XX2222XX          ",
"                    ...==$.,,,,,,,,,,....$$=.X22,,,,22X         ",
"                    .2,.$..,,,,,,,::.*;..$$$.2,,.,,,,,2X        ",
"                    .2,,. .:,,,,:::.*;. .$$..,..%.,,,,,2X       ",
"                    .2,,. .::::::..**;. .$.,..%%.,,,,,,,2X      ",
"                    .2,,. ..::...&**;.  .$..%%%.,,,,,,,,,X      ",
"                    .2,,. ....&&&&**;.  X..%%..,,,,,,,,,==X     ",
"                    .2,.  .OOOOOOOOOOO X,,.%.:.,,,,,,.,===X     ",
"                    .2,.  O@@@@%%%%%%-X,,.%.$::.,,,,.%.===X     ",
"                    .2,.  O@@%%%%%%%%-X,.%%..$::.,..%.====X     ",
"                    .2,.  .OOOOOOOOOOO,,.%.XX.$::.%..=====X     ",
"                   .......O*****.,,22..XX..#X$.$.%%%.====X      ",
"                  .-.%%%%O-X***.,,,,,22..OOXX=$.%%%%.====X      ",
"                   . .%%%-O***.:,,,,,,,22.XX===..%%.====X       ",
"                      .%O-+++.:::,,,,,,,,2.===.%...===$X        ",
"                      ..-O=::+++:::,,,,,,,2.=.%.=====$X         ",
"                      .O-++==:::+++::,,,,,,2.=.=====$X          ",
"                     ..-O$$+++==:::+++,,,,,,2.=====$X           ",
"                 XXX.,:O$$$$$$+++===::+++,,,2..==$$X            ",
"                X#..,::$$$$$$.   +++:::,,+++.1.$$$X             ",
"               XOO.,::$$$$$..     X=+++,,,22+++$XX              ",
"              .....::$$$$..       X====+++,,222+++              ",
"      .    ...,,,.$......         X$$$$$..+++,2222+             ",
"     .1....,,,,$$.$1111.          X$$$$$.:.1$+++,22+            ",
"     @.1,,,$$$$$$.1$===.          XXXXXX.::.1.  +++             ",
"     @.1$$$$$$$$$.1$==.                 .:,:.1.                 ",
"     @.1..........1$..                  .:,,..                  ",
"     @..          ..                    .:,,.                   ",
"     .X                                  .:,.                   ",
"     .                                   .:,,.                  ",
"     X                                    .:,.                  ",
"                                          .:,.                  ",
"                                          .:,,.                 ",
"                                           .::.                 ",
"                                           .$$.                 ",
"                                           .222.                ",
"                                          .2....X               ",
"                                           .OOOOO.X             "
};
