/* XPM */
static char *_598_208d71bbc61aea9ec9b62d61b90e48453318e7e9984ecd6dd574ff105f54e025[] = {
/* columns rows colors chars-per-pixel */
"64 64 20 1 ",
"  c black",
". c #090301",
"X c #120907",
"o c #150907",
"O c #20100F",
"+ c #2C1213",
"@ c #391515",
"# c #34242F",
"$ c #48191D",
"% c #753025",
"& c #564854",
"* c #91552D",
"= c #D98E34",
"- c #6C6781",
"; c #B0968E",
": c #AD9FBA",
"> c #C0C7D2",
", c #E3DDE4",
"< c #E1E8EB",
"1 c None",
/* pixels */
"1111111111111111111111111111111111111111111111111111111111111111",
"1111111111111111111111111111111111111111111111111111111111111111",
"111111111111111111111111111111111ooooo11111111111111111111111111",
"11111111111111111111111111111111o:::<<o1111111111111111111111111",
"1111111111111111111111111111111o::<:::<o111111111111111111111111",
"111111111111111111111111111111o-:::<:::<o11111111111111111111111",
"111111111111111111111111111111o--::......11111111111111111111111",
"1111111111111111111111111111  .---Xoooooooo111111111111111111111",
"111111111111111111111111111 ,;; -oo::<<:<:o111111111111111111111",
"11111111111111111111111111 ,,,,; o-::.:.:o1111111111111111111111",
"11111111111111111111111111     ,, -:.:.::o1111111111111111111111",
"1111111111111111111111111 >>>>& ,,o-.:.:o11111111111111111111111",
"111111111111111111111111 >   &&& ,, -:.:o11111111111111111111111",
"111111111111111111111111  >&&& && ,, -::o11111111111111111111111",
"111111111111111111111111 >&&&&& # ,,, -:o11111111111111111111111",
"11111111111111111111111 >    &&&# ;,,,..111111111111111111111111",
"11111111111111111111111 >&&&& &&#  ;,; 1111111111111111111111111",
"11111111111111111111111 &&&&&& ## : ; 11111111111111111111111111",
"11111111111111111111111 &&&&&&#    :  11111111111111111111111111",
"11111111111111111111111    &&&&# $$ < 11111111111111111111111111",
"1111111111111111111111 >&&&  ##   $*  11111111111111111111111111",
"1111111111111111111111  &&&&#   ::*$* 11111111111111111111111111",
"1111111111111111111111 > &&##  ::::*$ 11....11111111111111111111",
"111111111111111111111 >&&     :::::- 1..<<<<..111111111111111111",
"111111111111111111111 >&&&&# :::::  1.<< :::<<.11111111111111111",
"111111111111111111111 >&&&#  :--  % .<  $ ::::<.1111111111111111",
"111111111111111111111 &&##  --- %% -  $$ ::::::<.111111111111111",
"111111111111111111111      --- %%%  $$$ ::::::::<.11111111111111",
"111111111111111111111  <:: -  %%%% $$  ::::::::::.11111111111111",
"1111111111111111111111 <::  %%%%%= $ - :::::: ::&&.1111111111111",
"1111111111111111111111 <:: oooooo $ #-- :::: $ &&&.1111111111111",
"1111111111111111111111 <:: $$$$$* $  #-- :  $ &&&&.1111111111111",
"1111111111111111111111 <:  $$$$$*     #-- $  &&&&&.1111111111111",
"111111111111111111111+ <: ooooooo  ..  # $$$ &&&&&.1111111111111",
"111111111111111111111+ <:  % %%%   @@o  $$$$ &&&&.11111111111111",
"11111111111111111111+1 <:      %% : ...  $$  &&&&.11111111111111",
"11111111111111111111+1     * - %% ::   $    &&&&.111111111111111",
"1111111111 11111111.11 $$$ * - % ##:: $    &&&#.1111111111111111",
"111111111o  1111111..  $$$ * ####OOOOOOOOOOOOOOOOOOOOO1111111111",
"11111111o    111...* * $$$ * &&&&&----:::<<<<<<<<<<<<<O111111111",
"1111111o     ....@@.@      * OOO########OOOOOOOOOOOOOO1111111111",
"111111    1    @@@@.O      * -  ####: &&&##.11111111111111111111",
"111111  1  .oo    o11 <::: * - #####:: ###.111111111111111111111",
"1111111111  ..---  11 <:::: &  ######: #..1111111111111111111111",
"11111111111 >::::--  <:::::-& & #####: .111111111111111111111111",
"111111111111 >:::::-  ::::-# ### ###   1111111111111111111111111",
"1111111111111 >::::   ::::- ####  . << 1111111111111111111111111",
"11111111111111 >:: <<< ::  ......  <& 11111111111111111111111111",
"111111111111111 > <#&&< : 1111111 <&&& 1111111111111111111111111",
"111111111111111  <#&&&&< 11111111 <&&& 1111111111111111111111111",
"1111111111111111 < &&& < 11111111 <#&& 1111111111111111111111111",
"11111111111111111 1   1 11111111 # <# 11111111111111111111111111",
"1111111111111111111111111111111 ### << 1111111111111111111111111",
"1111111111111111111111111111111 ###&  11111111111111111111111111",
"111111111111111111111111111111 ###&: 111111111111111111111111111",
"111111111111111111111111111111 ##&: 1111111111111111111111111111",
"111111111111111111111111111111 #&: 11111111111111111111111111111",
"111111111111111111111111111111 #&: 11111111111111111111111111111",
"111111111111111111111111111111 #: 111111111111111111111111111111",
"111111111111111111111111111111 #: 111111111111111111111111111111",
"111111111111111111111111111111 #: 111111111111111111111111111111",
"111111111111111111111111111111 <<< 11111111111111111111111111111",
"11111111111111111111111111111 <    .1111111111111111111111111111",
"111111111111111111111111111111 XXXX  .11111111111111111111111111"
};
