/* XPM */
static char *_6382_866f048d274046d7d55443fdf9dfdbd5cd7cd449812ca17761a0067e718d4870[] = {
/* columns rows colors chars-per-pixel */
"64 64 22 1 ",
"  c black",
". c #090301",
"X c #120907",
"o c #150907",
"O c #20100F",
"+ c #2C1213",
"@ c #391515",
"# c #34242F",
"$ c #48191D",
"% c #5D2C24",
"& c #753025",
"* c #564854",
"= c #91552D",
"- c #8D716C",
"; c #D98E34",
": c #6C6781",
"> c #B0968E",
", c #AD9FBA",
"< c #C0C7D2",
"1 c #E3DDE4",
"2 c #E1E8EB",
"3 c None",
/* pixels */
"3333333333333333333333333333333333333333333333333333333333333333",
"3333333333333333333333333333333333333333333333333333333333333333",
"3333333333333333333333333333333333333333333333333333333333333333",
"3333333333333333333333333333333333333333333333333333333333333333",
"3333333333333333333333333333333333ooooo3333333333333333333333333",
"333333333333333333333333333333333o,,,22o333333333333333333333333",
"33333333333333333333333333333333o,,2,,,2o33333333333333333333333",
"3333333333333333333333333333333o:,,,2,,,2o3333333333333333333333",
"3333333333333333333333333333333o::,,......3333333333333333333333",
"333333333333333333333333333333 .:::Xoooooooo33333333333333333333",
"33333333333333333333333333333 >> :oo,,22,2,o33333333333333333333",
"3333333333333333333333333333 111> o:,,.,.,o333333333333333333333",
"3333333333333333333333333333 --111 :,.,.,,o333333333333333333333",
"333333333333333333333333333     111o:.,.,o3333333333333333333333",
"33333333333333333333333333 <<<<* 111 :,.,o3333333333333333333333",
"3333333333333333333333333 <   *** >11 :,,o3333333333333333333333",
"3333333333333333333333333  <*** ** 111 :,o3333333333333333333333",
"3333333333333333333333333 <***** # >111..33333333333333333333333",
"333333333333333333333333 <    ***#  >1> 333333333333333333333333",
"333333333333333333333333 <**** **# , > 3333333333333333333333333",
"33333333333333333333333  ****** ##  ,  3333333333333333333333333",
"33333333333333333333333  ******#  $$ 2 3333333333333333333333333",
"33333333333333333333333     ****#  $=  3333333333333333333333333",
"33333333333333333333333 <***  ## ,,=$= 3333333333333333333333333",
"3333333333333333333333   ****#  ,,,,=$ 33....3333333333333333333",
"3333333333333333333333  < **## ,,,,   3..2222..33333333333333333",
"3333333333333333333333 <**    ,::: & 3.22,,,,22.3333333333333333",
"3333333333333333333333 <****# ::: & 3.2,, ,,,,,2.333333333333333",
"3333333333333333333333 <***# ::  &=: ,,  $ ,,,,,2.33333333333333",
"3333333333333333333333 **## :  %&;  :  $$ ,,,,,,,2.3333333333333",
"3333333333333333333333       %%%& #  $$$ ,,,,,,,,,.3333333333333",
"3333333333333333333333  2,, oooooo  $$  ,,,,,,,,,**.333333333333",
"3333333333333333333333  2,, oooooo, $ : ,,,,,, ,***.333333333333",
"3333333333333333333333o 2,, $$$$$= $ #:: ,,,, $ ***.333333333333",
"3333333333333333333333o 2,, $$$$$= $  #:: ,  $ ****.333333333333",
"3333333333333333333333  2, ooooooo  @@ #:: $  *****.333333333333",
"333333333333333333333+  2, ,,,,,22   o. # $$$ ****.3333333333333",
"333333333333333333333+  2, , ,,,,,,22 .# $$$$ ****.3333333333333",
"33333333333333333333+ : 2,  = ,,,,,,,2 *  $$ ****.33333333333333",
"33333333333333333333+ :     = ,,,,,,,,  $   ***#.333333333333333",
"3333333333333333333. ,  $$$ = ####OOOOOOOOOOOOOOOOOOOOO333333333",
"3333333333333333....  = $$$ = *****::::,,,2222222222222O33333333",
"333333333333....@@@ ,:  $$$ = OOO########OOOOOOOOOOOOOO333333333",
"33333333333.@@@@@@O ,::     = *   ::: 1* *##.3333333333333333333",
"3333333333.ooooooo ::::###  = **     1*** #.33333333333333333333",
"33333333333...3333 :::### 3. *  :::  **** .333333333333333333333",
"333333333333333333 ::### 33.* :::::: 1### 3333333333333333333333",
"33333333333333333 :     33 . :,,,,,,, 2# 33333333333333333333333",
"33333333333333333  111 33 1 :,,,,,     11 3333333333333333333333",
"3333333333333333 *1** 333X 1:,    .3333  33333333333333333333333",
"333333333333333  1** 3333X 1: 3333333333333333333333333333333333",
"33333333333333 , 1#* 3333X 1 33333333333333333333333333333333333",
"3333333333333 ,# 1# 33333X  333333333333333333333333333333333333",
"333333333333 ,::# 1 33333  3333333333333333333333333333333333333",
"333333333333 ,:#   333333 33333333333333333333333333333333333333",
"33333333333 ,::# 33333333.33333333333333333333333333333333333333",
"33333333333 ::# 333333333333333333333333333333333333333333333333",
"33333333333 :# 3333333333333333333333333333333333333333333333333",
"3333333333 ::# 3333333333333333333333333333333333333333333333333",
"3333333333 :# 33333333333333333333333333333333333333333333333333",
"333333333 ,:# 33333333333333333333333333333333333333333333333333",
"333333333 111 33333333333333333333333333333333333333333333333333",
"33333333 1    .3333333333333333333333333333333333333333333333333",
"333333333 XXXX  .33333333333333333333333333333333333333333333333"
};
