/* XPM */
static char *_613_84a1bbf56afb53c75d5bdf2bef5485c6151945a81fb61612ad8657ceefd81930[] = {
/* columns rows colors chars-per-pixel */
"64 64 22 1 ",
"  c black",
". c #090301",
"X c #120907",
"o c #150907",
"O c #20100F",
"+ c #2C1213",
"@ c #251918",
"# c #391515",
"$ c #34242F",
"% c #48191D",
"& c #5D2C24",
"* c #753025",
"= c #564854",
"- c #91552D",
"; c #D98E34",
": c #6C6781",
"> c #B0968E",
", c #AD9FBA",
"< c #C0C7D2",
"1 c #E3DDE4",
"2 c #E1E8EB",
"3 c None",
/* pixels */
"3333333333333333333333333333333333333333333333333333333333333333",
"33333333333333333333333333333333ooooo333333333333333333333333333",
"3333333333333333333333333333333o,,,22o33333333333333333333333333",
"333333333333333333333333333333o,,2,,,2o3333333333333333333333333",
"33333333333333333333333333333o:,,,2,,,2o333333333333333333333333",
"33333333333333333333333333333o::,,......333333333333333333333333",
"33333333333333333333333333333.:::Xoooooooo3333333333333333333333",
"3333333333333333333333333333 > :oo,,22,2,o3333333333333333333333",
"333333333333333333333333333 11> o:,,.,.,o33333333333333333333333",
"33333333333333333333333333 11111 :,.,.,,o33333333333333333333333",
"33333333333333333333333333 o33111o:.,.,o333333333333333333333333",
"3333333333333333333333333 ,,       :,.,o333333333333333333333333",
"333333333333333333333333 ,, ====<<  :,,o333333333333333333333333",
"33333333333333333333333 ,, ==@@@@ <  :,o333333333333333333333333",
"33333333333333333333333 , =< =====< 1..3333333333333333333333333",
"3333333333333333333333 ,, = <======<  33333333333333333333333333",
"3333333333333333333333 ,, =<==     < 333333333333333333333333333",
"333333333333333333333 ,,, <== =====  333333333333333333333333333",
"333333333333333333333 ,,,  $ <====== 333333333333333333333333333",
"333333333333333333333 :,, # <======= 333333333333333333333333333",
"333333333333333333333 :,, ## ======= 333333333333333333333333333",
"33333333333333333333 ::,,, # <====== 333333333333333333333333333",
"33333333333333333333 ::,,,,   ==     333333333333333333333333333",
"33333333333333333333 :::,,,,, < $=== 333333333333333333333333333",
"33333333333333333333 ::::,,,,: @@@== .33333333333333333333333333",
"33333333333333333333 :::::::::: @    2.3333333333333333333333333",
"33333333333333333333 :::::::::   <=== .3333333333333333333333333",
"33333333333333333333  +::::   * 2<=== =.333333333333333333333333",
"33333333333333333333 +*    ****  2=== =.333333333333333333333333",
"3333333333333333333. ooooooooooo, << 2 .333333333333333333333333",
"3333333333333333333.+++++%%%%%%-==  :,2 333333333333333333333333",
"333333333333333333.+o.+%%%%%%%%-=.. :,, 333333333333333  3333333",
"333333333333333333.+ .oooooooooo.### :,, 333333333333  22 333333",
"33333333333333333.+, &&&        #oo.. :,, 333333333  22  3333333",
"33333333333333333.+, &&  ,,,,,  ....=. :,, 333333  22  333333333",
"3333333333333333..,== & :,,,,,2 ===$.33 :,,  33  ,,  33333333333",
"3333333333333333..=OO & :,,,,,2 ==$.3333 :  ; .::  3333333333333",
"333333333333333..- ##   ::,,,,2 =$.333333 %% ;;..333333333333333",
"3333333333333...#.### $ ::,,,,2 $.3333333 .+%%;.3333333333333333",
"333333333....####.OOO $ ::,,,,2 .3333333 ; .%% ; 333333333333333",
"33333333.### ##OOO=== $$ :,,,,2 33333333 ;;   3 3333333333333333",
"3333333.ooo 2       = $$ :,,,,2 333333333  333333333333333333333",
"33333333...X 2$22,,,   $ ::,,,2 33333333333333333333333333333333",
"33333333333X 2$2,222,,   ::,,,2 33333333333333333333333333333333",
"33333333333X 2$,,,,,,,::  ::,,2 33333333333333333333333333333333",
"33333333333X       ,,,,::  :,,2 33333333333333333333333333333333",
"33333333333 .333333  :::::   ,2 33333333333333333333333333333333",
"33333333333.333333333 ::: 2=2 2 33333333333333333333333333333333",
"33333333333.333333333  : 2===2  33333333333333333333333333333333",
"333333333333333333333   2=====2 33333333333333333333333333333333",
"33333333333333333333 :  2 === 2 33333333333333333333333333333333",
"33333333333333333333 : 2     3 333333333333333333333333333333333",
"3333333333333333333 ::$ 2 33333333333333333333333333333333333333",
"3333333333333333333 :$$$ 333333333333333333333333333333333333333",
"333333333333333333 ::$$ 3333333333333333333333333333333333333333",
"333333333333333333 ::$$ 3333333333333333333333333333333333333333",
"333333333333333333 :$$ 33333333333333333333333333333333333333333",
"333333333333333333 :$$ 33333333333333333333333333333333333333333",
"333333333333333333 :$$ 33333333333333333333333333333333333333333",
"333333333333333333 :$ 333333333333333333333333333333333333333333",
"333333333333333333 :$ 333333333333333333333333333333333333333333",
"333333333333333333 222 33333333333333333333333333333333333333333",
"33333333333333333 2    .3333333333333333333333333333333333333333",
"333333333333333333 XXXX  .33333333333333333333333333333333333333"
};
