/* XPM */
static char *c6645cbf13924448b76f79f54be532f3AjLeSpVqKGJNdcal[] = {
/* columns rows colors chars-per-pixel */
"64 64 21 1 ",
"  c None",
". c black",
"X c #090301",
"o c #120907",
"O c #150907",
"+ c #20100F",
"@ c #2C1213",
"# c #391515",
"$ c #34242F",
"% c #48191D",
"& c #5D2C24",
"* c #753025",
"= c #564854",
"- c #91552D",
"; c #D98E34",
": c #6C6781",
"> c #B0968E",
", c #AD9FBA",
"< c #C0C7D2",
"1 c #E3DDE4",
"2 c #E1E8EB",
/* pixels */
"                                                                ",
"                                                                ",
"                                  OOOOO                         ",
"                                 O,,,22O                        ",
"                                O,,2,,,2O                       ",
"                               O:,,,2,,,2O                      ",
"                               O::,,XXXXXX                      ",
"                             ..X:::oOOOOOOOO                    ",
"                            ..>>.:OO,,22,2,O                    ",
"                         ...<<.1>.O:,,X,X,O                     ",
"                       ..<=<.==.11.:,X,X,,O                     ",
"                      .<=.==<.==.11O:X,X,O                      ",
"                    ..<===.======.11.:,X,O                      ",
"                 ...<=.===$.=====.>11.:,,O                      ",
"                .<=.==$.==$.====$.>111.:,O                      ",
"               .<==.===$.=$.===$$..>111X.                       ",
"               .$$$.$$$$.$$.$$$$..,.>1>.<.                      ",
"              .....$............%%.,.>.==.                      ",
"              .2,::.   .,.#.OOO..%%.,..=<.                      ",
"             .2,,:.    .,.##..O.,.%%.2.=<.                      ",
"             .2,,:.    .,.#####.,,.%-..=<.   XXXX               ",
"             .2,,.     .,,.###.,,,,-%-.=<. XX2222XX             ",
"            .2,,.      .,,,...,,,,,,-%.$=.X22,,,,22X            ",
"            .2,.      .,,,,,,,,,,,,,:.$$$.2,,.,,,,,2X           ",
"           .2,.       .,,,,,,,,,,.....$$..,..%.,,,,,2X          ",
"           .,,.       .,,,,,,,::.*;. .$.:..%%.,,,,,,,2X         ",
"          ....   O    .:,,,,:::.*;.  .$..%%%.,,,,,,,,,X         ",
"         .-.%%..O-X   .::::::..**;.  X..%%..,,,,,,,,,==X        ",
"          ..%%%.-O    ..::...&**;.  X,,.%.:.,,,,,,.,===X        ",
"            .%%O-+++   ...&&&&**;. X,,.%.$::.,,,,.%.===X        ",
"             ..-O=::+++OOOOOOOOOOO X,.%%..$::.,..%.====X        ",
"              O-++==:::+++@%%%%%%-X,,.%.,$.$::.%..=====X        ",
"             .-O  +++==:::+++%%%%-X,,,.,,,$.$.%%%.====X         ",
"              O      +++===::+++OO,,,XXXX==$.%%%%.====X         ",
"                      @.+++:::,,+++XX###X===..%%.====X          ",
"                     @ .&..+++,,,22+++OXX==.%...===$X           ",
"            O..      @ .&.:,,,+++,,222+++=.%.=====$X            ",
"           O..2.     @...::,,,,,,+++,2222+=.=====$X             ",
"          O..2,,.    @.,.::,,,,,,.==+++,22+=====$X              ",
"         O..2::,,.  X.,:.::,,,,,,.=====+++====$$X               ",
"        .....$:::,.X#.,::.:,,,,,,,.========$$$$X                ",
"        ..   .$$::,.#.,:::.:,,,,,,.=====$$$$$XX                 ",
"            X#.$$::,..:::$$.,,,,,,.==$$$$$$XX                   ",
"           XOOO.$$::..::$$$.:,,,,,.$$$$$$XX                     ",
"            XXX .$$$...:$$$$.,,,,..$$$$XX                       ",
"                .$$.2$2.$$$...::.22.XXX                         ",
"                 ..2$$=2.$.   ..2=.                             ",
"                 .2$$===2.    .2===.                            ",
"                 .2.$==.2.    .$===.                            ",
"                  . ... .    ..2$$$.                            ",
"                            .,$.2$.                             ",
"                            .,:$.22.                            ",
"                           .,,::$..                             ",
"                           .,,::.                               ",
"                           .,,:.                                ",
"                           .,::.                                ",
"                           .,:.                                 ",
"                           .,:.                                 ",
"                           .,:.                                 ",
"                           .,,.                                 ",
"                           .$$.                                 ",
"                           .222.                                ",
"                          .2....                                ",
"                           .OOOO..                              "
};
