/* XPM */
static char *_0287_a7cabf5c28588c732b2e972f4005457987de96aabef1d1bb6c750ed02415f248[] = {
/* columns rows colors chars-per-pixel */
"64 64 20 1 ",
"  c black",
". c #090301",
"X c #120907",
"o c #150907",
"O c #20100F",
"+ c #2C1213",
"@ c #391515",
"# c #34242F",
"$ c #48191D",
"% c #753025",
"& c #564854",
"* c #91552D",
"= c #D98E34",
"- c #6C6781",
"; c #B0968E",
": c #AD9FBA",
"> c #C0C7D2",
", c #E3DDE4",
"< c #E1E8EB",
"1 c None",
/* pixels */
"1111111111111111111111111111111111111111111111111111111111111111",
"1111111111111111111111111111111111111111111111111111111111111111",
"1111111111111111111111111111111111111111111111111111111111111111",
"1111111111111111111111111111111111111111111111111111111111111111",
"1111111111111111111111111111111111111111111111111111111111111111",
"1111111111111111111111111111111111111ooooo1111111111111111111111",
"111111111111111111111111111111111111o:::<<o111111111111111111111",
"11111111111111111111111111111111111o::<:::<o11111111111111111111",
"1111111111111111111111111111111111o-:::<:::<o1111111111111111111",
"1111111111111111111111111111111111o--::......1111111111111111111",
"11111111111111111111111111111111  .---Xoooooooo11111111111111111",
"1111111111111111111111111111111 ,;; -oo::<<:<:o11111111111111111",
"111111111111111111111111111111 ,,,,; o-::.:.:o111111111111111111",
"11111111111111111111111111111     ,,, -:.:.::o111111111111111111",
"11111111111111111111111111111 >>>> ,,,o-.:.:o1111111111111111111",
"1111111111111111111111111111   &&&& ,,, -:.:o1111111111111111111",
"111111111111111111111111111 >>&& && ,;,, -::o1111111111111111111",
"11111111111111111111111111 >&&&&& && ;,,, -:o1111111111111111111",
"1111111111111111111111111 >  &&&&&&&  ;,,,..11111111111111111111",
"1111111111111111111111111 &&& &&&&&# : ;,; o11111111111111111111",
"111111111111111111111111 &&&& &&&&#   : ; > 11111111111111111111",
"11111111111111111111111 >&&&&& &&#  $$ :  > 11111111111111111111",
"1111111111111111111111 >> &&&& #   : $$ < & 11111111111111111111",
"111111111111111111111  >&& &&#  @@ :: $*  > 11111111111111111111",
"11111111111111111111 >& &&&    @@ ::::*$* > 11111111111111111111",
"1111111111111111111 >&&& ##      ::::::*$ > 111....1111111111111",
"1111111111111111111 &&&&#  ::::::::::::- #> 1..<<<<..11111111111",
"1111111111111111111   &&# :::::::::::-- ##& .<<::::<<.1111111111",
"1111111111111111111 <: #  ::::::::-     ### <:: :::::<.111111111",
"1111111111111111111 <:: 1 -::----- $= 1 ##  :  $ :::::<.11111111",
"1111111111111111111 <:: 1 ------  $$= 1 # -  $$ :::::::<.1111111",
"1111111111111111111 <:: 1  --   $$%= 11 #  $$$ :::::::::.1111111",
"1111111111111111111 <:: 1    $$$%%%= 11.  $$  :::::::::&&.111111",
"1111111111111111111 <: 11 ooooooooooo1.:: $ - :::::: :&&&.111111",
"1111111111111111111 <: 11o++++$$$$$$*.:: $ #-- :::: $ &&&.111111",
"1111111111111111111 <: 11o++$$$$$$$$*.: $$  #-- :  $ &&&&.111111",
"111111111111111111  <: 11oooooooooooo:: $ :# #-- $  &&&&&.111111",
"11111111111111111 *     o*.-- %%%%%%  ::  ... # $$$ &&&&.1111111",
"111111111111111111  $$$$*o:::- %%%%% :  ..@@@. $$$$ &&&&.1111111",
"11111111111111111111 $$o*OOO::- %%% ##:: @oo..  $$ &&&&.11111111",
"111111111111111111111  *o&--OOO %% #####: ... $   &&&#.111111111",
"111111111111111111111 o*OO&&---OOO#######: & $ &&&&&#.1111111111",
"111111111111111111111 *o::OOO&&---OOO#####: & &&&&&#.11111111111",
"11111111111111111111 <o:::::-OOO&&&--OOO###: &&&&&#.111111111111",
"1111111111111111111 <::::::-- O OOO---::OOO#  &&##.1111111111111",
"111111111111111111. <::::--- O111. OOO:::<<OOO###.11111111111111",
"11111111111111111. <:::---  11111.&&& OOO::<<<OOO111111111111111",
"1111111111111      ::---  1111111.&&&&&  OOO:<<<<O11111111111111",
"11111 1111   <<< #      111111111.###### ,#&OOO:<<O1111111111111",
"1111 ,    <<<::: #,,,, 1111111111.##### # ,## 1OOO11111111111111",
"1111+ ,#<<:::::- ,#&&& 1111111111...... ## , 1111111111111111111",
"1111+ ,#-------- ,#&& 11111111111111111 ##- , 111111111111111111",
"1111+ ,          ,#  111111111111111111 ###- 1111111111111111111",
"1111+  1111111111  11111111111111111111 ###- 1111111111111111111",
"1111 .1111111111111111111111111111111111 ###- 111111111111111111",
"1111.11111111111111111111111111111111111 ###- 111111111111111111",
"1111.111111111111111111111111111111111111 ###- 11111111111111111",
"111111111111111111111111111111111111111111 ##- 11111111111111111",
"1111111111111111111111111111111111111111111 #- 11111111111111111",
"1111111111111111111111111111111111111111111 ##- 1111111111111111",
"11111111111111111111111111111111111111111111 #- 1111111111111111",
"11111111111111111111111111111111111111111111 <<< 111111111111111",
"1111111111111111111111111111111111111111111 <    .11111111111111",
"11111111111111111111111111111111111111111111 ++++  .111111111111"
};
