/* XPM */
static char *_0f39780a49344c9f512d38fb7d849casdTqOWfzpSFv3Pi8[] = {
/* columns rows colors chars-per-pixel */
"64 64 21 1 ",
"  c None",
". c black",
"X c #090301",
"o c #120907",
"O c #150907",
"+ c #20100F",
"@ c #201211",
"# c #2C1213",
"$ c #391515",
"% c #34242F",
"& c #48191D",
"* c #753025",
"= c #564854",
"- c #91552D",
"; c #D98E34",
": c #6C6781",
"> c #B0968E",
", c #AD9FBA",
"< c #C0C7D2",
"1 c #E3DDE4",
"2 c #E1E8EB",
/* pixels */
"                                                                ",
"                            OOOOO                               ",
"                           O,,,22O                              ",
"                          O,,2,,,2O                             ",
"                         O:,,,2,,,2O                            ",
"                         O::,,XXXXXX                            ",
"                         X:::oOOOOOOOO                          ",
"                         X%:OO,,22,2,O                          ",
"                         X.OO:,,X,X,O                           ",
"                        ..>%O:,X,X,,O                           ",
"                       .111X%O:X,X,O                            ",
"                      X>>1112X::,X,O                            ",
"                      ........>::,,O                            ",
"                      .<<<====.>X:,O                            ",
"                     .<.==O=OO%.>XX<X                           ",
"                     ..=======O.1>O=<X                          ",
"                     .<.....=%%O11>==X                          ",
"                     .O====%O%%.>>1X=X                          ",
"                     O<=====%O.XXXXX=X                          ",
"                     .<=====%..&&.,2XX                          ",
"                     .<=====%.,.&&.2XX                          ",
"                     .<=====%.,,.&&.XX                          ",
"                      .<===%.,,,,.&-X<X                         ",
"                      .=<=%%.,,,,,-&.=X   XXXX                  ",
"                      .OOOOO.,,,,,,-.%X XX2222XX                ",
"                      .==%%O:,,,,,,2XXXX2,,,,,22X               ",
"                       ..=%.::,,.....,,X,,,,,,,,2X              ",
"                      .<=.%.::..$$;$X:,,X,X,,,,,,2X             ",
"                     .<===O.:.$$$*;$X:,XXX&X,,,,,,,X            ",
"                     .<===%O.$$$**;X2XX#&&X,,,,,,,,X            ",
"                     .===%O.$$$***;X,X#&XX,,,,,,,,==X           ",
"                      .=%O:.$$****;X,X&X:X,,,.,,,===X           ",
"                       ..,:.OOOOOOO-.&X.::X,X&.=====X           ",
"                       .2,:.&&&&&&-X&.,%.:+X&X======X           ",
"                       .2,:.&&&&&&-X.,,,%.&.X=======X           ",
"                       .2,:.OOOOOOO-,,OOOX.&&======X            ",
"                        .,:.2,,.***.XO$$.X.&X======X            ",
"                        .::.,,,,X**.X$O.&$XX======X             ",
"                       X.::.,,,,.**.,XXX.X======%X              ",
"                       .....,O,,.$.::,.========%X               ",
"                      X..&&.O-X=X$.::,X=======%X                ",
"                    XXX-.#&.-O,X$.%%::,.=====%X                 ",
"                 XXXXX2X#&&O-+++.%%%::,X===%%X                  ",
"              XXXX$$$X2.&&&-O=::+++%%::,.%%%X                   ",
"             X$$$$$$+X2,..O-++==:::+++::,.XX                    ",
"            XOOOOOOOX2,,,,-OX=+++==:::....                      ",
"             XXX    X2,,,=OXX%%%%+++===::+++                    ",
"                    X2,,==X X%%%%%%X...:::,,+++                 ",
"                   X.....X  XXXXXXXXO@<...,,,22+++              ",
"                   X<<<<<X          XO%===...,,222+++           ",
"                  XX%%===X         X.<O%%X   +++,2222+          ",
"                  X<%===X          X%.<OX       +++,22+         ",
"                 X.<%%=X          X%%:X<X          +++          ",
"                 X:.<%X           X%::XX                        ",
"                X::,X<X           X%:,X                         ",
"                X:,,XX            X%:,X                         ",
"                X:,2X             X%,X                          ",
"                X:,2X             X%,X                          ",
"                X:2X              X%%X                          ",
"                X:2X              .222X                         ",
"                X%%X             .2XX.X                         ",
"                X222X             .###.X                        ",
"               .2XXXXX             X###.X                       ",
"                X####XXX                                        "
};
