/* XPM */
static char *_cc5377534534e60b615d9ae7a2b0216tA4MtiMN9Y01BSpo[] = {
/* columns rows colors chars-per-pixel */
"64 64 20 1 ",
"  c None",
". c black",
"X c #090301",
"o c #120907",
"O c #150907",
"+ c #20100F",
"@ c #2C1213",
"# c #391515",
"$ c #34242F",
"% c #48191D",
"& c #753025",
"* c #564854",
"= c #91552D",
"- c #D98E34",
"; c #6C6781",
": c #B0968E",
"> c #AD9FBA",
", c #C0C7D2",
"< c #E3DDE4",
"1 c #E1E8EB",
/* pixels */
"                                                                ",
"                            OOOOO                               ",
"                           O>>>11O                              ",
"                          O>>1>>>1O                             ",
"                         O;>>>1>>>1O                            ",
"                         O;;>>XXXXXX                            ",
"                         X;;;oOOOOOOOO                          ",
"                         XX;OO>>11>1>O                          ",
"                         .$OO;>>X>X>O                           ",
"                        .:X$O;>X>X>>O                           ",
"                       .<< X$O;X>X>O                            ",
"                      .<<<<<1X;;>X>O                            ",
"                      .::<<<< :.;>>O                            ",
"                       XX.......X;>O                            ",
"                       X.,******.XX                             ",
"                       .,.*****.*.O                             ",
"                      ...******$..:.                            ",
"                      ..,**.....$.<X                            ",
"                      X.$,.,,,**..XX                            ",
"                      X1..,******.%.X                           ",
"                      X1.*,******.%%X                           ",
"                      X1>.,******..%O                           ",
"                      X1>.******$.>.O                           ",
"                      X1>>.****$.>>>XXXX                        ",
"                       X>>.***$$.>>1X111XX                      ",
"                       X>>>.....>...X>>>11X                     ",
"                       X>>>.$$$..#-#.>>>>>1X                    ",
"                       X*>>..$$.#&-#X>>>>>>1X                   ",
"                       X;*.,*.$.&&-X%X>>>>>>>X                  ",
"                        X;.,**..&&-XX>>>>>>>>X                  ",
"                        X;.,**$.&&-X>>>>>>>>**X                 ",
"                        ...**$..#&-X>>>.>>>***X                 ",
"                        XO.*$.;.OOO=X>X%.*****X                 ",
"                        O@@..>;.%%=X+X%X******X                 ",
"                        O@@.1>;.%%=X%.XXXXX***X                 ",
"                        XO..1>;...O=.%%###X**X                  ",
"                       @X.1.1>;>>>.&.%XOOXX**X                  ",
"                       @X.1.1>.>>>>..XXXX***X                   ",
"                      @@>.1.1>.>*.&...****$X                    ",
"                      @X*.1.11.>*..>>.***$X                     ",
"                      XXX.1....*...;>.**$X                      ",
"                   XXXX#.1>.%%%.=.;;>.*$X                       ",
"               XXXX###=#.1>.%%%.=.;;>.$X                        ",
"              X######+X+.1..%%%.=.$$$$+++++++++++++++++++++     ",
"             XOOOOOOO X*..=.%%%.=.*****;;;;>>>1111111111111+    ",
"              XXX     X.1>......=.+++$$$$$$$$++++++++++++++     ",
"                      X.1>>>**..=.;;;>.                         ",
"                      X.1>>**.X.=.;;;>O.                        ",
"                      X.......  .$$;;.<.                        ",
"                      ..11111.  .$$;.<.                         ",
"                    ...1$***.    .$.<**.                        ",
"                   .11.1$**.      .<***.                        ",
"                  .1>*.1$*.       .<$**.                        ",
"                  .1>*.1$.         .<$.                         ",
"                 .1>;*.1.          ..<<.                        ",
"                .1>;.. .           .$.O.                        ",
"               .1>;.               .$;>.                        ",
"              .1>;.                .$$;>.                       ",
"             .1$;.                  .$;;.                       ",
"            ...1$.                   .$;>.. ..                  ",
"            OO..1.                    .$;$1..@                  ",
"             @O..                      .$1..@                   ",
"              @O.                      .1..@                    ",
"               @@.                      .O@                     "
};
