/* XPM */
static char *ac576c96e8b34631cc7142201010f4ad5nQO5OeuksLdB4tu[] = {
/* columns rows colors chars-per-pixel */
"64 64 21 1 ",
"  c None",
". c black",
"X c #090301",
"o c #120907",
"O c #150907",
"+ c #20100F",
"@ c #201211",
"# c #2C1213",
"$ c #391515",
"% c #34242F",
"& c #48191D",
"* c #753025",
"= c #564854",
"- c #91552D",
"; c #D98E34",
": c #6C6781",
"> c #B0968E",
", c #AD9FBA",
"< c #C0C7D2",
"1 c #E3DDE4",
"2 c #E1E8EB",
/* pixels */
"                            OOOOO                               ",
"                           O,,,22O                              ",
"                          O,,2,,,2O                             ",
"                         O:,,,2,,,2O                            ",
"                         O::,,XXXXXX                            ",
"                         X:::oOOOOOOOO                          ",
"                         XX:OO,,22,2,O                          ",
"                         .%OO:,,X,X,O                           ",
"                        .>X%O:,X,X,,O                           ",
"                       .11 X%O:X,X,O                            ",
"                      .111112X::,X,O                            ",
"                      OOO1111 >.:,,O                            ",
"                      O<=OOO111>.:,O                            ",
"                      OOO===O111>XX                             ",
"                     O<<=OO%=O111>OX                            ",
"                    O<=====O%%O111>.X                           ",
"                   O<=======+%O.>>1X<X                          ",
"                  O.========+%.XXXXX=X                          ",
"                  O<.=======%O.&&.,,XX                          ",
"                  O<=.=====%O.,.&&.,XX                          ",
"                  O<==+==%%O#.,,.&&.OX                          ",
"                  O<===++.O##.,,,.&-OX                          ",
"                  O..==%%O##.,,,,,-&XX                          ",
"                 O<==.=%O##.,,,,,,,-X<X                         ",
"                 O====.O:..,,,,,,,,2X=X   XXXX                  ",
"                 ..@%%OX:::,,,,,,,...%X XX2222XX                ",
"                .<<=@. X=:::::,,,.;XXXXX2,,,,,22X               ",
"                .<==%. X:=::::::.*;X:,,X,,,,,,,,2X              ",
"                .===%.  X=====..**;XX:,,X,X,,,,,,2X             ",
"                .===.X  X:==..****;XX:,XXX&X,,,,,,,X            ",
"                .=..,X  ....******;X2XX#&&X,,,,,,,,X            ",
"                 .,,,X  XOOOOOOOOOO-,X#&XX,,,,,,,,==X           ",
"                 O2,,X  ###&&&&&&&-X,X&X:X,,,.,,,===X           ",
"                 O2,,X #O###&&&&&&-X.&X+::X,X&.=====X           ",
"                 O2,X  #XOOOOOOOOOO-&.,%+:+X&X======X           ",
"                 O2,X # X**.........XXXX++&.X=======X           ",
"                 O2,X#  .*.,,,,,,2.-$$$XX&.&&======X            ",
"                 O2,X# O..,,,,,,,,2.OOX=X&.&X======X            ",
"                XO2...O-X,,,,,,,,,2.XXX.&XXX======X             ",
"                X-..&&-O.,,,,,,,,,,2.=.&.=======%X              ",
"                 X.&#O-+++.,,,,,,,,2.==.=======%X               ",
"                   .#-O=::+++,,,,,,2.=========%X                ",
"                XXX-O-++==:::+++,,,,.========%X                 ",
"             XXX$$$X-O+.+++==:::+++,2.=====%%X                  ",
"           X.$$$$$+XO  .2==+++===::+++==%%%%X                   ",
"          XOOOOOOO    .2====%%+++:::,,+++%XX                    ",
"           XXX.       .2===%%..==+++,,,22+++                    ",
"                      .2==%%....==:,+++,,222+++                 ",
"                      .......=%.==:.1. +++,2222+                ",
"                     ..22222.XXX.=.1==.   +++,22+               ",
"                   ...2%===.     .1===.      +++                ",
"                  .22.2%==.      .1%==.                         ",
"                 .2,=.2%=.        .1%.                          ",
"                 .2,%.2%.         ..11.                         ",
"                .2,:=.2.          .%.O.                         ",
"               .2,:.. .           .:,2.                         ",
"              .2,:.               .::,2.                        ",
"             .2,:.                 .:,,.                        ",
"            .2%:.                   .:,,.                       ",
"           ...2%.                    .:,2.. ..                  ",
"           OO..2.                     .:,%2..#                  ",
"            #O..                       .%2..#                   ",
"             #O.                       .2..#                    ",
"              ##.                       .O#                     "
};
