/* XPM */
static char *e5e896cf98a8461d8772d565ddd46a59K1jl9ddnqnqBEfDy[] = {
/* columns rows colors chars-per-pixel */
"64 64 21 1 ",
"  c None",
". c black",
"X c #090301",
"o c #120907",
"O c #150907",
"+ c #20100F",
"@ c #201211",
"# c #2C1213",
"$ c #391515",
"% c #34242F",
"& c #48191D",
"* c #753025",
"= c #564854",
"- c #91552D",
"; c #D98E34",
": c #6C6781",
"> c #B0968E",
", c #AD9FBA",
"< c #C0C7D2",
"1 c #E3DDE4",
"2 c #E1E8EB",
/* pixels */
"                                                                ",
"                           OOOOO                                ",
"                          O,,,22O                               ",
"                         O,,2,,,2O                              ",
"                        O:,,,2,,,2O                             ",
"                        O::,,XXXXXX                             ",
"                        X:::oOOOOOOOO                           ",
"                        X%:OO,,22,2,O                           ",
"                        X.OO:,,X,X,O                            ",
"                       ..>%O:,X,X,,O                            ",
"                      .111X%O:X,X,O                             ",
"                     X>>1112X::,X,O                             ",
"                     ....... >.:,,O                             ",
"                    .<<<====.1>.:,O                             ",
"                   .<.==O=OO%.1>XX                              ",
"                   ..=======O.11>OX                             ",
"                   .<.....=%%O111><X                            ",
"                   .O====%O%%%.>>1XX                            ",
"                   O<=====%O%%XXXXXX                            ",
"                   .<=====%%...&&.2X                            ",
"                   .<=====%.#.,.&&.X                            ",
"                   .<=====%.#.,,.&-X                            ",
"                    .<===%.#.,,,,-&X                            ",
"                    .=<=%%..,,,,,,-XX                           ",
"                    .OOOOO.,,,,,,,2XX   XXXX                    ",
"                    .==%%O::,,,,,..XX XX2222XX                  ",
"                     ..=%.:::,,,.;*.XX2,,,,,22X                 ",
"                    .<=.%.::::,.*;X,,X,,,,,,,,2X                ",
"                   .<===O.=:::.**;X:,,X,X,,,,,,2X               ",
"                   .<===%O=:..***;X:,XXX&X,,,,,,,X              ",
"                   .===%O..X$$$**;XXX#&&X,,,,,,,,X              ",
"                    .=%O:.$$$$$$*;XX#&XX,,,,,,,,==X             ",
"                     ..,:.OOOOOOOO-X&X:X,,,.,,,===X             ",
"                     .2,:.&&&&&&&-X&X+::X,X&.=====X             ",
"                     .2,:.#&&&&&&-X.,%+:+X&X======X             ",
"                     .2,:.OOOOOOOX-,XXXX&.X=======X             ",
"                     #.,:.*.,,,,,2XXOOOX.&&======X              ",
"                     #.::..,,,,,,2XOOOXX.&X======X              ",
"                    # .::..,,,,,,,2XX.&$XX======X               ",
"                    # .....O,,,,,,,2.=.X======%X                ",
"                   XX..&&.O-X,,,,,,2X========%X                 ",
"                   XX-.#&.-O:,,,,,,,2.======%X                  ",
"               XXXX-$X#&&O-+++,,,,,,2X=====%X                   ",
"            XXXX$$$X$.&&&-O=::+++,,,,2.==%%X                    ",
"           X$$$$$$+X+X..O-++==:::+++,,2.%%X                     ",
"          XOOOOOOO  X,%%-O%=+++==:::....XX                      ",
"           XXX      X,%%O%%X===+++===::+++                      ",
"                    X,%%%%X%%%%%%X...:::,,+++                   ",
"                   X.....XX%%%%%%%O@<...,,,22+++                ",
"                   X<<<<<XXXXXXXXXXO%===...,,222+++             ",
"                  XX%%===X       X=<O%%X   +++,2222+            ",
"                  X<%===X        X:=<OX       +++,22+           ",
"                 X.<%%=X        X::,X<X          +++            ",
"                 X,.<%X         X:,,XX                          ",
"                X,,%X<X         X:,2X                           ",
"                X,%%XX          X:,2X                           ",
"                X,%:X           X:2X                            ",
"                X,%:X           X:2X                            ",
"                X,:X            X%%X                            ",
"                X,:X            .222X                           ",
"                X%%X           .2XX.X                           ",
"                X222X           .###.X                          ",
"               .2XXXXX           ####.X                         ",
"                X####XXX                                        "
};
