/* XPM */
static char *[] = {
/* columns rows colors chars-per-pixel */
"32 32 212 2",
"   c black",
".  c #010100000000",
"X  c #020200000000",
"o  c #030300000000",
"O  c #040400000000",
"+  c #080800000000",
"@  c #090900000000",
"#  c #0A0A00000000",
"$  c #0B0B01010000",
"%  c #0D0D00000000",
"&  c #0E0E00000000",
"*  c #0F0F03030303",
"=  c #111101010101",
"-  c #131300000000",
";  c #141400000000",
":  c #151500000000",
">  c #151501010000",
",  c #161600000000",
"<  c #171700000000",
"1  c #171704040101",
"2  c #181800000000",
"3  c #191900000000",
"4  c #181803030000",
"5  c #1A1A00000000",
"6  c #1B1B00000000",
"7  c #1B1B03030000",
"8  c #1C1C00000000",
"9  c #1D1D00000000",
"0  c #1E1E00000000",
"q  c #1F1F00000000",
"w  c #1D1D07070000",
"e  c #202000000000",
"r  c #212100000000",
"t  c #232300000000",
"y  c #232301010000",
"u  c #242400000000",
"i  c #242401010101",
"p  c #252500000000",
"a  c #262600000000",
"s  c #272700000000",
"d  c #232309090000",
"f  c #23230B0B0505",
"g  c #21210D0D0404",
"h  c #24240A0A0303",
"j  c #282800000000",
"k  c #292900000000",
"l  c #292901010000",
"z  c #2B2B00000000",
"x  c #2B2B01010000",
"c  c #2C2C00000000",
"v  c #2E2E00000000",
"b  c #282809090000",
"n  c #2B2B0F0F0505",
"m  c #2F2F12120707",
"M  c #2E2E15150A0A",
"N  c #303000000000",
"B  c #313101010000",
"V  c #323200000000",
"C  c #333300000000",
"Z  c #343400000000",
"A  c #383800000000",
"S  c #393900000000",
"D  c #3A3A00000000",
"F  c #3B3B01010000",
"G  c #3D3D00000000",
"H  c #3E3E00000000",
"J  c #3E3E01010000",
"K  c #3F3F00000000",
"L  c #414100000000",
"P  c #424200000000",
"I  c #434300000000",
"U  c #454500000000",
"Y  c #464600000000",
"T  c #474700000000",
"R  c #464603030000",
"E  c #46460B0B0303",
"W  c #484801010000",
"Q  c #494900000000",
"!  c #4B4B00000000",
"~  c #484804040202",
"^  c #4C4C00000000",
"/  c #4D4D00000000",
"(  c #4D4D00000101",
")  c #4E4E00000000",
"_  c #4C4C04040000",
"`  c #4C4C04040101",
"'  c #4E4E0B0B0000",
"]  c #48481D1D0303",
"[  c #505000000000",
"{  c #575700000000",
"}  c #53530B0B0303",
"|  c #595900000000",
" . c #5A5A00000000",
".. c #5B5B00000000",
"X. c #5C5C00000000",
"o. c #5D5D03030303",
"O. c #5E5E00000000",
"+. c #5A5A0C0C0303",
"@. c #5D5D0E0E0303",
"#. c #5B5B14140000",
"$. c #5F5F10100404",
"%. c #4C4C28281010",
"&. c #626200000000",
"*. c #646400000000",
"=. c #666600000000",
"-. c #676700000000",
";. c #61610E0E0303",
":. c #65650D0D0000",
">. c #686800000000",
",. c #696900000000",
"<. c #6B6B01010000",
"1. c #6A6A05050303",
"2. c #6D6D00000000",
"3. c #6F6F00000000",
"4. c #6A6A15150606",
"5. c #6C6C16160707",
"6. c #6E6E17170808",
"7. c #65651B1B1111",
"8. c #727200000000",
"9. c #757500000000",
"0. c #767600000000",
"q. c #797900000000",
"w. c #7C7C00000000",
"e. c #707018180707",
"r. c #727218180707",
"t. c #676739391515",
"y. c #65653E3E2121",
"u. c #7A7A54541F1F",
"i. c #6E6E41412121",
"p. c #6D6D45452727",
"a. c #808000000000",
"s. c #828205050505",
"d. c #868600000000",
"f. c #878700000000",
"g. c #8C8C00000000",
"h. c #8D8D00000000",
"j. c #8F8F00000000",
"k. c #81811D1D1111",
"l. c #929205050505",
"z. c #969600000000",
"x. c #949405050606",
"c. c #989800000000",
"v. c #9D9D00000000",
"b. c #9D9D01010101",
"n. c #9B9B18180E0E",
"m. c #A5A501010101",
"M. c #A8A800000000",
"N. c #AAAA00000000",
"B. c #ABAB00000000",
"V. c #ACAC00000000",
"C. c #B0B000000000",
"Z. c #B2B202020000",
"A. c #B4B402020000",
"S. c #B6B600000000",
"D. c #B9B900000000",
"F. c #BABA00000000",
"G. c #B9B907070707",
"H. c #BDBD00000000",
"J. c #BEBE0B0B0202",
"K. c #BBBB0B0B0B0B",
"L. c #A4A47D7D4545",
"P. c #C2C203030000",
"I. c #C6C603030000",
"U. c #C4C408080808",
"Y. c #CDCD14140000",
"T. c #D0D007070606",
"R. c #DCDC00000000",
"E. c #DEDE0D0D0D0D",
"W. c #DFDF0D0D0D0D",
"Q. c #DEDE16160000",
"!. c #DDDD18180000",
"~. c #CDCD21212121",
"^. c #D0D022222222",
"/. c #E6E60C0C0C0C",
"(. c #E9E90D0D0D0D",
"). c #E1E117170000",
"_. c #E4E419190000",
"`. c #ECEC17170000",
"'. c #EAEA1A1A0000",
"]. c #EBEB1B1B0000",
"[. c #ECEC18180000",
"{. c #EDED19190000",
"}. c #F3F319190000",
"|. c #F7F71F1F0202",
" X c #F9F922220303",
".X c #FAFA21210202",
"XX c #FAFA24240303",
"oX c #FCFC2D2D0000",
"OX c #FDFD34340000",
"+X c #D9D94C4C1919",
"@X c #E3E345451717",
"#X c #E6E64B4B1717",
"$X c #EBEB4E4E1818",
"%X c #EFEF52521818",
"&X c #F3F349491717",
"*X c #F8F84D4D1717",
"=X c #FBFB4F4F1717",
"-X c #F8F84C4C1818",
";X c #FFFF51511717",
":X c #FBFB50501818",
">X c #FEFE50501818",
",X c #FCFC59591A1A",
"<X c #FFFF6F6F1919",
"1X c #A6A681814A4A",
"2X c #ABAB86864E4E",
"3X c #B3B392925353",
"4X c #BEBE97976060",
"5X c #D1D181810000",
"6X c #D8D885850101",
"7X c #DDDD87870101",
"8X c #EDED91910000",
"9X c #EDED91910303",
/* pixels */
"                                                                ",
"                              f h w                             ",
"                            g u.1X4XM                           ",
"                            m %.y.p.m                           ",
"                            ; ] t.i.1                           ",
"                          v ~ L.3X2X1.s.                        ",
"                          & G 7.k.n.<.a                         ",
"                            $ 5 r a &                           ",
"                              ; j S                             ",
"                            O j R j.$                           ",
"                            O j / R.&                           ",
"                              j O./.$                           ",
"                              v 9.U.=                           ",
"                          O j / 8.K.~.j 5                       ",
"                          j / 3.b.E.O.J.+Xf                     ",
"                    b $ ; S [ c././ j. X<X5Xa                   ",
"                  q 6X#.; ! 3.b.W.G F.OX7X:.l.=                 ",
"                ; B.,X@.5 -.9.f.R j.Y.9X' I T.~.                ",
"                ; B.-X+.5 -.8./ C H.oX9XG C m.G.                ",
"                ; q.'.! = ! 3./ C S..X%XE q 9.l.                ",
"                q &.'.:.; r <./ v -.F. X$X} Z O.                ",
"                5 | !.:X5.r R / j G <.F. X#XG a                 ",
"                  r q.{.:X` ; -.j a G -.P.Q.` 5                 ",
"                  5 | V.`.$.5 I R a j I d.I.Q.q                 ",
"                    5 | S.*X6.5 I I a j O.j.z.5                 ",
"                      C w.'.;X5.5 R S ; v | q                   ",
"                      r | V.}.>Xe.; r q j S 5                   ",
"                    O q j | B._.&Xr.a a q ;                     ",
"                      r a j O.w.Z.@X~ 5 j                       ",
"                        r ; S | | -.q = r                       ",
"                            5 ; 5 ;                             ",
"                                                                "
};
