/* XPM */
static char *_5955_2d50422eeba540010126c3172d40fa6e588be1bef95945f7feb7a799560f8dd7[] = {
/* columns rows colors chars-per-pixel */
"64 64 174 2 ",
"   c #010000",
".  c #0B0500",
"X  c #140700",
"o  c #140D00",
"O  c #1C0B00",
"+  c #1C1300",
"@  c #141000",
"#  c #221600",
"$  c #291400",
"%  c #251C00",
"&  c #2F1E00",
"*  c #391F00",
"=  c #2C2501",
"-  c #362A01",
";  c #3A2C00",
":  c #3A2700",
">  c #37311A",
",  c #5C1D00",
"<  c #432B00",
"1  c #403000",
"2  c #4F3903",
"3  c #553D00",
"4  c #622002",
"5  c #703403",
"6  c #6F3417",
"7  c #574100",
"8  c #5B4501",
"9  c #5F4900",
"0  c #624C01",
"q  c #7F420C",
"w  c #655201",
"e  c #6B5501",
"r  c #6E5901",
"t  c #67500B",
"y  c #735D01",
"u  c #725C0C",
"i  c #715700",
"p  c #78481F",
"a  c #6D5C1F",
"s  c #766101",
"d  c #7B6501",
"f  c #7F6A01",
"g  c #77620A",
"h  c #7A640C",
"j  c #6D6015",
"k  c #7C661C",
"l  c #655827",
"z  c #6C5F2B",
"x  c #655721",
"c  c #6E6030",
"v  c #7C6D32",
"b  c #756730",
"n  c #8B1000",
"m  c #941501",
"M  c #AE0E02",
"N  c #A11609",
"B  c #BA1D06",
"V  c #882602",
"C  c #952C02",
"Z  c #9A2F1A",
"A  c #873816",
"S  c #953616",
"D  c #A13618",
"F  c #B73111",
"G  c #AD3E20",
"H  c #884B01",
"J  c #855200",
"K  c #9C5504",
"L  c #85421C",
"P  c #836D01",
"I  c #9E6D04",
"U  c #867102",
"Y  c #8A7401",
"T  c #8E7802",
"R  c #85720C",
"E  c #8C760A",
"W  c #927D03",
"Q  c #927D0C",
"!  c #826B11",
"~  c #897518",
"^  c #917C16",
"/  c #947D19",
"(  c #A5750A",
")  c #844B21",
"_  c #8B572D",
"`  c #9A502F",
"'  c #B4492A",
"]  c #A64928",
"[  c #89762F",
"{  c #876C38",
"}  c #837336",
"|  c #8A7639",
" . c #97673A",
".. c #C15334",
"X. c #8C7C44",
"o. c #857841",
"O. c #977E45",
"+. c #867C54",
"@. c #968104",
"#. c #9A8504",
"$. c #9F8904",
"%. c #958008",
"&. c #9A8516",
"*. c #9B8519",
"=. c #9F8919",
"-. c #A28D05",
";. c #A48E0A",
":. c #A28105",
">. c #A59005",
",. c #AA950C",
"<. c #AE990E",
"1. c #A69108",
"2. c #A18B1D",
"3. c #A79217",
"4. c #AE9914",
"5. c #A8931C",
"6. c #B29D12",
"7. c #B39E1A",
"8. c #B6A116",
"9. c #B9A417",
"0. c #B9A41A",
"q. c #BDA81D",
"w. c #AB9522",
"e. c #AF9923",
"r. c #A39022",
"t. c #B49D25",
"y. c #BBA525",
"u. c #BCA629",
"i. c #C4AE1C",
"p. c #C0AB20",
"a. c #C3AC2C",
"s. c #C6B125",
"d. c #CCB72C",
"f. c #CEB92C",
"g. c #CCB626",
"h. c #D2BD2E",
"j. c #CFB831",
"k. c #CAB330",
"l. c #D4BE31",
"z. c #D6C02D",
"x. c #D6C032",
"c. c #DBC534",
"v. c #DFC936",
"b. c #E1CB36",
"n. c #E4CD38",
"m. c #EAD33A",
"M. c #F1DA3F",
"N. c #8F8044",
"B. c #998949",
"V. c #8E8150",
"C. c #9C8D53",
"Z. c #A3904A",
"A. c #AB9957",
"S. c #B2A15D",
"D. c #8E8461",
"F. c #A89B69",
"G. c #BCA963",
"H. c #C1AE5F",
"J. c #CAB76D",
"K. c #C9B978",
"L. c #F5DE41",
"P. c #FEE645",
"I. c #D4C278",
"U. c #A8A185",
"Y. c #C2B682",
"T. c #CFC28C",
"R. c #D7C784",
"E. c #EBD990",
"W. c #FAE89F",
"Q. c #CAC3AA",
"!. c #E7D9A2",
"~. c #FBEDB6",
"^. c #FEF6D6",
"/. c None",
/* pixels */
"/./././././././././././././././././././././././././././././././././././././././././././././././././././././././././././././././.",
"/./././././././././././././././././././././././././././././././././././././././././././././././././././././././././././././././.",
"/./././././././././././././././././././././././././././././././././././././././././././././././././././././././././././././././.",
"/./././././././././././././././././././././././././././././././././././././././././././././././././././././././././././././././.",
"/./././././././././././././././././././././././././././././././././././././././././././././././././././././././././././././././.",
"/./././././././././././././././././././././././././././././././././././././././././././././././././././././././././././././././.",
"/./././././././././././././././././././././././././././././././././././././././././././././././././././././././././././././././.",
"/./././././././././././././././././././././././././././././././././././././././././././././././././././././././././././././././.",
"/./././././././././././././././././././././././././././././././././././././././././././././././././././././././././././././././.",
"/./././././././././././././././././././././././././././././././././././././././././././././././././././././././././././././././.",
"/./././././././././././././././././././././././././././././././././././././././././././././././././././././././././././././././.",
"/./././././././././././././././././././././././././././././././././././././././././././././././././././././././././././././././.",
"/./././././././././././././././././././././././././././././././././././././././././././././././././././././././././././././././.",
"/./././././././././././././././././././././././././././././././././././././././././././././././././././././././././././././././.",
"/./././././././././././././././././././././././././././././././././././././././././././././././././././././././././././././././.",
"/./././././././././././././././././././././././././././././././././././././././././././././././././././././././././././././././.",
"/./././././././././././././././././././././././././././././././././././././././././././././././././././././././././././././././.",
"/./././././././././././././././././././././././././././././././././././././././././././././././././././././././././././././././.",
"/./././././././././././././././././././././././././././././././././././././././././././././././././././././././././././././././.",
"/./././././././././././././././././././././././././././././././././././././././././././././././././././././././././././././././.",
"/./././././././././././././././././././././././././././././././././././././././././././././././././././././././././././././././.",
"/./././././././././././././././././././././././././././././././././././././././././././././././././././././././././././././././.",
"/./././././././././././././././././././././././././././././././././././././././././././././././././././././././././././././././.",
"/./././././././././././././././././././././././././././././././././././././././././././././././././././././././././././././././.",
"/./././././././././././././././././././././././././././././././././././././././././././././././././././././././././././././././.",
"/././././././././././././././././././././././././.e y s h / ~ /././././././././././././././././././././././././././././././././.",
"/./././././././././././././././././././././.0 s Y ,.p.p.s.c.x.k.7 /././././././././././././././././././././././././././././././.",
"/./././././././././././././././././././.0 s W >.,.d.d.d.d.d.d.m.L.u.! /././././././././././././././././././././././././././././.",
"/./././././././././././././././././././.s W -.>.0.d.d.d.d.d.d.d.l.L.L.*././././././././././././././././././././././././././././.",
"/././././././././././././././././././.d W -.>.>.s.d.d.d.d.d.d.d.d.j.L.L.^ /././././././././././././././././././././././././././.",
"/./././././././././././././././././.e T >.>.>.>.0.d.d.d.d.d.d.d.d.d.l.P.P.7 /./././././././././././././././././././././././././.",
"/././././././././././././././././.e f $.>.>.>.>.,.d.d.d.d.d.d.d.d.d.j.m.P.e././././././././././././././././././././././././././.",
"/./././././././././././././././.w f @.>.>.>.>.>.>.6.y.i.h.M.M.v.d.d.d.b.P.c.h /././././././././././././././././././././././././.",
"/././././././././././././././.0 d T >.>.>.>.>.>.>.>.K >.-.9.b.L.v.d.d.b.P.P.*./././././././././././././././././././././././././.",
"/././././././././././././././.e U $.>.>.>.>.>.>.>.#.V m K ( 9.d.P.v.d.v.P.P./ /././././././././././././././././././././././././.",
"/./././././././././././././.9 P T >.>.>.>.>.>.>.>.$.H M B F I i.l.x.d.d.L.P.a./././././././././././././././././././././././././.",
"/./././././././././././././.y P @.>.>.>.>.>.>.>.>.Y U J C N m ( f.f.d.d.L.P.P.u /./././././././././././././././././././././././.",
"/./././././././././././././.d P W U @.>.>.>.-.T d s s s y d H V <.y.d.d.k.P.P.u /./././././././././././././././././././././././.",
"/././././././././././././.w P P U #.>.>.1.>.#.s 5 } v Z.G.x w r T $.8.d.d.P.P.u /./././././././././././././././././././././././.",
"/././././././././././././.e P U U >.9.6.1.$.>.s V A A { O.A.I.O.k k %.;.0.h.P.u /././././././././././.l l l +.+.+.+././././././.",
"/././././././././././././.r P P #.4.y.s.>.@.@.U q L L S A ) { { E.R.[ r E >.i.t /././././././././././././.l Q.^.^.^.Y.U.U.U.U.F.",
"/././././././././././././.r P P @.7.^ d.9.1.U U *.[ o.' ' D S p A.} | C.9 Y d /./././././././././././././.  > K.W.W.W.~.!.T.D.V.",
"/./././././././././././.0 P U d U j.^ j.z.6.$.U f r.a X._ ..G D 6 /.x w 9 7 /./.! /./././././././.O O & %   c S.I.J.S.S.N.l /./.",
"/./././././././././././.9 U W U U x.2.u.n.v.9.@.y R 3.| C. ._ ] Z , h Y d f d r s.k.;   X o + o   /./././.l A.H.B.} b /././././.",
"/./././././././././././.9 T >.@.g s.y.5.f.m.M.9.T y *.=.j J.C.` 4 i 3 : $ # 9 #.>.0.1 /./././././././.l v v c z /./././././././.",
"/./././././././././././.9 @.>.y.! T d.t.^ ^ v.g.1.@.8 2 k : # X X X   /./.- w T @.U /./././././././././././././././././././././.",
"/./././././././././././.f >.1.q.y.s #.m.e.w.u t 8 = o . . . 1 1 /././././././.0 0 /././././././././././././././././././././././.",
"/././././.7 /./././.0 f #.s f E ~ j 7 @.v.=.= = . /././././././././././././././././././././././././././././././././././././././.",
"/././././.0 y i < : 3 w ; X o + . w R g ;.9.U e /./././././././././././././././././././././././././././././././././././././././.",
"/./././.O $ ; @ % % % % s f d f f #.-.7.g ! ! /././././././././././././././././././././././././././././././././././././././././.",
". X # + /././.: y P P P P e r e e P Y -.d.v.x.w.g /././././././././././././././././././././././././././././././././././././././.",
"/./././././././.0 0 0 9 0 /./.w f 0 y Y ,.y.f.x.j.7 /./././././././././././././././././././././././././././././././././././././.",
"/././././././././././././././.w P P f y y Y ;.q.s.7 /./././././././././././././././././././././././././././././././././././././.",
"/./././././././././././././.7 f P #.-.w y T ;.Q r /././././././././././././././././././././././././././././././././././././././.",
"/./././././././././././././.0 @.-.8.^ f -.9.h.c.d.u /./././././././././././././././././././././././././././././././././././././.",
"/././././././././././././.0 W >.6.y.h e s #.8.3.R Q 7 /././././././././././././././././././././././././././././././././././././.",
"/./././././././././././.0 P $.6.d.a./././.w w E =.0 /./././././././././././././././././././././././././././././././././././././.",
"/./././././././././././.r #.6.l.k.0 /./././././.7 7 /./././././././././././././././././././././././././././././././././././././.",
"/././././././././././.r Y 6.6.! E P 7 /././././././././././././././././././././././././././././././././././././././././././././.",
"/././././././././././.i U -.,.;.W g / g /./././././././././././././././././././././././././././././././././././././././././././.",
"/./././././././././././.r Y 4.a.t.&.2.h 7 /././././././././././././././././././././././././././././././././././././././././././.",
"/././././././././././././.9 d W 0.=.0 9 /./././././././././././././././././././././././././././././././././././././././././././.",
"/././././././././././././././.7 7 7 /./././././././././././././././././././././././././././././././././././././././././././././.",
"/./././././././././././././././././././././././././././././././././././././././././././././././././././././././././././././././."
};
