/* XPM */
static char *_0658_2ee15e47fe83f6a8553ace1a01e73bd93d4c86c4545e2df7579ad68c0a2502a5[] = {
/* columns rows colors chars-per-pixel */
"64 64 167 2 ",
"   c #060200",
".  c #0B0400",
"X  c #100500",
"o  c #140C00",
"O  c #190E00",
"+  c #1C1300",
"@  c #201900",
"#  c #2B1D0B",
"$  c #442C00",
"%  c #493100",
"&  c #4D3A02",
"*  c #523C00",
"=  c #7A3609",
"-  c #574100",
";  c #5A4400",
":  c #5E4903",
">  c #624C01",
",  c #6F4B0F",
"<  c #754001",
"1  c #665103",
"2  c #6A5400",
"3  c #6E5802",
"4  c #735E02",
"5  c #7A5E00",
"6  c #6D591B",
"7  c #7E551B",
"8  c #766001",
"9  c #7B6501",
"0  c #7E6801",
"q  c #7B650D",
"w  c #7F6A0F",
"e  c #77610D",
"r  c #7E6710",
"t  c #7F6911",
"y  c #7D681F",
"u  c #7A4C22",
"i  c #655827",
"p  c #675928",
"a  c #705E22",
"s  c #756026",
"d  c #6C6031",
"f  c #706437",
"g  c #796B33",
"h  c #8C1801",
"j  c #AB1201",
"k  c #BB1D06",
"l  c #8E2701",
"z  c #9A2D02",
"x  c #8B3501",
"c  c #862015",
"v  c #863815",
"b  c #973818",
"n  c #B0220F",
"m  c #B2280F",
"M  c #813F22",
"N  c #874C01",
"B  c #914C02",
"V  c #945602",
"C  c #84431D",
"Z  c #95511E",
"A  c #836E00",
"S  c #846F0D",
"D  c #9E6E04",
"F  c #867002",
"G  c #8A7402",
"H  c #8E7902",
"J  c #86710B",
"K  c #927D03",
"L  c #907A08",
"P  c #9D7904",
"I  c #836D12",
"U  c #896810",
"Y  c #8C7513",
"T  c #8F7A10",
"R  c #8C781B",
"E  c #927D16",
"W  c #957F1A",
"Q  c #A8760D",
"!  c #9E5D2D",
"~  c #965430",
"^  c #85602E",
"/  c #957E21",
"(  c #8C6836",
")  c #9E693D",
"_  c #8D7D3D",
"`  c #897137",
"'  c #937F3C",
"]  c #B6633D",
"[  c #80754D",
"{  c #BD7848",
"}  c #958104",
"|  c #998303",
" . c #9E8904",
".. c #96811B",
"X. c #9B851B",
"o. c #9E8813",
"O. c #A38E05",
"+. c #A38E0A",
"@. c #A08404",
"#. c #A59005",
"$. c #A6910C",
"%. c #A9940B",
"&. c #AE990E",
"*. c #A38D1D",
"=. c #A08A16",
"-. c #A69112",
";. c #B19C11",
":. c #B29D1C",
">. c #B5A015",
",. c #B6A11B",
"<. c #BAA51A",
"1. c #BEA91D",
"2. c #958021",
"3. c #AB9423",
"4. c #AE9921",
"5. c #B29B25",
"6. c #BBA625",
"7. c #BBA42A",
"8. c #BEA824",
"9. c #C3AD1B",
"0. c #C2AC23",
"q. c #C2AC28",
"w. c #C7B227",
"e. c #CAB425",
"r. c #CCB72C",
"t. c #CDB82D",
"y. c #D1BC2F",
"u. c #CAB330",
"i. c #D4BF31",
"p. c #D8C22F",
"a. c #D7C131",
"s. c #DAC434",
"d. c #DFC935",
"f. c #DEC839",
"g. c #E2CB35",
"h. c #E4CE39",
"j. c #E6D039",
"k. c #EAD33C",
"l. c #EFD83E",
"z. c #F2DB3F",
"x. c #8F8044",
"c. c #94854B",
"v. c #9C8848",
"b. c #A08E50",
"n. c #A99757",
"m. c #B4A15B",
"M. c #928964",
"N. c #BEAD6B",
"B. c #C0AE66",
"V. c #C3B169",
"C. c #CDBB6E",
"Z. c #CDBD7B",
"A. c #F4DD41",
"S. c #FDE545",
"D. c #D6C47E",
"F. c #ABA489",
"G. c #B2AC93",
"H. c #C5BA91",
"J. c #E3D185",
"K. c #E9D78D",
"L. c #C5C0AE",
"P. c #E4DCBD",
"I. c #FDEBA2",
"U. c #F3E6B1",
"Y. c #FEF0BA",
"T. c #FEF9E2",
"R. c None",
/* pixels */
"R.R.R.R.R.R.R.R.R.R.R.R.R.R.R.R.R.R.R.R.R.R.R.R.R.R.R.R.R.R.R.R.R.R.R.R.R.R.R.R.R.R.R.R.R.R.R.R.R.R.R.R.R.R.R.R.R.R.R.R.R.R.R.R.",
"R.R.R.R.R.R.R.R.R.R.R.R.R.R.R.R.R.R.R.R.R.R.R.R.R.R.R.R.R.R.R.R.R.R.R.R.R.R.R.R.R.R.R.R.R.R.R.R.R.R.R.R.R.R.R.R.R.R.R.R.R.R.R.R.",
"R.R.R.R.R.R.R.R.R.R.R.R.R.R.R.R.R.R.R.R.R.R.R.R.R.R.R.R.R.R.R.R.R.R.R.R.R.R.R.R.R.R.R.R.R.R.R.R.R.R.R.R.R.R.R.R.R.R.R.R.R.R.R.R.",
"R.R.R.R.R.R.R.R.R.R.R.R.R.R.R.R.R.R.R.R.R.R.R.R.R.R.R.R.R.R.R.R.R.R.R.R.R.R.R.R.R.R.R.R.R.R.R.R.R.R.R.R.R.R.R.R.R.R.R.R.R.R.R.R.",
"R.R.R.R.R.R.R.R.R.R.R.R.R.R.R.R.R.R.R.R.R.R.R.R.R.R.R.R.R.R.R.R.R.R.R.R.R.R.R.R.R.R.R.R.R.R.R.R.R.R.R.R.R.R.R.R.R.R.R.R.R.R.R.R.",
"R.R.R.R.R.R.R.R.R.R.R.R.R.R.R.R.R.R.R.R.R.R.R.R.R.R.R.R.R.R.R.R.R.R.R.R.R.R.R.R.R.R.R.R.R.R.R.R.R.R.R.R.R.R.R.R.R.R.R.R.R.R.R.R.",
"R.R.R.R.R.R.R.R.R.R.R.R.R.R.R.R.R.R.R.R.R.R.R.R.R.R.R.R.R.R.R.R.R.R.R.R.R.R.R.R.R.R.R.R.R.R.R.R.R.R.R.R.R.R.R.R.R.R.R.R.R.R.R.R.",
"R.R.R.R.R.R.R.R.R.R.R.R.R.R.R.R.R.R.R.R.R.R.R.R.R.R.R.R.R.R.R.R.R.R.R.R.R.R.R.R.R.R.R.R.R.R.R.R.R.R.R.R.R.R.R.R.R.R.R.R.R.R.R.R.",
"R.R.R.R.R.R.R.R.R.R.R.R.R.R.R.R.R.R.R.R.R.R.R.R.R.R.R.R.R.R.R.R.R.R.R.R.R.R.R.R.R.R.R.R.R.R.R.R.R.R.R.R.R.R.R.R.R.R.R.R.R.R.R.R.",
"R.R.R.R.R.R.R.R.R.R.R.R.R.R.R.R.R.R.R.R.R.R.R.R.R.R.R.R.R.R.R.R.R.R.R.R.R.R.R.R.R.R.R.R.R.R.R.R.R.R.R.R.R.R.R.R.R.R.R.R.R.R.R.R.",
"R.R.R.R.R.R.R.R.R.R.R.R.R.R.R.R.R.R.R.R.R.R.R.R.R.R.R.R.R.R.R.R.R.R.R.R.R.R.R.R.R.R.R.R.R.R.R.R.R.R.R.R.R.R.R.R.R.R.R.R.R.R.R.R.",
"R.R.R.R.R.R.R.R.R.R.R.R.R.R.R.R.R.R.R.R.R.R.R.R.R.R.R.R.R.R.R.R.R.R.R.R.R.R.R.R.R.R.R.R.R.R.R.R.R.R.R.R.R.R.R.R.R.R.R.R.R.R.R.R.",
"R.R.R.R.R.R.R.R.R.R.R.R.R.R.R.R.R.R.R.R.R.R.R.R.R.R.R.R.R.R.R.R.R.R.R.R.R.R.R.R.R.R.R.R.R.R.R.R.R.R.R.R.R.R.R.R.R.R.R.R.R.R.R.R.",
"R.R.R.R.R.R.R.R.R.R.R.R.R.R.R.R.R.R.R.R.R.R.R.R.R.R.R.R.R.R.R.R.R.R.R.R.R.R.R.R.R.R.R.R.R.R.R.R.R.R.R.R.R.R.R.R.R.R.R.R.R.R.R.R.",
"R.R.R.R.R.R.R.R.R.R.R.R.R.R.R.R.R.R.R.R.R.R.R.R.R.R.R.R.R.R.R.R.R.R.R.R.R.R.R.R.R.R.R.R.R.R.R.R.R.R.R.R.R.R.R.R.R.R.R.R.R.R.R.R.",
"R.R.R.R.R.R.R.R.R.R.R.R.R.R.R.R.R.R.R.R.R.R.R.R.R.R.R.R.R.R.R.R.R.R.R.R.R.R.R.R.R.R.R.R.R.R.R.R.R.R.R.R.R.R.R.R.R.R.R.R.R.R.R.R.",
"R.R.R.R.R.R.R.R.R.R.R.R.R.R.R.R.R.R.R.R.R.R.R.R.R.R.R.R.R.R.R.R.R.R.R.R.R.R.R.R.R.R.R.R.R.R.R.R.R.R.R.R.R.R.R.R.R.R.R.R.R.R.R.R.",
"R.R.R.R.R.R.R.R.R.R.R.R.R.R.R.R.R.R.R.R.R.R.R.R.R.R.R.R.R.R.R.R.R.R.R.R.R.R.R.R.R.R.R.R.R.R.R.R.R.R.R.R.R.R.R.R.R.R.R.R.R.R.R.R.",
"R.R.R.R.R.R.R.R.R.R.R.R.R.R.R.R.R.R.R.R.R.R.R.R.R.R.R.R.R.R.R.R.R.R.R.R.R.R.R.R.R.R.R.R.R.R.R.R.R.R.R.R.R.R.R.R.R.R.R.R.R.R.R.R.",
"R.R.R.R.R.R.R.R.R.R.R.R.R.R.R.R.R.R.R.R.R.R.R.R.R.R.R.R.R.R.R.R.R.R.R.R.R.R.R.R.R.R.R.R.R.R.R.R.R.R.R.R.R.R.R.R.R.R.R.R.R.R.R.R.",
"R.R.R.R.R.R.R.R.R.R.R.R.R.R.R.R.R.R.R.R.R.R.R.R.R.R.R.R.R.R.R.R.R.R.R.R.R.R.R.R.R.R.R.R.R.R.R.R.R.R.R.R.R.R.R.R.R.R.R.R.R.R.R.R.",
"R.R.R.R.R.R.R.R.R.R.R.R.R.R.R.R.R.R.R.R.R.R.R.R.R.R.R.R.R.R.R.R.R.R.R.R.R.R.R.R.R.R.R.R.R.R.R.R.R.R.R.R.R.R.R.R.R.R.R.R.R.R.R.R.",
"R.R.R.R.R.R.R.R.R.R.R.R.R.R.R.R.R.R.R.R.R.R.R.R.R.R.R.R.R.R.R.R.R.R.R.R.R.R.R.R.R.R.R.R.R.R.R.R.R.R.R.R.R.R.R.R.R.R.R.R.R.R.R.R.",
"R.R.R.R.R.R.R.R.R.R.R.R.R.R.R.R.R.R.R.R.R.R.R.R.R.R.R.R.R.R.R.R.R.R.R.R.R.R.R.R.R.R.R.R.R.R.R.R.R.R.R.R.R.R.R.R.R.R.R.R.R.R.R.R.",
"R.R.R.R.R.R.R.R.R.R.R.R.R.R.R.R.R.R.R.R.R.R.R.R.R.R.R.R.R.R.R.R.R.R.R.R.R.R.R.R.R.R.R.R.R.R.R.R.R.R.R.R.R.R.R.R.R.R.R.R.R.R.R.R.",
"R.R.R.R.R.R.R.R.R.R.R.R.R.R.R.R.R.R.R.R.R.R.R.R.R.R.R.R.R.R.R.R.R.R.R.R.R.R.R.R.R.R.R.R.R.R.R.R.R.R.R.R.R.R.R.R.R.R.R.R.R.R.R.R.",
"R.R.R.R.R.R.R.R.R.R.R.R.R.R.R.R.R.R.R.R.R.R.R.R.R.R.R.R.R.R.R.R.R.R.R.R.R.R.R.R.R.R.R.R.R.R.R.R.R.R.R.R.R.R.R.R.R.R.R.R.R.R.R.R.",
"R.R.R.R.R.R.R.R.R.R.R.R.R.R.R.R.R.R.R.R.R.R.R.R.R.R.R.R.R.R.R.R.R.R.R.R.R.R.R.R.R.R.R.R.R.R.R.R.R.R.R.R.R.R.R.R.R.R.R.R.R.R.R.R.",
"R.R.R.R.R.R.R.R.R.R.R.R.R.R.R.R.R.R.R.R.R.R.R.R.R.R.R.R.R.R.R.R.R.R.R.R.R.R.R.R.R.R.R.R.R.R.R.R.R.R.R.R.R.R.R.R.R.R.R.R.R.R.R.R.",
"R.R.R.R.R.R.R.R.R.R.R.R.R.R.R.R.R.R.R.R.R.R.R.R.R.: : > > > > R.R.R.R.R.R.R.R.R.R.R.R.R.R.R.R.R.R.R.R.R.R.R.R.R.R.R.R.R.R.R.R.R.",
"R.R.R.R.R.R.R.R.R.R.R.R.R.R.R.R.R.R.R.R.R.R.R.4 4 >.t.t.f.l.i.W R.R.R.R.R.R.R.R.R.R.R.R.R.R.R.R.R.R.R.R.R.R.R.R.R.R.R.R.R.R.R.R.",
"R.R.R.R.R.R.R.R.R.R.R.R.R.R.R.R.R.R.R.R.R.2 9 O.>.r.r.r.r.t.f.A.u.R - R.R.R.R.R.R.R.R.R.R.R.R.R.R.R.R.R.R.R.R.R.R.R.R.R.R.R.R.R.",
"R.R.R.R.R.R.R.R.R.R.R.R.R.R.R.R.R.R.R.R.2 F  .>.t.r.r.t.r.r.r.r.l.S.k.r R.R.R.R.R.R.R.R.R.R.R.R.R.R.R.R.R.R.R.R.R.R.R.R.R.R.R.R.",
"R.R.R.R.R.R.R.R.R.R.R.R.R.R.R.R.R.R.R.1 0  .#.w.r.r.r.r.r.r.r.r.r.i.S.g.e R.R.R.R.R.R.R.R.R.R.R.R.R.R.R.R.R.R.R.R.R.R.R.R.R.R.R.",
"R.R.R.R.R.R.R.R.R.R.R.R.R.R.R.R.R.R.R.8 H #.#.e.r.r.r.r.r.r.r.r.r.r.s.S.h.- R.R.R.R.R.R.R.R.R.R.R.R.R.R.R.R.R.R.R.R.R.R.R.R.R.R.",
"R.R.R.R.R.R.R.R.R.R.R.R.R.R.R.R.R.R.8 H O.#.#.>.t.r.r.r.t.r.r.y.r.r.y.z.A.W R.R.R.R.R.R.R.R.R.R.R.R.R.R.R.R.R.R.R.R.R.R.R.R.R.R.",
"R.R.R.R.R.R.R.R.R.R.R.R.R.R.R.R.R.4 A } #.#.#.%.1.r.e.w.d.l.j.y.r.r.r.j.S.7.R.R.R.R.R.R.R.R.R.R.R.R.R.R.R.R.R.R.R.R.R.R.R.R.R.R.",
"R.R.R.R.R.R.R.R.R.R.R.R.R.R.R.R.4 A } #.#.#.#.#.#.<.Q P &.1.k.A.s.t.r.h.S.S.I R.R.R.R.R.R.R.R.R.R.R.R.R.R.R.R.R.R.R.R.R.R.R.R.R.",
"R.R.R.R.R.R.R.R.R.R.R.R.R.R.R.- A A O.#.#.#.#.#.#. .x h B @.<.y.S.a.t.h.S.S.I R.R.R.R.R.R.R.R.R.R.R.R.R.R.R.R.R.R.R.R.R.R.R.R.R.",
"R.R.R.R.R.R.R.R.R.R.R.R.R.R.R.4 A H O.#.#.#.#.#.#.#.V j k m D ;.a.a.t.u.S.S.5.R.R.R.R.R.R.R.R.R.R.R.R.R.R.R.R.R.R.R.R.R.R.R.R.R.",
"R.R.R.R.R.R.R.R.R.R.R.R.R.R.> A A | O.O.#.#.#.#.#.#. .N z n h Q <.t.t.t.A.S.A.- R.R.R.R.R.R.R.R.R.R.R.R.R.R.R.R.R.R.R.R.R.R.R.R.",
"R.R.R.R.R.R.R.R.R.R.R.R.R.R.2 A A K O.O.#.#.#.#.| 9 9 9 9 4 N l &.0.r.t.i.S.A.- R.R.R.R.R.R.R.R.R.R.R.R.R.R.R.R.R.R.R.R.R.R.R.R.",
"R.R.R.R.R.R.R.R.R.R.R.R.R.R.9 A A F K  .#.#.#.K < s ` ' m.a 2 9 } O.>.8.i.S.A.- R.R.R.R.R.R.R.R.R.R.R.R.R.R.R.R.R.R.R.R.R.R.R.R.",
"R.R.R.R.R.R.R.R.R.R.R.R.R.; A A A A K <.&.O.O.K = = v ^ v.b.D.[ y s } #.9.d.A.- R.R.R.R.R.R.R.R.R.R.R.R.R.R.R.R.R.R.R.R.R.R.R.R.",
"R.R.R.R.R.R.R.R.R.R.R.R.R.- A A A 4 #.r.w.O.H +.=.U ! C v C ( ( K.Z.v.8 K &.0.- R.R.R.R.R.R.R.R.R.R.R.R.R.R.R.R.R.R.R.R.R.R.R.R.",
"R.R.R.R.R.R.R.R.R.R.R.R.R.> A A 9 A 0.X.s.<. .9 L q./ , { ( b u n.R.c.v.1 K 8 R.R.R.R.R.R.R.R.R.R.R.R.R.R.R.R.R.R.R.R.R.R.R.R.R.",
"R.R.R.R.R.R.R.R.R.R.R.R.R.0 F F 4 G q.E y.h.e.H 2 A -.8.S Z ) ] u R.i - - - R.R.R.R.R.R.R.R.R.R.R.R.R.p d M.R.R.R.R.R.R.R.R.R.R.",
"R.R.R.R.R.R.R.R.R.R.R.R.R.0  .K 2 K 0.E Y 5.S.o.> R.2 J ;.=.6 ^ ~ c R.R.R.R.R.- R.R.R.R.R.R.R.R.R.R.R.R.R.[ G.G.p p R.R.R.R.R.R.",
"R.R.R.R.R.R.R.R.R.R.R.R.$ 4 A > - } 4 I r.R 2.$ R.R.R.R.* - *.*.* % % R.R.2 1 l.5.R.R.R.R.R.R.R.R.R.R.R.R.R.p Y.T.P.c.M.R.R.R.R.",
". X X X + + + + + + + + . X X   @ A #.r.W o X X . O + + + + + + O X . X O 8 4 8.a.& . X X X + + + + + O X # c.K.J.K.I.U.H.L.F.p ",
"R.R.R.R.R.& R.R.R.R.: 3 ,.f.6.+.$.Y 4 G H 1 : ..R.R.R.R.R.* 8 4 A } } } 8 - H #.:.: R.R.R.R.R.R.R.R.R.p g V.C.C.V.B.V.V.V.N.f R.",
"R.R.R.R.R.> 3 4 R.0 K 1.h.9.#.+.O.;.q.E e J ..X.R.R.R.R.R.R.R.R.2 3 3 2 : R.2 0 3 R.R.R.R.R.R.R.R.R.p g _ _ _ _ g R.R.R.R.R.R.R.",
"R.R.R.R.R.R.9 G K %.9.w.<.e F F K O.;.r.7.5.w.d.I R.R.R.R.R.R.R.R.R.R.R.R.R.R.R.R.R.R.R.R.R.R.R.R.R.R.R.R.R.R.R.R.R.R.R.R.R.R.R.",
"R.R.R.R.R.R.R.4 0 } } | H 4 - 3 A K O.&.a.X.q.A.W R.R.R.R.R.R.R.R.R.R.R.R.R.R.R.R.R.R.R.R.R.R.R.R.R.R.R.R.R.R.R.R.R.R.R.R.R.R.R.",
"R.R.R.R.R.R.R.R.> > > > > R.R.; 2 A K #.r.d.I g.W R.R.R.R.R.R.R.R.R.R.R.R.R.R.R.R.R.R.R.R.R.R.R.R.R.R.R.R.R.R.R.R.R.R.R.R.R.R.R.",
"R.R.R.R.R.R.R.R.R.R.R.R.R.R.> 9 9 1 K O.a.h.X.l...R.R.R.R.R.R.R.R.R.R.R.R.R.R.R.R.R.R.R.R.R.R.R.R.R.R.R.R.R.R.R.R.R.R.R.R.R.R.R.",
"R.R.R.R.R.R.R.R.R.R.R.R.R.R.2 K | | O.;.h.E 0.i.t R.R.R.R.R.R.R.R.R.R.R.R.R.R.R.R.R.R.R.R.R.R.R.R.R.R.R.R.R.R.R.R.R.R.R.R.R.R.R.",
"R.R.R.R.R.R.R.R.R.R.R.R.R.R.R.4 $.,.w.*.2 } h.5.R.R.R.R.R.R.R.R.R.R.R.R.R.R.R.R.R.R.R.R.R.R.R.R.R.R.R.R.R.R.R.R.R.R.R.R.R.R.R.R.",
"R.R.R.R.R.R.R.R.R.R.R.R.R.R.R.R.0 4 $.E A #.g.I R.R.R.R.R.R.R.R.R.R.R.R.R.R.R.R.R.R.R.R.R.R.R.R.R.R.R.R.R.R.R.R.R.R.R.R.R.R.R.R.",
"R.R.R.R.R.R.R.R.R.R.R.R.R.R.R.R.> 1 A 9 A 9.y.- R.R.R.R.R.R.R.R.R.R.R.R.R.R.R.R.R.R.R.R.R.R.R.R.R.R.R.R.R.R.R.R.R.R.R.R.R.R.R.R.",
"R.R.R.R.R.R.R.R.R.R.R.R.R.R.R.R.R.R.- 3 O.e.h.3.3.R.R.R.R.R.R.R.R.R.R.R.R.R.R.R.R.R.R.R.R.R.R.R.R.R.R.R.R.R.R.R.R.R.R.R.R.R.R.R.",
"R.R.R.R.R.R.R.R.R.R.R.R.R.R.R.R.R.R.> A +.d.X.q q F R.R.R.R.R.R.R.R.R.R.R.R.R.R.R.R.R.R.R.R.R.R.R.R.R.R.R.R.R.R.R.R.R.R.R.R.R.R.",
"R.R.R.R.R.R.R.R.R.R.R.R.R.R.R.R.R.R.> K K G G F 9 R.R.R.R.R.R.R.R.R.R.R.R.R.R.R.R.R.R.R.R.R.R.R.R.R.R.R.R.R.R.R.R.R.R.R.R.R.R.R.",
"R.R.R.R.R.R.R.R.R.R.R.R.R.R.R.R.R.R.R.1 > R.R.R.R.R.R.R.R.R.R.R.R.R.R.R.R.R.R.R.R.R.R.R.R.R.R.R.R.R.R.R.R.R.R.R.R.R.R.R.R.R.R.R."
};
