/* XPM */
static char *_446_ee05e7a7541422216f9dc9b9d2c7527592572c9a7934fc9fe30664a07b0aecd2[] = {
/* columns rows colors chars-per-pixel */
"64 64 178 2 ",
"   c #050300",
".  c #0A0400",
"X  c #120700",
"o  c #110C00",
"O  c #1B0B00",
"+  c #171003",
"@  c #1C1302",
"#  c #2A0E00",
"$  c #221500",
"%  c #291000",
"&  c #251900",
"*  c #2D1C00",
"=  c #301D00",
"-  c #381E00",
";  c #311500",
":  c #2E2100",
">  c #3B2100",
",  c #312900",
"<  c #3F2A00",
"1  c #3A3202",
"2  c #452E07",
"3  c #4B3300",
"4  c #4F3A03",
"5  c #553D00",
"6  c #602F03",
"7  c #6D3709",
"8  c #763200",
"9  c #574100",
"0  c #5C4600",
"q  c #5D4902",
"w  c #4C4510",
"e  c #5F4E16",
"r  c #624C01",
"t  c #774A0D",
"y  c #665102",
"u  c #6A5400",
"i  c #6F5A01",
"p  c #6E580A",
"a  c #735D01",
"s  c #735D0B",
"d  c #754D17",
"f  c #695A11",
"g  c #766000",
"h  c #7A6401",
"j  c #7E6800",
"k  c #7A630E",
"l  c #7A6513",
"z  c #776518",
"x  c #655827",
"c  c #675A28",
"v  c #756326",
"b  c #7E6F35",
"n  c #746634",
"m  c #7F7036",
"M  c #7D7248",
"N  c #8B0500",
"B  c #8D1B01",
"V  c #9D1C03",
"C  c #981607",
"Z  c #B71D08",
"A  c #B61604",
"S  c #8F2600",
"D  c #833C07",
"F  c #963513",
"G  c #AD3E0D",
"H  c #944902",
"J  c #855200",
"K  c #874C1D",
"L  c #836E01",
"P  c #826D0E",
"I  c #83600E",
"U  c #9F6A04",
"Y  c #867103",
"T  c #8A7402",
"R  c #8F7903",
"E  c #88720E",
"W  c #927C03",
"Q  c #947F0E",
"!  c #826C11",
"~  c #8F6917",
"^  c #897414",
"/  c #8E7917",
"(  c #877114",
")  c #927D15",
"_  c #967F1A",
"`  c #A17C04",
"'  c #834D23",
"]  c #9D4F2A",
"[  c #954320",
"{  c #9D5D35",
"}  c #AC4C2A",
"|  c #AA592F",
" . c #89602F",
".. c #887223",
"X. c #976F3F",
"o. c #847436",
"O. c #8A7A3D",
"+. c #8E743C",
"@. c #90783E",
"#. c #A36038",
"$. c #978203",
"%. c #9A8403",
"&. c #9B860B",
"*. c #9B8616",
"=. c #9C861B",
"-. c #9E8916",
";. c #A28D05",
":. c #A48307",
">. c #A59005",
",. c #A6910A",
"<. c #AA950B",
"1. c #AE990E",
"2. c #A18C1D",
"3. c #A28D17",
"4. c #AD9614",
"5. c #AD9810",
"6. c #AA951C",
"7. c #A69118",
"8. c #B29D13",
"9. c #BAA51A",
"0. c #BEA91E",
"q. c #B7A11A",
"w. c #A79021",
"e. c #AC9623",
"r. c #AF9825",
"t. c #B29C24",
"y. c #B79F28",
"u. c #BEA920",
"i. c #BEA928",
"p. c #BAA427",
"a. c #C2AC1D",
"s. c #C0AB20",
"d. c #C2AB2B",
"f. c #C6B126",
"g. c #CBB525",
"h. c #CCB72C",
"j. c #CEB92C",
"k. c #C7B22C",
"l. c #D2BD2D",
"z. c #CBB431",
"x. c #CFB831",
"c. c #D7C132",
"v. c #DBC534",
"b. c #DFC738",
"n. c #DFC839",
"m. c #DFC936",
"M. c #E2CB37",
"N. c #E5CF39",
"B. c #E7D03A",
"V. c #ECD43C",
"C. c #F2DB3F",
"Z. c #8F8047",
"A. c #8C825D",
"S. c #8E8256",
"D. c #B48759",
"F. c #B19E5F",
"G. c #948A67",
"H. c #B9A768",
"J. c #C9B669",
"K. c #C4B164",
"L. c #F4DD40",
"P. c #F7E042",
"I. c #FEE646",
"U. c #D8C67F",
"Y. c #D4C174",
"T. c #ABA384",
"R. c #B4AE95",
"E. c #BCB6A0",
"W. c #DBCB86",
"Q. c #E5D388",
"!. c #EEDE9F",
"~. c #CAC4AC",
"^. c #D9D2B5",
"/. c #F6E6A9",
"(. c #FDF0B9",
"). c #E9E1C2",
"_. c #F7F1D5",
"`. c None",
/* pixels */
"`.`.`.`.`.`.`.`.`.`.`.`.`.`.`.`.`.`.`.`.`.`.`.`.`.`.`.`.`.`.`.`.`.`.`.`.`.`.`.`.`.`.`.`.`.`.`.`.`.`.`.`.`.`.`.`.`.`.`.`.`.`.`.`.",
"`.`.`.`.`.`.`.`.`.`.`.`.`.`.`.`.`.`.`.`.`.`.`.`.`.`.`.`.`.`.`.`.`.`.`.`.`.`.`.`.`.`.`.`.`.`.`.`.`.`.`.`.`.`.`.`.`.`.`.`.`.`.`.`.",
"`.`.`.`.`.`.`.`.`.`.`.`.`.`.`.`.`.`.`.`.`.`.`.`.`.`.`.`.`.`.`.`.`.`.`.`.`.`.`.`.`.`.`.`.`.`.`.`.`.`.`.`.`.`.`.`.`.`.`.`.`.`.`.`.",
"`.`.`.`.`.`.`.`.`.`.`.`.`.`.`.`.`.`.`.`.`.`.`.`.`.`.`.`.`.`.`.`.`.`.`.`.`.`.`.`.`.`.`.`.`.`.`.`.`.`.`.`.`.`.`.`.`.`.`.`.`.`.`.`.",
"`.`.`.`.`.`.`.`.`.`.`.`.`.`.`.`.`.`.`.`.`.`.`.`.`.`.`.`.`.`.`.`.`.`.`.`.`.`.`.`.`.`.`.`.`.`.`.`.`.`.`.`.`.`.`.`.`.`.`.`.`.`.`.`.",
"`.`.`.`.`.`.`.`.`.`.`.`.`.`.`.`.`.`.`.`.`.`.`.`.`.`.`.`.`.`.`.`.`.`.`.`.`.`.`.`.`.`.`.`.`.`.`.`.`.`.`.`.`.`.`.`.`.`.`.`.`.`.`.`.",
"`.`.`.`.`.`.`.`.`.`.`.`.`.`.`.`.`.`.`.`.`.`.`.`.`.`.`.`.`.`.`.`.`.`.`.`.`.`.`.`.`.`.`.`.`.`.`.`.`.`.`.`.`.`.`.`.`.`.`.`.`.`.`.`.",
"`.`.`.`.`.`.`.`.`.`.`.`.`.`.`.`.`.`.`.`.`.`.`.`.`.`.`.`.`.`.`.`.`.`.`.`.`.`.`.`.`.`.`.`.`.`.`.`.`.`.`.`.`.`.`.`.`.`.`.`.`.`.`.`.",
"`.`.`.`.`.`.`.`.`.`.`.`.`.`.`.`.`.`.`.`.`.`.`.`.`.`.`.`.`.`.`.`.`.`.`.`.`.`.`.`.`.`.`.`.`.`.`.`.`.`.`.`.`.`.`.`.`.`.`.`.`.`.`.`.",
"`.`.`.`.`.`.`.`.`.`.`.`.`.`.`.`.`.`.`.`.`.`.`.`.`.`.`.`.`.`.`.`.`.`.`.`.`.`.`.`.`.`.`.`.`.`.`.`.`.`.`.`.`.`.`.`.`.`.`.`.`.`.`.`.",
"`.`.`.`.`.`.`.`.`.`.`.`.`.`.`.`.`.`.`.`.`.`.`.`.`.`.`.`.`.`.`.`.`.`.`.`.`.`.`.`.`.`.`.`.`.`.`.`.`.`.`.`.`.`.`.`.`.`.`.`.`.`.`.`.",
"`.`.`.`.`.`.`.`.`.`.`.`.`.`.`.`.`.`.`.`.`.`.`.`.`.`.`.`.`.`.`.`.`.`.`.`.`.`.`.`.`.`.`.`.`.`.`.`.`.`.`.`.`.`.`.`.`.`.`.`.`.`.`.`.",
"`.`.`.`.`.`.`.`.`.`.`.`.`.`.`.`.`.`.`.`.`.`.`.`.`.`.`.`.`.`.`.`.`.`.`.`.`.`.`.`.`.`.`.`.`.`.`.`.`.`.`.`.`.`.`.`.`.`.`.`.`.`.`.`.",
"`.`.`.`.`.`.`.`.`.`.`.`.`.`.`.`.`.`.`.`.`.`.`.`.`.`.`.`.`.`.`.`.`.`.`.`.`.`.`.`.`.`.`.`.`.`.`.`.`.`.`.`.`.`.`.`.`.`.`.`.`.`.`.`.",
"`.`.`.`.`.`.`.`.`.`.`.`.`.`.`.`.`.`.`.`.`.`.`.`.`.`.`.`.`.`.`.`.`.`.`.`.`.`.`.`.`.`.`.`.`.`.`.`.`.`.`.`.`.`.`.`.`.`.`.`.`.`.`.`.",
"`.`.`.`.`.`.`.`.`.`.`.`.`.`.`.`.`.`.`.`.`.`.`.`.`.`.`.`.`.`.`.`.`.`.`.`.`.`.`.`.`.`.`.`.`.`.`.`.`.`.`.`.`.`.`.`.`.`.`.`.`.`.`.`.",
"`.`.`.`.`.`.`.`.`.`.`.`.`.`.`.`.`.`.`.`.`.`.`.`.`.`.`.`.`.`.`.`.`.`.`.`.`.`.`.`.`.`.`.`.`.`.`.`.`.`.`.`.`.`.`.`.`.`.`.`.`.`.`.`.",
"`.`.`.`.`.`.`.`.`.`.`.`.`.`.`.`.`.`.`.`.`.`.`.`.`.`.`.`.`.`.`.`.`.`.`.`.`.`.`.`.`.`.`.`.`.`.`.`.`.`.`.`.`.`.`.`.`.`.`.`.`.`.`.`.",
"`.`.`.`.`.`.`.`.`.`.`.`.`.`.`.`.`.`.`.`.`.`.`.`.`.`.`.`.`.`.`.`.`.`.`.`.`.`.`.`.`.`.`.`.`.`.`.`.`.`.`.`.`.`.`.`.`.`.`.`.`.`.`.`.",
"`.`.`.`.`.`.`.`.`.`.`.`.`.`.`.`.`.`.`.`.`.`.`.`.`.`.`.`.`.`.`.`.`.`.`.`.`.`.`.`.`.`.`.`.`.`.`.`.`.`.`.`.`.`.`.`.`.`.`.`.`.`.`.`.",
"`.`.`.`.`.`.`.`.`.`.`.`.`.`.`.`.`.`.`.`.`.`.`.`.`.`.`.`.`.`.`.`.`.`.`.`.`.`.`.`.`.`.`.`.`.`.`.`.`.`.`.`.`.`.`.`.`.`.`.`.`.`.`.`.",
"`.`.`.`.`.`.`.`.`.`.`.`.`.`.`.`.`.`.`.`.`.`.`.`.`.`.`.`.`.`.`.`.`.`.`.`.`.`.`.`.`.`.`.`.`.`.`.`.`.`.`.`.`.`.`.`.`.`.`.`.`.`.`.`.",
"`.`.`.`.`.`.`.`.`.`.`.`.`.`.`.`.`.`.`.`.`.`.`.`.`.`.`.`.`.`.`.`.`.`.`.`.`.`.`.`.`.`.`.`.`.`.`.`.`.`.`.`.`.`.`.`.`.`.`.`.`.`.`.`.",
"`.`.`.`.`.`.`.`.`.`.`.`.`.`.`.`.`.`.`.`.`.`.`.`.`.`.`.`.`.`.`.`.`.`.`.`.`.`.`.`.`.`.`.`.`.`.`.`.`.`.`.`.`.`.`.`.`.`.`.`.`.`.`.`.",
"`.`.`.`.`.`.`.`.`.`.`.`.`.`.`.`.`.`.`.`.`.`.`.`.`.`.`.`.`.`.`.`.`.`.`.`.`.`.`.`.`.`.`.`.`.`.`.`.`.`.`.`.`.`.`.`.`.`.`.`.`.`.`.`.",
"`.`.`.`.`.`.`.`.`.`.`.`.`.`.`.`.`.`.`.`.`.`.`.`.`.`.`.`.`.`.`.`.`.`.`.`.`.`.`.`.`.`.`.`.`.`.`.`.`.`.`.`.`.`.`.`.`.`.`.`.`.`.`.`.",
"`.`.`.`.`.`.`.`.`.`.`.`.`.`.`.`.`.`.`.`.`.`.`.`.`.`.`.`.`.`.`.`.`.`.`.`.`.`.`.`.`.`.`.`.`.`.`.`.`.`.`.`.`.`.`.`.`.`.`.`.`.`.`.`.",
"`.`.`.`.`.`.`.`.`.`.`.`.`.`.`.`.`.`.`.`.`.`.`.`.`.`.`.`.`.`.`.`.`.`.`.`.`.`.`.`.`.`.`.`.`.`.`.`.`.`.`.`.`.`.`.`.`.`.`.`.`.`.`.`.",
"`.`.`.`.`.`.`.`.`.`.`.`.`.`.`.`.`.`.`.`.`.`.`.`.`.`.`.`.`.`.`.`.`.`.`.`.`.`.`.`.`.`.`.`.`.`.`.`.`.`.`.`.`.`.`.`.`.`.`.`.`.`.`.`.",
"`.`.`.`.`.`.`.`.`.`.`.`.`.`.`.`.`.`.`.`.`.`.`.`.`.`.`.`.`.`.`.`.`.`.`.`.`.`.`.`.`.`.`.`.`.`.`.`.`.`.`.`.`.`.`.`.`.`.`.`.`.`.`.`.",
"`.`.`.`.`.`.`.`.`.`.`.`.`.`.`.`.`.`.`.`.`.`.`.`.`.u h h P =.2.l `.`.`.`.`.`.`.`.`.`.`.`.`.`.`.`.`.`.`.`.`.`.`.`.`.`.`.`.`.`.`.`.",
"`.`.`.`.`.`.`.`.`.`.`.`.`.`.`.`.`.`.`.`.`.`.9 h R $.q.s.f.v.V.b.r.9 `.`.`.`.`.`.`.`.`.`.`.`.`.`.`.`.`.`.`.`.`.`.`.`.`.`.`.`.`.`.",
"`.`.`.`.`.`.`.`.`.`.`.`.`.`.`.`.`.`.`.`.`.r W >.,.9.h.h.h.h.j.h.L.I.=.l `.`.`.`.`.`.`.`.`.`.`.`.`.`.`.`.`.`.`.`.`.`.`.`.`.`.`.`.",
"`.`.`.`.`.`.`.`.`.`.`.`.`.`.`.`.`.`.`.`.r R >.>.9.h.h.h.h.h.h.h.l.M.I.b.k `.`.`.`.`.`.`.`.`.`.`.`.`.`.`.`.`.`.`.`.`.`.`.`.`.`.`.",
"`.`.`.`.`.`.`.`.`.`.`.`.`.`.`.`.`.`.`.0 R ;.>.>.f.j.h.h.h.h.h.h.j.h.c.I.V.p `.`.`.`.`.`.`.`.`.`.`.`.`.`.`.`.`.`.`.`.`.`.`.`.`.`.",
"`.`.`.`.`.`.`.`.`.`.`.`.`.`.`.`.`.`.`.a %.>.;.a.h.h.h.j.h.h.h.j.j.h.h.M.I.z.`.`.`.`.`.`.`.`.`.`.`.`.`.`.`.`.`.`.`.`.`.`.`.`.`.`.",
"`.`.`.`.`.`.`.`.`.`.`.`.`.`.`.`.`.`.a $.>.>.>.9.h.h.h.h.j.h.h.j.h.h.h.l.L.L./ `.`.`.`.`.`.`.`.`.`.`.`.`.`.`.`.`.`.`.`.`.`.`.`.`.",
"`.`.`.`.`.`.`.`.`.`.`.`.`.`.`.`.`.i Y ;.>.>.>.9.h.h.h.a.a.B.C.B.c.h.h.h.L.I.y.`.`.`.`.`.`.`.`.`.`.`.`.`.`.`.`.`.`.`.`.`.`.`.`.`.",
"`.`.`.`.`.`.`.`.`.`.`.`.`.`.`.`.i L W >.>.>.;.1.k.h.9.H ;.8.f.v.I.c.j.h.L.I.I.s `.`.`.`.`.`.`.`.`.`.`.`.`.`.`.`.`.`.`.`.`.`.`.`.",
"`.`.`.`.`.`.`.`.`.`.`.`.`.`.`.`.a Y $.>.>.>.>.>.1.f.8.N V U :.a.m.L.x.h.V.I.I.s `.`.`.`.`.`.`.`.`.`.`.`.`.`.`.`.`.`.`.`.`.`.`.`.",
"`.`.`.`.`.`.`.`.`.`.`.`.`.`.`.u L R >.>.>.>.>.>.>.1.&.S A Z G ` u.v.l.h.h.I.I.w.`.`.`.`.`.`.`.`.`.`.`.`.`.`.`.`.`.`.`.`.`.`.`.`.",
"`.`.`.`.`.`.`.`.`.`.`.`.`.`.0 j L Y >.;.>.>.>.>.>.;.>.W J V C B 5.h.h.h.h.I.I.M.9 `.`.`.`.`.`.`.`.`.`.`.`.`.`.`.`.`.`.`.`.`.`.`.",
"`.`.`.`.`.`.`.`.`.`.`.`.`.`.0 L L R ;.;.%.;.>.>.R g g Y Y L L D H 9.h.h.j.v.I.n.9 `.`.`.`.`.`.`.`.`.`.`.`.`.`.`.`.`.`.`.`.`.`.`.",
"`.`.`.`.`.`.`.`.`.`.`.`.`.`.i L L L Y W R ;.;.T 8 7 o.y u u a L %.1.k.h.j.v.I.n.9 `.`.`.`.`.`.`.`.`.`.`.`.`.`.`.`.`.`.`.`.`.`.`.",
"`.`.`.`.`.`.`.`.`.`.`.`.`.`.h L L L L Y q.h.<.8.k F ' H.@.U.O.z j W <.f.h.h.B.n.9 `.`.`.`.`.`.`.`.`.`.`.`.`.`.`.`.`.`.`.`.`.`.`.",
"`.`.`.`.`.`.`.`.`.`.`.`.`.`.h L L L a 8.N.6.a.%.5.~ D ] [ +. .W.v ..W ;.8.q.q.q.9 `.`.`.`.`.`.`.`.`.`.`.`.`.`.`.`.`.`.`.`.`.`.`.",
"`.`.`.`.`.`.`.`.`.`.`.`.`.0 h L L h L N.x.2.s.;.R ( w.t d } } X.#.F.z L ;.;.;.a `.`.`.`.`.`.`.`.`.`.`.`.`.`.`.`.`.`.`.`.`.`.`.`.",
"`.`.`.`.`.`.`.`.`.`.`.`.`.i L L h j a.d.=.h.j.f.,.y h $.&.l z K | { D.e 9 9 5 `.`.`.`.`.`.`.`.`.`.`.`.`.`.`.`.`.`.`.`.`.`.`.`.`.",
"`.`.`.`.`.`.`.`.`.`.`.`.`.i L L u ,.6.=.j.j.V.N.E `.`.y g ^ 4.=.^ d 6 `.`.`.`.`.`.`.`.`.`.`.`.`.`.`.`.`.`.`.`.`.`.`.`.`.`.`.`.`.",
"`.`.`.`.`.`.`.`.`.`.`.`.`.i L L u ,.=.2.j.V.x.! `.`.`.`.`.`.r u u 0 `.`.`.`.`.`.`.`.`.`.`.`.`.`.`.`.`.`.`.`.`.`.`.`.`.`.`.`.`.`.",
"`.O X O & & & % `.`.`.`.5 a L L j Y 9.*.*.2.=.f `.`.`.`.`.`.r j Y Y `.`.`.`.`.`.`.`.`.`.`.`.`.`.`.`.`.`.`.`.`.`.`.`.`.`.`.`.`.`.",
"`.`.`.`.`.`.`.. . . o o $ 2 4 3 < 4 j 1.i.v.d.q 5 `.`.`.`.`.`.q R >.6.`.`.`.`.`.`.`.`.`.`.`.`.`.`.`.`.`.`.`.`.`.`.`.`.`.`.`.`.`.",
"`.`.`.`.`.9 `.`.`.`.y a 6.w 1 , 1 2 q Y 1.f.4 O = > `.`.`.`.`.`.r Y ,.-.r ^ =.`.`.`.`.`.`.`.`.`.`.`.`.`.`.`.`.`.`.`.`.`.`.`.`.`.",
"`.`.`.`.`.r a L 9 L &.c.C.a.h L %.>.>.R h ,./ f z . . X O @ ; # - 5 r r Y 0.v.p.`.`.`.`.`.`.`.`.`.`.`.`.x c x `.`.`.`.`.`.`.`.`.",
"`.`.`.`.`.`.a Y %.;.h.j.q.a h W ;.>.0.s g L *.2.m.k `.`.`.`.`.        = r $.q.p.2 = `.`.`.`.`.`.`.`.`.`.`.R.^.A.`.`.`.`.`.`.`.`.",
"`.`.`.`.`.`.`.u g R W W h i R >.8.0.v.s a g R 1.j.d.`.`.`.`.9 `.`.`.`.`.u q h ! `.`.X o @ $ $ $ $ # > 3 3 2 H.(.~.E.A.`.`.`.`.`.",
"`.`.`.`.`.`.`.`.`.r q r `.L ,.d.h.M.t.`.`.g R ;.8.c.^ `.p y *.u `.`.`.`.`.`.`.`.`.`.`.`.`.`.`.`.. . . o @ + n H././.).~.M `.`.`.",
"`.`.`.`.`.`.`.`.`.`.r y j <.f.k.y.r `.`.`.`.h ;.<.c.t.s r.^ a r `.`.`.`.`.`.`.`.`.`.`.`.`.`.`.`.`.`.`.`.o.o.K.J.J.Y.Q.!._.T.G.`.",
"`.`.`.`.`.`.`.`.`.0 h W <.f.M.! `.`.`.`.`.`.`.h ;.9.c.j.i.7.a r `.`.`.`.`.`.`.`.`.`.`.`.`.`.`.`.`.`.c c m m m m b O.O.O.Z.G.A.`.",
"`.`.`.`.`.`.`.`.`.0 L ;.6.*.=.9 `.`.`.`.`.`.`.i L ;.9.q.T 0 `.`.`.`.`.`.`.`.`.`.`.`.`.`.`.`.`.`.`.`.`.`.`.`.`.`.`.`.`.`.`.`.`.`.",
"`.`.`.`.`.`.`.`.`.`.r L *.2.k 9 `.`.`.`.`.`.`.`.i T W Y r `.`.`.`.`.`.`.`.`.`.`.`.`.`.`.`.`.`.`.`.`.`.`.`.`.`.`.`.`.`.`.`.`.`.`.",
"`.`.`.`.`.`.`.`.`.`.`.0 W j u 9 `.`.`.`.`.`.`.`.`.0 0 q `.`.`.`.`.`.`.`.`.`.`.`.`.`.`.`.`.`.`.`.`.`.`.`.`.`.`.`.`.`.`.`.`.`.`.`.",
"`.`.`.`.`.`.`.`.`.`.`.`.i a y `.`.`.`.`.`.`.`.`.`.`.`.`.`.`.`.`.`.`.`.`.`.`.`.`.`.`.`.`.`.`.`.`.`.`.`.`.`.`.`.`.`.`.`.`.`.`.`.`.",
"`.`.`.`.`.`.`.`.`.`.`.`.`.`.`.`.`.`.`.`.`.`.`.`.`.`.`.`.`.`.`.`.`.`.`.`.`.`.`.`.`.`.`.`.`.`.`.`.`.`.`.`.`.`.`.`.`.`.`.`.`.`.`.`."
};
