/* XPM */
static char *_817_2f7b516b803bf95e0d5dd9ed136771b8e1d07c4e2e2642a957f22ff86cdf8134[] = {
/* columns rows colors chars-per-pixel */
"64 64 162 2 ",
"   c #0C0400",
".  c #060200",
"X  c #150700",
"o  c #160800",
"O  c #1B0D00",
"+  c #1B1100",
"@  c #211400",
"#  c #251900",
"$  c #2B1A08",
"%  c #443300",
"&  c #4B3300",
"*  c #4A3902",
"=  c #543C03",
"-  c #523602",
";  c #772C01",
":  c #773A1D",
">  c #574100",
",  c #5B4501",
"<  c #5E4901",
"1  c #634D01",
"2  c #754301",
"3  c #665100",
"4  c #695400",
"5  c #6E5901",
"6  c #6C560B",
"7  c #725C01",
"8  c #7D5C00",
"9  c #745E0C",
"0  c #75491F",
"q  c #6D5B1E",
"w  c #745018",
"e  c #766101",
"r  c #7A6501",
"t  c #7E6801",
"y  c #7B640E",
"u  c #504620",
"i  c #655827",
"p  c #675A29",
"a  c #725E21",
"s  c #7F6C2E",
"d  c #7C6E33",
"f  c #76683A",
"g  c #8D1801",
"h  c #851E14",
"j  c #AF1201",
"k  c #B81F06",
"l  c #8C2601",
"z  c #9D2C03",
"x  c #8C3601",
"c  c #863A17",
"v  c #903615",
"b  c #A6260A",
"n  c #B72811",
"m  c #884601",
"M  c #854400",
"N  c #934E02",
"B  c #835F0F",
"V  c #925802",
"C  c #84471F",
"Z  c #836D00",
"A  c #836E0C",
"S  c #857102",
"D  c #8A7402",
"F  c #8D7903",
"G  c #8B760E",
"H  c #8E780D",
"J  c #937D03",
"K  c #836D12",
"L  c #8B7516",
"P  c #917C16",
"I  c #A47A08",
"U  c #834820",
"Y  c #8F4A24",
"T  c #934D2B",
"R  c #865920",
"E  c #995120",
"W  c #8C5E30",
"Q  c #A4572E",
"!  c #8A6D38",
"~  c #9E663A",
"^  c #8B793A",
"/  c #917A3A",
"(  c #847640",
")  c #877949",
"_  c #847A52",
"`  c #978103",
"'  c #9B8504",
"]  c #9E8804",
"[  c #99830B",
"{  c #9D8A19",
"}  c #9A8617",
"|  c #A28D05",
" . c #A28D0B",
".. c #A59005",
"X. c #A7920B",
"o. c #AA950B",
"O. c #AF9A0F",
"+. c #A28C1E",
"@. c #A99413",
"#. c #B39E13",
"$. c #B7A217",
"%. c #B7A21D",
"&. c #BAA51A",
"*. c #BEA91E",
"=. c #978329",
"-. c #A58E20",
";. c #AC9721",
":. c #AD9628",
">. c #A69022",
",. c #B59E25",
"<. c #BAA329",
"1. c #BDA823",
"2. c #C2AD1F",
"3. c #C1AB23",
"4. c #C2AB2B",
"5. c #C6B126",
"6. c #CAB427",
"7. c #CCB72C",
"8. c #CEB92C",
"9. c #D2BC2F",
"0. c #C1AE31",
"q. c #CCB531",
"w. c #D4BD33",
"e. c #D7C133",
"r. c #DBC533",
"t. c #DFC936",
"y. c #DEC739",
"u. c #E2CC37",
"i. c #E5CF39",
"p. c #E7D03A",
"a. c #EBD43C",
"s. c #EFD83E",
"d. c #F0D93E",
"f. c #938241",
"g. c #8C825D",
"h. c #9D8E54",
"j. c #A58851",
"k. c #A69455",
"l. c #AA9651",
"z. c #B2A15E",
"x. c #A0987A",
"c. c #B1A67B",
"v. c #D08054",
"b. c #C9B76C",
"n. c #CBB86C",
"m. c #CEBC73",
"M. c #CEBE7C",
"N. c #D0BD70",
"B. c #F4DD41",
"V. c #FEE645",
"C. c #ACA58B",
"Z. c #B2AB93",
"A. c #CABB82",
"S. c #DAC883",
"D. c #E8D68B",
"F. c #EEDC92",
"G. c #DAD3BA",
"H. c #FDEBA2",
"J. c #EFE4B6",
"K. c #FAEEBD",
"L. c #F5F1E0",
"P. c None",
/* pixels */
"P.P.P.P.P.P.P.P.P.P.P.P.P.P.P.P.P.P.P.P.P.P.P.P.P.P.P.P.P.P.P.P.P.P.P.P.P.P.P.P.P.P.P.P.P.P.P.P.P.P.P.P.P.P.P.P.P.P.P.P.P.P.P.P.",
"P.P.P.P.P.P.P.P.P.P.P.P.P.P.P.P.P.P.P.P.P.P.P.P.P.P.P.P.P.P.P.P.P.P.P.P.P.P.P.P.P.P.P.P.P.P.P.P.P.P.P.P.P.P.P.P.P.P.P.P.P.P.P.P.",
"P.P.P.P.P.P.P.P.P.P.P.P.P.P.P.P.P.P.P.P.P.P.P.P.P.P.P.P.P.P.P.P.P.P.P.P.P.P.P.P.P.P.P.P.P.P.P.P.P.P.P.P.P.P.P.P.P.P.P.P.P.P.P.P.",
"P.P.P.P.P.P.P.P.P.P.P.P.P.P.P.P.P.P.P.P.P.P.P.P.P.P.P.P.P.P.P.P.P.P.P.P.P.P.P.P.P.P.P.P.P.P.P.P.P.P.P.P.P.P.P.P.P.P.P.P.P.P.P.P.",
"P.P.P.P.P.P.P.P.P.P.P.P.P.P.P.P.P.P.P.P.P.P.P.P.P.P.P.P.P.P.P.P.P.P.P.P.P.P.P.P.P.P.P.P.P.P.P.P.P.P.P.P.P.P.P.P.P.P.P.P.P.P.P.P.",
"P.P.P.P.P.P.P.P.P.P.P.P.P.P.P.P.P.P.P.P.P.P.P.P.P.P.P.P.P.P.P.P.P.P.P.P.P.P.P.P.P.P.P.P.P.P.P.P.P.P.P.P.P.P.P.P.P.P.P.P.P.P.P.P.",
"P.P.P.P.P.P.P.P.P.P.P.P.P.P.P.P.P.P.P.P.P.P.P.P.P.P.P.P.P.P.P.P.P.P.P.P.P.P.P.P.P.P.P.P.P.P.P.P.P.P.P.P.P.P.P.P.P.P.P.P.P.P.P.P.",
"P.P.P.P.P.P.P.P.P.P.P.P.P.P.P.P.P.P.P.P.P.P.P.P.P.P.P.P.P.P.P.P.P.P.P.P.P.P.P.P.P.P.P.P.P.P.P.P.P.P.P.P.P.P.P.P.P.P.P.P.P.P.P.P.",
"P.P.P.P.P.P.P.P.P.P.P.P.P.P.P.P.P.P.P.P.P.P.P.P.P.P.P.P.P.P.P.P.P.P.P.P.P.P.P.P.P.P.P.P.P.P.P.P.P.P.P.P.P.P.P.P.P.P.P.P.P.P.P.P.",
"P.P.P.P.P.P.P.P.P.P.P.P.P.P.P.P.P.P.P.P.P.P.P.P.P.P.P.P.P.P.P.P.P.P.P.P.P.P.P.P.P.P.P.P.P.P.P.P.P.P.P.P.P.P.P.P.P.P.P.P.P.P.P.P.",
"P.P.P.P.P.P.P.P.P.P.P.P.P.P.P.P.P.P.P.P.P.P.P.P.P.P.P.P.P.P.P.P.P.P.P.P.P.P.P.P.P.P.P.P.P.P.P.P.P.P.P.P.P.P.P.P.P.P.P.P.P.P.P.P.",
"P.P.P.P.P.P.P.P.P.P.P.P.P.P.P.P.P.P.P.P.P.P.P.P.P.P.P.P.P.P.P.P.P.P.P.P.P.P.P.P.P.P.P.P.P.P.P.P.P.P.P.P.P.P.P.P.P.P.P.P.P.P.P.P.",
"P.P.P.P.P.P.P.P.P.P.P.P.P.P.P.P.P.P.P.P.P.P.P.P.P.P.P.P.P.P.P.P.P.P.P.P.P.P.P.P.P.P.P.P.P.P.P.P.P.P.P.P.P.P.P.P.P.P.P.P.P.P.P.P.",
"P.P.P.P.P.P.P.P.P.P.P.P.P.P.P.P.P.P.P.P.P.P.P.P.P.P.P.P.P.P.P.P.P.P.P.P.P.P.P.P.P.P.P.P.P.P.P.P.P.P.P.P.P.P.P.P.P.P.P.P.P.P.P.P.",
"P.P.P.P.P.P.P.P.P.P.P.P.P.P.P.P.P.P.P.P.P.P.P.P.P.P.P.P.P.P.P.P.P.P.P.P.P.P.P.P.P.P.P.P.P.P.P.P.P.P.P.P.P.P.P.P.P.P.P.P.P.P.P.P.",
"P.P.P.P.P.P.P.P.P.P.P.P.P.P.P.P.P.P.P.P.P.P.P.P.P.P.P.P.P.P.P.P.P.P.P.P.P.P.P.P.P.P.P.P.P.P.P.P.P.P.P.P.P.P.P.P.P.P.P.P.P.P.P.P.",
"P.P.P.P.P.P.P.P.P.P.P.P.P.P.P.P.P.P.P.P.P.P.P.P.P.P.P.P.P.P.P.P.P.P.P.P.P.P.P.P.P.P.P.P.P.P.P.P.P.P.P.P.P.P.P.P.P.P.P.P.P.P.P.P.",
"P.P.P.P.P.P.P.P.P.P.P.P.P.P.P.P.P.P.P.P.P.P.P.P.P.P.P.P.P.P.P.P.P.P.P.P.P.P.P.P.P.P.P.P.P.P.P.P.P.P.P.P.P.P.P.P.P.P.P.P.P.P.P.P.",
"P.P.P.P.P.P.P.P.P.P.P.P.P.P.P.P.P.P.P.P.P.P.P.P.P.P.P.P.P.P.P.P.P.P.P.P.P.P.P.P.P.P.P.P.P.P.P.P.P.P.P.P.P.P.P.P.P.P.P.P.P.P.P.P.",
"P.P.P.P.P.P.P.P.P.P.P.P.P.P.P.P.P.P.P.P.P.P.P.P.P.P.P.P.P.P.P.P.P.P.P.P.P.P.P.P.P.P.P.P.P.P.P.P.P.P.P.P.P.P.P.P.P.P.P.P.P.P.P.P.",
"P.P.P.P.P.P.P.P.P.P.P.P.P.P.P.P.P.P.P.P.P.P.P.P.P.P.P.P.P.P.P.P.P.P.P.P.P.P.P.P.P.P.P.P.P.P.P.P.P.P.P.P.P.P.P.P.P.P.P.P.P.P.P.P.",
"P.P.P.P.P.P.P.P.P.P.P.P.P.P.P.P.P.P.P.P.P.P.P.P.P.P.P.P.P.P.P.P.P.P.P.P.P.P.P.P.P.P.P.P.P.P.P.P.P.P.P.P.P.P.P.P.P.P.P.P.P.P.P.P.",
"P.P.P.P.P.P.P.P.P.P.P.P.P.P.P.P.P.P.P.P.P.P.P.P.P.P.P.P.P.P.P.P.P.P.P.P.P.P.P.P.P.P.P.P.P.P.P.P.P.P.P.P.P.P.P.P.P.P.P.P.P.P.P.P.",
"P.P.P.P.P.P.P.P.P.P.P.P.P.P.P.P.P.P.P.P.P.P.P.P.P.P.P.P.P.P.P.P.P.P.P.P.P.P.P.P.P.P.P.P.P.P.P.P.P.P.P.P.P.P.P.P.P.P.P.P.P.P.P.P.",
"P.P.P.P.P.P.P.P.P.P.P.P.P.P.P.P.P.P.P.P.P.P.P.P.P.P.P.P.P.P.P.P.P.P.P.P.P.P.P.P.P.P.P.P.P.P.P.P.P.P.P.P.P.P.P.P.P.P.P.P.P.P.P.P.",
"P.P.P.P.P.P.P.P.P.P.P.P.P.P.P.P.P.P.P.P.P.P.P.P.P.P.P.P.P.P.P.P.P.P.P.P.P.P.P.P.P.P.P.P.P.P.P.P.P.P.P.P.P.P.P.P.P.P.P.P.P.P.P.P.",
"P.P.P.P.P.P.P.P.P.P.P.P.P.P.P.P.P.P.P.P.P.P.P.P.P.P.P.P.P.P.P.P.P.P.P.P.P.P.P.P.P.P.P.P.P.P.P.P.P.P.P.P.P.P.P.P.P.P.P.P.P.P.P.P.",
"P.P.P.P.P.P.P.P.P.P.P.P.P.P.P.P.P.P.P.P.P.P.P.P.P.P.P.P.P.P.P.P.P.P.P.P.P.P.P.P.P.P.P.P.P.P.P.P.P.P.P.P.P.P.P.P.P.P.P.P.P.P.P.P.",
"P.P.P.P.P.P.P.P.P.P.P.P.P.P.P.P.P.P.P.P.P.P.P.P.P.P.P.P.P.P.P.P.P.P.P.P.P.P.P.P.P.P.P.P.P.P.P.P.P.P.P.P.P.P.P.P.P.P.P.P.P.P.P.P.",
"P.P.P.P.P.P.P.P.P.P.P.P.P.P.P.P.P.P.P.P.P.P.P.P.P.P.P.P.P.P.P.P.P.P.P.P.P.P.P.P.P.P.P.P.P.P.P.P.P.P.P.P.P.P.P.P.P.P.P.P.P.P.P.P.",
"P.P.P.P.P.P.P.P.P.P.P.P.P.P.P.P.P.P.P.P.P.P.P.P.P.P.P.P.P.P.P.P.P.P.P.P.P.P.P.P.P.P.P.P.P.P.P.P.P.P.P.P.P.P.P.P.P.P.P.P.P.P.P.P.",
"P.P.P.P.P.P.P.P.P.P.P.P.P.P.P.P.P.P.P.P.P.P.P.P.P.> > > > > P.P.P.P.P.P.P.P.P.P.P.P.P.P.P.P.P.P.P.P.P.P.P.P.P.P.P.P.P.P.P.P.P.P.",
"P.P.P.P.P.P.P.P.P.P.P.P.P.P.P.P.P.P.P.P.P.P.P.7 7 #.8.7.r.s.w.L P.P.P.P.P.P.P.P.P.P.P.P.P.P.P.P.P.P.P.P.P.P.P.P.P.P.P.P.P.P.P.P.",
"P.P.P.P.P.P.P.P.P.P.P.P.P.P.P.P.P.P.P.P.P.4 7 | #.7.7.7.8.7.u.B.4.L > P.P.P.P.P.P.P.P.P.P.P.P.P.P.P.P.P.P.P.P.P.P.P.P.P.P.P.P.P.",
"P.P.P.P.P.P.P.P.P.P.P.P.P.P.P.P.P.P.P.P.1 D | #.q.7.7.7.7.7.7.7.B.B.y.9 P.P.P.P.P.P.P.P.P.P.P.P.P.P.P.P.P.P.P.P.P.P.P.P.P.P.P.P.",
"P.P.P.P.P.P.P.P.P.P.P.P.P.P.P.P.P.P.P.1 Z ' | 2.7.7.7.7.7.7.7.7.7.r.V.w.9 P.P.P.P.P.P.P.P.P.P.P.P.P.P.P.P.P.P.P.P.P.P.P.P.P.P.P.",
"P.P.P.P.P.P.P.P.P.P.P.P.P.P.P.P.P.P.P.7 F | ..6.7.7.7.7.7.7.7.7.7.7.t.V.e.P.P.P.P.P.P.P.P.P.P.P.P.P.P.P.P.P.P.P.P.P.P.P.P.P.P.P.",
"P.P.P.P.P.P.P.P.P.P.P.P.P.P.P.P.P.P.7 F | ....$.7.7.7.8.7.7.7.7.7.7.9.B.B.L P.P.P.P.P.P.P.P.P.P.P.P.P.P.P.P.P.P.P.P.P.P.P.P.P.P.",
"P.P.P.P.P.P.P.P.P.P.P.P.P.P.P.P.P.7 Z ' ......o.3.7.7.7.r.s.i.7.7.7.8.p.V.<.P.P.P.P.P.P.P.P.P.P.P.P.P.P.P.P.P.P.P.P.P.P.P.P.P.P.",
"P.P.P.P.P.P.P.P.P.P.P.P.P.P.P.P.7 Z J | ........| 3.I J #.2.a.V.r.7.q.p.V.V.K P.P.P.P.P.P.P.P.P.P.P.P.P.P.P.P.P.P.P.P.P.P.P.P.P.",
"P.P.P.P.P.P.P.P.P.P.P.P.P.P.P.> Z Z ..............| x l V | &.r.V.e.7.p.V.V.K P.P.P.P.P.P.P.P.P.P.P.P.P.P.P.P.P.P.P.P.P.P.P.P.P.",
"P.P.P.P.P.P.P.P.P.P.P.P.P.P.P.7 Z D | ............| N j k b I &.e.e.7.8.B.V.{ P.P.P.P.P.P.P.P.P.P.P.P.P.P.P.P.P.P.P.P.P.P.P.P.P.",
"P.P.P.P.P.P.P.P.P.P.P.P.P.P.1 Z Z ' | | ........| | ' m z n g I *.7.7.7.V.V.B.> P.P.P.P.P.P.P.P.P.P.P.P.P.P.P.P.P.P.P.P.P.P.P.P.",
"P.P.P.P.P.P.P.P.P.P.P.P.P.P.4 Z Z ' | | ........' Z Z r 8 8 M l O.5.7.7.e.V.B.> P.P.P.P.P.P.P.P.P.P.P.P.P.P.P.P.P.P.P.P.P.P.P.P.",
"P.P.P.P.P.P.P.P.P.P.P.P.P.P.e S Z Z J ' ......' 2 a ! / l.q 5 r ` ] $.3.e.V.B.> P.P.P.P.P.P.P.P.P.P.P.P.P.P.P.P.P.P.P.P.P.P.P.P.",
"P.P.P.P.P.P.P.P.P.P.P.P.P., Z Z Z S D $.o...| D ; c 0 ! k.l.S.) 6 6 ] o.5.i.B.> P.P.P.P.P.P.P.P.P.P.P.P.P.P.P.P.P.P.P.P.P.P.P.P.",
"P.P.P.P.P.P.P.P.P.P.P.P.P., Z Z Z r o.8.6...F X.} B Q Y c U j.! F.S./ t ` O.8.> P.P.P.P.P.P.P.P.P.P.P.P.P.P.P.P.P.P.P.P.P.P.P.P.",
"P.P.P.P.P.P.P.P.P.P.P.P.P., Z Z r t 1.+.w.#.' t [ 4.=.w v.W v 0 z.( h.f.4 ` t P.P.P.P.P.P.P.P.P.P.P.P.P.P.P.P.P.P.P.P.P.P.P.P.P.",
"P.P.P.P.P.P.P.P.P.P.P.P.P.r D Z e S 4.P 9.p.2.F 4 D @.<.y E ~ E : P.i > > > P.P.P.P.P.P.P.P.P.P.P.P.P.p p g.P.P.P.P.P.P.P.P.P.P.",
"P.P.P.P.P.P.P.P.P.P.P.P.P.Z ] F 4 J 3.P P <.V.} 1 P.5 G #.{ s R T h P.P.P.P.P.= P.P.P.P.P.P.P.P.P.P.P.P.P._ Z.C.p P.P.P.P.P.P.P.",
"P.P.P.P.P.P.P.P.P.P.P.P.& t F e < ` 5 y 4.=.;.= P.P.P.P., < ;.;.= - & P.P.1 1 B.-.P.P.P.P.P.P.P.P.P.P.P.P.P.f K.L.G.^ _ P.P.P.P.",
"  X X X @ # # # # # # @ X X X   # S X.7.-.+   o o o # # # # # # @ o o o O r 7 3.r.*   X X o # # # # # + o $ ) D.D.F.H.J.c.Z.x.P.",
"P.P.P.P.P.% P.P.P.P.* < { 0.} S F r 7 J F > * P.P.P.P.P.P.% 4 4 e S S t 5 < S X.%., P.P.P.P.P.P.P.P.P.u p z.n.m.b.b.m.m.M.A._ P.",
"P.P.P.P.P.< 4 7 P.e J &.i.1.] ` ' ..] A e G 9 P.P.P.P.P.P.P.> > 5 5 e 5 < > 5 Z 5 P.P.P.P.P.P.P.P.P.p d f.f.f.f.d i i i i i P.P.",
"P.P.P.P.P.1 r F F o.*.7.*.J D S S ' | &.,.L P.P.P.P.P.P.P.P.P.P.P.P.P.P.P.P.P.P.P.P.P.P.P.P.P.P.P.P.P.P.P.P.P.P.P.P.P.P.P.P.P.P.",
"P.P.P.P.P.P.P.7 t ' ' ' F Z e t Z Z ' #.8.4.9 P.P.P.P.P.P.P.P.P.P.P.P.P.P.P.P.P.P.P.P.P.P.P.P.P.P.P.P.P.P.P.P.P.P.P.P.P.P.P.P.P.",
"P.P.P.P.P.P.P.P.3 3 3 3 4 4 7 4 7 Z Z ' #.u.q.P.P.P.P.P.P.> P.P.P.P.P.P.P.P.P.P.P.P.P.P.P.P.P.P.P.P.P.P.P.P.P.P.P.P.P.P.P.P.P.P.",
"P.P.P.P.P.P.P.P.P.1 Z Z Z D D Z e 7 Z S ] 6.a.q.y P.P.y K +.> P.P.P.P.P.P.P.P.P.P.P.P.P.P.P.P.P.P.P.P.P.P.P.P.P.P.P.P.P.P.P.P.P.",
"P.P.P.P.P.P.P.P.P.1 Z J ] ..| J t 1 4 e S  .5.u.,.,.,.=.H 7 > P.P.P.P.P.P.P.P.P.P.P.P.P.P.P.P.P.P.P.P.P.P.P.P.P.P.P.P.P.P.P.P.P.",
"P.P.P.P.P.P.P.P.P.P.7 ] $.A 1 1 < P.P.P.1 Z ] #.5.9.9.%.J 3 P.P.P.P.P.P.P.P.P.P.P.P.P.P.P.P.P.P.P.P.P.P.P.P.P.P.P.P.P.P.P.P.P.P.",
"P.P.P.P.P.P.P.P.P.P.4 Z X.r.K P.P.P.P.P.P.1 7 ' ..$.$.J 3 P.P.P.P.P.P.P.P.P.P.P.P.P.P.P.P.P.P.P.P.P.P.P.P.P.P.P.P.P.P.P.P.P.P.P.",
"P.P.P.P.P.P.P.P.P.P.P.3 J A { P.P.P.P.P.P.P.P.7 ' | J 3 P.P.P.P.P.P.P.P.P.P.P.P.P.P.P.P.P.P.P.P.P.P.P.P.P.P.P.P.P.P.P.P.P.P.P.P.",
"P.P.P.P.P.P.P.P.P.P.P.P.4 < t P.P.P.P.P.P.P.P.P.4 7 3 P.P.P.P.P.P.P.P.P.P.P.P.P.P.P.P.P.P.P.P.P.P.P.P.P.P.P.P.P.P.P.P.P.P.P.P.P.",
"P.P.P.P.P.P.P.P.P.P.P.P.P.> P.P.P.P.P.P.P.P.P.P.P.P.P.P.P.P.P.P.P.P.P.P.P.P.P.P.P.P.P.P.P.P.P.P.P.P.P.P.P.P.P.P.P.P.P.P.P.P.P.P."
};
