/* XPM */
static char *_7351_277e5888c7d1f1799526919b3199713a10f2c4a929bfd93fb5d885c372e88465[] = {
/* columns rows colors chars-per-pixel */
"64 64 176 2 ",
"   c black",
".  c #0E0700",
"X  c #140600",
"o  c #160A00",
"O  c #1C0A00",
"+  c #171000",
"@  c #1D1100",
"#  c #1E1A0B",
"$  c #260D00",
"%  c #280D00",
"&  c #251401",
"*  c #261B01",
"=  c #2E1E00",
"-  c #2A1100",
";  c #301D00",
":  c #272001",
">  c #3D2400",
",  c #3E2B00",
"<  c #362702",
"1  c #3F3718",
"2  c #5C1A00",
"3  c #452E00",
"4  c #4B3500",
"5  c #533B02",
"6  c #463D1C",
"7  c #7C2300",
"8  c #663400",
"9  c #4F4001",
"0  c #574100",
"q  c #5B4500",
"w  c #5F4900",
"e  c #634D01",
"r  c #644A0D",
"t  c #675101",
"y  c #6B5502",
"u  c #6F5901",
"i  c #685409",
"p  c #735D01",
"a  c #735D0B",
"s  c #784610",
"d  c #695616",
"f  c #766001",
"g  c #7B6501",
"h  c #7E6801",
"j  c #77610A",
"k  c #7B650E",
"l  c #7F690F",
"z  c #786313",
"x  c #655827",
"c  c #79682B",
"v  c #736634",
"b  c #796D42",
"n  c #8B0D00",
"m  c #951005",
"M  c #A20D00",
"N  c #8F2501",
"B  c #952C02",
"V  c #8D380F",
"C  c #A02206",
"Z  c #C02307",
"A  c #C62F11",
"S  c #884B01",
"D  c #974C02",
"F  c #885301",
"G  c #9A5A03",
"H  c #87421C",
"J  c #94451D",
"K  c #846702",
"L  c #836E00",
"P  c #826C0E",
"I  c #9D6904",
"U  c #867101",
"Y  c #8A7402",
"T  c #8F7902",
"R  c #86710B",
"E  c #927D02",
"W  c #917D0B",
"Q  c #846D12",
"!  c #8E6A15",
"~  c #877210",
"^  c #8C7513",
"/  c #947D19",
"(  c #A26B07",
")  c #8A4B21",
"_  c #944823",
"`  c #95532B",
"'  c #9F5D35",
"]  c #88572A",
"[  c #A7522F",
"{  c #BA5B39",
"}  c #8E723D",
"|  c #94763F",
" . c #897A44",
".. c #857951",
"X. c #978104",
"o. c #9B8504",
"O. c #9E8905",
"+. c #99840D",
"@. c #9E8908",
"#. c #9B8515",
"$. c #9B851B",
"%. c #998415",
"&. c #A18C05",
"*. c #A38E0B",
"=. c #A28204",
"-. c #A59005",
";. c #A79208",
":. c #AA950B",
">. c #AF9A0F",
",. c #A28C1B",
"<. c #A28D10",
"1. c #AC9714",
"2. c #A7911E",
"3. c #A8931A",
"4. c #B29D11",
"5. c #B29015",
"6. c #B6A116",
"7. c #B6A21C",
"8. c #B9A41A",
"9. c #BEA91E",
"0. c #B8A314",
"q. c #96823A",
"w. c #A68F21",
"e. c #AA9323",
"r. c #AB9421",
"t. c #B49D26",
"y. c #B6A027",
"u. c #B9A324",
"i. c #BCA52A",
"p. c #C2AD22",
"a. c #C3AD29",
"s. c #C7B227",
"d. c #CCB72C",
"f. c #CEB92D",
"g. c #D2BC2E",
"h. c #CBB430",
"j. c #D4BE31",
"k. c #D8C12B",
"l. c #D7C130",
"z. c #DAC433",
"x. c #DFC839",
"c. c #DFC935",
"v. c #E1CB36",
"b. c #E5CE39",
"n. c #E7D039",
"m. c #EBD43C",
"M. c #EFD83E",
"N. c #F1DA3F",
"B. c #988646",
"V. c #A18D4C",
"C. c #A8964D",
"Z. c #A19048",
"A. c #A08C53",
"S. c #AB9B54",
"D. c #A49251",
"F. c #B09C56",
"G. c #B4A15B",
"H. c #968E6C",
"J. c #A29A7C",
"K. c #BFAD66",
"L. c #C1AF68",
"P. c #C3B16A",
"I. c #F4DD41",
"U. c #FEE646",
"Y. c #AEA78D",
"T. c #B6AF91",
"R. c #DAC985",
"E. c #E3D185",
"W. c #EDDD9F",
"Q. c #C5C0AE",
"!. c #E1D8B6",
"~. c #ECE3BD",
"^. c #F7EAB5",
"/. c #DAD4C2",
"(. c #FEF7DA",
"). c None",
/* pixels */
").).).).).).).).).).).).).).).).).).).).).).).).).).).).).).).).).).).).).).).).).).).).).).).).).).).).).).).).).).).).).).).).",
").).).).).).).).).).).).).).).).).).).).).).).).).).).).).).).).).).).).).).).).).).).).).).).).).).).).).).).).).).).).).).).).",
").).).).).).).).).).).).).).).).).).).).).).).).).).).).).).).).).).).).).).).).).).).).).).).).).).).).).).).).).).).).).).).).",
").).).).).).).).).).).).).).).).).).).).).).).).).).).).).).).).).).).).).).).).).).).).).).).).).).).).).).).).).).).).).).).).",
").).).).).).).).).).).).).).).).).).).).).).).).).).).).).).).).).).).).).).).).).).).).).).).).).).).).).).).).).).).).).).).).",
").).).).).).).).).).).).).).).).).).).).).).).).).).).).).).).).).).).).).).).).).).).).).).).).).).).).).).).).).).).).).).).).",
").).).).).).).).).).).).).).).).).).).).).).).).).).).).).).).).).).).).).).).).).).).).).).).).).).).).).).).).).).).).).).).).",
").).).).).).).).).).).).).).).).).).).).).).).).).).).).).).).).).).).).).).).).).).).).).).).).).).).).).).).).).).).).).).).).",
").).).).).).).).).).).).).).).).).).).).).).).).).).).).).).).).).).).).).).).).).).).).).).).).).).).).).).).).).).).).).).).).",
").).).).).).).).).).).).).).).).).).).).).).).).).).).).).).).).).).).).).).).).).).).).).).).).).).).).).).).).).).).).).).).).",
").).).).).).).).).).).).).).).).).).).).).).).).).).).).).).).).).).).).).).).).).).).).).).).).).).).).).).).).).).).).).).).).",
").).).).).).).).).).).).).).).).).).).).).).).).).).).).).).).).).).).).).).).).).).).).).).).).).).).).).).).).).).).).).).).).",
").).).).).).).).).).).).).).).).).).).).).).).).).).).).).).).).).).).).).).).).).).).).).).).).).).).).).).).).).).).).).).).).",
").).).).).).).).).).).).).).).).).).).).).).).).).).).).).).).).).).).).).).).).).).).).).).).).).).).).).).).).).).).).).).).).",
").).).).).).).).).).).).).).).).).).).).).).).).).).).).).).).).).).).).).).).).).).).).).).).).).).).).).).).).).).).).).).).).",
").).).).).).).).).).).).).).).).).).).).).).).).).).).).).).).).).).).).).).).).).).).).).).).).).).).).).).).).).).).).).).).).",
").).).).).).).).).).).).).).).).).).).).).).).).).).).).).).).).).).).).).).).).).).).).).).).).).).).).).).).).).).).).).).).).",
").).).).).).).).).).).).).).).).).).).).).).).).).).).).).).).).).).).).).).).).).).).).).).).).).).).).).).).).).).).).).).).).",
").).).).).).).).).).).).).).).).).).).).).).).).).).).).).).).).).).).).).).).).).).).).).).).).).).).).).).).).).).).).).).).).",
").).).).).).).).).).).).).).).).).).).).).).).).).).).).).).).).).).).).).).).).).).).).).).).).).).).).).).).).).).).).).).).).",
").).).).).).).).).).).).).).).).).).).).).).).).).).).).).).).).).).).).).).).).).).).).).).).).).).).).).).).).).).).).).).).).",
").).).).).).).).).).).).).).).).).).).).).).).).).).).).).).).).).).).).).).).).).).).).).).).).).).).).).).).).).).).).).).).).",
").).).).).).).).).).).).).).).).).).).).).).).).).).).).).).).).).).).).).).).).).).).).).).).).).).).).).).).).).).).).).).).).",
").).).).).).).).).).).).).).).).).).).).).).).).).).).).).).).).).).).).).).).).).).).).).).).).).).).).).).).).).).).).).).).).",
").).).).).).).).).).).).).).).).).).).).).).).).).).).).).).).).).).).).).).).).).).).).).).).).).).).).).).).).).).).).).).).).",
").).).).).).).).).).).).).).).).).).).).).).).).).).).).).).).).).).).).).).).).).).).).).).).).).).).).).).).).).).).).).).).).",
").).).).).).).).).).).).).).).).).).).).).).).).).).).).).).).).).).).).).).).).).).).).).).).).).).).).).).).).).).).).).).).).",
").).).).).).).).).).).).).).).).).).).).).).).).).).).).).).).).).).).).).).).).).).).).).).).).).).).).).).).).).).).).).).).).",
").).).).).).).).).).).).).).).).).).).).).).).).).y y y k Q Q ).).).).).).).).).).).).).).).).).).).).).).).).).).).).).).).).).",
").).).).).).).).).).).).).).).).).).).).).).).h h &.6.0.g.n.I.r.Q ).).).).).).).).).).).).).).).).).).).).).).).).).).).).).).).",
").).).).).).).).).).).).).).).).).).).).).y E -.;.u.f.f.d.d.g.b.I.h.e ).).).).).).).).).).).).).).).).).).).).).).).).).).).).).",
").).).).).).).).).).).).).).).).).).).).y o.&.:.p.d.f.f.d.d.d.d.z.I.U.t.).).).).).).).).).).).).).).).).).).).).).).).).).).).).",
").).).).).).).).).).).).).).).).).).).t X.-.-.>.d.d.d.d.d.d.d.d.d.h.M.U.w.).).).).).).).).).).).).).).).).).).).).).).).).).).).",
").).).).).).).).).).).).).).).).).).).g &.-.-.s.d.d.d.d.d.d.d.d.d.d.d.I.U./ ).).).).).).).).).).).).).).).).).).).).).).).).).).",
").).).).).).).).).).).).).).).).).).h &.-.&.-.g.d.d.d.d.d.d.d.d.d.d.d.c.U.h.).).).).).).).).).).).).).).).).).).).).).).).).).).",
").).).).).).).).).).).).).).).).).p E -.-.-.&.g.d.f.d.d.g.M.M.d.d.d.d.j.U.U.k ).).).).).).).).).).).).).).).).).).).).).).).).).",
").).).).).).).).).).).).).).).).p L -.-.-.-.-.p.d.s.5.=.:.p.b.U.m.f.d.f.U.U.v.0 ).).).).).).).).).).).).).).).).).).).).).).).).",
").).).).).).).).).).).).).).).e U L -.-.-.-.-.:.p.s.G N D ;.4.g.I.n.d.f.U.U.x.0 ).).).).).).).).).).).).).).).).).).).).).).).).",
").).).).).).).).).).).).).).0 g L o.;.-.-.-.-.-.:.8.F M Z C ( 4.d.m.d.d.v.U.b.a ).).).).).).).).).).).).).).).).).).).).).).).).",
").).).).).).).).).).).).).).t K L O.-.-.-.-.&.-.-.&.&.S B A m I 9.d.d.d.x.U.U.t.).).).).).).).).).).).).).).).).).).).).).).).).",
").).).).).).).).).).).).).).p Y L O.;.&.-.-.-.-.X.T Y U K F S n ( d.d.d.g.N.U.t.).).).).).).).).).).).).).).).).).).).).).).).).",
").).).).).).).).).).).).).e f L L L o.T E -.;.K 8 r z f f f K Y @.p.d.d.d.m.U.t.).).).).).).).).).).).).).).).).).).).).).).).).",
").).).).).).).).).).).).).t L L L L L T 6.>.&.^ 7 H B.c q.F.z g E ;.i.d.f.z.U.y.).).).).).).).).).).).).).).).).).).).).).).).).",
").).).).).).).).).).).).).e L L L K g 9.g.a.>.:.^ V ) _  .V.D.F.i Y -.:.s.s.g.r.).).).).).).).).).).).).).).).).).).).).).).).).",
").).).).).).).).).).).).).e L L L e 4.I.t.2.4.E %.^ ! J ` [ ' | | q.g o.;.-.@.f ).).).).).).).).).).).).).).).).).).).).).).).).",
").).).).).).).).).).).).q g L L p L g.a.2.g.p.&.L P *.,.r s ] { { A.B.i u u u ).).).).).).).).).).).).).).).).).).).).).).).).).",
").).).).).).).).).).).).q L L h h :.t.2.f.g.z.z.f 0 0 L +.7.Q a d J 2 ).).).).).).).).).).).).).).).).).).).).).).).).).).).).).",
").).).).).).).).).).).).q L L h g p.k d.g.N.m.Q ).).).).).u R ^ i q ).).).).).).).).).).).).).).).).).).).).).).).).).).).).).).",
"% $ % , , , ).).).).).).e L Y h f :.,.,.a.i.l ).).).).).).).p h h e ).).).).).).).).).).).).).).).).).).).).).).).).).).).).).).",
").          X o O & : : 5 e p u e g 9.#.%.y.t.0 ).).).).).).q f X.&.k ).).).).).).).).).).).).).).).).).).).).).).).).).).).).).",
").).).).).).).).).)., q * . o O + + h >.l.i.5 > 4 ).).).).).).e K ;.3.a ).0 0 ).).).).).).).).).).).).).).).).).).).).).).).).).",
").).).).0 e t ).t y :.k.d.7.W h h g g h *.$.< : O $ O ; < > ).).5 g Y Y P z.j.k ).).).).).).).).).).).x x ).).).).).).).).).).).",
").).).).).p Y L Y 4.v.d.3.@.Y L Y Y L f p 6.k o.0 . ).).).).o X @ * O 4 Y 4.d.w.> ).).).).).).).).).).).x Y.Y.).).).).).).).).).",
").).).).).).p U E ;.4.@.u Y L Y &.O.X.U ,.u Y >.~ ).).).).).).).).).).0 p Y >.%.@ o % - 3 3 3 3 ).).).).).b W.!.b v ).).).).).).",
").).).).).).).q p p p t q L L E -.-.:.3.p E *.f.2.).).).).).).).).).).).0 0 0 ).).).            o O * = : $  .R.(.(.T.H.).).).).",
").).).).).).).).).).).).).p L &.;.0.p.^ t Y &.8.d.a ).).).).).).).).).).).).).).).).).).).).).).).).).* 6 6 S.P.E.E.^.~.Q.b ).).",
").).).).).).).).).).).).).t L &.6.d.d.L g p h X.h ).).).).).).).).).).).).).).).).).).).).).).).).x x v V.Z.C.C.S.L.L.P.R./.Y.x ",
").).).).).).).).).).).).).t T ;.u.x.$.p g R i Q ).).).).).).).).).).).).).).).).).).).).).).).).).).).).).).).).).).).).).).).).",
").).).).).).).).).).).).).e o.:.d.I.e ).i g p a ).).).).).).).).).).).).).).).).).).).).).).).).).).).).).).).).).).).).).).).).",
").).).).).).).).).).).).).e o.:.d.I.w.0 0 ).).).).).).).).).).).).).).).).).).).).).).).).).).).).).).).).).).).).).).).).).).).",
").).).).).).).).).).).).).t o.;.9.z.#.+.i ).).).).).).).).).).).).).).).).).).).).).).).).).).).).).).).).).).).).).).).).).).).",
").).).).).).).).).).).).).e L O.:.u.p j $.).).).).).).).).).).).).).).).).).).).).).).).).).).).).).).).).).).).).).).).).).).).",
").).).).).).).).).).).).).).y p L L L <.e ).).).).).).).).).).).).).).).).).).).).).).).).).).).).).).).).).).).).).).).).).).).",
").).).).).).).).).).).).).).).).).).).t ).).).).).).).).).).).).).).).).).).).).).).).).).).).).).).).).).).).).).).).).).).).)."
};
